<svg xmlns="http://www.w3.org/2000/svg" viewBox="0 0 1606.58 2784.38"><defs><style>.cls-1{fill:#222221;}</style></defs><title>logo-zwart</title><g id="Laag_2" data-name="Laag 2"><g id="Laag_1-2" data-name="Laag 1"><path class="cls-1" d="M1600,1556.22a.72.72,0,0,1-.53.28c-20.77.1-14-44.66-24.46-71-29-72.65-118.67-73.88-115.86-78.22,2.12-3.55,89.58.24,129.39,62.58C1605.24,1496,1613.14,1556.5,1600,1556.22Z"/><path class="cls-1" d="M1112.57,2592.67c-7.27.33,39.57-.49,55.12-3.93,6.08-1.35,78.29,178.64,98.15,179.63S1329.49,2543,1329.49,2543s11.26-2.19,20.92-17.88c12.33-20,10.21-37.89,10.21-37.89a16.72,16.72,0,0,0,7.82,1.26c3.11,8,4.48,27.28-11.25,48.21-4.71,6.28-14.21,11.86-14.21,11.86l-3.49,11.91s-49.65,228.44-79.44,223.8-97.14-177.79-115.53-180.87c-12.1-2-14-2-14-2Z"/><path class="cls-1" d="M325.49,463.92s9.78-62.09,48.23-48.23a158.23,158.23,0,0,0,97.57,3.43c24.34-6.95,74.19-61.41,12.75-98.51s-40.35-12.53-70,13.44S328.77,359.61,314,374.59,279.18,440.53,325.49,463.92Z"/><path class="cls-1" d="M114.38,1042.37c1.21-25.35,25.36-55.54,50.72-55.54,35,0,47.1,35,47.1,62.8,0,25.35-20.53,42.26-20.53,64,0,49.52,47.1,74.88,89.36,74.88,43.48,0,77.29-19.33,87-64V983.2c0-93,1.22-170.28-4.82-262.07,2.42-45.88-62.8-43.46-74.87-37.43-7.26-4.83-10.88-9.67-10.88-18.11V548.44c0-8.46,3.62-12.08,12.08-12.08,21.73,0,176.32-4.82,211.34-4.82H531c2.42,27.77,3.62,85.73,3.62,124.38v13.29L531,672.83c-21.73,2.42-65.21,0-73.67,30.19v396.13c-2.41,141.29-8.44,240.31-171.48,240.31-137.68,0-171.49-112.3-171.49-234.28Zm25.36,60.4c2.41,8.45,3.62,30.19,3.62,30.19l9.66,4.82c1.22-8.44,3.62-24.15,3.62-35-6,0-13.28,0-16.9-3.62v3.62Zm3.62-36.23c2.42,0,2.42-4.84,0-4.84C142.15,1061.7,142.15,1066.54,143.36,1066.54ZM156.64,1081v13.29c8.46-8.46,13.29-21.73,13.29-33.82C156.64,1064.12,156.64,1068.94,156.64,1081Zm8.46,68.85a1.82,1.82,0,0,0,0-3.64A1.82,1.82,0,0,0,165.1,1149.87Zm0,73.66c0,2.41,4.83,2.41,4.83,0S165.1,1221.12,165.1,1223.53Zm4.83-55.55,3.62-4.83h-3.62Zm3.62-140.09c2.42,0,2.42-4.83,0-4.83C172.35,1023.06,172.35,1027.89,173.55,1027.89Zm4.84,4.83c2.4,0,2.4-4.83,0-4.83S176,1032.72,178.39,1032.72Zm0,9.65,3.62-3.62h-3.62Zm8.45,228.26c0,2.41,4.83,2.41,4.83,0S186.84,1268.21,186.84,1270.63Zm16.9-41.07a1.81,1.81,0,1,0,0-3.62C202.54,1225.94,202.54,1229.56,203.74,1229.56Zm4.84,65.22c2.42,0,2.42-4.83,0-4.83S206.16,1294.78,208.58,1294.78Zm0-58h3.62v-9.66Zm13.28-18.12,3.62-3.63c-2.41-4.82-3.62-4.82-6-4.82H217ZM217,1279.08h4.83v-3.62Zm0,8.46c0,2.41,4.83,2.41,4.83,0C221.86,1286.32,217,1286.32,217,1287.54Zm25.36-30.19v-3.62h-8.46Zm-3.62,13.28a1.81,1.81,0,1,0,0-3.62A1.81,1.81,0,1,0,238.77,1270.63Zm8.45-49.51a1.82,1.82,0,0,0,0-3.63A1.82,1.82,0,0,0,247.22,1221.12Zm0,51.92c2.42,0,2.42-4.83,0-4.83S244.81,1273,247.22,1273Zm16.91,10.88c0,2.4,4.83,2.4,4.83,0S264.13,1281.5,264.13,1283.92Zm4.83-38.65c0,1.2,3.62,1.2,3.62,0A1.81,1.81,0,1,0,269,1245.27ZM397,819h13.29c-3.63-1.21-6-3.62-10.87-3.62H397Zm4.83,183.57c2.42,0,2.42-4.84,0-4.84S399.39,1002.53,401.8,1002.53Zm13.28-131.64V849.15H401.8C401.8,856.4,412.67,868.48,415.08,870.89Zm-8.45,107.48c1.21,2.42,6-2.41,3.63-3.62A2.56,2.56,0,0,0,406.63,978.37Zm0,77.29c1.21,2.42,6-2.41,3.63-3.62A2.56,2.56,0,0,0,406.63,1055.66Zm0-13.29h12.09v-8.44Zm16.91-85.73v-8.46c0-3.62,2.42-14.49-8.46-13.29v4.84C415.08,945.77,416.3,950.6,423.54,956.64Zm0,95.4h3.62v-9.67C423.54,1044.79,423.54,1047.21,423.54,1052Z"/><path class="cls-1" d="M515.26,919.08c0-31-5.17-94,14.45-121.84,17.55-20.65,56.8,3.09,78.47-12.39C629.87,772.46,654.65,663,668.08,630c17.55-45.43,143.51-384.1,161.07-386.17,40.27-1,88.79-8.26,129.06-8.26,33,0,121.84-8.25,150.75,13.42,19.62,13.42,33,87.77,40.27,108.42,12.39,36.14,166.23,436.76,179.66,436.76h70.21c4.13,0,8.27,11.36,8.27,11.36V953.15c0,16.52-42.34,11.36-43.38,11.36h-24.77c-5.16-8.27-8.27-8.27-16.53-8.27-5.16,0-8.25,0-12.39,8.27-34.07,0-190,5.16-225.08,5.16h-54.73c-34.07,0-112.55-5.16-112.55-5.16l-3.09-3.1v-159c0-5.16,10.32-8.26,10.32-8.26s30-2.06,42.33-5.16c7.23,0,36.15-4.13,43.38-4.13v-6.2c5.16-47.49-38.22-42.33-70.22-40.26-44.4,0-71.24,0-115.65,5.16-18.58,6.19-20.65,28.91-20.65,48.53h96V964.51s-25.81,5.16-34.07,5.16H716.6c-27.88,0-154.88-5.16-182.76-5.16C517.32,959.35,515.26,937.66,515.26,919.08Zm148.68-14.46c2.07,0,2.07-4.13,0-4.13C662.91,900.49,662.91,904.62,663.94,904.62Zm4.14,4.13c2,0,2-4.13,0-4.13S666,908.75,668.08,908.75ZM683.56,678.5c2.07,0,2.07-4.14,0-4.14A2.08,2.08,0,1,0,683.56,678.5ZM687.69,663h7.23l-4.13-3.1Zm14.45,13.42h2.07c3.1,0,3.1,0,5.16-5.16,0-1-5.16-3.1-7.23-3.1s-9.29,2.07-11.35,3.1C692.85,671.27,700.08,676.43,702.14,676.43ZM694.92,884c2.06,0,2.06-5.16,0-5.16S692.85,884,694.92,884ZM698,862.28a1.55,1.55,0,1,0,0-3.09C697,859.19,697,862.28,698,862.28Zm4.13-234.38c2.07,0,2.07-5.16,0-5.16S700.08,627.9,702.14,627.9Zm3.1,99.12h2.07c4.13,0,7.23-5.16,9.29-9.29H705.24l4.13,4.13Zm4.13,102.22c2.07,0,2.07-4.12,0-4.12S707.31,829.24,709.37,829.24Zm0,18.59h4.14l-4.14-4.13Zm4.14-214.77c1,0,1-5.16,0-5.16C711.44,627.9,711.44,633.06,713.51,633.06Zm0-32c1,2.06,5.16-2.07,3.09-5.16C714.54,593.83,711.44,599,713.51,601.06Zm3.09,221a2.08,2.08,0,1,0,4.13,0C720.73,821,716.6,821,716.6,822Zm4.13,40.26a1.54,1.54,0,1,0,0-3.09A1.54,1.54,0,0,0,720.73,862.28Zm3.1,42.34c2.06,0,2.06-4.13,0-4.13C722.79,900.49,722.79,904.62,723.83,904.62ZM728,870.55a1.55,1.55,0,0,0,0-3.1A1.55,1.55,0,1,0,728,870.55Zm0,58.85a1.55,1.55,0,0,0,0-3.09A1.55,1.55,0,1,0,728,929.4Zm3.09-85.7c2.07,0,2.07-4.13,0-4.13C730,839.57,730,843.7,731.05,843.7Zm0,15.49v1l4.14-8.27C731.05,854,731.05,856.09,731.05,859.19Zm4.14-58.86c2.06,0,2.06-5.16,0-5.16S733.12,800.33,735.19,800.33Zm0,18.59c7.22-5.17,21.68-10.33,26.85-13.42l-4.14-20.65h-1c-7.23,0-14.46,10.32-14.46,10.32h10.33c-8.26,2.07-4.13,13.42-17.55,13.42ZM749.64,854c3.1,0,3.1-3.1,0-3.1A1.55,1.55,0,0,0,749.64,854Zm0-320.09h5.17V517.42Zm5.17,403.72a1.54,1.54,0,1,0,0-3.09A1.54,1.54,0,1,0,754.81,937.66Zm10.32-56.78a1.56,1.56,0,0,0,0-3.11C764.09,877.77,764.09,880.88,765.13,880.88Zm4.12-129.07c2.07,0,2.07-5.17,0-5.17S767.2,751.81,769.25,751.81Zm0,136.29c2.07,0,2.07-4.13,0-4.13S767.2,888.1,769.25,888.1ZM773.39,821c1,0,1-4.12,0-4.12C771.32,816.86,771.32,821,773.39,821Zm0-56.78h3.09l-3.09-4.14Zm7.23,48.53c1,0,1-4.14,0-4.14C778.55,808.59,778.55,812.73,780.62,812.73Zm3.09-357.26c2.07,0,2.07-4.13,0-4.13S781.65,455.47,783.71,455.47Zm0,21.68c2.07,0,2.07-5.16,0-5.16S781.65,477.15,783.71,477.15Zm4.14,3.1a1.55,1.55,0,0,0,0-3.1A1.55,1.55,0,1,0,787.85,480.25Zm3.09,378.94c2.07,0,2.07-5.16,0-5.16C789.91,854,789.91,859.19,790.94,859.19ZM806.43,439c0-2.07,0-10.32-4.13-10.32-2.06,0-7.22,2.06-7.22,4.12C797.13,439,804.36,439,806.43,439Zm-11.35,70.21L802.3,504l-7.22-8.25Zm3.09,33L802.3,537l-7.22-3.1V536C795.08,537,795.08,539.1,798.17,542.2Zm4.13-62a1.55,1.55,0,0,0,0-3.1A1.55,1.55,0,0,0,802.3,480.25Zm0,239.54a1.54,1.54,0,1,0,0-3.09A1.54,1.54,0,1,0,802.3,719.79Zm7.23-83.63a1.55,1.55,0,0,0,0-3.1A1.55,1.55,0,0,0,809.53,636.16ZM825,491.61c2.07,0,16.53-6.2,18.59-8.26h-7.22c2.06-1,7.22-6.2,7.22-8.26,0-3.1-2.06-8.26-3.1-8.26l-26.84,12.39C813.66,480.25,824,491.61,825,491.61Zm-8.26,60.92c2.07,0,2.07-5.17,0-5.17S814.69,552.53,816.75,552.53Zm0,115.64h5.17v-8.26C816.75,660.94,816.75,663,816.75,668.17Zm5.17-107.38c2.06,0,2.06-5.16,0-5.16C818.82,555.63,818.82,560.79,821.92,560.79Zm0,91.89a1.54,1.54,0,1,0,0-3.09C818.82,649.59,818.82,652.68,821.92,652.68Zm1-182.75c6.19-5.17,11.35-2.07,13.42-11.36h-4.14Zm2,107.38a1.55,1.55,0,1,0,0-3.1C824,574.21,824,577.31,825,577.31Zm0,8.25a1.55,1.55,0,1,0,0-3.09C824,582.47,824,585.56,825,585.56Zm0-85.69c2.07,2.07,6.2-2.07,4.14-4.13S824,497.8,825,499.87Zm0,171.4a2.08,2.08,0,1,0,4.14,0C829.15,670.24,825,670.24,825,671.27Zm4.14-187.92c-2.07,0-2.07-4.13,0-4.13S831.21,483.35,829.15,483.35Zm0,169.33a1.54,1.54,0,0,0,0-3.09A1.54,1.54,0,1,0,829.15,652.68Zm0,251.94c2.06,0,2.06-4.13,0-4.13S827.08,904.62,829.15,904.62Zm0-610.22h126C953.05,281,934.46,299.56,929.3,281l4.13-3.11c-2.07-2.06-15.49-4.12-18.58-4.12-4.13,0-9.3,4.12-11.36,7.23v-5.17H892.13v-2.06c-11.36,0-24.78,12.39-37.17,12.39V281C849.8,288.2,825,279.94,829.15,294.4Zm0,348H855l3.09-4.13c-5.16,3.09-10.32,0-14.45-4.13l7.23-8.27-3.1-4.12Zm3.09,199.27c2.07,0,2.07-4.12,0-4.12C831.21,837.51,831.21,841.63,832.24,841.63Zm0-264.32v10.32h7.23C835.34,586.6,833.28,582.47,832.24,577.31Zm0,99.12c0,2.07,4.14,2.07,4.14,0S832.24,674.36,832.24,676.43Zm4.14-148.68c2.06,0,2.06-5.16,0-5.16S834.31,527.75,836.38,527.75Zm0,364.48c2.06,0,2.06-4.13,0-4.13S834.31,892.23,836.38,892.23Zm0-60.92h4.12v-4.12Zm4.12-142.49c3.1-2.07,3.1-4.12,3.1-9.3h-3.1Zm3.1-146.62h4.13V537H843.6Zm4.13-83.63h18.59l-4.13-5.17c9.29-2.06,18.58-8.26,18.58-20.65v-4.12C866.32,434.82,858.05,450.3,847.73,458.57Zm3.1-182.76c2.06,0,2.06-5.16,0-5.16C849.8,270.65,849.8,275.81,850.83,275.81Zm0,244.71,7.22-3.1h-1C855,517.42,852.89,517.42,850.83,520.52Zm15.49,390.29V899.46c-4.13,1-9.3,3.09-11.36,8.26C858.05,908.75,862.19,910.81,866.32,910.81ZM858.05,329.5a1.55,1.55,0,1,0,0-3.09C857,326.41,857,329.5,858.05,329.5Zm17.56,281.89c26.85,0,67.12-4.14,83.63-5.17V589.7c0-15.49-36.13-111.52-43.36-111.52-28.91,0-56.79,95-56.79,117.72C859.09,607.25,866.32,611.39,875.61,611.39Zm-13.42-88.8c2.06,0,2.06-4.14,0-4.14S860.12,522.59,862.19,522.59Zm0-185.86h7.23V332.6Zm4.13,519.36h3.1V852h-3.1Zm3.1-352.1h7.23l-7.23-4.12Zm7.23,180.71c2.06,0,4.12-2.07,4.12-5.18-6.19-1-11.35-9.28-7.22-16.51-4.13,5.16-4.13,8.26-4.13,13.42C869.42,682.63,869.42,684.7,876.65,684.7Zm-7.23,246.77a4.45,4.45,0,0,0,4.13-4.13c0-1-2.07-8.26-4.13-8.26Zm4.13-276.72h7.22c5.16,0,22.72-16.52,22.72-24.78,0-2.07-2.07-4.14-3.1-4.14Zm3.1-167.27c2.06,3.09,9.28,3.09,11.35,0C891.09,485.41,874.58,485.41,876.65,487.48Zm7.23-40.27c2,0,2-4.14,0-4.14C882.84,443.07,882.84,447.21,883.88,447.21Zm8.25,212.7c2.07,1,6.19-2.06,4.13-5.16C894.2,652.68,891.09,657.85,892.13,659.91Zm4.13-241.61c2.06,0,2.06-5.16,0-5.16S894.2,418.3,896.26,418.3Zm4.13,282.91h7.23v-4.13C903.49,697.08,901.42,697.08,900.39,701.21Zm3.1-337.64c2.06,0,2.06-4.12,0-4.12S901.42,363.57,903.49,363.57Zm7.23,269.49c2.06,0,2.06-5.16,0-5.16S908.65,633.06,910.72,633.06Zm0,55.76c2.06,2.07,6.2-2.07,4.13-4.12S908.65,686.75,910.72,688.82Zm4.13-34.07v-3.1h-4.13Zm0-370.68c-2.07,0-2.07-4.13,0-4.13S916.92,284.07,914.85,284.07Zm7.23,5.16c-2.07,3.1-2.07-9.29,0-8.25C924.14,284.07,924.14,288.2,922.08,289.23Zm0,353.13c2.06,2.07,5.16-1,3.09-4.13C924.14,636.16,920,641.32,922.08,642.36Zm14.45-22.72c2.06,0,2.06-5.16,0-5.16S934.46,619.64,936.53,619.64Zm7.23,51.63c2.06-1,2.06-5.17,0-8.26C941.69,660.94,941.69,674.36,943.76,671.27Zm7.23,160V822h-7.23C943.76,827.19,947.89,831.31,951,831.31Zm-7.23,68.15h2.06c7.23,0,17.56-5.16,17.56-13.42v-5.16Zm11.36-420.24c0,1,3.09,1,3.09,0A1.55,1.55,0,1,0,955.12,479.22Zm3.09-141.46c3.1,0,3.1-3.09,0-3.09C957.18,334.67,957.18,337.76,958.21,337.76Zm5.17-49.56c2.06,0,2.06-4.13,0-4.13S961.31,288.2,963.38,288.2ZM967.5,852v-4.13h-4.12Zm0-562.73h7.23v-3.09Zm3.11,57.83c2,0,2-4.14,0-4.14S968.54,347.06,970.61,347.06Zm0,96c2,0,2-4.12,0-4.12S968.54,443.07,970.61,443.07Zm0,36.15c2,2.06,7.23,11.35,11.35,11.35V479.22Zm7.23,364.48c2,2.07,6.19-2.07,4.12-4.13S976.8,841.63,977.84,843.7ZM982,329.5a1.55,1.55,0,1,0,0-3.09A1.55,1.55,0,1,0,982,329.5Zm0,13.42c2.07,0,2.07-5.16,0-5.16S979.89,342.92,982,342.92Zm0-48.52a1.54,1.54,0,1,0,3.09,0A1.54,1.54,0,1,0,982,294.4Zm7.23,35.1a1.55,1.55,0,1,0,0-3.09A1.55,1.55,0,1,0,989.19,329.5Zm0,145.59h7.23V471Zm0,12.39c4.13,0,7.23-2.07,11.35-4.13H989.19Zm4.13-191c3.1,0,16.52-2.06,17.56-2.06,2,0,4.12-2.07,4.12-5.17H993.32ZM996.42,884c2.06,0,2.06-5.16,0-5.16S994.35,884,996.42,884Zm4.12,4.13c1,0,1-4.13,0-4.13C998.48,884,998.48,888.1,1000.54,888.1Zm0,8.26c1,0,1-4.13,0-4.13C998.48,892.23,998.48,896.36,1000.54,896.36Zm3.11-524.53c2.06,0,2.06-4.12,0-4.12S1001.58,371.83,1003.65,371.83Zm0,86.74h4.12c10.33,0,30-8.27,30-23.75v-6.19C1022.23,434.82,1015,450.3,1003.65,458.57Zm7.23,392.36c2,0,2-5.16,0-5.16C1009.84,845.77,1009.84,850.93,1010.88,850.93Zm0,57.82c2,0,2-4.13,0-4.13C1009.84,904.62,1009.84,908.75,1010.88,908.75Zm0-547.24A22.82,22.82,0,0,0,1026.36,345Zm11.35,494.58V843.7L1015,852C1017.07,856.09,1018.1,856.09,1022.23,856.09Zm-4.13-488.38c2.06,0,2.06-4.14,0-4.14C1017.07,363.57,1017.07,367.71,1018.1,367.71Zm0,511.1a1.55,1.55,0,0,0,0-3.1C1017.07,875.71,1017.07,878.81,1018.1,878.81Zm0,55.76c2.06,0,2.06-5.17,0-5.17C1017.07,929.4,1017.07,934.57,1018.1,934.57Zm0-476c0,2.06,4.13,2.06,4.13,0A2.08,2.08,0,1,0,1018.1,458.57Zm4.13-40.27c2.07,0,2.07-5.16,0-5.16S1020.16,418.3,1022.23,418.3Zm4.13-14.46c2.06-2.06,8.26-10.32,8.26-12.39v-5.16l-12.39,13.42Zm-4.13,427.47h4.13V822C1022.23,825.12,1022.23,827.19,1022.23,831.31ZM1026.36,313a1.55,1.55,0,0,0,0-3.1A1.55,1.55,0,0,0,1026.36,313Zm0-23.75h2.06c2.07,0,4.13,0,6.2-3.09Zm4.13,37.18c2.06,0,2.06-5.17,0-5.17S1028.42,326.41,1030.49,326.41Zm0,28.91c2.06,0,2.06-4.14,0-4.14S1028.42,355.32,1030.49,355.32Zm0,482.19c2.06,0,2.06-4.13,0-4.13S1028.42,837.51,1030.49,837.51Zm0-90.87h11.36c-4.13-1-6.2-3.09-9.3-3.09h-2.06Zm4.13-417.14c1,0,1-3.09,0-3.09A1.55,1.55,0,1,0,1034.62,329.5Zm0,45.44c1,0,1-5.17,0-5.17C1032.55,369.77,1032.55,374.94,1034.62,374.94Zm0,29.93c1,0,1-3.09,0-3.09A1.55,1.55,0,1,0,1034.62,404.87Zm0,8.27c1,0,1-3.11,0-3.11A1.56,1.56,0,0,0,1034.62,413.14Zm0,74.34c1,3.09,9.3,3.09,10.33,0C1047,485.41,1032.55,485.41,1034.62,487.48ZM1039.78,345h2.07c-2.07-4.13-4.13-4.13-6.2-4.13h-1C1035.65,345,1037.72,345,1039.78,345Zm-2.06,73.31c2.06,0,2.06-5.16,0-5.16S1035.65,418.3,1037.72,418.3Zm0,452.25a1.55,1.55,0,0,0,0-3.1A1.55,1.55,0,1,0,1037.72,870.55Zm0,67.11a1.54,1.54,0,1,0,0-3.09A1.54,1.54,0,1,0,1037.72,937.66Zm0-643.26H1078c-1-8.26-17.56-2.07-17.56-2.07v-6.19C1052.18,292.33,1045,288.2,1037.72,294.4Zm0,500.77v2.07c6.2-3.1,13.42-5.16,18.58-5.16,0-3.1-4.12-11.37-4.12-11.37C1051.14,780.71,1037.72,789,1037.72,795.17Zm4.13-439.85c2.07,0,2.07-4.14,0-4.14S1039.78,355.32,1041.85,355.32Zm0,91.89c2.07,0,2.07-4.14,0-4.14S1039.78,447.21,1041.85,447.21Zm0,482.19a1.55,1.55,0,1,0,0-3.09A1.55,1.55,0,1,0,1041.85,929.4Zm2.07-53.69c8.26,0,14.45-15.48,16.51-23.75h-2.06C1054.24,852,1043.92,870.55,1043.92,875.71Zm1,28.91c3.09-2.07,7.23-2.07,11.35-2.07V874.67A12.09,12.09,0,0,1,1045,884Zm0,14.46c4.13,0,7.23-1,7.23-6.2v-2.07Zm4.13,20.65,7.22-8.26L1045,936.63Zm0-588.55c2.06,0,2.06-4.12,0-4.12S1047,351.18,1049.08,351.18Zm3.1,488.39v-4.13h-3.1Zm0-421.27c2.06,0,2.06-5.16,0-5.16C1051.14,413.14,1051.14,418.3,1052.18,418.3Zm0,476c-1,0-1-5.17,0-5.17C1054.24,889.13,1054.24,894.3,1052.18,894.3Zm4.12-433.67c2.07,0,2.07-5.16,0-5.16S1054.24,460.63,1056.3,460.63Zm0,385.14c2.07,0,2.07-4.14,0-4.14S1054.24,845.77,1056.3,845.77Zm0-492.52h4.13c1,0,8.26-6.19,10.33-8.26h-3.1C1065.6,345,1058.37,351.18,1056.3,353.25Zm4.13,10.32c1,0,1-4.12,0-4.12C1058.37,359.45,1058.37,363.57,1060.43,363.57Zm0,554.47c1,0,1-5.16,0-5.16C1058.37,912.88,1058.37,918,1060.43,918Zm0-53.69c1,3.1,5.17-2.07,3.1-4.12C1061.46,859.19,1058.37,862.28,1060.43,864.35Zm3.1-91.89h4.13c5.16-4.14,10.33-25.82,10.33-25.82h-1c-2.07,0-4.14,0-6.2,5.17-2.07-6.2-7.23-6.2-10.33-6.2A106.32,106.32,0,0,0,1063.53,772.46Zm-3.1,164.17h1c6.2,0,11.36-5.16,13.43-9.29h-7.23v-8.26Zm3.1-126c2.07,0,2.07-5.16,0-5.16S1061.46,810.66,1063.53,810.66Zm0,85.7c2.07,0,2.07-4.13,0-4.13S1061.46,896.36,1063.53,896.36Zm4.13-130.09c-2.06,0-2.06-4.14,0-4.14C1068.69,762.13,1068.69,766.27,1067.66,766.27Zm0,138.35c1,0,1-4.13,0-4.13C1065.6,900.49,1065.6,904.62,1067.66,904.62Zm3.1-42.34a1.55,1.55,0,1,0,0-3.09A1.55,1.55,0,1,0,1070.76,862.28ZM1078,366.67v-3.1c0-2.06,0-4.12-3.1-6.19,0,0,17.56-25.81,28.91-28.92-3.1-1-9.3-4.12-10.33-4.12h-2.06c-6.19,0-13.42,8.26-16.52,12.39,2.07,1,3.1,6.19,7.23,4.13-2.07,2.06-9.3,14.46-11.36,16.52v2.07C1070.76,363.57,1074.89,366.67,1078,366.67Zm-3.1,500.78c2.07,0,2.07-5.17,0-5.17S1072.82,867.45,1074.89,867.45Zm0,70.21a1.55,1.55,0,1,0,0-3.09A1.55,1.55,0,1,0,1074.89,937.66Zm21.68-504.91c-5.16,11.36-12.39,21.69-21.68,25.82h3.1c9.29,0,16.51-8.27,23.74-16.52A12.34,12.34,0,0,1,1096.57,432.75Zm-21.68,475h3.1v-5.17ZM1078,821c2.06,0,2.06-4.12,0-4.12C1077,816.86,1077,821,1078,821Zm0,75.38c2.06,0,2.06-4.13,0-4.13C1077,892.23,1077,896.36,1078,896.36Zm4.13-69.17c2.06,0,2.06-5.17,0-5.17S1080.05,827.19,1082.12,827.19Zm0,60.91c2.06,0,2.06-4.13,0-4.13S1080.05,888.1,1082.12,888.1Zm3.1-575.12a1.55,1.55,0,0,0,0-3.1C1084.18,309.88,1084.18,313,1085.22,313Zm0,42.34c2.06,0,2.06-4.14,0-4.14C1084.18,351.18,1084.18,355.32,1085.22,355.32Zm0,91.89c2.06,0,2.06-4.14,0-4.14C1084.18,443.07,1084.18,447.21,1085.22,447.21Zm0,453.28c2.06,0,2.06-4.13,0-4.13C1084.18,896.36,1084.18,900.49,1085.22,900.49Zm0-611.26v10.33c6.19-3.1,4.12-10.33,4.12-13.42v-8.27C1084.18,279.94,1085.22,286.14,1085.22,289.23Zm4.12,540c2.07,0,2.07-4.12,0-4.12S1087.28,829.24,1089.34,829.24Zm4.13-486.32c1,0,1-5.16,0-5.16C1091.41,337.76,1091.41,342.92,1093.47,342.92Zm0,12.4c1,0,1-4.14,0-4.14C1091.41,351.18,1091.41,355.32,1093.47,355.32Zm4.14,2.06c0,2.07,4.12,2.07,4.12,0S1097.61,355.32,1097.61,357.38Zm4.12,92.92h1c2.06,0,4.12,0,6.19-5.16Zm3.1-61.94a1.55,1.55,0,0,0,0-3.1A1.55,1.55,0,0,0,1104.83,388.36Zm4.13-67.12a1.55,1.55,0,1,0,0-3.1A1.55,1.55,0,1,0,1109,321.24Zm0,23.75c2.07-2.07,2.07-7.23,0-8.26C1106.89,334.67,1106.89,347.06,1109,345Zm0,10.33c2.07,0,2.07-4.14,0-4.14S1106.89,355.32,1109,355.32ZM1109,918c2.07,0,2.07-5.16,0-5.16S1106.89,918,1109,918Zm3.1-155.91c2.06,0,2.06-4.13,0-4.13C1111,758,1111,762.13,1112.06,762.13Zm4.13,126c2.07,0,2.07-4.13,0-4.13S1114.12,888.1,1116.19,888.1Zm0-496.65c0,2.07,4.13,2.07,4.13,0A2.08,2.08,0,1,0,1116.19,391.45Zm11.35,51.62c1,0,1-4.12,0-4.12C1125.49,439,1125.49,443.07,1127.54,443.07ZM1142,463.73a1.55,1.55,0,1,0,0-3.1A1.55,1.55,0,0,0,1142,463.73Zm0,412c2.07,0,2.07-5.16,0-5.16S1139.94,875.71,1142,875.71Zm3.1-406.81c2.06,0,2.06-5.17,0-5.17C1144.07,463.73,1144.07,468.9,1145.1,468.9Zm0,8.25c2.06,0,2.06-5.16,0-5.16C1144.07,472,1144.07,477.15,1145.1,477.15Zm0,105.32c2.06,0,2.06-5.16,0-5.16C1144.07,577.31,1144.07,582.47,1145.1,582.47Zm0,91.89c2.06,0,2.06-4.12,0-4.12C1144.07,670.24,1144.07,674.36,1145.1,674.36Zm0,238.52c2.06,0,2.06-4.13,0-4.13C1144.07,908.75,1144.07,912.88,1145.1,912.88Zm4.13-37.17c2.07,0,2.07-5.16,0-5.16S1147.16,875.71,1149.23,875.71Zm4.14-205.47c1,0,1-4.14,0-4.14C1151.3,666.1,1151.3,670.24,1153.37,670.24Zm15.48-182.76c2.06,0,2.06-4.13,0-4.13S1166.79,487.48,1168.85,487.48Zm0,207.54c2.06,0,2.06-4.13,0-4.13S1166.79,695,1168.85,695Zm3.1-139.39a1.55,1.55,0,0,0,0-3.1C1170.91,552.53,1170.91,555.63,1172,555.63Zm0,94c2.06,0,2.06-5.16,0-5.16C1170.91,644.43,1170.91,649.59,1172,649.59Zm0,53.69c2.06,0,2.06-4.13,0-4.13C1170.91,699.15,1170.91,703.28,1172,703.28Zm0-110.49h4.13c3.1,0,5.16,0,7.22-5.16Zm4.13-45.43a1.55,1.55,0,0,0,0-3.1A1.55,1.55,0,1,0,1176.08,547.36Zm0,37.18h3.1v-5.17ZM1190.53,630c-2.07,3.09-8.26,11.35-11.35,12.39h2.06c9.29,0,20.65-9.3,23.75-16.53l-3.1-4.12S1194.66,627.9,1190.53,630Zm-7.23,307.69a1.55,1.55,0,1,0,0-3.09A1.55,1.55,0,1,0,1183.3,937.66Zm0-185.85,11.36-5.17h-4.13C1187.43,746.64,1185.37,746.64,1183.3,751.81Zm4.13-177.6c1,0,1-5.16,0-5.16C1185.37,569.05,1185.37,574.21,1187.43,574.21Zm0,24.78c1,0,1-5.16,0-5.16C1185.37,593.83,1185.37,599,1187.43,599Zm0-52.66,7.23-4.13c-4.13-3.1-4.13-5.16-4.13-8.26h-3.1Zm3.1,44.41c2.07,0,2.07-5.18,0-5.18S1188.46,590.74,1190.53,590.74Zm0,58.85c2.07,0,2.07-5.16,0-5.16S1188.46,649.59,1190.53,649.59Zm4.13-102.23c1,0,1-3.1,0-3.1A1.55,1.55,0,0,0,1194.66,547.36Zm3.1,97.07a1.56,1.56,0,0,0,0-3.11A1.56,1.56,0,0,0,1197.76,644.43Zm0,16.51a1.55,1.55,0,1,0,0-3.09A1.55,1.55,0,1,0,1197.76,660.94Zm0-67.11v2.07l7.23-8.27h-1A6,6,0,0,0,1197.76,593.83Zm4.13-11.36c2.07,0,2.07-5.16,0-5.16S1199.83,582.47,1201.89,582.47Zm0,102.23a1.55,1.55,0,0,0,3.1,0A1.55,1.55,0,1,0,1201.89,684.7Zm3.1-71.26c2.07,0,2.07-4.12,0-4.12C1204,609.32,1204,613.44,1205,613.44Zm4.13,305.64a1.56,1.56,0,0,0,0-3.11A1.56,1.56,0,0,0,1209.12,919.08Zm0-301.5h2.06c1,0,3.1,0,5.16-4.14Zm3.1,85.7c2.06,0,2.06-4.13,0-4.13C1211.18,699.15,1211.18,703.28,1212.22,703.28Zm4.12-81.57c0,1,4.14,1,4.14,0C1220.48,619.64,1216.34,619.64,1216.34,621.71Zm0,83.64h4.14v-4.14Zm4.14,232.31c1,0,1-3.09,0-3.09A1.55,1.55,0,1,0,1220.48,937.66Zm7.22-288.07c1,0,1-5.16,0-5.16C1225.64,644.43,1225.64,649.59,1227.7,649.59Zm11.36,287a11.45,11.45,0,0,0,8.27,0C1248.35,934.57,1238,934.57,1239.06,936.63Zm18.59-13.43h2.06c2.06,0,4.13,0,5.16-4.12Zm18.58-167.26h-4.13C1251.45,765.23,1261.77,770.39,1276.23,755.94Zm-11.36,28.91c0,2.06,4.13,2.06,4.13,0C1269,783.81,1264.87,783.81,1264.87,784.85Zm4.13-35.11c2.07,0,2.07-4.13,0-4.13S1266.94,749.74,1269,749.74Zm3.1,28.91a1.55,1.55,0,1,0,0-3.1C1271.07,775.55,1271.07,778.65,1272.1,778.65Zm0,159a1.55,1.55,0,1,0,0-3.09C1271.07,934.57,1271.07,937.66,1272.1,937.66Zm4.13-171.39c2.07,0,2.07-4.14,0-4.14S1274.17,766.27,1276.23,766.27Zm0,149.7c2.07,0,2.07-5.16,0-5.16S1274.17,916,1276.23,916Zm7.23,2.07c2.07,0,2.07-5.16,0-5.16S1281.4,918,1283.46,918Zm0,8.27c2.07,0,2.07-5.16,0-5.16S1281.4,926.31,1283.46,926.31Zm7.23,11.35a1.54,1.54,0,1,0,0-3.09A1.54,1.54,0,1,0,1290.69,937.66ZM1302,816.86a2.08,2.08,0,1,0,0-4.13C1300,812.73,1300,816.86,1302,816.86Zm0,104.29c3.1,0,3.1-3.11,0-3.11A1.56,1.56,0,0,0,1302,921.15Zm0,8.25c3.1,0,3.1-3.09,0-3.09A1.54,1.54,0,0,0,1302,929.4Zm4.14-89.83v-8.26l-4.14,4.13Zm8.26,36.14c1,0,1-5.16,0-5.16C1312.37,870.55,1312.37,875.71,1314.44,875.71Zm7.23-34.08c1,0,1-4.12,0-4.12C1319.6,837.51,1319.6,841.63,1321.67,841.63Zm0-19.61c0,3.1,3.09,3.1,3.09,0C1324.76,821,1321.67,821,1321.67,822Zm7.22,15.49c2.06,0,2.06-4.13,0-4.13S1326.83,837.51,1328.89,837.51Zm7.23-2.07V822l-7.23,5.17Zm0,50.6a1.55,1.55,0,0,0,3.1,0A1.55,1.55,0,1,0,1336.12,886Zm3.1-35.11c2.07,0,2.07-5.16,0-5.16C1338.18,845.77,1338.18,850.93,1339.22,850.93Zm0,78.47a1.55,1.55,0,1,0,0-3.09C1338.18,926.31,1338.18,929.4,1339.22,929.4Zm0-21.68h2.07c6.19,0,9.28-8.26,14.44-8.26h2.07l-3.09,3.09c1,0,9.28,5.17,10.32,5.17h4.12c2.07,0,8.27-7.23,8.27-8.26l-8.27,3.09v-3.09c0-10.33,10.34-11.36,10.34-21.69-4.13,0-8.27,0-10.34-5.16-4.12,3.1-5.16,8.27-7.21,13.43l-4.14-5.16C1350.57,888.1,1347.48,900.49,1339.22,907.72Zm8.26,26.85c1,0,1-5.17,0-5.17C1345.41,929.4,1345.41,934.57,1347.48,934.57Zm0-53.69c1,3.09,5.16-2.07,3.09-3.11A2.19,2.19,0,0,0,1347.48,880.88Zm7.23,46.46h1c2.07,0,6.21,0,6.21-4.14,0-2.05-2.07-7.23-4.14-7.23Zm3.09-56.79a1.55,1.55,0,1,0,0-3.1A1.55,1.55,0,1,0,1357.8,870.55Zm0-14.46h4.14c3.09,0,7.21-2.06,7.21-8.26Zm4.14-18.58c2,0,2-4.13,0-4.13S1359.87,837.51,1361.94,837.51Zm7.21,24.77a1.55,1.55,0,1,0,0-3.09A1.55,1.55,0,0,0,1369.15,862.28Zm0,25.82c-2.05,0-2.05-4.13,0-4.13S1371.22,888.1,1369.15,888.1Zm0,29.94c2.07,0,2.07-5.16,0-5.16S1367.1,918,1369.15,918Zm8.27-50.59c2.07,0,2.07-5.17,0-5.17S1375.36,867.45,1377.42,867.45Zm0,61.95a1.55,1.55,0,1,0,0-3.09A1.55,1.55,0,0,0,1377.42,929.4Z"/><path class="cls-1" d="M211.2,2015.27c0-14.45,5.59-20.64,18.6-20.64h1.86c12.09,0,17.67-5.17,18.6-18.6,0-6.19,3.72-154.86,3.72-222V1587.86l-3.72-6.2H229.8c-13,0-19.53-6.19-18.6-20.65L214,1456.74c0-14.46,6.51-19.62,19.53-20.65L335.81,1433c13,0,18.6,5.16,18.6,19.6V1561c0,14.46-5.58,20.65-18.6,20.65H321.86V1758.2c14.88-19.61,75.32-156.92,75.32-170.34.94-4.14-11.15-7.23-15.81-6.2-8.36-3.1-12.08-10.33-12.08-22.72V1436.09l2.78-4.13H387c70.67,0,110.65-5.17,110.65,24.78v122.85c-5.57,1-24.17,8.27-39.05,8.27-21.39,45.42-46.5,97-64.17,146.59v4.14L466,1972.94c.94,4.13,3.73,12.39,3.73,11.36,0,2.06,9.3,10.33,27.89,10.33,13,0,18.6,6.19,18.6,20.64v108.41c0,14.45-5.58,20.65-18.6,20.65H387.88c-13,0-18.59-6.2-18.59-129.06,0-10.32,4.25-18.15,11.16-20.64s13-5.17,13-14.46c0-17.55-13-54.71-35.34-142.47h-1.87c-11.15,0-24.17,57.81-34.4,72.26V1976c0,13.43,4.66,19.62,14.88,20.66h1.86c11.16,1,15.81,8.26,15.81,20.65v102.21c0,4.13,12.09,23.74-52.08,23.74-59.51,0-91.13,5.16-91.13-23.74Zm27-547.17a2.12,2.12,0,0,0,1.86,2.06c.93,0,.93-1,.93-2.06s0-2.07-.93-2.07A2.12,2.12,0,0,0,238.17,1468.1Zm3.72,8.26a2.12,2.12,0,0,0,1.86,2.06c.93,0,.93-1,.93-2.06s0-2.07-.93-2.07A2.12,2.12,0,0,0,241.89,1476.36ZM263.28,1528h5.57v-16.51C263.28,1513.52,263.28,1525.91,263.28,1528Zm14,202.36a2.12,2.12,0,0,0,1.86,2.07c.92,0,.92-1,.92-2.07s0-2.07-.92-2.07A2.11,2.11,0,0,0,277.23,1730.33Zm0,123.88a2.11,2.11,0,0,0,1.86,2.07c.92,0,.92-1,.92-2.07s0-2.06-.92-2.06A2.11,2.11,0,0,0,277.23,1854.21Zm1.86-195.12H281c5.57,0,13-14.45,13-16.52Zm1.86,159a2.11,2.11,0,0,0,1.85,2.06c.94,0,.94-1,.94-2.06s0-2.07-.94-2.07A2.13,2.13,0,0,0,281,1818.08Zm0,43.36a2.12,2.12,0,0,0,1.85,2.07c.94,0,.94-1,.94-2.07s0-2.06-.94-2.06A2.12,2.12,0,0,0,281,1861.44Zm1.85-308.69V1560h25.11c-4.65-3.1-5.58-4.13-7.44-4.13H294v-3.1c-.92,2.07-5.57,3.1-7.44,3.1S282.8,1554.82,282.8,1552.75Zm1.86,297.34a2.13,2.13,0,0,0,1.86,2.06c.93,0,.93-1,.93-2.06s0-2.07-.93-2.07A2.13,2.13,0,0,0,284.66,1850.09Zm9.3-100.15v-1c0-4.13-3.71-6.19-7.44-6.19v2.06C286.52,1748.91,290.25,1749.94,294,1749.94Zm-5.57-281.84a2.11,2.11,0,0,0,1.86,2.06c.92,0,.92-1,.92-2.06s0-2.07-.92-2.07A2.11,2.11,0,0,0,288.39,1468.1Zm0,318a2.11,2.11,0,0,0,1.86,2.06c.92,0,.92-1,.92-2.06s0-2.07-.92-2.07A2.11,2.11,0,0,0,288.39,1786.08ZM294,1940.94v-15.48h-3.71Zm-1.86-288A2.13,2.13,0,0,0,294,1655c.94,0,.94-1,.94-2.07s0-2.06-.94-2.06A2.13,2.13,0,0,0,292.1,1652.89Zm0,113.57a2.14,2.14,0,0,0,1.86,2.07c.94,0,.94-1,.94-2.07s0-2.07-.94-2.07A2.14,2.14,0,0,0,292.1,1766.46Zm15.81-234.35h7.45c-1.87-4.14-3.73-4.14-21.4-4.14h14Zm-12.09-59.89c0,1,0,2.07.93,2.07s.93-1,.93-2.07,0-2.06-.93-2.06S295.82,1471.19,295.82,1472.22Zm2.79,8.26a3.2,3.2,0,0,0,1.86,1c.94,0,.94-1,.94-1,0-1,0-2.06-.94-2.06A2.13,2.13,0,0,0,298.61,1480.48Zm3.72,7.23a2.11,2.11,0,0,0,1.87,2.06c.92,0,.92-1,.92-2.06s0-2.07-.92-2.07A2.13,2.13,0,0,0,302.33,1487.71Zm0,36.13a2.12,2.12,0,0,0,1.87,2.07c.92,0,.92-1,.92-2.07s0-2.06-.92-2.06A2.12,2.12,0,0,0,302.33,1523.84Zm0,23.75a2.13,2.13,0,0,0,1.87,2.07c.92,0,.92-1,.92-2.07s0-2.07-.92-2.07A2.12,2.12,0,0,0,302.33,1547.59Zm1.87-47.49h7.43V1496C307.91,1496,306.06,1496,304.2,1500.1Zm13,298.37a2.12,2.12,0,0,0,1.86,2.06c.94,0,.94-1,.94-2.06s0-2.07-.94-2.07A2.12,2.12,0,0,0,317.21,1798.47Zm6.51-259.14a2.12,2.12,0,0,0,1.86,2.06c.94,0,.94-1,.94-2.06s0-2.06-.94-2.06A2.12,2.12,0,0,0,323.72,1539.33Zm3.72,4.13a2.11,2.11,0,0,0,1.86,2.06c.93,0,.93-1,.93-2.06s0-2.07-.93-2.07A2.13,2.13,0,0,0,327.44,1543.46ZM346,1806.73s0,1,.93,1,.93-1,.93-1c0-1,0-2.07-.93-2.07S346,1805.69,346,1806.73Zm15.81-56.79h3.72l-3.72-11.35Zm8.37-35.1a2.12,2.12,0,0,0,1.85,2.06c.94,0,.94-1,.94-2.06s0-2.06-.94-2.06A2.12,2.12,0,0,0,370.22,1714.84Zm5.58,83.63h3.72V1782H375.8Zm5.57-216.81a3.21,3.21,0,0,1,2.8,1C383.23,1582.7,382.31,1581.66,381.37,1581.66Zm0,248.81a3.2,3.2,0,0,0,1.86,1c.94,0,.94-1,.94-1,0-1,0-2.07-.94-2.07A2.14,2.14,0,0,0,381.37,1830.47Zm2.8-247.77h0Zm18.6,56.77a2.12,2.12,0,0,0,1.86,2.07c.92,0,.92-1,.92-2.07s0-2.06-.92-2.06A2.12,2.12,0,0,0,402.77,1639.47Zm1.86-87.76h7.43s3.72-14.44,3.72-19.6V1528S404.63,1547.59,404.63,1551.71Zm9.3,4.14a2.11,2.11,0,0,0,1.85,2.06c.93,0,.93-1,.93-2.06s0-2.07-.93-2.07A2.12,2.12,0,0,0,413.93,1555.85Zm3.71-36.13a2.13,2.13,0,0,0,1.86,2.06,2.74,2.74,0,0,0,0-4.13A2.13,2.13,0,0,0,417.64,1519.72Zm0,40.26a3.21,3.21,0,0,0,1.86,1l.94-1a3.71,3.71,0,0,0-.94-2.07A2.13,2.13,0,0,0,417.64,1560Zm8.37-44.4v-8.25l-3.72,4.13Zm-1.86,74.33a3.2,3.2,0,0,0,1.86,1c.93,0,.93-1,.93-1,0-1,0-2.05-.93-2.05A2.12,2.12,0,0,0,424.15,1589.91Zm3.72-10.32a2.12,2.12,0,0,0,1.87,2.07c.92,0,.92-1,.92-2.07s0-2.06-.92-2.06A2.12,2.12,0,0,0,427.87,1579.59Zm17.67-27.88a2.12,2.12,0,0,0,1.86,2.07c.93,0,.93-1,.93-2.07s0-2-.93-2A2.11,2.11,0,0,0,445.54,1551.71Zm14.88-79.49a2.12,2.12,0,0,0,1.86,2.07c.93,0,.93-1,.93-2.07s0-2.06-.93-2.06A2.12,2.12,0,0,0,460.42,1472.22Zm3.72,51.62a2.12,2.12,0,0,0,1.85,2.07c.94,0,.94-1,.94-2.07s0-2.06-.94-2.06A2.12,2.12,0,0,0,464.14,1523.84ZM466,1496l6.52-4.12h-1.87C468.79,1491.84,467.86,1491.84,466,1496Z"/><path class="cls-1" d="M545.91,1603.94c18.66-2.14,52.67-4.24,53.83-31.66.06-23,4.75-136,4.82-160.14l.33-128.34c-7.6-29.63-29.52-39.56-58-39.64l.47-176.59c0-7.68,3.32-11,11-10.94l242.42.64-.49,184.27c0,9.88-42.79,5.37-42.85,27.31l-.29,110.79c9.87,0,97.91-107.24,97.93-117.12,0-13.15-34-17.63-39.44-17.65l.47-178.79,4.41-8.76,178.8.47c16.44,0,54.83,4.53,54.83,4.53l4.37,4.4s1.9,115.18,2.86,163.44l0,9.88c0,7.67-60.38,20.68-78,37.09-13.19,10.93-66,58-66,83.18-.1,37.3,82.78,222.89,108,240.52,9.86,5.5,49.34,7.8,51.51,15.49.94,60.33,3,92.14,2.91,142.6l-.06,25.23a12.17,12.17,0,0,1-12.1,12l-245.71-.64c-7.67,0-11-3.32-10.93-11l.45-172.2c0-12.07,38.39-2.1,38.47-29.52,0-15.36-38.12-103.21-46.88-107.62-23.09,17.49-50.6,52.51-50.68,82.14-.1,37.29,39.35,52.74,39.34,54.94l-.45,172.21c0,7.68-3.32,11-11,11l-223.77-.59c-7.67,0-11-3.32-10.93-11ZM572,1677.51h4.39l0-15.36h-4.39Zm-.09,35.1,8.78-3.27-8.77,0Zm16.4,22c1.09,0,1.1-4.39,0-4.39C586.17,1730.2,586.16,1734.59,588.35,1734.59ZM603.78,1705c2.19,0,3.32-9.86,3.33-12.06-5.5,0-11,2.17-15.38,8.74C593.91,1702.79,601.58,1705,603.78,1705Zm7.83-57c0-4.4,3.32-11,7.71-13.15l-7.68,0Zm4.13,98.73c1.09,0,1.1-4.39,0-4.39C613.56,1742.33,613.55,1746.73,615.74,1746.73Zm.16-61.43c1.09,2.2,5.49-1.08,3.3-3.28S613.71,1684.2,615.9,1685.3Zm3.47-68a1.65,1.65,0,0,0,0-3.29A1.65,1.65,0,1,0,619.37,1617.3Zm4,137.13c2.2,0,2.21-4.39,0-4.4S621.2,1754.42,623.39,1754.43Zm1.36-515.54v2.19l7.69-4.36-4.37-7.7C627,1233.41,624.76,1234.5,624.75,1238.89Zm6.36,501.3,7.68,0-4.38-3.3Zm4.37-408a1.65,1.65,0,0,0,0-3.29C634.39,1328.85,634.38,1332.14,635.48,1332.15Zm0-17.55,12.06,0c-3.28-2.2-5.47-3.3-9.86-3.32h-2.2Zm-.09,31.81,4.38,0,0-7.69h-4.38Zm8.14,241.34,0-7.68h-4.39Zm8.55-333.43c1.1,0,1.11-3.29,0-3.3A1.65,1.65,0,0,0,652.13,1254.32Zm.3,306,6.58,0c7.68-3.27,23.06-10.91,23.06-10.91l0-7.68C672.19,1551.63,652.48,1539.51,652.43,1560.35Zm3-296.15c2.2,0,2.21-4.39,0-4.39S653.21,1264.19,655.4,1264.2Zm-1.28,483.72,4.39,0c5.49,0,11-1.07,11-7.65V1737Zm5-226a5.29,5.29,0,0,0,0-7.67C657,1512.09,656.91,1524.17,659.11,1522Zm3.17,45c2.19,0,2.21-4.37,0-4.38C661.19,1562.57,661.18,1567,662.28,1567Zm0,5.5,7.68-3.28h-1.09C666.66,1569.17,664.47,1569.16,662.27,1572.45Zm5.27-337.84a1.65,1.65,0,1,0,0-3.29A1.65,1.65,0,0,0,667.54,1234.61Zm9.67,76.81h5.49l0-16.45C677.25,1297.16,677.22,1309.23,677.21,1311.42Zm5.7-82.25c4.4-2.18,7.7-5.47,7.71-9.86v-2.19Zm4.7,299.46c2.21-3.28,8.8-8.75,9.9-10.94v-3.29Zm2.18,6.59a1.65,1.65,0,0,0,0-3.29A1.65,1.65,0,1,0,689.79,1535.22Zm4.27,42.79a1.65,1.65,0,1,0,0-3.29A1.65,1.65,0,0,0,694.06,1578Zm3.27,8.78c2.19,0,2.2-4.38,0-4.39C696.25,1582.4,696.24,1586.79,697.33,1586.79Zm.07-26.32,7.69-3.27-3.28-4.4Zm2.25-25.22c19.75,0,17.61-17.5,33-20.75-6.57-5.5-6.55-9.9-5.45-12.08l-5.52,12c-6.62,13.13-6.6,5.46-16.46,5.44v-5.49C699.69,1519.89,699.67,1529.77,699.65,1535.25Zm6.24-280.79a1.65,1.65,0,1,0,0-3.29C704.79,1251.16,704.79,1254.45,705.89,1254.46Zm-.83,312.61c2.19,0,2.2-4.38,0-4.39C704,1562.68,704,1567.06,705.06,1567.07Zm4.44-19.73c2.2,0,2.21-4.39,0-4.39S707.31,1547.33,709.5,1547.34Zm.71-269.84c4.39,0,9.87-1.06,12.08-5.45l-12.07,0ZM709,1740.39c0,2.2,4.38,2.21,4.39,0S709,1738.19,709,1740.39Zm5.66-481.53c1.09,0,1.1-4.38,0-4.38C712.47,1254.48,712.46,1258.86,714.65,1258.86Zm-1.3,491.41c1.09,0,1.1-3.28,0-3.28A1.64,1.64,0,1,0,713.35,1750.27Zm0,12.08c1.09,0,1.1-4.39,0-4.4C711.14,1758,711.13,1762.34,713.32,1762.35Zm.08-29.63a1.65,1.65,0,1,0,3.29,0A1.65,1.65,0,0,0,713.4,1732.72ZM718,1239.13c2.19,0,2.2-4.38,0-4.39S715.79,1239.13,718,1239.13Zm-.06,25.23c2.19,0,2.2-4.38,0-4.39S715.72,1264.36,717.93,1264.36Zm-1.32,500.19c4.38-2.18,4.39-4.38,4.4-8.77v-3.29Zm5.58-455.2c1.1,0,1.11-4.39,0-4.4C720,1305,720,1309.34,722.19,1309.35Zm-.06,23c1.1,0,1.11-3.29,0-3.3A1.65,1.65,0,0,0,722.13,1332.38Zm.13-48.27h3.29v-4.38Zm-.67,253.39a1.65,1.65,0,0,0,3.29,0A1.65,1.65,0,1,0,721.59,1537.5Zm2.69,227.07c2.2,1.09,6.59-2.18,4.4-4.38S722.09,1762.37,724.28,1764.57Zm1.44-547.36,4.4,0c3.29,0,5.48,0,7.68-3.28l-4.37-4.39Zm3.33,402.57a9.81,9.81,0,0,0,9.9-9.84C732.37,1609.92,729.07,1614.3,729.05,1619.78Zm-.23,90h3.29l0-7.68Zm7.79-47.15c7.69,0,27.45-9.8,27.47-15.28v-4.38l-27.46,15.28Zm3.21,30.72,4.41-3.28-7.66-12.08v4.39C736.55,1685.62,736.54,1690,739.82,1693.3Zm-3.43,54.84h3.29l0-7.67Zm0,7.68a1.65,1.65,0,0,0,3.29,0C739.66,1754.73,736.37,1754.72,736.37,1755.82Zm12.08-5.46c1.1,0,1.11-3.28,0-3.28A1.64,1.64,0,1,0,748.45,1750.36Zm7.71-9.84c0-2.2,3.32-9.87,3.32-11v-2.19c0-4.39,0-4.39-3.27-6.59l7.68-3.27-14.25,0c0,3.29,2.16,9.88,6.55,12.08l-7.71,7.67Zm-3.73-251.2c2.2,0,2.21-4.39,0-4.4S750.24,1489.31,752.43,1489.32Zm4.46-25.22c0-12.07,15.4-17.51,19.75-4.33,7.72-14.25-14.19-27.46-24.09-15.42Zm3.37-29.61c2.19,0,2.2-4.38,0-4.39C759.17,1430.1,759.16,1434.49,760.26,1434.49Zm-.13,47.17c2.19,0,2.2-4.38,0-4.39C759,1477.27,759,1481.66,760.13,1481.66ZM764,1693.37a1.65,1.65,0,1,0,0-3.29A1.65,1.65,0,1,0,764,1693.37Zm-.05,17.55a1.65,1.65,0,0,0,0-3.3A1.65,1.65,0,0,0,763.91,1710.92Zm-.08,31.81c2.2,0,2.21-4.39,0-4.39S761.63,1742.72,763.83,1742.73Zm71.25-398c2.2,0,2.21-4.38,0-4.38S832.89,1344.73,835.08,1344.74Zm3.31-7.67c2.19,0,2.2-4.38,0-4.39C837.31,1332.68,837.3,1337.07,838.39,1337.07Zm0,19.75c2.19,0,2.2-4.38,0-4.39C837.26,1352.43,837.25,1356.82,838.34,1356.82Zm-.83,311.51a1.64,1.64,0,1,0,0-3.28C836.43,1665.05,836.42,1668.33,837.51,1668.33Zm5.26-327.95a1.65,1.65,0,0,0,0-3.29A1.65,1.65,0,1,0,842.77,1340.38Zm-.21,80.07h2.19c2.19,0,3.29,0,5.49-3.28Zm3.82,215v-3.29H842Zm3.25,15.37v-1.1c0-4.39-3.27-6.59-7.66-6.6v2.19C842,1649.7,846.33,1650.81,849.63,1650.82Zm8.22-206.2c-3.28-4.4-20.81-9.93-11,1.07Zm-10.71-99.85c1.1,0,1.11-4.38,0-4.38C845,1340.38,845,1344.77,847.14,1344.77Zm0,17.56c1.1,0,1.11-4.39,0-4.39C844.92,1357.93,844.9,1362.32,847.1,1362.33Zm-.83,312.61c1.1,0,1.11-4.38,0-4.38C844.09,1670.55,844.08,1674.93,846.27,1674.94Zm4.1-307.12a1.65,1.65,0,1,0,0-3.29A1.65,1.65,0,0,0,850.37,1367.82Zm16.42,16.5q6.59-4.92,6.62-16.44c-5.48,0-17.59,14.21-23.08,17.49l7.68,0c2.19,0,5.48,0,7.68-1.07-1.09,0-1.08-4.4,0-4.39S866.79,1383.22,866.79,1384.32Zm-12.16,36.16c0,2.2,3.28,4.4,3.28,4.4,7.67,0,15.37-7.64,24.15-7.61l0-7.69c-4.4,3.28-8.79,3.27-12.08,3.26-5.48,0-9.86-3.32-17.54-3.34C852.46,1410.6,854.63,1419.38,854.63,1420.48Zm0,14.26c1.09,0,1.1-4.39,0-4.39C852.41,1430.34,852.4,1434.74,854.59,1434.74Zm.16-60.33,3.3-4.38h-3.29Zm-.7,265.45,3.3-4.38,0-7.67C855.16,1632.18,854.06,1635.47,854.05,1639.86Zm35.88-297.17c3.3-3.28,13.2-13.13,13.21-19.7-7.67,0-11,0-17.55,4.33,0-2.19,4.4-9.86,4.41-12V1312l-7.7,7.66,0-4.39c1.09-2.19,9.9-9.85,11-10.94l4.38,3.31,3.31-7.68h-3.29c-4.39,0-37.33,13.07-39.54,19.65C875.76,1309.75,877.88,1335,889.93,1342.69Zm-31.86,19.67c0,2.19,4.38,2.2,4.38,0S858.08,1360.16,858.07,1362.36Zm6.78,337.86c2.2,0,2.22-4.39,0-4.39C863.77,1695.82,863.76,1700.21,864.85,1700.22Zm5.11-272,7.68-3.27h-2.19C873.26,1424.92,872.16,1424.91,870,1428.2Zm3.4-40.58a1.64,1.64,0,1,0,0-3.28C872.27,1384.33,872.26,1387.62,873.36,1387.62Zm4.76-144.77a1.65,1.65,0,1,0,0-3.29A1.65,1.65,0,0,0,878.12,1242.85Zm11.15,349.93c0-7.67,0-14.25-4.33-19.75-2.2,0-7.69,2.17-7.7,4.36C875,1585.07,882.68,1592.77,889.27,1592.78ZM882,1440.3c1.08,2.19,5.48-2.18,3.3-3.29A2.33,2.33,0,0,0,882,1440.3Zm0-12.07,17.55,0c0-5.49-4.36-11-9.85-11C885.35,1417.27,882,1428.23,882,1428.23ZM885.5,1358a1.65,1.65,0,1,0,0-3.29A1.65,1.65,0,1,0,885.5,1358Zm0,9.87a1.65,1.65,0,0,0,0-3.29A1.65,1.65,0,1,0,885.48,1367.91Zm-.62,234.74c2.19,0,2.2-4.39,0-4.4S882.66,1602.64,884.86,1602.65Zm-.28,107.49c2.19,0,2.2-4.38,0-4.39S882.37,1710.14,884.58,1710.14Zm.38-144.79h2.19c2.19,0,4.39,0,5.49-4.37l-3.28-3.3Zm5.09-267.63a1.65,1.65,0,1,0,0-3.29A1.65,1.65,0,1,0,890.05,1297.72Zm-.21,77.88a1.65,1.65,0,1,0,0-3.29A1.65,1.65,0,0,0,889.84,1375.6Zm.4-151.37v1.1l7.69-3.27-4.37-7.7C892.46,1217.65,890.25,1219.84,890.24,1224.23Zm-1.4,532h3.29v-3.29Zm3.43-53.75c2.2,0,2.21-4.38,0-4.38C891.19,1698.1,891.18,1702.48,892.27,1702.48Zm0,7.68c0,1.09,4.39,1.11,4.39,0C896.65,1708,892.25,1708,892.25,1710.16Zm5.22-314.79a1.65,1.65,0,0,0,0-3.3A1.65,1.65,0,0,0,897.47,1395.37Zm-.93,352.1c2.19,0,2.21-4.38,0-4.39S894.35,1747.47,896.54,1747.47Zm1.5-154.66,14.29-7.64c-3.28-4.4-7.67-4.41-12.06-4.42h-2.2a8.32,8.32,0,0,1,2.19,4.4A20.12,20.12,0,0,1,898,1592.81ZM901,1317.49c2.19,0,2.2-4.38,0-4.38C899.88,1313.11,899.87,1317.49,901,1317.49Zm-1.05,398.18c2.19,0,2.2-4.39,0-4.4C898.83,1711.27,898.82,1715.66,899.92,1715.67Zm.28-107.5,4.39-3.28h-4.38Zm4.88-188.65c2.2,0,2.21-4.39,0-4.39S902.89,1419.51,905.08,1419.52Zm4,150.29v-4.4H904.7Zm-.08,28.51c1.1,0,1.11-3.28,0-3.28A1.64,1.64,0,1,0,909,1598.32Zm4.11-308.22a1.65,1.65,0,1,0,0-3.29A1.65,1.65,0,1,0,913.11,1290.1ZM916.65,1606a11.15,11.15,0,0,0,3.3-1.09l12.1-12-4.37-4.4-15.38,8.74C916.67,1598.34,916.66,1602.73,916.65,1606Zm1-366.36c1.1,0,1.11-4.39,0-4.39C915.44,1235.26,915.43,1239.65,917.62,1239.66Zm-.92,351c1.1,0,1.1-3.28,0-3.29A1.65,1.65,0,1,0,916.7,1590.66Zm-.45,170,11,0,0-7.67C923.94,1755.22,917.36,1756.3,916.25,1760.68Zm4.64-511.14c2.2,0,2.21-4.38,0-4.39S918.7,1249.54,920.89,1249.54ZM933,1220a1.64,1.64,0,1,0,0-3.28A1.64,1.64,0,1,0,933,1220Zm-1.3,493.61,7.69-3.27-7.68,0Zm15.3,22c2.2,0,2.21-4.39,0-4.39S944.84,1735.53,947,1735.54Zm1.37-521c4.4-2.18,7.7-6.56,7.71-9.85v-2.2Zm-1.31,495.8c7.69,0,23.06-4.33,19.8-16.41h-2.2C952.62,1693.87,947.13,1698.24,947.09,1710.31Zm4.68-107.49c1.09,0,1.1-4.39,0-4.39C949.59,1598.43,949.58,1602.82,951.77,1602.82Zm3.28,5.49,4.38,0,0-7.68Zm0,12.07h4.39V1616Zm7.83-59.21a1.65,1.65,0,1,0,0-3.29C961.76,1557.88,961.75,1561.17,962.84,1561.17Zm0,9.87a1.65,1.65,0,1,0,0-3.29C961.74,1567.74,961.73,1571,962.82,1571Zm-.15,54.84a1.64,1.64,0,1,0,0-3.28C961.59,1622.6,961.58,1625.88,962.67,1625.88Zm4.48-32.89c2.19,0,3.3-2.18,3.3-4.37,0-3.3-3.26-9.89-7.65-11v3.29C962.78,1585.3,962.77,1588.6,967.15,1593Zm-4.56,62.51,4.4,0c7.68-4.38,7.74-25.21,7.74-27.41l12.07,0v-5.49c-6.58,0-12.06,0-16.46,5.44-1.11,5.48-7.73,19.72-7.73,19.72l4.38,3.3Zm4.5-40.57c2.19,0,2.21-4.39,0-4.39S964.9,1614.92,967.09,1614.93Zm-.14,53.74a1.64,1.64,0,1,0,0-3.28A1.64,1.64,0,1,0,967,1668.67Zm-.11,41.69,9.88,0c0-4.4,0-16.46,8.81-16.44-1.1,0-10.95-7.7-6.55-11C964.73,1678.54,972.34,1703.79,966.84,1710.36Zm4.53-470.56c2.2,0,2.21-4.38,0-4.39C970.29,1235.41,970.27,1239.8,971.37,1239.8Zm-1.27,481.53a1.65,1.65,0,1,0,0-3.29C969,1718,969,1721.33,970.1,1721.33Zm4.32,26.35c2.2,0,2.21-4.39,0-4.39S972.23,1747.67,974.42,1747.68Zm5.72-504.56c1.09,0,1.1-3.29,0-3.3A1.65,1.65,0,0,0,980.14,1243.12Zm-1.25,475a1.65,1.65,0,1,0,3.29,0A1.65,1.65,0,0,0,978.89,1718.07Zm3.49-77.87c2.19,0,2.21-4.39,0-4.39S980.18,1640.19,982.38,1640.2Zm-.3,115.17c2.19,0,2.2-4.38,0-4.39S979.88,1755.37,982.08,1755.37Zm4.76-142.58c1.09,2.19,5.5-2.19,3.3-4.38S984.65,1610.58,986.84,1612.79Zm3.21,28.52a1.64,1.64,0,1,0,0-3.28A1.64,1.64,0,1,0,990.05,1641.31Zm-.16,61.43c2.2,0,2.21-4.38,0-4.38S987.7,1702.73,989.89,1702.74Zm-.08,30.71a1.65,1.65,0,1,0,0-3.29A1.65,1.65,0,0,0,989.81,1733.45Zm1.4-530.89h4.39c3.29,0,5.49,0,7.69-3.27l-4.37-4.4Zm-1.09,413.53c0,2.19,4.39,2.2,4.39,0C994.52,1615,990.12,1615,990.12,1616.09Zm-.18,66.91c0,2.19,4.39,2.2,4.4,0S990,1680.8,989.94,1683Zm-.15,58.14,7.68,0-3.28-3.3Zm4.59-75.68c2.19,0,2.21-4.38,0-4.39S992.19,1665.46,994.38,1665.46Zm3.41-42.77c2.19,0,2.2-4.38,0-4.39C996.7,1618.3,996.69,1622.69,997.79,1622.69Zm4.37,3.3a1.65,1.65,0,1,0,0-3.29A1.65,1.65,0,0,0,1002.16,1626Zm3.28,4.4c2.2,0,2.21-4.39,0-4.4C1004.36,1626,1004.35,1630.38,1005.44,1630.39Zm-.07,25.23,8.79-4.37-8.77,0Zm16.36,37.34c0-6.59,0-12.08-4.34-17.57-5.49,0-7.68,1.08-7.69,5.46C1009.68,1688.53,1014.05,1692.94,1021.73,1693Zm-7.52-62.55c1.1,0,1.12-4.39,0-4.39C1012,1626,1012,1630.4,1014.21,1630.41Zm2.95,130.54c7.68,0,12.1-13.13,12.12-19.71V1738l-15.39,10.92C1015,1753.27,1017.17,1756.56,1017.16,1761Zm1.43-540.77a1.64,1.64,0,1,0,0-3.28A1.64,1.64,0,1,0,1018.59,1220.18Zm-1.09,413.53a1.65,1.65,0,1,0,0-3.29A1.65,1.65,0,1,0,1017.5,1633.71Zm-.1,35.1c9.88,0,15.37-3.25,15.4-13.12v-4.39c-3.31,6.57-8.8,9.85-15.39,9.83Zm-.09,37.29,12.07-3.26H1025C1021.71,1702.82,1019.52,1702.82,1017.31,1706.1Zm4.35,14.28c2.19,0,2.2-4.39,0-4.39S1019.47,1720.37,1021.66,1720.38Zm.21-80.08h3.29v-4.39Zm4.39-415.71c2.19,0,2.2-4.39,0-4.39C1025.17,1220.19,1025.16,1224.59,1026.26,1224.59Zm3.07,499.09a1.64,1.64,0,1,0,0-3.28A1.64,1.64,0,1,0,1029.33,1723.68Zm3.32-13.15,4.4-4.38h-4.39Zm4.42-12h2.2c2.19,0,3.29,0,5.49-4.38Zm12.21-52.62c1.1,0,1.11-4.39,0-4.39C1047.1,1641.46,1047.09,1645.85,1049.28,1645.86Zm-.15,54.84c1.1,0,1.12-4.39,0-4.39C1047,1696.31,1046.94,1700.7,1049.13,1700.7Zm0,15.36c1.1,0,1.12-4.39,0-4.39C1046.91,1711.66,1046.9,1716.05,1049.09,1716.06Zm-.08,31.81c1.1,0,1.11-4.38,0-4.39C1046.83,1743.48,1046.82,1747.87,1049,1747.87Z"/><path class="cls-1" d="M1122.12,1331.84s1.56-2.34,3.11-2.34,22.58-3.11,24.14-3.11V970.59c0-6.22-27.25,0-27.25-6.22l2.34-74.74c.77-10.9,5.44-15.57,16.34-15.57h81c29.59,0,84.08-1.56,104.33,2.33,10.9.78,15.56,5.45,15.56,16.35v181.4c0,4.68-6.22,3.11-7.78,3.11h-7c-9.33,0-52.93-3.11-45.93-2.33-10.89-.78-15.57-5.45-15.57-16.35V972.93c0-3.89-12.46-2.34-12.46-2.34s-10.12-1.55-10.12,2.34v108.22c0,10.89,4.67,15.57,15.57,15.57h25.7c10.9,0,15.57,4.67,15.57,15.57V1159c0,10.89-4.67,15.56-15.57,15.56h-25.7c-10.9,0-15.57,4.67-15.57,15.57v136.25s6.23,3.11,8.57,3.11c3.11,0,14-1.55,17.12-1.55V1209.61c0-10.9,4.68-15.58,15.58-15.58H1323c10.9,0,15.57,4.68,15.57,15.58v206.31l-3.11,6.23h-38.93c-58.39,0-114.44,0-158.82-3.12-10.9,0-15.57-4.67-15.57-15.57Zm51.38-403.28,3.12-3.12h-6.23Zm0,213.31c1.56,0,1.56-3.11,0-3.11S1172,1141.87,1173.5,1141.87Zm0,149.48a1.17,1.17,0,1,0,0-2.33A1.17,1.17,0,0,0,1173.5,1291.35Zm0-66.95h3.12l-3.12-6.23Zm0,71.62h1.56c3.12,0,7.79-1.55,7.79-4.67v-1.56Zm3.12-226.55c1.56,0,1.56-3.12,0-3.12S1175.06,1069.47,1176.62,1069.47Zm0,9.35c1.56,0,1.56-3.12,0-3.12S1175.06,1078.82,1176.62,1078.82Zm0,68.5a1.17,1.17,0,1,0,0-2.33A1.17,1.17,0,1,0,1176.62,1147.32Zm0,9.35c1.56,0,1.56-3.12,0-3.12S1175.06,1156.67,1176.62,1156.67Zm3.11-64.63c4.67-1.55,3.12-6.22,3.12-8.56v-6.23c-1.56,0-6.23,4.68-6.23,6.23v.78C1176.62,1087.38,1178.18,1088.93,1179.73,1092Zm0,7.79c1.56,0,1.56-3.11,0-3.11S1178.18,1099.83,1179.73,1099.83Zm0,112.11c0,1.56,3.12,1.56,3.12,0S1179.73,1210.39,1179.73,1211.94Zm0,179.84h3.12v-2.33Zm3.12-319.2c1.55,0,1.55-3.11,0-3.11S1181.29,1072.58,1182.85,1072.58Zm0,81c1.55,0,1.55-3.12,0-3.12S1181.29,1153.55,1182.85,1153.55Zm0,7.78c1.55,0,1.55-3.11,0-3.11S1181.29,1161.33,1182.85,1161.33Zm0,67a1.17,1.17,0,0,0,0-2.33A1.17,1.17,0,1,0,1182.85,1228.29Zm0,122.23c1.55,0,1.55-3.11,0-3.11S1181.29,1350.52,1182.85,1350.52Zm0-419.63c1.55,1.56,4.67-.78,3.11-2.33S1181.29,930.11,1182.85,930.89Zm0-8.56h8.56V916.1ZM1186,1166c1.56,0,1.56-3.11,0-3.11S1184.4,1166,1186,1166Zm0,218.77c1.56,0,1.56-3.11,0-3.11S1184.4,1384.78,1186,1384.78Zm0-127.68a3.76,3.76,0,0,0,5.45,0C1193,1255.54,1184.4,1255.54,1186,1257.1Zm3.9-173.62h1.55l-2.33-9.34c-1.56,0-3.12,4.68-3.12,6.23C1186,1083.48,1189.08,1083.48,1189.86,1083.48Zm-3.9,119.9v3.12l21-3.12c-1.56,0-10.9-4.67-12.46-6.23a4.75,4.75,0,0,1,0-6.23C1189.08,1194,1186,1197.15,1186,1203.38Zm0,26.47c0,1.56,3.12,1.56,3.12,0S1186,1228.29,1186,1229.85Zm0,111.33h5.45l-2.33-3.11Zm3.12-37.37c.78,0,.78-3.12,0-3.12C1187.52,1300.69,1187.52,1303.81,1189.08,1303.81Zm14.79-7.79v-14.79c-1.56,1.56-12.46,4.67-14.79,8.56h7C1196.08,1294.47,1197.64,1296,1203.87,1296Zm-12.46-249.13c0,1.56,3.11,1.56,3.11,0S1191.41,1045.34,1191.41,1046.89Zm0,84.08h3.11v-3.11Zm0,105.11,3.11-3.12h-3.11Zm3.11-202.43c1.56,0,1.56-3.11,0-3.11S1193,1033.65,1194.52,1033.65Zm0-103.54c1.56,0,7.79,0,9.35-4.67,0-1.56-4.68-3.11-6.23-3.11C1194.52,922.33,1194.52,928.56,1194.52,930.11Zm0,234.34c0,1.56,3.12,1.56,3.12,0S1194.52,1162.9,1194.52,1164.45Zm0,95.76c0,1.56,3.12,1.56,3.12,0S1194.52,1258.66,1194.52,1260.21Zm3.12-64.61c1.55,0,1.55-3.12,0-3.12S1196.08,1195.6,1197.64,1195.6Zm3.12-299c1.55,0,1.55-3.12,0-3.12S1199.19,896.64,1200.76,896.64Zm0,368.25c1.55,0,1.55-3.12,0-3.12S1199.19,1264.89,1200.76,1264.89Zm0,130h8.56v-5.45C1207,1391,1202.31,1391.78,1200.76,1394.9Zm3.11-462.45a1.17,1.17,0,0,0,0-2.34A1.17,1.17,0,0,0,1203.87,932.45Zm0,27.25c1.55,0,1.55-3.12,0-3.12S1202.31,959.7,1203.87,959.7Zm0,66.17,5.45-3.11h-.78C1207,1022.76,1205.42,1022.76,1203.87,1025.87Zm3.11-61.5c1.56,1.56,3.89-1.56,2.34-3.12C1208.54,959.7,1205.42,962.81,1207,964.37Zm2.34,304.41,3.11-2.34-5.45-3.12v1.57C1207,1266.44,1207,1268,1209.32,1268.78Zm0-372.14c1.55,0,1.55-3.12,0-3.12C1208.54,893.52,1208.54,896.64,1209.32,896.64Zm0,284.16c1.55,0,1.55-3.11,0-3.11C1208.54,1177.69,1208.54,1180.8,1209.32,1180.8Zm3.11-172.84v-3.11h-3.11Zm-3.11,144,6.23-3.12-6.23-3.11Zm3.11-121.46c1.55,0,1.55-3.11,0-3.11S1210.87,1030.54,1212.43,1030.54Zm0,76.3c3.12,0,6.23-2.33,6.23-5.45h-6.23Zm7.79,126.12c0-1.55,0-7-4.67-8.56-1.57,0-3.12,3.89-3.12,5.45C1212.43,1233,1218.66,1233,1220.22,1233Zm-7.79,98.88h3.12v-11.68h-3.12Zm0,27.24,6.23-3.11h-6.23Zm3.12-462.44c1.55,0,1.55-3.12,0-3.12S1214,896.64,1215.55,896.64Zm0,137c1.55,0,1.55-3.11,0-3.11S1214,1033.65,1215.55,1033.65Zm0,29.59a1.17,1.17,0,0,0,0-2.33A1.17,1.17,0,1,0,1215.55,1063.24Zm0,225.78c1.55,0,1.55-3.12,0-3.12S1214,1289,1215.55,1289Zm0-74c1.55,1.55,4.67-1.56,3.11-3.12S1214,1213.5,1215.55,1215.06Zm3.11-291.18c1.56,0,1.56-3.11,0-3.11S1217.1,923.88,1218.66,923.88Zm0,112.89c1.56,0,1.56-3.12,0-3.12S1217.1,1036.77,1218.66,1036.77Zm6.22,338.67c1.57,0,1.57-3.12,0-3.12S1223.33,1375.44,1224.88,1375.44Zm7-223.44c10.9,0,14-14.79,14-22.58v-1.56c-3.12,10.9-9.34,19.46-21,21C1228,1150.43,1229.56,1152,1231.89,1152Zm1.56-208.65c14-7.79,22.58-13.24,30.36-27.25-4.66,6.23-10.9,12.46-17.9,14.79l5.45-8.56h-5.45c-4.67,0-17.91,7.78-17.91,11.67h5.45Zm3.12,409.51v-1.56c0-2.33-3.12-3.89-6.23-3.89-.78,0-2.34,1.56-2.34,3.11Zm9.34-202.43c1.55,0,1.55-3.11,0-3.11S1244.35,1150.43,1245.91,1150.43Zm0,234.35c1.55,0,1.55-3.11,0-3.11S1244.35,1384.78,1245.91,1384.78ZM1249,1124c1.56,0,1.56-3.12,0-3.12S1247.46,1124,1249,1124Zm0,29.58c1.56,0,1.56-3.12,0-3.12S1247.46,1153.55,1249,1153.55Zm2.34,237.45c1.55,0,1.55-3.11,0-3.11C1250.58,1387.89,1250.58,1391,1251.36,1391Zm0-492.81c4.67,0,9.34,0,12.45-3.11h-12.45Zm3.11,222.66c1.56,0,1.56-3.11,0-3.11S1252.91,1120.85,1254.47,1120.85Zm3.11,253c1.57,0,1.57-3.11,0-3.11S1256,1373.88,1257.58,1373.88Zm0,6.22h6.23l-3.11-3.11Zm6.23-454.66c7,0,13.24-6.23,14.8-12.46-11.68,0-7.79,10.9-14.8,10.9Zm3.12,19.46c1.55,0,1.55-3.11,0-3.11S1265.37,944.9,1266.93,944.9Zm0,177.51c0,1.56,3.12,1.56,3.12,0S1266.93,1120.85,1266.93,1122.41Zm5.44,24.91a1.17,1.17,0,1,0,0-2.33A1.17,1.17,0,0,0,1272.37,1147.32Zm3.12,239h3.12c4.66,0,9.34-1.56,9.34-6.24V1377Zm3.12-488.15c1.55,1.56,4.66-1.55,3.11-3.11S1277.05,896.64,1278.61,898.19Zm6.23,3.11c1.55,0,1.55-3.11,0-3.11S1283.27,901.3,1284.84,901.3Zm3.11,91.09a1.17,1.17,0,1,0,0-2.33A1.17,1.17,0,1,0,1288,992.39Zm0,25.7c1.56,0,1.56-3.12,0-3.12S1286.39,1018.09,1288,1018.09Zm3.11-118.34c.78,0,.78-3.11,0-3.11C1289.51,896.64,1289.51,899.75,1291.06,899.75Zm2.34,387.71c0-1.56,3.11-10.9,3.11-12.46l3.12-6.22c0-.78-1.56-5.46-3.12-5.46l-5.45,3.12v7S1288,1285.9,1293.4,1287.46Zm-2.34-362h5.45l-3.11-6.23Zm0,79.41v4.68l2.34-12.47C1291.06,998.63,1291.06,1001.74,1291.06,1004.85Zm0,351.12,2.34-3.11h-2.34Zm2.34-363.58a1.17,1.17,0,1,0,0-2.33A1.17,1.17,0,1,0,1293.4,992.39Zm3.11,255.37v9.34c6.23-6.23,9.34-14.8,9.34-24.14C1296.51,1236.08,1296.51,1239.19,1296.51,1247.76ZM1299.63,913h3.11l-3.11-2.33Zm0,81h3.11v-2.33Zm3.11-63.84c1.56,0,1.56-3.11,0-3.11S1301.18,930.11,1302.74,930.11Zm0,90.31c1.56,0,1.56-3.11,0-3.11S1301.18,1020.42,1302.74,1020.42Zm0,244.47c1.56,0,1.56-3.12,0-3.12S1301.18,1264.89,1302.74,1264.89Zm0-306.75c1.56,1.56,7.79,1.56,9.34,0C1312.86,956.58,1301.18,956.58,1302.74,958.14Zm3.11,350.34c4.68-1.56,11.69-6.23,11.69-10.9s-11.69-4.67-14.8-4.67C1302.74,1299.14,1307.41,1302.25,1305.85,1308.48Zm-3.11,38.93c0,1.56,3.11,1.56,3.11,0S1302.74,1345.85,1302.74,1347.41Zm3.11-292.73c1.56,0,1.56-3.12,0-3.12S1304.3,1054.68,1305.85,1054.68Zm0,200.86c1.56,0,1.56-3.12,0-3.12S1304.3,1255.54,1305.85,1255.54Zm0-351.12v3.12l14.8-3.12c-1.56-3.12-6.23-6.23-10.12-6.23C1307.41,898.19,1305.85,901.3,1305.85,904.42Zm0,26.47c0,1.56,3.12,1.56,3.12,0C1309,930.11,1305.85,930.11,1305.85,930.89Zm0,80.19h6.23L1309,1008Zm3.12-6.23c1.56,0,1.56-3.11,0-3.11S1307.41,1004.85,1309,1004.85Zm0,256.92c1.56,0,1.56-3.11,0-3.11S1307.41,1261.77,1309,1261.77Zm13.23-264.71V982.27c-3.11,1.56-10.12,4.68-13.23,9.35h7C1316,995.51,1307.41,995.51,1322.2,997.06Zm-10.12-59.94,2.34-3.12h-2.34Zm0,282.6v1.57l5.46-3.12-3.12-3.11A4.64,4.64,0,0,0,1312.08,1219.72Zm2.34-258.47c0,1.56,3.12,1.56,3.12,0S1314.42,959.7,1314.42,961.25Zm3.12,420.42c1.55,0,1.55-3.12,0-3.12S1316,1381.67,1317.54,1381.67Zm3.11-415.74c1.55,0,1.55-3.12,0-3.12S1319.09,965.93,1320.65,965.93Z"/><path class="cls-1" d="M1119.58,1909.82c0-4.94,11.85-12.72,11.85-12.72l33.1-4.51c0-34.61,7.33-191.89,7.33-227.22,0-16.95-4.5-91.84-4.5-107.38h-36.2c-5,0-11.58-2.12-11.58-11.58V1492l2.83,1.68h53.7c113.74,0,205.05,1.41,316.67,2.82,5,0,18.91,10.26,16.08,20.59V1683c0,4.94-2.12,7.06-7.06,7.06h-44.08c-4.94,0-7.76-2.12-10.59-6.35,2.12-44.52-3.26-113.21-66.15-113.21H1271.31V1696.2h41.15c26.84,0,24-49.9,24-63.32h40.27c4.94,0,7.06,2.12,7.06,7.07v180.86c0,4.94-2.12,7.06-7.06,7.06h-33.21c-4.94,0-7.77-2.12-9.89-6.36,1.41-16.25,4.24-59.08-29-59.08h-33.38v124.25c21.19,4.24,28.43,3.53,48.92,3.53,95.37,0,125.48-6.53,125.48-111.8a15.52,15.52,0,0,1,12-4.94h44.08c4.94,0,7.06,2.12,7.06,7.06,2.83,55.82,2.83,100.67,2.83,155.06,0,5,0,25.1-16.08,25.1H1134c-4.94,0-11.57-6.63-12.28-11.57.71.7-2.12-30.11-2.12-37.18v-2.12Zm54.84,16.6,4.79-2.05h-1.36C1176.47,1924.37,1175.78,1924.37,1174.42,1926.42Zm12.33-40.44c.69,0,.69-2.74,0-2.74C1185.38,1883.24,1185.38,1886,1186.75,1886Zm0-18.5v1.37l4.8-4.8h-1.37C1187.44,1864.05,1186.75,1865.42,1186.75,1867.48Zm6.86,3.42c0,1.37,2.74,1.37,2.74,0C1196.35,1870.21,1193.61,1870.21,1193.61,1870.9Zm0,11.66h2.74v-3.43Zm2.74-24c2.06,0,9.59-8.22,9.59-11C1205.94,1845.54,1193.61,1858.56,1196.35,1858.56Zm2.06,8.92a1,1,0,0,0,0-2.06C1197.72,1865.42,1197.72,1867.48,1198.41,1867.48Zm0-48.67h5.48c-1.37-2.74-2.75-2.74-4.11-2.74h-1.37Zm7.53,48.67c.69,0,.69-2.06,0-2.06A1,1,0,0,0,1205.94,1867.48Zm2.06-44.56c.69,0,.69-2.74,0-2.74C1206.63,1820.18,1206.63,1822.92,1208,1822.92Zm2.06,78.82c1.37,0,1.37-2.74,0-2.74S1208.69,1901.74,1210.06,1901.74Zm4.8-67.17c1.36,0,1.36-2.73,0-2.73C1214.17,1831.84,1214.17,1834.57,1214.86,1834.57Zm7.53,0c0,.69,2.75.69,2.75,0C1225.14,1833.2,1222.39,1833.2,1222.39,1834.57Zm4.8,17.14c1.38,0,1.38-2.74,0-2.74S1225.82,1851.71,1227.19,1851.71Zm0,47.29c1.38,0,1.38-2.74,0-2.74S1225.82,1899,1227.19,1899Zm2.75-176.83c.68,0,.68-2.06,0-2.06A1,1,0,0,0,1229.94,1722.17Zm0,123.37c2-2,2-3.42,2-5.48h-2Zm2,87.73a1,1,0,1,0,0-2A1,1,0,1,0,1232,1933.27Zm0-209.73c1.37,2.06,4.11-1.37,2.74-2.06C1233.36,1720.11,1230.62,1722.17,1232,1723.54Zm2.74,3.42c2.06-1.36,6.17-3.42,6.17-6.85v-1.37Zm2.06,161.76c1.37,0,1.37-2.74,0-2.74C1236.1,1886,1236.1,1888.72,1236.79,1888.72Zm0-88.41c1.37,1.37,4.11-.69,2.74-2.75C1238.16,1796.2,1236.1,1799.62,1236.79,1800.31Zm2.74,94.58c1.37-.68,1.37-4.11,0-5.48C1238.16,1888.72,1238.16,1896.26,1239.53,1894.89Zm1.37-143.25c1.37,0,1.37-2.74,0-2.74Zm32.21,180.26,4.12-2.05-2.06-3.43Zm16.46-11.65c.68,0,.68-2.74,0-2.74C1288.19,1917.51,1288.19,1920.25,1289.57,1920.25Zm0-188.49c.68,2.75,4.79,10.28,4.79,10.28h2.06v-13h-6.85Zm6.85,191.23c1.37,0,1.37-2.74,0-2.74C1295.74,1920.25,1295.74,1923,1296.42,1923Zm4.8-182.31a1,1,0,0,0,0-2.06C1300.53,1738.62,1300.53,1740.68,1301.22,1740.68ZM1304,1742a1.38,1.38,0,1,0,2.74,0C1306.7,1740.68,1304,1740.68,1304,1742Zm4.79,177.53c0,.68,2.06.68,2.06,0C1310.81,1917.51,1308.75,1917.51,1308.75,1919.57Zm4.12,3.42c1.37,0,1.37-2.74,0-2.74S1311.5,1923,1312.87,1923Zm2.74-191.23V1729h-2.74Zm-2.74,8.23h2.74v-2.74Zm4.8-14.39c1.36,0,1.36-3.43,0-3.43C1317,1722.17,1317,1725.6,1317.67,1725.6Zm7.54,0c1.37,0,1.37-3.43,0-3.43S1323.83,1725.6,1325.21,1725.6Zm0,217.27c1.37,0,1.37-2.74,0-2.74S1323.83,1942.87,1325.21,1942.87Zm4.79-183.69a1,1,0,1,0,0-2.06A1,1,0,0,0,1330,1759.18Zm11.65,168.38a49,49,0,0,0,4-3l.82-.61h-.41c-1,0-5.87.21-5.87,1.42h1.42Zm2.74-234.18c.69,0,.69-2.06,0-2.06S1343.71,1693.38,1344.39,1693.38Zm0,82.94a7.71,7.71,0,0,0,4.8-6.86v-.69Zm2.07-66.49c1.36,0,1.36-2.74,0-2.74S1345.08,1709.83,1346.46,1709.83Zm0,47.29c1.36,0,1.36-2.74,0-2.74S1345.08,1757.12,1346.46,1757.12Zm2.73,186.44c.69,0,.69-2.06,0-2.06A1,1,0,0,0,1349.19,1943.56Zm0-240.58c2.06-1.38,2.06-2.74,2.06-4.8h-2.06Zm6.86,43.18a1,1,0,0,0,0-2.06C1355.36,1744.1,1355.36,1746.16,1356.05,1746.16Zm2.74,6.85a4.17,4.17,0,0,0,0-5.48C1357.42,1746.16,1357.42,1754.38,1358.79,1753Zm0,40.44a1,1,0,1,0,0-2A1,1,0,1,0,1358.79,1793.45Zm0,146.68c2.06-1.37,4.8-4.12,4.8-6.86v-1.37Zm26-24c0,1.37,2.75,1.37,2.75,0S1384.83,1914.77,1384.83,1916.14Zm0,15.76h2.75c2.05,0,3.42,0,4.8-2.05l-2.75-3.43Zm7.55-11.65c.68,0,.68-2.74,0-2.74C1391,1917.51,1391,1920.25,1392.38,1920.25Zm2,1.37c0,1.37,2.75,1.37,2.75,0S1394.43,1920.25,1394.43,1921.62Zm4.8,4.8,2.74-2.05h-2.74Zm2.74,17.14a1,1,0,0,0,0-2.06A1,1,0,0,0,1402,1943.56Zm4.8-20.57c1.37,0,1.37-2.74,0-2.74S1405.4,1923,1406.77,1923Zm13.7,1.38h2.75c-1.37-2.75-2.75-6.86-4.8-8.23-1.37,0-2.74,4.11-2.74,5.48C1415.68,1924.37,1419.79,1924.37,1420.47,1924.37Zm10.29-13,4.79-5.48c-4.79-1.37-1.36-4.8-1.36-9.6l1.36,1.37c1.38,0,4.8-3.42,4.8-4.79h-2.74c-6.17,0-15.76,10.28-19.19,15.08h12.34Zm-4.8-15.08c.68,0,.68-2,0-2A1,1,0,1,0,1426,1896.26Zm6.86-6.85,4.79-2.06h-.68A4.09,4.09,0,0,0,1432.82,1889.41Zm2.73,47.29h6.86c0-2,0-3.43-2.06-4.8Zm6.86-40.44a1,1,0,1,0,0-2C1441.72,1894.21,1441.72,1896.26,1442.41,1896.26Zm0,26.73c1.37,0,1.37-2.74,0-2.74C1441.72,1920.25,1441.72,1923,1442.41,1923Zm0-17.13h1.37c1.37,0,2.74,0,4.11-2.74Zm2.74,20.56c1.37,1.37,2.74-1.37,2.74-2.05C1446.52,1923,1443.78,1925.05,1445.15,1926.42Zm0-28.79h1.37c2.75,0,2.75-4.79,2.75-8.22v-2.06Zm2.74-14.39v-2.74C1446.52,1880.5,1446.52,1883.24,1447.89,1883.24Zm0,52.77v-2.74C1446.52,1933.27,1446.52,1936,1447.89,1936Zm1.38-63.74v2.06c3.42-3.43,3.42-8.23,7.53-10.28h-1.37C1452,1864.05,1449.27,1870.21,1449.27,1872.27ZM1452,1862c.69,0,.69-2.74,0-2.74C1450.63,1859.25,1450.63,1862,1452,1862Zm0,37c.69,0,.69-2.74,0-2.74C1450.63,1896.26,1450.63,1899,1452,1899Zm0-45.92h2.06c2.74,0,9.6-2.74,9.6-2.74v-4.8Zm4.8,24.68a1,1,0,1,0,0-2.06A1,1,0,0,0,1456.8,1877.76Zm6.17-17.14c2.06,0,3.43-3.42,3.43-6.85v-.69l-9.6,5.48C1458.86,1859.25,1460.23,1860.62,1463,1860.62Zm-4.11,19.88c1.37,0,1.37-2.74,0-2.74C1458.18,1877.76,1458.18,1880.5,1458.86,1880.5Zm2.74,2.74c1.37,0,1.37-2.74,0-2.74S1460.23,1883.24,1461.6,1883.24Zm0,55.52c1.37,0,1.37-2.75,0-2.75S1460.23,1938.76,1461.6,1938.76Zm2.06-258.4c1.37,0,1.37-2.74,0-2.74C1463,1677.62,1463,1680.36,1463.66,1680.36Zm0-45.92c2.74-1.37,5.48-4.12,5.48-6.85v-1.38Zm5.48,300.21,4.8-10.28-2.74-2.75c-3.43,2.75-4.8,3.43-4.8,8.23C1466.4,1931.9,1466.4,1933.27,1469.14,1934.65Zm0-26.73h2.06v-2.06Zm2.06-82.94a1,1,0,0,0,0-2.06A1,1,0,0,0,1471.2,1825Zm2.74,58.26c.69,0,.69-2.74,0-2.74C1472.57,1880.5,1472.57,1883.24,1473.94,1883.24Zm0,29.47c.69,0,.69-3.42,0-3.42C1472.57,1909.29,1472.57,1912.71,1473.94,1912.71Zm2-8.22c1.37,0,1.37-2.75,0-2.75S1474.63,1904.49,1476,1904.49Zm0,23.3c1.37,0,1.37-2.74,0-2.74S1474.63,1927.79,1476,1927.79Zm4.8-90.47v-2.06c0-2.06-2-4.8-4.8-5.49v2.07C1476,1834.57,1477.36,1837.32,1480.79,1837.32Zm1.37,41.81h.69l-2.06-8.23-4.8,6.17C1478.74,1877.76,1480.11,1879.13,1482.16,1879.13Zm-3.42-227.56c1.37,0,1.37-2.74,0-2.74S1477.36,1651.57,1478.74,1651.57Zm0,209h2v-2.06h-2Zm2-11.65a1,1,0,1,0,0-2C1480.11,1846.92,1480.11,1849,1480.79,1849Zm2.06,93.9c1.37-2.74,1.37-11.65,0-13C1482.16,1926.42,1482.16,1943.56,1482.85,1942.87Zm-292.11-385.08c1.5,0,1.5-3.78,0-3.78C1190,1554,1190,1557.79,1190.74,1557.79Zm0,68.52c1.5,0,1.5-3,0-3C1190,1623.28,1190,1626.31,1190.74,1626.31Zm8.3-64.75v-9.06l-5.29,6C1195.26,1561.56,1196,1561.56,1199,1561.56Zm-3,16.61a1.13,1.13,0,1,0,0-2.26C1195.26,1575.91,1195.26,1578.17,1196,1578.17Zm0,67c1.51,0,1.51-3.78,0-3.78C1195.26,1641.4,1195.26,1645.18,1196,1645.18Zm3-101.74h3v-6.79C1199,1538.91,1199,1540.43,1199,1543.44Zm6,4.53c1.51,0,1.51-3,0-3S1203.56,1548,1205.08,1548Zm5.28,24.16a1.14,1.14,0,0,0,0-2.27A1.14,1.14,0,0,0,1210.36,1572.13Zm0,75.31a1.13,1.13,0,1,0,0-2.26A1.13,1.13,0,1,0,1210.36,1647.44Zm3-6a1.13,1.13,0,1,0,0-2.26A1.13,1.13,0,1,0,1213.38,1641.4Zm5.89-65.49c6,0,10.56-11.33,12.07-17.37h-1.51C1226.82,1558.54,1219.27,1572.13,1219.27,1575.91Zm-8,38.63c2.27-1.51,5.29-1.51,8.31-1.51v-20.39a8.85,8.85,0,0,1-8.31,6.8Zm4.38,19.31c3,0,5.28-.75,5.28-4.53v-1.51Zm3,15.1,5.28-6-8.3,3.77Zm11-103.84v-3h-2.26Zm0,40c-.76,0-.76-3.77,0-3.77C1231.19,1581.35,1231.19,1585.12,1229.68,1585.12Zm3-35.48c1.51,0,1.51-3,0-3S1231.19,1549.64,1232.7,1549.64ZM1227,1633.1c.75,0,.75-3.78,0-3.78C1225.46,1629.32,1225.46,1633.1,1227,1633.1Zm8.75-69.87c.75,2.26,3.77-1.52,2.26-3C1236.47,1559.45,1234.21,1561.71,1235.72,1563.23Zm-8.75,83.46h.75c4.54,0,8.31-3.77,9.82-6.8h-5.28v-6Zm11-60.06c1.51,0,1.51-3,0-3S1236.47,1586.63,1238,1586.63Zm-5.72,36.65c.75,0,.75-3,0-3C1230.75,1620.26,1230.75,1623.28,1232.26,1623.28Zm11-61.57a1.13,1.13,0,1,0,0-2.26A1.13,1.13,0,1,0,1243.27,1561.71Zm3,3.78c1.51,0,1.51-3.78,0-3.78S1244.78,1565.49,1246.29,1565.49Zm-8.75,82a1.13,1.13,0,1,0,0-2.26A1.13,1.13,0,1,0,1237.54,1647.44Zm0-21.89h2.27v-3.78Zm11-94c1.51,0,1.51-3,0-3C1247.8,1528.5,1247.8,1531.52,1248.55,1531.52Zm0,55.11c1.51,0,1.51-3,0-3C1247.8,1583.61,1247.8,1586.63,1248.55,1586.63Zm3-50.58c1.5,0,1.5-3.77,0-3.77S1250.06,1536.05,1251.58,1536.05Zm0,44.55c1.5,0,1.5-3,0-3S1250.06,1580.6,1251.58,1580.6Zm-6.49,39.66c1.51,0,1.51-3,0-3C1244.33,1617.24,1244.33,1620.26,1245.09,1620.26Zm11.76-82.7c1.52,0,1.52-3,0-3S1255.35,1537.56,1256.85,1537.56Zm-77.51,406.13h92.11c-1.51-7-15.1,2.67-18.88-7l-5.72,1.49c-1.51-1.06-2.58,1-4.84,1-3,0-6.8-4.06-8.31-2.45l-13.12,3.52-3.93-3.09-13.12,2c-8.31,0,3.75.23-5.31.23l-13.12.42C1181.32,1943.58,1176.32,1936.21,1179.34,1943.69Zm120.05.16c2.26,0,12.07-1.51,12.83-1.51,1.5,0,3,0,3-2.31h-15.85Zm24.15,16.45a1.14,1.14,0,0,0,0-2.27A1.14,1.14,0,0,0,1323.54,1960.3Zm7.49-16.45,30.26-1.51c-.75-6-12.83-1.51-12.83-1.51v-4.53C1342.42,1940.83,1336.32,1939.32,1331,1943.85Z"/><path class="cls-1" d="M160.62,1676.35S16,1663.75,2.8,1644s22.68-26.73,58.57-11.89S160.62,1676.35,160.62,1676.35Z"/><path class="cls-1" d="M161.51,1803.94s-138,32.85-149.26,51.88,28.38,18.76,57.63,5.21S161.51,1803.94,161.51,1803.94Z"/><path class="cls-1" d="M147.69,1740.17s-115-17.92-130.28-1.89,10.74,30.13,42.27,23.43S147.69,1740.17,147.69,1740.17Z"/><path class="cls-1" d="M1036,163.61S1048.86,16.33,1069,2.86s27.23,23.09,12.11,59.66S1036,163.61,1036,163.61Z"/><path class="cls-1" d="M906.07,164.52S872.6,24,853.22,12.48s-19.12,28.9-5.31,58.7S906.07,164.52,906.07,164.52Z"/><path class="cls-1" d="M971,150.44s18.25-117.17,1.92-132.7S942.26,28.67,949.07,60.8,971,150.44,971,150.44Z"/><path class="cls-1" d="M1362,2487.27s44.59,2.31,74.12-27.73c25.24-25.68,52.46-115,48.29-183.39-.93-15.15,22.51-23.7,22.51-11.2,0,45.38-15.25,168.22-59.79,204.16-50.73,40.94-85.75,25.84-85.75,25.84"/><path class="cls-1" d="M605.24,2464.88V2017.29c0-31.4-46.59-27.35-46.59-32.41v-77c0-14.18,6.08-20.26,20.26-20.26H756.12C915,1887,888.78,2036.53,888.78,2258.3c0,239,17.22,357.46-136.71,357.46H578.91c-14.18,0-20.26-6.07-20.26-20.25v-80C591.06,2509.43,605.24,2501.34,605.24,2464.88ZM589,2591.46c0-16.2,16.21-27.34,16.21-38.48v-5.06C594.1,2557,587,2575.26,583,2587.41,583,2589.44,587,2591.46,589,2591.46Zm16.21,0c0,1,3,1,3,0A1.52,1.52,0,0,0,605.24,2591.46Zm18.22-25.31h10.13c0-2-1-4.05-3-4.05S623.46,2564.12,623.46,2566.15Zm10.13-378.74a1.52,1.52,0,0,0,0-3C632.58,2184.37,632.58,2187.41,633.59,2187.41Zm0,50.64c2,0,2-4.05,0-4.05C632.58,2234,632.58,2238.05,633.59,2238.05Zm0,25.31c2,0,2-4.05,0-4.05C632.58,2259.31,632.58,2263.36,633.59,2263.36Zm0-41.52c2,2,6.08-2,4-4.05C635.61,2216.78,632.58,2219.82,633.59,2221.84Zm4,18.23,7.09-4.05h-2C640.68,2236,639.67,2236,637.64,2240.07Zm7.09-13.17a1.52,1.52,0,0,0,0-3A1.52,1.52,0,0,0,644.73,2226.9Zm0,307.85a1.52,1.52,0,0,0,0-3C643.72,2531.71,643.72,2534.75,644.73,2534.75Zm4-271.39c1,0,1-4.05,0-4.05C646.75,2259.31,646.75,2263.36,648.78,2263.36Zm0,64.81c1,0,1-4.05,0-4.05C646.75,2324.12,646.75,2328.17,648.78,2328.17Zm3,199.49a1.51,1.51,0,1,0,0-3A1.51,1.51,0,1,0,651.82,2527.66Zm0-197.47c4-2,4-4,4-6.07v-1Zm4-66.83c1,0,1-4.05,0-4.05C653.84,2259.31,653.84,2263.36,655.87,2263.36Zm3-21.27c2,0,2-4,0-4S656.88,2242.09,658.91,2242.09Zm1,312.92c1,0,1-4.06,0-4.06C657.89,2551,657.89,2555,659.92,2555Zm0,37.46c1,0,1-3,0-3A1.52,1.52,0,1,0,659.92,2592.47Zm3-83a1.51,1.51,0,1,0,0-3A1.51,1.51,0,1,0,663,2509.43Zm4,47.6c2,0,2-4.05,0-4.05S665,2557,667,2557Zm7.09,14.18c2,0,2-4.05,0-4.05S672.07,2571.21,674.1,2571.21Zm3,2c2,2,6.08-2,4.06-4.05S676.12,2571.21,677.13,2573.23Zm4.06-59.74c2,0,2-4.06,0-4.06S679.16,2513.49,681.19,2513.49Zm0,50.63c2,0,2-4,0-4S679.16,2564.12,681.19,2564.12Zm4-46.58c1,0,1-4.05,0-4.05C683.21,2513.49,683.21,2517.54,685.24,2517.54Zm3,3a1.52,1.52,0,1,0,0-3A1.52,1.52,0,0,0,688.27,2520.58Zm4.06-231.91c2,0,2-4,0-4S690.3,2288.67,692.33,2288.67Zm3,217.73c2,0,2-4.05,0-4.05C694.35,2502.35,694.35,2506.4,695.36,2506.4Zm4,5.06a1.52,1.52,0,1,0,0-3A1.52,1.52,0,0,0,699.41,2511.46Zm7.09-532.66a1.52,1.52,0,1,0,0-3A1.52,1.52,0,0,0,706.5,1978.8Zm5.06,608.61c4.06,0,7.1-4,9.12-7.09-2-4.05-3-4.05-5.06-4.05-4.06,0-7.09,4.05-9.12,7.09C708.53,2587.41,710.55,2587.41,711.56,2587.41Zm-1-653.16a1.52,1.52,0,0,0,3,0A1.52,1.52,0,1,0,710.55,1934.25Zm7.09-18.23c1,0,1-4,0-4C715.62,1912,715.62,1916,717.64,1916Zm3,97.21v469.88c0,12.15,14.18,32.4,27.34,32.4,18.23,0,34.43-20.25,34.43-36.45V2034.5c0-19.24-11.14-42.53-32.4-42.53C738.91,1992,720.68,1997,720.68,2013.23Zm13.16,578.23c5.07,0,5.07-8.1,5.07-11.14v-4.05l-14.18,7.09C726.76,2587.41,729.79,2591.46,733.84,2591.46Zm-6.07-641c2,0,2-4,0-4C726.76,1946.4,726.76,1950.45,727.77,1950.45Zm0,588.36c2,0,2-4.06,0-4.06C726.76,2534.75,726.76,2538.81,727.77,2538.81Zm0-597.48h2c2,0,4.05,0,5.07-4l-3-3ZM743,2569.18c1,2,5.06-2,3-3A2.15,2.15,0,1,0,743,2569.18Zm3-27.34a1.52,1.52,0,0,0,0-3A1.52,1.52,0,1,0,746,2541.84Zm14.17,40.51v-6.08H750.05C751.06,2580.32,757.14,2582.35,760.17,2582.35Zm0-619.75c2,2,6.08-1,4.05-3S759.16,1961.58,760.17,1962.6Zm29.37,608.61c2,0,2-4.05,0-4.05S787.51,2571.21,789.54,2571.21Zm9.11,16.2c7.09,0,16.21-5.06,16.21-12.15v-6.08c-6.08,2-13.17,7.09-18.23,11.14-2-4.05-4-4.05-5.06-4.05h-2C791.57,2580.32,792.58,2587.41,798.65,2587.41Zm5.07-16.2c2,0,2-4.05,0-4.05S801.69,2571.21,803.72,2571.21Zm4-9.11,3-7.09h-3Zm3-487.1c2,0,2-4.05,0-4.05S808.78,2075,810.81,2075Zm4.05-153.92a1.52,1.52,0,0,0,0-3A1.52,1.52,0,1,0,814.86,1921.08Zm0,411.14c2,0,2-4,0-4S812.83,2332.22,814.86,2332.22Zm3,253.17a1.52,1.52,0,0,0,0-3C816.88,2582.35,816.88,2585.39,817.9,2585.39Zm4.05-97.22a1.52,1.52,0,0,0,0-3A1.52,1.52,0,1,0,822,2488.17Zm3-555.95c2,0,2-4,0-4C824,1928.17,824,1932.22,825,1932.22Zm0,7.09a1.52,1.52,0,1,0,0-3C824,1936.27,824,1939.31,825,1939.31Zm0,345.32a1.52,1.52,0,1,0,0-3C824,2281.59,824,2284.63,825,2284.63Zm0-305.83,4-5.06C825,1975.77,825,1977.79,825,1978.8Zm0,311.9c0,1,4,1,4,0C829,2288.67,825,2288.67,825,2290.7ZM827,2553a1.52,1.52,0,0,0,0-3C826,2549.94,826,2553,827,2553Zm0-83v2l4-7.09C827,2466.9,827,2468.93,827,2469.94Zm2-544.81c2,0,2-4.05,0-4.05S827,1925.13,829,1925.13Zm0,579.24a1.52,1.52,0,1,0,0-3A1.52,1.52,0,0,0,829,2504.37Zm0,52.66c2,0,2-4.05,0-4.05S827,2557,829,2557Zm2-613.67c2,0,2-4,0-4S829,1943.36,831.06,1943.36Zm11.14,417.22c1,0,1-4.06,0-4.06C840.17,2356.52,840.17,2360.58,842.2,2360.58Zm1-129.62c2,0,2-4.06,0-4.06S841.19,2231,843.21,2231Zm0,59.74c0,1,4,1,4,0C847.26,2288.67,843.21,2288.67,843.21,2290.7Zm2,44.56a1.52,1.52,0,0,0,0-3A1.52,1.52,0,1,0,845.24,2335.26Zm4,164c2,0,2-4,0-4S847.26,2499.31,849.29,2499.31Zm1,48.61,4.05-4.05H850.3Zm4.05-11.14a1.52,1.52,0,1,0,0-3A1.52,1.52,0,1,0,854.35,2536.78Zm2-30.38c2,0,2-4.05,0-4.05S854.35,2506.4,856.38,2506.4Zm3,11.14c2,0,2-4.05,0-4.05C858.4,2513.49,858.4,2517.54,859.42,2517.54Zm0,8.1c4-1,4-3,4-5.06v-2Zm15.18-58.74v-6.07H863.46C865.49,2464.88,870.55,2466.9,874.6,2466.9Zm-7.08-467.84c1,2,5.06,2,7.08,0C875.62,1997,865.49,1997,867.52,1999.06Zm7.08,267.34c1,0,1-3,0-3A1.52,1.52,0,0,0,874.6,2266.4Zm3,87.09c2,0,2-4,0-4S875.62,2353.49,877.64,2353.49Zm4.05,7.09c2,0,2-4.06,0-4.06S879.67,2360.58,881.69,2360.58Zm3-324a1.52,1.52,0,1,0,0-3C883.72,2033.49,883.72,2036.53,884.73,2036.53Zm0,224.81c2,2,6.08-2,4-3C886.76,2256.27,883.72,2259.31,884.73,2261.34Z"/><path class="cls-1" d="M1173.45,2025.16l3.9,1.95a11,11,0,0,1,6.49-1.95c26.63.65,65,16.24,75.33,21.43,12.34,6.5,20.13,21.43,31.83,27.93,11,0,20.13,26,31.82,35.06,1.94,2,22.73,26,22.73,41.57l-3.25,3.89v4.55a18.86,18.86,0,0,1-1.3,5.84l.65.65a8.24,8.24,0,0,1,3.9-.65c18.18,0,20.78,68.84,20.78,88.32v21.43c0,3.9-2.6,9.09-5.85,13,0,1.95-.65,3.25-.65,5.84,1.3,0,2.6,1.95,2.6,3.25a3.57,3.57,0,0,1-2,3.25v2.6c0,7.79-1.3,14.28-10.39,44.16v-.65c-7.14,20.13-9.09,31.17-12.34,33.12-29.87,46.75-78.58,99.36-175.34,99.36-118.84,0-190.92-90.92-190.92-160.41l1.3-1.94c-9.1-16.24-8.45-40.92-8.45-61.7V2204.4c14.94-103.26,99.36-179.24,187.68-179.24Zm-140.92,119.49v-3.25c-2.6,0-5.85,0-5.85,3.25Zm5.85,31.82v-2.6h-3.25Zm77.36-43.18c0,1.64-1.64,2.74-2.73,4.38-30.69,27.95-54.26,64.66-54.26,110.69,0,11.51,3.84,26.85,7.68,38.91h-.55c3.29,12.06,6,21.92,6,31.24v.54c3.83,3.29-1.65,6,6,13.7,11,23,42.75,44.39,85.49,44.39,43.29,0,59.18-8.77,69.59-17.54l-1.1.55,15.9-21.37-.55.55,3.29-4.93c8.76-9.87,7.12-9.32,9.86-12.61l-4.93-1.64c2.19-3.29,2.74-6.58,6-9.32a24.41,24.41,0,0,0-.54-2.74s4.93-14.24,4.93-19.18c0-3.83,6-18.63,6-20.82V2252.2c0-37.81-10.42-70.14-32.33-98.64h.54l-2.19-2.74h-2.74c-5.48-3.28-17.53-13.15-17.53-13.15,0-1.09-.55-1.09-.55-1.64-.55.55-1.1.55-2.19.55-6,0-6-4.39-13.15-6a5.94,5.94,0,0,1-3.29.55,47.52,47.52,0,0,1-17.54-3.29c-6-1.1-13.7-3.29-18.63-3.29-8.22,0-17,0-23,6.58-1.65,2.19-4.39,2.19-5.48,2.19Zm-72.17,24.35c0,2,.65,3.25,2.6,3.25,1.3,0,1.95-1.3,1.95-3.25,0-1.3-.65-3.25-1.95-3.25C1044.22,2154.39,1043.57,2156.34,1043.57,2157.64Zm11.69,252c3.25,0,4.55-3.9,9.74-3.9v-13.63C1062.4,2398.57,1055.26,2404.41,1055.26,2409.61Zm5.85-315a1.95,1.95,0,1,0,3.89,0c0-2-.65-3.25-2-3.25S1061.11,2092.7,1061.11,2094.65Zm10.38-7.15-2.59-3.24-2.6,3.24Zm-3.89,323.41c1.3,0,1.3-2.6,0-2.6S1066.3,2410.91,1067.6,2410.91Zm0,37.66c1.3,0,1.3-2.59,0-2.59S1066.3,2448.57,1067.6,2448.57Zm1.3-316.26c0,2,.65,2.6,1.3,2.6,1.29,0,1.29-.65,1.29-2.6,0-1.3,0-2.59-1.29-2.59C1069.55,2129.72,1068.9,2131,1068.9,2132.31Zm0,252.62c3.9,0,11,0,13.64-5.19-1.3-1.3-6.5-2.6-7.8-2.6C1070.2,2377.14,1068.9,2381,1068.9,2384.93Zm1.3,39.62H1076c0-2.6-4.55-5.85-5.84-7.15Zm2.6,20.13,1.94-2.6-4.54-2.6v1.3C1070.2,2442.08,1070.2,2443.38,1072.8,2444.68Zm0-31.17c1.29,0,1.29-2.6,0-2.6S1071.49,2413.51,1072.8,2413.51Zm-.65-310.42c0,1.3.65,3.25,2.59,3.25,1.3,0,1.3-2,1.3-3.25,0-2,0-3.25-1.3-3.25C1072.8,2099.84,1072.15,2101.14,1072.15,2103.09Zm.65,330.55v1.3c1.94-1.3,4.54-3.9,4.54-6.5v-1.3C1074.74,2428.44,1072.8,2431,1072.8,2433.64Zm5.19-339c0,1.3.65,1.95,2.6,1.95.65,0,1.3-.65,1.3-1.95,0-2-.65-3.25-1.3-3.25C1078.64,2091.4,1078,2092.7,1078,2094.65Zm7.14,344.83c1.3,0,1.3-2.6,0-2.6S1083.84,2439.48,1085.13,2439.48Zm2.6-37c4.55-3.9,8.44-1.3,9.74-7.8h-2.59Zm2.6,12.33c4.55-1.29.65-6.49.65-9.09,5.19,0,9.09,3.9,9.09-4.54v-1.3c-1.3,1.3-9.09,3.25-9.74,4.54-1.3,0-2.6,2.6-2.6,2.6C1087.73,2408.31,1089,2413.51,1090.33,2414.8Zm-1.3-343.53c0,1.95.65,3.25,2,3.25s2.6-1.3,2.6-3.25c0-.65-1.3-2.6-2.6-2.6S1089,2070.62,1089,2071.27Zm3.25,322.1c1.3,0,1.3-2.59,0-2.59S1091,2393.37,1092.28,2393.37Zm0,25.33c1.3,0,1.3-2.6,0-2.6S1091,2418.7,1092.28,2418.7Zm5.19,17.54c1.3,0,1.3-2.6,0-2.6S1096.17,2436.24,1097.47,2436.24Zm2-380.56,3.25-3.25h-5.85Zm8.44,379.26v-7.8l-5.19,5.2C1104,2434.94,1105.26,2434.94,1107.86,2434.94Zm-5.19,9.74h2.59v-2.6h-2.59Zm5.84-24.68h1.3c1.3,0,6.49-3.9,7.8-5.2l-5.2-5.19-7.15,7.79C1106.56,2420,1107.86,2420,1108.51,2420Zm-2.6-344.83c0,1.29.65,3.24,1.95,3.24,2,0,2-1.95,2-3.24,0-2,0-3.9-2-3.9C1106.56,2071.27,1105.91,2073.22,1105.91,2075.17Zm1.95,24.67c2,0,2-.65,2-1.3,0-1.3,0-1.94-2-1.94a1.72,1.72,0,0,0-1.95,1.94C1105.91,2099.19,1106.56,2099.84,1107.86,2099.84Zm0,348.73c.65,0,.65-2.59,0-2.59C1106.56,2446,1106.56,2448.57,1107.86,2448.57Zm9.75-42.86c1.29,0,1.29-2.59,0-2.59S1116.3,2405.71,1117.61,2405.71Zm2.59,53.9V2457C1117.61,2457,1115,2458.32,1120.2,2459.61Zm0-37.66h2.6l-2.6-1.95Zm52-376v-2.6l-2.59,2.6Zm-2.59,12.34h2.59v-2.6h-2.59Zm11.69-12.34,8.44-9.09h-3.25c-2.6,0-5.19,3.25-8.44,6.49Zm5.19,41.56c0,1.95.65,3.25,1.3,3.25,1.3,0,2-1.3,2-3.25,0-1.3-.65-2.59-2-2.59C1187.09,2084.91,1186.44,2086.2,1186.44,2087.5Zm36.37,12.34c3.25,0,3.25-3.24,0-5.19Zm64.29,57.8c1.3,0,2.6-.65,2.6-1.3,0-1.3-1.3-2-2.6-2a1.72,1.72,0,0,0-1.95,2C1285.15,2157,1285.8,2157.64,1287.1,2157.64Zm5.84-9.74,5.85-6.5h-3.25Zm2,61h3.25v-3.24h-3.25Zm17.54-79.87c-3.25,0-3.25,0-3.25,3.24,0,.65,0,1.3.65,1.3,1.3,0,3.9-2.6,3.9-3.89A2.31,2.31,0,0,0,1312.43,2129.07Zm14.28,187.68c.65,0,2-1.31,2-3.25,0-1.3-1.3-3.25-2-3.25-1.29,0-2.6,1.95-2.6,3.25C1324.11,2315.44,1325.42,2316.75,1326.71,2316.75ZM1341,2205.7c2.6,3.24,5.2,9.09,7.79,9.09,0-2.6-2.59-5.85-5.19-9.09Z"/><path class="cls-1" d="M224.9,2404.72s66.35,73.15,216.62,16.22c0,0-131.48,257.95,76.29,324.68,165.17,53.05,402.54,38.77,451.57-92.36,26.41-70.63,13.85-73.25,13.85-73.25s59.15,27.8,173.74,20.47c13.94-.9,21.52-12,1-10.27-126.11,10.88-191-34.34-191-34.34s13.77,6.54,1.39,55.69c-13.61,54.05-60.91,148.79-237.34,151.91-187,3.3-242.23-46.94-264-67.6-106.06-100.74,5.79-287.93-3.3-294.85s-56.93,23.54-103.68,27.4c-36,3-79.16-5.9-121.36-39.54C218.46,2372.73,217,2398.91,224.9,2404.72Z"/></g></g></svg>