<svg xmlns="http://www.w3.org/2000/svg" viewBox="0 0 877.37 1520.57"><defs><style>.cls-1{fill:#c77c94;}.cls-2{fill:#844e95;}.cls-3{fill:#ede652;}.cls-4{fill:#ede552;}.cls-5{fill:#5ca881;}.cls-6{fill:#6b8893;}.cls-7{fill:#c7dec9;}.cls-8{fill:#51297d;}.cls-9{fill:#7dbcbc;}.cls-10{fill:#a07bb1;}</style></defs><title>logo</title><g id="Laag_2" data-name="Laag 2"><g id="Laag_1-2" data-name="Laag 1"><path class="cls-1" d="M873.76,849.86a.39.39,0,0,1-.29.16c-11.34.05-7.62-24.4-13.35-38.78-15.82-39.67-64.81-40.35-63.27-42.71,1.15-1.94,48.91.13,70.66,34.17C876.63,817,880.94,850,873.76,849.86Z"/><path class="cls-2" d="M607.58,1415.87c-4,.18,21.61-.27,30.1-2.14,3.32-.74,42.76,97.55,53.6,98.09s34.76-123,34.76-123,6.15-1.2,11.43-9.77c6.73-10.93,5.57-20.69,5.57-20.69a9.08,9.08,0,0,0,4.27.69c1.7,4.35,2.45,14.9-6.14,26.33-2.57,3.43-7.76,6.48-7.76,6.48l-1.91,6.5s-27.11,124.75-43.38,122.22-53-97.09-63.09-98.78a69.2,69.2,0,0,0-7.67-1.08Z"/><path class="cls-3" d="M177.75,253.35s5.34-33.91,26.34-26.34a86.52,86.52,0,0,0,53.28,1.88c13.3-3.8,40.52-33.54,7-53.8s-22-6.85-38.24,7.34-46.56,13.95-54.64,22.13S152.46,240.58,177.75,253.35Z"/><path class="cls-4" d="M72.76,574.4c.67-13.85,13.85-30.34,27.7-30.34,19.13,0,25.72,19.13,25.72,34.3,0,13.84-11.21,23.08-11.21,34.95,0,27,25.72,40.89,48.8,40.89,23.75,0,42.21-10.55,47.49-35V542.08c0-50.78.66-93-2.64-143.11,1.32-25.06-34.29-23.74-40.88-20.45-4-2.64-5.94-5.28-5.94-9.89v-64c0-4.62,2-6.6,6.59-6.6,11.87,0,96.29-2.63,115.42-2.63h16.48c1.32,15.16,2,46.82,2,67.92v7.26l-2,2c-11.87,1.32-35.61,0-40.23,16.48V605.4c-1.31,77.16-4.61,131.24-93.64,131.24-75.19,0-93.66-61.33-93.66-127.94Zm13.85,33c1.32,4.61,2,16.48,2,16.48l5.28,2.64c.66-4.61,2-13.19,2-19.12-3.29,0-7.25,0-9.23-2v2Zm2-19.79c1.32,0,1.32-2.64,0-2.64C87.93,585,87.93,587.59,88.59,587.59Zm7.25,7.91v7.26c4.62-4.62,7.26-11.87,7.26-18.47C95.84,586.27,95.84,588.91,95.84,595.5Zm4.62,37.6a1,1,0,1,0,0-2A1,1,0,1,0,100.46,633.1Zm0,40.22c0,1.32,2.64,1.32,2.64,0S100.46,672,100.46,673.32ZM103.1,643l2-2.64h-2Zm2-76.5c1.32,0,1.32-2.64,0-2.64C104.42,563.85,104.42,566.49,105.08,566.49Zm2.64,2.63c1.31,0,1.31-2.63,0-2.63S106.4,569.12,107.72,569.12Zm0,5.28,2-2h-2Zm4.62,124.65c0,1.32,2.63,1.32,2.63,0S112.34,697.73,112.34,699.05Zm9.23-22.43a1,1,0,1,0,0-2C120.91,674.64,120.91,676.62,121.57,676.62Zm2.64,35.62c1.32,0,1.32-2.64,0-2.64S122.89,712.24,124.21,712.24Zm0-31.66h2v-5.27Zm7.25-9.89,2-2c-1.32-2.64-2-2.64-3.3-2.64h-1.32Zm-2.64,33h2.64v-2Zm0,4.62c0,1.32,2.64,1.32,2.64,0C131.46,707.62,128.82,707.62,128.82,708.28Zm13.85-16.48v-2h-4.62Zm-2,7.25a1,1,0,1,0,0-2A1,1,0,0,0,140.69,699.05Zm4.62-27a1,1,0,0,0,0-2A1,1,0,1,0,145.31,672Zm0,28.36c1.32,0,1.32-2.64,0-2.64S144,700.37,145.31,700.37Zm9.24,5.93c0,1.32,2.63,1.32,2.63,0S154.55,705,154.55,706.3Zm2.63-21.1c0,.66,2,.66,2,0A1,1,0,1,0,157.18,685.2Zm69.91-232.81h7.26c-2-.66-3.3-2-5.94-2h-1.32Zm2.64,100.25c1.32,0,1.32-2.65,0-2.65S228.41,552.64,229.73,552.64ZM237,480.75V468.87h-7.25C229.73,472.84,235.66,479.43,237,480.75Zm-4.62,58.7c.67,1.32,3.3-1.32,2-2A1.4,1.4,0,0,0,232.36,539.45Zm0,42.2c.67,1.33,3.3-1.32,2-2A1.4,1.4,0,0,0,232.36,581.65Zm0-7.25H239v-4.61Zm9.24-46.82V523c0-2,1.32-7.92-4.62-7.26v2.64C237,521.64,237.64,524.28,241.6,527.58Zm0,52.1h2V574.4C241.6,575.72,241.6,577,241.6,579.68Z"/><path class="cls-5" d="M62.46,569.25c.66-13.85,13.85-30.34,27.7-30.34,19.13,0,25.72,19.13,25.72,34.3,0,13.84-11.21,23.08-11.21,34.95,0,27,25.72,40.89,48.8,40.89,23.75,0,42.21-10.55,47.49-34.95V536.93c0-50.78.66-93-2.64-143.11,1.32-25.06-34.29-23.74-40.89-20.45-4-2.64-5.93-5.28-5.93-9.89v-64c0-4.62,2-6.6,6.59-6.6,11.87,0,96.29-2.63,115.42-2.63H290c1.32,15.16,2,46.82,2,67.92v7.26l-2,2c-11.87,1.32-35.61,0-40.23,16.48V600.25c-1.31,77.16-4.61,131.24-93.65,131.24-75.18,0-93.65-61.33-93.65-127.94Zm13.85,33c1.32,4.61,2,16.48,2,16.48l5.28,2.64c.66-4.61,2-13.19,2-19.12-3.29,0-7.25,0-9.23-2v2Zm2-19.79c1.32,0,1.32-2.64,0-2.64C77.63,579.8,77.63,582.44,78.29,582.44Zm7.25,7.91v7.26c4.62-4.62,7.26-11.87,7.26-18.47C85.54,581.12,85.54,583.76,85.54,590.35ZM90.16,628a1,1,0,0,0,0-2A1,1,0,1,0,90.16,628Zm0,40.22c0,1.32,2.64,1.32,2.64,0S90.16,666.86,90.16,668.17Zm2.64-30.33,2-2.64h-2Zm2-76.5c1.32,0,1.32-2.64,0-2.64C94.12,558.7,94.12,561.34,94.78,561.34ZM97.42,564c1.31,0,1.31-2.63,0-2.63S96.1,564,97.42,564Zm0,5.28,2-2h-2ZM102,693.9c0,1.32,2.63,1.32,2.63,0S102,692.58,102,693.9Zm9.23-22.43a1,1,0,0,0,0-2C110.61,669.49,110.61,671.47,111.27,671.47Zm2.64,35.62c1.32,0,1.32-2.64,0-2.64S112.59,707.09,113.91,707.09Zm0-31.66h2v-5.27Zm7.25-9.89,2-2c-1.31-2.64-2-2.64-3.29-2.64h-1.32Zm-2.64,33h2.64v-2Zm0,4.62c0,1.32,2.64,1.32,2.64,0C121.16,702.47,118.52,702.47,118.52,703.13Zm13.85-16.49v-2h-4.62Zm-2,7.26a1,1,0,0,0,0-2A1,1,0,0,0,130.39,693.9Zm4.62-27a1,1,0,0,0,0-2A1,1,0,0,0,135,666.86Zm0,28.36c1.32,0,1.32-2.64,0-2.64S133.69,695.22,135,695.22Zm9.24,5.93c0,1.32,2.63,1.32,2.63,0S144.25,699.83,144.25,701.15Zm2.63-21.1c0,.66,2,.66,2,0A1,1,0,0,0,146.88,680.05Zm69.91-232.81h7.26c-2-.66-3.3-2-5.94-2h-1.32Zm2.64,100.25c1.32,0,1.32-2.65,0-2.65S218.11,547.49,219.43,547.49Zm7.25-71.89V463.72h-7.25C219.43,467.68,225.36,474.28,226.68,475.6Zm-4.62,58.7c.67,1.32,3.3-1.32,2-2A1.4,1.4,0,0,0,222.06,534.3Zm0,42.2c.67,1.32,3.3-1.32,2-2A1.4,1.4,0,0,0,222.06,576.5Zm0-7.25h6.6v-4.61Zm9.24-46.82v-4.62c0-2,1.32-7.92-4.62-7.26v2.64C226.68,516.49,227.34,519.13,231.3,522.43Zm0,52.1h2v-5.28C231.3,570.57,231.3,571.89,231.3,574.53Z"/><path class="cls-2" d="M281.39,501.91c0-16.91-2.83-51.31,7.89-66.53,9.58-11.28,31,1.69,42.85-6.77,11.85-6.77,25.38-66.54,32.71-84.58,9.59-24.81,78.38-209.76,88-210.89,22-.56,48.49-4.51,70.49-4.51,18,0,66.53-4.51,82.32,7.33,10.72,7.33,18,47.93,22,59.21,6.77,19.73,90.78,238.52,98.12,238.52h38.34c2.25,0,4.51,6.2,4.51,6.2v80.63c0,9-23.12,6.21-23.69,6.21H731.36c-2.82-4.52-4.52-4.52-9-4.52-2.82,0-4.51,0-6.77,4.52-18.6,0-103.74,2.81-122.92,2.81H562.76c-18.61,0-61.47-2.81-61.47-2.81L499.6,525V438.2c0-2.82,5.64-4.51,5.64-4.51s16.36-1.13,23.12-2.82c3.95,0,19.74-2.26,23.69-2.26v-3.39c2.81-25.93-20.87-23.11-38.35-22-24.25,0-38.91,0-63.16,2.82-10.14,3.38-11.27,15.78-11.27,26.5h52.44v94.17s-14.1,2.81-18.61,2.81H391.34c-15.22,0-84.58-2.81-99.8-2.81C282.51,523.91,281.39,512.06,281.39,501.91ZM362.58,494c1.13,0,1.13-2.26,0-2.26C362,491.76,362,494,362.58,494Zm2.26,2.26c1.12,0,1.12-2.26,0-2.26S363.71,496.28,364.84,496.28Zm8.46-125.75c1.13,0,1.13-2.26,0-2.26A1.14,1.14,0,1,0,373.3,370.53Zm2.25-8.46h3.95l-2.25-1.69Zm7.9,7.33h1.12c1.69,0,1.69,0,2.82-2.82,0-.56-2.82-1.69-3.94-1.69a25.45,25.45,0,0,0-6.2,1.69C378.37,366.58,382.32,369.4,383.45,369.4ZM379.5,482.74c1.13,0,1.13-2.82,0-2.82S378.37,482.74,379.5,482.74Zm1.69-11.84a.85.85,0,1,0,0-1.69C380.63,469.21,380.63,470.9,381.19,470.9Zm2.26-128c1.12,0,1.12-2.82,0-2.82S382.32,342.9,383.45,342.9ZM385.14,397h1.12c2.26,0,3.95-2.82,5.08-5.07h-6.2l2.25,2.25Zm2.25,55.82c1.13,0,1.13-2.25,0-2.25S386.26,452.85,387.39,452.85Zm0,10.16h2.26l-2.26-2.26Zm2.26-117.29c.56,0,.56-2.82,0-2.82C388.52,342.9,388.52,345.72,389.65,345.72Zm0-17.48c.56,1.13,2.82-1.13,1.69-2.82C390.21,324.29,388.52,327.11,389.65,328.24Zm1.69,120.67a1.13,1.13,0,1,0,2.25,0C393.59,448.34,391.34,448.34,391.34,448.91Zm2.25,22a.85.85,0,1,0,0-1.69A.85.85,0,0,0,393.59,470.9Zm1.7,23.12c1.12,0,1.12-2.26,0-2.26C394.72,491.76,394.72,494,395.29,494Zm2.25-18.61a.85.85,0,1,0,0-1.69A.85.85,0,1,0,397.54,475.41Zm0,32.14a.85.85,0,1,0,0-1.69A.85.85,0,1,0,397.54,507.55Zm1.69-46.8c1.13,0,1.13-2.26,0-2.26C398.67,458.49,398.67,460.75,399.23,460.75Zm0,8.46v.56l2.26-4.51C399.23,466.39,399.23,467.52,399.23,469.21Zm2.26-32.14c1.13,0,1.13-2.82,0-2.82S400.36,437.07,401.49,437.07Zm0,10.15c3.95-2.82,11.84-5.64,14.66-7.33l-2.26-11.28h-.56c-3.94,0-7.89,5.64-7.89,5.64h5.64c-4.51,1.13-2.26,7.33-9.59,7.33Zm7.9,19.17c1.69,0,1.69-1.69,0-1.69A.85.85,0,1,0,409.39,466.39Zm0-174.8h2.81v-9Zm2.81,220.47a.85.85,0,1,0,0-1.69A.85.85,0,0,0,412.2,512.06Zm5.64-31a.85.85,0,1,0,0-1.69C417.28,479.36,417.28,481.05,417.84,481.05Zm2.25-70.48c1.13,0,1.13-2.82,0-2.82S419,410.57,420.09,410.57Zm0,74.43c1.13,0,1.13-2.26,0-2.26S419,485,420.09,485Zm2.26-36.66c.56,0,.56-2.25,0-2.25C421.22,446.09,421.22,448.34,422.35,448.34Zm0-31H424l-1.69-2.25Zm3.95,26.5c.56,0,.56-2.25,0-2.25C425.17,441.58,425.17,443.83,426.3,443.83ZM428,248.73c1.13,0,1.13-2.25,0-2.25S426.86,248.73,428,248.73Zm0,11.85c1.13,0,1.13-2.82,0-2.82S426.86,260.58,428,260.58Zm2.26,1.69a.85.85,0,1,0,0-1.69A.85.85,0,1,0,430.25,262.27Zm1.69,206.94c1.13,0,1.13-2.82,0-2.82C431.38,466.39,431.38,469.21,431.94,469.21Zm8.46-229.5c0-1.13,0-5.63-2.26-5.63-1.12,0-3.94,1.12-3.94,2.25C435.32,239.71,439.27,239.71,440.4,239.71Zm-6.2,38.34,3.94-2.82-3.94-4.51Zm1.69,18.05,2.25-2.82-3.94-1.69v1.13C434.2,293.28,434.2,294.41,435.89,296.1Zm2.25-33.83a.85.85,0,1,0,0-1.69A.85.85,0,0,0,438.14,262.27Zm0,130.81a.85.85,0,1,0,0-1.69A.85.85,0,0,0,438.14,393.08Zm3.95-45.67a.85.85,0,1,0,0-1.69A.85.85,0,1,0,442.09,347.41Zm8.45-78.94c1.13,0,9-3.38,10.16-4.51h-3.95c1.13-.56,3.95-3.38,3.95-4.51,0-1.69-1.13-4.51-1.7-4.51l-14.66,6.77C444.34,262.27,450,268.47,450.54,268.47ZM446,301.74c1.13,0,1.13-2.82,0-2.82S444.91,301.74,446,301.74Zm0,63.15h2.82v-4.51C446,360.94,446,362.07,446,364.89Zm2.82-58.64c1.13,0,1.13-2.82,0-2.82C447.16,303.43,447.16,306.25,448.85,306.25Zm0,50.18a.85.85,0,1,0,0-1.69C447.16,354.74,447.16,356.43,448.85,356.43Zm.57-99.8c3.38-2.82,6.2-1.13,7.33-6.2h-2.26Zm1.12,58.64a.85.85,0,1,0,0-1.69C450,313.58,450,315.27,450.54,315.27Zm0,4.51a.85.85,0,1,0,0-1.69C450,318.09,450,319.78,450.54,319.78Zm0-46.8c1.13,1.13,3.39-1.13,2.26-2.26S450,271.85,450.54,273Zm0,93.6a1.14,1.14,0,1,0,2.26,0C452.8,366,450.54,366,450.54,366.58ZM452.8,264c-1.13,0-1.13-2.25,0-2.25S453.93,264,452.8,264Zm0,92.47a.85.85,0,1,0,0-1.69A.85.85,0,1,0,452.8,356.43Zm0,137.59c1.13,0,1.13-2.26,0-2.26S451.67,494,452.8,494Zm0-333.25h68.8c-1.13-7.33-11.29,2.82-14.11-7.33l2.26-1.69c-1.13-1.13-8.46-2.26-10.15-2.26-2.25,0-5.07,2.26-6.2,3.95v-2.82h-6.2v-1.13c-6.21,0-13.54,6.77-20.3,6.77v-2.82C464.08,157.39,450.54,152.88,452.8,160.77Zm0,190h14.1l1.69-2.26c-2.82,1.69-5.64,0-7.89-2.25l3.95-4.52-1.7-2.25Zm1.69,108.82c1.13,0,1.13-2.25,0-2.25C453.93,457.37,453.93,459.62,454.49,459.62Zm0-144.35v5.64h3.95C456.18,320.35,455.06,318.09,454.49,315.27Zm0,54.13c0,1.13,2.26,1.13,2.26,0S454.49,368.27,454.49,369.4Zm2.26-81.19c1.13,0,1.13-2.82,0-2.82S455.62,288.21,456.75,288.21Zm0,199c1.13,0,1.13-2.25,0-2.25S455.62,487.25,456.75,487.25Zm0-33.27H459v-2.25ZM459,376.17c1.7-1.13,1.7-2.25,1.7-5.08H459Zm1.7-80.07H463v-2.82H460.7ZM463,250.43H473.1l-2.25-2.83c5.07-1.12,10.14-4.51,10.14-11.27v-2.25C473.1,237.46,468.59,245.91,463,250.43Zm1.7-99.81c1.12,0,1.12-2.82,0-2.82C464.08,147.8,464.08,150.62,464.65,150.62Zm0,133.64,3.94-1.69H468A3.37,3.37,0,0,0,464.65,284.26ZM473.1,497.4v-6.2c-2.25.56-5.07,1.69-6.2,4.51C468.59,496.28,470.85,497.4,473.1,497.4Zm-4.51-317.46a.85.85,0,1,0,0-1.69C468,178.25,468,179.94,468.59,179.94Zm9.58,153.94c14.67,0,36.66-2.26,45.68-2.82v-9c0-8.46-19.74-60.9-23.68-60.9-15.79,0-31,51.88-31,64.28C469.16,331.62,473.1,333.88,478.17,333.88Zm-7.32-48.49c1.12,0,1.12-2.26,0-2.26S469.72,285.39,470.85,285.39Zm0-101.5h3.94v-2.26Zm2.25,283.63h1.69v-2.26H473.1Zm1.69-192.29h3.95L474.79,273Zm3.95,98.69a2.58,2.58,0,0,0,2.25-2.83,6.16,6.16,0,0,1-3.94-9c-2.26,2.82-2.26,4.51-2.26,7.33C474.79,372.79,474.79,373.92,478.74,373.92Zm-3.95,134.76a2.43,2.43,0,0,0,2.26-2.26c0-.56-1.13-4.51-2.26-4.51Zm2.26-151.12H481c2.82,0,12.41-9,12.41-13.53a2.53,2.53,0,0,0-1.69-2.26Zm1.69-91.34c1.13,1.69,5.07,1.69,6.2,0C486.63,265.09,477.61,265.09,478.74,266.22Zm3.95-22c1.12,0,1.12-2.25,0-2.25C482.12,242,482.12,244.22,482.69,244.22Zm4.51,116.16c1.13.56,3.38-1.13,2.25-2.82C488.33,356.43,486.63,359.25,487.2,360.38Zm2.25-131.94c1.13,0,1.13-2.82,0-2.82S488.33,228.44,489.45,228.44Zm2.26,154.5h4v-2.26C493.4,380.68,492.27,380.68,491.71,382.94Zm1.69-184.39c1.13,0,1.13-2.25,0-2.25S492.27,198.55,493.4,198.55Zm4,147.17c1.13,0,1.13-2.82,0-2.82S496.22,345.72,497.35,345.72Zm0,30.45c1.13,1.13,3.38-1.13,2.25-2.25S496.22,375,497.35,376.17Zm2.25-18.61v-1.69h-2.25Zm0-202.43c-1.12,0-1.12-2.25,0-2.25S500.73,155.13,499.6,155.13Zm3.95,2.82c-1.13,1.69-1.13-5.07,0-4.51C504.68,155.13,504.68,157.39,503.55,158Zm0,192.85c1.13,1.12,2.82-.57,1.69-2.26C504.68,347.41,502.42,350.23,503.55,350.8Zm7.89-12.41c1.13,0,1.13-2.82,0-2.82S510.31,338.39,511.44,338.39Zm3.95,28.19c1.13-.56,1.13-2.82,0-4.51C514.26,360.94,514.26,368.27,515.39,366.58Zm4,87.4v-5.07h-4C515.39,451.73,517.65,454,519.34,454Zm-4,37.22h1.13c4,0,9.59-2.82,9.59-7.33v-2.82Zm6.21-229.49c0,.56,1.69.56,1.69,0A.85.85,0,1,0,521.6,261.71Zm1.69-77.26c1.69,0,1.69-1.69,0-1.69C522.72,182.76,522.72,184.45,523.29,184.45Zm2.82-27.06c1.12,0,1.12-2.26,0-2.26S525,157.39,526.11,157.39Zm2.25,307.87V463h-2.25Zm0-307.31h3.95v-1.69Zm1.69,31.58c1.13,0,1.13-2.26,0-2.26S528.92,189.53,530.05,189.53Zm0,52.44c1.13,0,1.13-2.26,0-2.26S528.92,242,530.05,242Zm0,19.74c1.13,1.12,4,6.2,6.2,6.2v-6.2Zm4,199c1.12,1.13,3.38-1.13,2.25-2.26S533.43,459.62,534,460.75Zm2.25-280.81a.85.85,0,1,0,0-1.69A.85.85,0,1,0,536.25,179.94Zm0,7.33c1.13,0,1.13-2.82,0-2.82S535.12,187.27,536.25,187.27Zm0-26.5a.85.85,0,1,0,1.69,0A.85.85,0,1,0,536.25,160.77Zm4,19.17a.85.85,0,1,0,0-1.69A.85.85,0,1,0,540.2,179.94Zm0,79.51h3.95v-2.26Zm0,6.77c2.26,0,3.95-1.13,6.2-2.26h-6.2Zm2.26-104.32c1.69,0,9-1.13,9.59-1.13A2.58,2.58,0,0,0,554.3,158H542.46Zm1.69,320.84c1.13,0,1.13-2.82,0-2.82S543,482.74,544.15,482.74ZM546.4,485c.57,0,.57-2.26,0-2.26C545.28,482.74,545.28,485,546.4,485Zm0,4.51c.57,0,.57-2.26,0-2.26C545.28,487.25,545.28,489.51,546.4,489.51Zm1.7-286.45c1.13,0,1.13-2.25,0-2.25S547,203.06,548.1,203.06Zm0,47.37h2.25c5.64,0,16.35-4.52,16.35-13v-3.38C558.25,237.46,554.3,245.91,548.1,250.43Zm3.95,214.27c1.12,0,1.12-2.82,0-2.82C551.48,461.88,551.48,464.7,552.05,464.7Zm0,31.58c1.12,0,1.12-2.26,0-2.26C551.48,494,551.48,496.28,552.05,496.28Zm0-298.86a12.46,12.46,0,0,0,8.45-9Zm6.2,270.1v-6.77l-4,4.51C555.43,467.52,556,467.52,558.25,467.52ZM556,200.81c1.13,0,1.13-2.26,0-2.26C555.43,198.55,555.43,200.81,556,200.81Zm0,279.11a.85.85,0,1,0,0-1.69C555.43,478.23,555.43,479.92,556,479.92Zm0,30.45c1.13,0,1.13-2.82,0-2.82C555.43,507.55,555.43,510.37,556,510.37Zm0-259.94c0,1.12,2.26,1.12,2.26,0A1.14,1.14,0,1,0,556,250.43Zm2.26-22c1.12,0,1.12-2.82,0-2.82S557.12,228.44,558.25,228.44Zm2.25-7.9c1.13-1.13,4.51-5.64,4.51-6.77V211l-6.76,7.33ZM558.25,454h2.25v-5.07C558.25,450.6,558.25,451.73,558.25,454Zm2.25-283.06a.85.85,0,1,0,0-1.69A.85.85,0,1,0,560.5,170.92Zm0-13h1.13a3.37,3.37,0,0,0,3.38-1.69Zm2.26,20.3c1.12,0,1.12-2.82,0-2.82S561.63,178.25,562.76,178.25Zm0,15.79c1.12,0,1.12-2.26,0-2.26S561.63,194,562.76,194Zm0,263.33c1.12,0,1.12-2.26,0-2.26S561.63,457.37,562.76,457.37Zm0-49.62H569c-2.26-.57-3.39-1.69-5.08-1.69h-1.12ZM565,179.94c.56,0,.56-1.69,0-1.69A.85.85,0,1,0,565,179.94Zm0,24.81c.56,0,.56-2.81,0-2.81C563.88,201.94,563.88,204.75,565,204.75Zm0,16.35c.56,0,.56-1.69,0-1.69A.85.85,0,1,0,565,221.1Zm0,4.52c.56,0,.56-1.7,0-1.7A.85.85,0,0,0,565,225.62Zm0,40.6c.56,1.69,5.08,1.69,5.64,0C571.78,265.09,563.88,265.09,565,266.22Zm2.82-77.82H569c-1.13-2.26-2.26-2.26-3.39-2.26H565C565.57,188.4,566.7,188.4,567.83,188.4Zm-1.13,40c1.13,0,1.13-2.82,0-2.82S565.57,228.44,566.7,228.44Zm0,247a.85.85,0,1,0,0-1.69A.85.85,0,1,0,566.7,475.41Zm0,36.65a.85.85,0,1,0,0-1.69A.85.85,0,1,0,566.7,512.06Zm0-351.29h22c-.56-4.51-9.58-1.13-9.58-1.13v-3.38C574.6,159.64,570.65,157.39,566.7,160.77Zm0,273.48v1.13a25.22,25.22,0,0,1,10.15-2.82c0-1.69-2.25-6.21-2.25-6.21C574,426.35,566.7,430.87,566.7,434.25ZM569,194c1.13,0,1.13-2.26,0-2.26S567.83,194,569,194Zm0,50.18c1.13,0,1.13-2.25,0-2.25S567.83,244.22,569,244.22Zm0,263.33a.85.85,0,1,0,0-1.69A.85.85,0,1,0,569,507.55Zm1.13-29.32c4.51,0,7.89-8.46,9-13H578C575.73,465.26,570.09,475.41,570.09,478.23Zm.56,15.79c1.69-1.13,4-1.13,6.2-1.13V477.66a6.6,6.6,0,0,1-6.2,5.08Zm0,7.89c2.26,0,4-.56,4-3.38V497.4Zm2.26,11.28,3.94-4.51-6.2,2.82Zm0-321.41c1.12,0,1.12-2.25,0-2.25S571.78,191.78,572.91,191.78Zm1.69,266.71v-2.25h-1.69Zm0-230c1.13,0,1.13-2.82,0-2.82C574,225.62,574,228.44,574.6,228.44Zm0,259.94c-.57,0-.57-2.82,0-2.82C575.73,485.56,575.73,488.38,574.6,488.38Zm2.25-236.83c1.13,0,1.13-2.82,0-2.82S575.73,251.55,576.85,251.55Zm0,210.33c1.13,0,1.13-2.26,0-2.26S575.73,461.88,576.85,461.88Zm0-269h2.26c.56,0,4.51-3.38,5.64-4.51h-1.69C581.93,188.4,578,191.78,576.85,192.91Zm2.26,5.64c.56,0,.56-2.25,0-2.25C578,196.3,578,198.55,579.11,198.55Zm0,302.8c.56,0,.56-2.82,0-2.82C578,498.53,578,501.35,579.11,501.35Zm0-29.32c.56,1.69,2.82-1.13,1.69-2.26C579.67,469.21,578,470.9,579.11,472Zm1.69-50.19h2.26c2.82-2.25,5.63-14.09,5.63-14.09h-.56c-1.13,0-2.25,0-3.38,2.82-1.13-3.39-4-3.39-5.64-3.39A58.07,58.07,0,0,0,580.8,421.84Zm-1.69,89.66h.56c3.39,0,6.21-2.82,7.33-5.08h-3.94v-4.51Zm1.69-68.79c1.13,0,1.13-2.82,0-2.82S579.67,442.71,580.8,442.71Zm0,46.8c1.13,0,1.13-2.26,0-2.26S579.67,489.51,580.8,489.51Zm2.26-71.05c-1.13,0-1.13-2.26,0-2.26C583.62,416.2,583.62,418.46,583.06,418.46Zm0,75.56c.56,0,.56-2.26,0-2.26C581.93,491.76,581.93,494,583.06,494Zm1.69-23.12a.85.85,0,1,0,0-1.69A.85.85,0,1,0,584.75,470.9Zm3.94-270.66v-1.69a3.37,3.37,0,0,0-1.69-3.38s9.59-14.1,15.79-15.79c-1.69-.57-5.08-2.26-5.64-2.26H596c-3.38,0-7.33,4.51-9,6.77,1.13.56,1.69,3.38,4,2.25-1.13,1.13-5.07,7.9-6.2,9v1.13A4.23,4.23,0,0,0,588.69,200.24ZM587,473.72c1.13,0,1.13-2.82,0-2.82S585.88,473.72,587,473.72Zm0,38.34a.85.85,0,1,0,0-1.69A.85.85,0,0,0,587,512.06Zm11.84-275.73c-2.82,6.2-6.76,11.84-11.84,14.1h1.69c5.08,0,9-4.52,13-9A6.72,6.72,0,0,1,598.84,236.33ZM587,495.71h1.69v-2.82Zm1.69-47.37c1.13,0,1.13-2.25,0-2.25C588.13,446.09,588.13,448.34,588.69,448.34Zm0,41.17c1.13,0,1.13-2.26,0-2.26C588.13,487.25,588.13,489.51,588.69,489.51ZM591,451.73c1.13,0,1.13-2.82,0-2.82S589.82,451.73,591,451.73ZM591,485c1.13,0,1.13-2.26,0-2.26S589.82,485,591,485Zm1.69-314.08a.85.85,0,1,0,0-1.69C592.08,169.23,592.08,170.92,592.64,170.92Zm0,23.12c1.13,0,1.13-2.26,0-2.26C592.08,191.78,592.08,194,592.64,194Zm0,50.18c1.13,0,1.13-2.25,0-2.25C592.08,242,592.08,244.22,592.64,244.22Zm0,247.54c1.13,0,1.13-2.25,0-2.25C592.08,489.51,592.08,491.76,592.64,491.76Zm0-333.81v5.64c3.38-1.69,2.25-5.64,2.25-7.33v-4.51C592.08,152.88,592.64,156.26,592.64,158Zm2.25,294.9c1.13,0,1.13-2.25,0-2.25S593.77,452.85,594.89,452.85Zm2.26-265.58c.56,0,.56-2.82,0-2.82C596,184.45,596,187.27,597.15,187.27Zm0,6.77c.56,0,.56-2.26,0-2.26C596,191.78,596,194,597.15,194Zm2.26,1.13c0,1.13,2.25,1.13,2.25,0S599.41,194,599.41,195.17Zm2.25,50.74h.57c1.12,0,2.25,0,3.38-2.82Zm1.69-33.83a.85.85,0,1,0,0-1.69A.85.85,0,0,0,603.35,212.08Zm2.26-36.65a.85.85,0,1,0,0-1.69A.85.85,0,1,0,605.61,175.43Zm0,13c1.13-1.13,1.13-4,0-4.51C604.48,182.76,604.48,189.53,605.61,188.4Zm0,5.64c1.13,0,1.13-2.26,0-2.26S604.48,194,605.61,194Zm0,307.31c1.13,0,1.13-2.82,0-2.82S604.48,501.35,605.61,501.35Zm1.69-85.15c1.13,0,1.13-2.25,0-2.25C606.74,414,606.74,416.2,607.3,416.2Zm2.26,68.8c1.13,0,1.13-2.26,0-2.26S608.43,485,609.56,485Zm0-271.23c0,1.13,2.26,1.13,2.26,0A1.14,1.14,0,1,0,609.56,213.77Zm6.2,28.2c.57,0,.57-2.26,0-2.26C614.63,239.71,614.63,242,615.76,242Zm7.89,11.28a.85.85,0,0,0,0-1.7A.85.85,0,0,0,623.65,253.25Zm0,225c1.13,0,1.13-2.82,0-2.82S622.53,478.23,623.65,478.23Zm1.69-222.16c1.13,0,1.13-2.82,0-2.82C624.78,253.25,624.78,256.07,625.34,256.07Zm0,4.51c1.13,0,1.13-2.82,0-2.82C624.78,257.76,624.78,260.58,625.34,260.58Zm0,57.51c1.13,0,1.13-2.82,0-2.82C624.78,315.27,624.78,318.09,625.34,318.09Zm0,50.18c1.13,0,1.13-2.25,0-2.25C624.78,366,624.78,368.27,625.34,368.27Zm0,130.26c1.13,0,1.13-2.25,0-2.25C624.78,496.28,624.78,498.53,625.34,498.53Zm2.26-20.3c1.13,0,1.13-2.82,0-2.82S626.47,478.23,627.6,478.23ZM629.86,366c.56,0,.56-2.26,0-2.26C628.73,363.76,628.73,366,629.86,366Zm8.46-99.8c1.12,0,1.12-2.26,0-2.26S637.19,266.22,638.32,266.22Zm0,113.34c1.12,0,1.12-2.26,0-2.26S637.19,379.56,638.32,379.56ZM640,303.43a.85.85,0,1,0,0-1.69C639.44,301.74,639.44,303.43,640,303.43Zm0,51.31c1.13,0,1.13-2.82,0-2.82C639.44,351.92,639.44,354.74,640,354.74Zm0,29.32c1.13,0,1.13-2.25,0-2.25C639.44,381.81,639.44,384.06,640,384.06Zm0-60.33h2.25c1.7,0,2.82,0,4-2.82Zm2.25-24.81a.85.85,0,1,0,0-1.69A.85.85,0,0,0,642.26,298.92Zm0,20.3H644V316.4Zm7.9,24.81c-1.13,1.69-4.51,6.2-6.2,6.77h1.12c5.08,0,11.28-5.08,13-9l-1.69-2.25A45.08,45.08,0,0,1,650.16,344Zm-3.95,168a.85.85,0,1,0,0-1.69A.85.85,0,1,0,646.21,512.06Zm0-101.49,6.2-2.82h-2.25C648.46,407.75,647.34,407.75,646.21,410.57Zm2.25-97c.57,0,.57-2.82,0-2.82C647.34,310.76,647.34,313.58,648.46,313.58Zm0,13.53c.57,0,.57-2.82,0-2.82C647.34,324.29,647.34,327.11,648.46,327.11Zm0-28.76,3.95-2.25c-2.25-1.69-2.25-2.82-2.25-4.51h-1.7Zm1.7,24.25c1.12,0,1.12-2.82,0-2.82S649,322.6,650.16,322.6Zm0,32.14c1.12,0,1.12-2.82,0-2.82S649,354.74,650.16,354.74Zm2.25-55.82c.56,0,.56-1.69,0-1.69A.85.85,0,1,0,652.41,298.92Zm1.69,53a.85.85,0,1,0,0-1.69A.85.85,0,1,0,654.1,351.92Zm0,9a.85.85,0,1,0,0-1.69A.85.85,0,1,0,654.1,360.94Zm0-36.65v1.13l3.95-4.51h-.56A3.25,3.25,0,0,0,654.1,324.29Zm2.26-6.2c1.13,0,1.13-2.82,0-2.82S655.23,318.09,656.36,318.09Zm0,55.83a.85.85,0,0,0,1.69,0A.85.85,0,1,0,656.36,373.92ZM658.05,335c1.13,0,1.13-2.25,0-2.25C657.49,332.75,657.49,335,658.05,335Zm2.26,166.91a.85.85,0,0,0,0-1.69A.85.85,0,1,0,660.31,501.91Zm0-164.65h1.12c.57,0,1.7,0,2.82-2.26Zm1.69,46.8c1.13,0,1.13-2.25,0-2.25C661.43,381.81,661.43,384.06,662,384.06Zm2.25-44.54c0,.56,2.26.56,2.26,0C666.51,338.39,664.25,338.39,664.25,339.52Zm0,45.67h2.26v-2.25Zm2.26,126.87c.56,0,.56-1.69,0-1.69A.85.85,0,1,0,666.51,512.06Zm4-157.32c.56,0,.56-2.82,0-2.82C669.33,351.92,669.33,354.74,670.46,354.74Zm6.2,156.76a6.26,6.26,0,0,0,4.51,0C681.73,510.37,676.1,510.37,676.66,511.5Zm10.15-7.33h1.12c1.13,0,2.26,0,2.82-2.26ZM697,412.82H694.7C683.42,417.89,689.06,420.71,697,412.82Zm-6.21,15.79c0,1.13,2.26,1.13,2.26,0C693,428,690.75,428,690.75,428.61ZM693,409.44c1.13,0,1.13-2.26,0-2.26S691.88,409.44,693,409.44Zm1.69,15.78a.85.85,0,1,0,0-1.69C694.14,423.53,694.14,425.22,694.7,425.22Zm0,86.84a.85.85,0,1,0,0-1.69C694.14,510.37,694.14,512.06,694.7,512.06Zm2.26-93.6c1.13,0,1.13-2.26,0-2.26S695.83,418.46,697,418.46Zm0,81.76c1.13,0,1.13-2.82,0-2.82S695.83,500.22,697,500.22Zm3.95,1.13c1.12,0,1.12-2.82,0-2.82S699.78,501.35,700.91,501.35Zm0,4.51c1.12,0,1.12-2.82,0-2.82S699.78,505.86,700.91,505.86Zm3.94,6.2a.85.85,0,1,0,0-1.69A.85.85,0,0,0,704.85,512.06Zm6.2-66a1.14,1.14,0,1,0,0-2.26C709.93,443.83,709.93,446.09,711.05,446.09Zm0,57c1.69,0,1.69-1.69,0-1.69A.85.85,0,0,0,711.05,503Zm0,4.51c1.69,0,1.69-1.69,0-1.69A.85.85,0,0,0,711.05,507.55Zm2.26-49.06V454l-2.26,2.26Zm4.51,19.74c.56,0,.56-2.82,0-2.82C716.69,475.41,716.69,478.23,717.82,478.23Zm3.95-18.61c.56,0,.56-2.25,0-2.25C720.64,457.37,720.64,459.62,721.77,459.62Zm0-10.71c0,1.69,1.69,1.69,1.69,0C723.46,448.34,721.77,448.34,721.77,448.91Zm4,8.46c1.12,0,1.12-2.26,0-2.26S724.59,457.37,725.72,457.37Zm3.95-1.13v-7.33l-3.95,2.82Zm0,27.63a.85.85,0,1,0,1.69,0A.85.85,0,1,0,729.67,483.87Zm1.69-19.17c1.12,0,1.12-2.82,0-2.82C730.79,461.88,730.79,464.7,731.36,464.7Zm0,42.85a.85.85,0,0,0,0-1.69C730.79,505.86,730.79,507.55,731.36,507.55Zm0-11.84h1.12c3.39,0,5.08-4.51,7.89-4.51h1.13l-1.69,1.69c.56,0,5.07,2.82,5.64,2.82h2.25c1.13,0,4.52-3.95,4.52-4.51l-4.52,1.69V491.2c0-5.64,5.65-6.2,5.65-11.84-2.26,0-4.52,0-5.65-2.82-2.25,1.69-2.82,4.51-3.94,7.33l-2.26-2.82C737.56,485,735.87,491.76,731.36,495.71Zm4.51,14.66c.56,0,.56-2.82,0-2.82C734.74,507.55,734.74,510.37,735.87,510.37Zm0-29.32c.56,1.69,2.81-1.13,1.69-1.69A1.2,1.2,0,1,0,735.87,481.05Zm3.94,25.37h.56c1.13,0,3.39,0,3.39-2.25,0-1.13-1.13-3.95-2.26-3.95Zm1.69-31a.85.85,0,1,0,0-1.69A.85.85,0,1,0,741.5,475.41Zm0-7.89h2.26c1.69,0,3.94-1.13,3.94-4.51Zm2.26-10.15c1.12,0,1.12-2.26,0-2.26S742.63,457.37,743.76,457.37Zm3.94,13.53a.85.85,0,1,0,0-1.69A.85.85,0,0,0,747.7,470.9Zm0,14.1c-1.12,0-1.12-2.26,0-2.26S748.83,485,747.7,485Zm0,16.35c1.13,0,1.13-2.82,0-2.82S746.58,501.35,747.7,501.35Zm4.52-27.63c1.13,0,1.13-2.82,0-2.82S751.09,473.72,752.22,473.72Zm0,33.83a.85.85,0,1,0,0-1.69A.85.85,0,1,0,752.22,507.55Z"/><path class="cls-1" d="M115.34,1100.55c0-7.89,3-11.27,10.15-11.27h1c6.6,0,9.65-2.82,10.16-10.16,0-3.38,2-84.57,2-121.21V867.14l-2-3.39H125.49c-7.1,0-10.66-3.38-10.15-11.27l1.52-57c0-7.89,3.56-10.71,10.67-11.27l55.86-1.69c7.11,0,10.16,2.82,10.16,10.71v59.2c0,7.89-3.05,11.27-10.16,11.27h-7.62v96.42c8.13-10.72,41.13-85.7,41.13-93,.51-2.26-6.09-3.95-8.63-3.39-4.57-1.69-6.6-5.64-6.6-12.4V784.26l1.52-2.26h8.13c38.6,0,60.43-2.82,60.43,13.53v67.09c-3.05.57-13.2,4.52-21.33,4.52-11.68,24.81-25.39,53-35,80.05v2.26l39.1,128c.51,2.26,2,6.77,2,6.21,0,1.12,5.07,5.64,15.23,5.64,7.11,0,10.16,3.38,10.16,11.27v59.2c0,7.89-3.05,11.28-10.16,11.28H211.83c-7.11,0-10.16-3.39-10.16-70.48,0-5.64,2.32-9.91,6.09-11.27s7.11-2.82,7.11-7.9c0-9.58-7.11-29.88-19.3-77.8h-1c-6.09,0-13.2,31.57-18.79,39.46v36.08c0,7.34,2.54,10.72,8.13,11.29h1c6.1.56,8.64,4.5,8.64,11.27v55.82c0,2.25,6.6,13-28.44,13-32.5,0-49.77,2.82-49.77-13Zm14.73-298.81a1.15,1.15,0,0,0,1,1.12c.51,0,.51-.56.51-1.12s0-1.13-.51-1.13A1.15,1.15,0,0,0,130.07,801.74Zm2,4.51a1.16,1.16,0,0,0,1,1.13c.51,0,.51-.57.51-1.13s0-1.13-.51-1.13A1.16,1.16,0,0,0,132.1,806.25Zm11.68,28.18h3v-9C143.78,826.54,143.78,833.31,143.78,834.43Zm7.61,110.51a1.17,1.17,0,0,0,1,1.13c.51,0,.51-.57.51-1.13s0-1.13-.51-1.13A1.17,1.17,0,0,0,151.39,944.94Zm0,67.65a1.16,1.16,0,0,0,1,1.13c.51,0,.51-.56.51-1.13s0-1.12-.51-1.12A1.15,1.15,0,0,0,151.39,1012.59Zm1-106.55h1c3,0,7.1-7.89,7.1-9Zm1,86.82a1.15,1.15,0,0,0,1,1.13c.51,0,.51-.56.51-1.13s0-1.13-.51-1.13A1.16,1.16,0,0,0,153.43,992.86Zm0,23.68a1.15,1.15,0,0,0,1,1.13c.51,0,.51-.56.51-1.13s0-1.12-.51-1.12A1.15,1.15,0,0,0,153.43,1016.54Zm1-168.57v3.95h13.71c-2.54-1.7-3-2.26-4.06-2.26h-3.56V848c-.5,1.13-3,1.69-4.06,1.69A1.82,1.82,0,0,1,154.44,848Zm1,162.37a1.16,1.16,0,0,0,1,1.13c.51,0,.51-.57.51-1.13s0-1.13-.51-1.13A1.16,1.16,0,0,0,155.46,1010.34Zm5.07-54.69v-.56c0-2.26-2-3.38-4.06-3.38v1.12C156.47,955.09,158.51,955.65,160.53,955.65Zm-3-153.91a1.15,1.15,0,0,0,1,1.12c.5,0,.5-.56.5-1.12s0-1.13-.5-1.13A1.16,1.16,0,0,0,157.49,801.74Zm0,173.65a1.15,1.15,0,0,0,1,1.12c.5,0,.5-.56.5-1.12s0-1.13-.5-1.13A1.16,1.16,0,0,0,157.49,975.39Zm3,84.57v-8.46h-2Zm-1-157.31a1.16,1.16,0,0,0,1,1.13c.52,0,.52-.56.52-1.13s0-1.12-.52-1.12A1.15,1.15,0,0,0,159.52,902.65Zm0,62a1.16,1.16,0,0,0,1,1.13c.52,0,.52-.56.52-1.13s0-1.12-.52-1.12A1.15,1.15,0,0,0,159.52,964.67Zm8.63-128h4.07c-1-2.26-2-2.26-11.69-2.26h7.62Zm-6.6-32.7c0,.57,0,1.13.51,1.13s.51-.56.51-1.13,0-1.13-.51-1.13S161.55,803.43,161.55,804Zm1.52,4.51a1.73,1.73,0,0,0,1,.57c.51,0,.51-.57.51-.57,0-.56,0-1.12-.51-1.12A1.15,1.15,0,0,0,163.07,808.5Zm2,4a1.15,1.15,0,0,0,1,1.12c.51,0,.51-.56.51-1.12s0-1.13-.51-1.13A1.15,1.15,0,0,0,165.11,812.45Zm0,19.73a1.16,1.16,0,0,0,1,1.13c.51,0,.51-.57.51-1.13s0-1.13-.51-1.13A1.16,1.16,0,0,0,165.11,832.18Zm0,13a1.16,1.16,0,0,0,1,1.13c.51,0,.51-.57.51-1.13s0-1.13-.51-1.13A1.15,1.15,0,0,0,165.11,845.15Zm1-25.94h4.06V817C168.15,817,167.14,817,166.12,819.21Zm7.11,162.94a1.16,1.16,0,0,0,1,1.13c.51,0,.51-.56.51-1.13s0-1.12-.51-1.12A1.15,1.15,0,0,0,173.23,982.15Zm3.55-141.51a1.16,1.16,0,0,0,1,1.12c.51,0,.51-.56.51-1.12s0-1.13-.51-1.13A1.17,1.17,0,0,0,176.78,840.64Zm2,2.25a1.15,1.15,0,0,0,1,1.13c.51,0,.51-.56.51-1.13s0-1.13-.51-1.13A1.16,1.16,0,0,0,178.82,842.89ZM189,986.66s0,.57.51.57.51-.57.51-.57c0-.56,0-1.12-.51-1.12S189,986.1,189,986.66Zm8.64-31h2l-2-6.2Zm4.57-19.16a1.15,1.15,0,0,0,1,1.12c.51,0,.51-.56.51-1.12s0-1.13-.51-1.13A1.16,1.16,0,0,0,202.18,936.49Zm3,45.66h2v-9h-2Zm3.05-118.4a1.75,1.75,0,0,1,1.53.57C209.29,864.32,208.78,863.75,208.27,863.75Zm0,135.88a1.73,1.73,0,0,0,1,.57c.51,0,.51-.57.51-.57,0-.56,0-1.13-.51-1.13A1.17,1.17,0,0,0,208.27,999.63Zm1.53-135.31h0Zm10.15,31a1.17,1.17,0,0,0,1,1.13c.51,0,.51-.57.51-1.13s0-1.13-.51-1.13A1.16,1.16,0,0,0,220,895.33Zm1-47.93H225s2-7.89,2-10.71v-2.26S221,845.15,221,847.4Zm5.08,2.26a1.16,1.16,0,0,0,1,1.13c.51,0,.51-.57.51-1.13s0-1.13-.51-1.13A1.16,1.16,0,0,0,226.05,849.66Zm2-19.73a1.15,1.15,0,0,0,1,1.12,1.5,1.5,0,0,0,0-2.25A1.16,1.16,0,0,0,228.08,829.93Zm0,22a1.74,1.74,0,0,0,1,.56l.51-.56a2,2,0,0,0-.51-1.13A1.16,1.16,0,0,0,228.08,851.92Zm4.57-24.25v-4.51l-2,2.26Zm-1,40.59a1.73,1.73,0,0,0,1,.57c.5,0,.5-.57.5-.57,0-.56,0-1.12-.5-1.12A1.15,1.15,0,0,0,231.63,868.26Zm2-5.64a1.16,1.16,0,0,0,1,1.13c.51,0,.51-.56.51-1.13s0-1.12-.51-1.12A1.15,1.15,0,0,0,233.66,862.62Zm9.65-15.22a1.16,1.16,0,0,0,1,1.13c.51,0,.51-.56.51-1.13s0-1.12-.51-1.12A1.15,1.15,0,0,0,243.31,847.4ZM251.44,804a1.15,1.15,0,0,0,1,1.13c.51,0,.51-.56.51-1.13s0-1.13-.51-1.13A1.16,1.16,0,0,0,251.44,804Zm2,28.19a1.16,1.16,0,0,0,1,1.13c.51,0,.51-.57.51-1.13s0-1.13-.51-1.13A1.16,1.16,0,0,0,253.47,832.18Zm1-15.23L258,814.7h-1C256,814.7,255.5,814.7,254.48,817Z"/><path class="cls-6" d="M298.13,875.92c10.18-1.17,28.76-2.31,29.39-17.29,0-12.58,2.6-74.27,2.63-87.45l.19-70.09c-4.16-16.18-16.12-21.6-31.7-21.64L298.9,583c0-4.19,1.81-6,6-6l132.39.35L437,678c0,5.4-23.37,2.94-23.4,14.92l-.16,60.5c5.39,0,53.47-58.57,53.48-64,0-7.18-18.54-9.63-21.54-9.64l.26-97.64,2.41-4.78,97.64.26c9,0,29.95,2.47,29.95,2.47l2.38,2.4s1,62.9,1.56,89.26v5.39c0,4.19-33,11.3-42.58,20.26-7.21,6-36,31.65-36.07,45.42-.05,20.37,45.21,121.73,59,131.35,5.39,3,27,4.26,28.14,8.46.51,33,1.66,50.32,1.59,77.88l0,13.78a6.65,6.65,0,0,1-6.61,6.57l-134.18-.36c-4.19,0-6-1.81-6-6l.25-94c0-6.59,21-1.15,21-16.12,0-8.39-20.81-56.36-25.6-58.77-12.6,9.55-27.63,28.68-27.67,44.85-.06,20.37,21.49,28.81,21.48,30l-.25,94c0,4.19-1.81,6-6,6l-122.2-.32c-4.19,0-6-1.81-6-6Zm14.26,40.18h2.4l0-8.38h-2.4Zm-.05,19.17,4.8-1.79h-4.79Zm9,12c.6,0,.6-2.4,0-2.4C320.11,944.87,320.1,947.27,321.3,947.27Zm8.43-16.15c1.2,0,1.81-5.39,1.81-6.59-3,0-6,1.18-8.39,4.77A26.84,26.84,0,0,0,329.73,931.12ZM334,900c0-2.4,1.82-6,4.22-7.18H334Zm2.26,53.92c.59,0,.6-2.4,0-2.4C335.07,951.5,335.06,953.9,336.26,953.9Zm.09-33.55c.59,1.2,3-.59,1.8-1.79S335.15,919.75,336.35,920.35Zm1.89-37.13a.9.9,0,0,0,0-1.8A.9.9,0,1,0,338.24,883.22Zm2.2,74.88c1.2,0,1.21-2.39,0-2.4S339.24,958.1,340.44,958.1Zm.74-281.54v1.2l4.2-2.38-2.39-4.2C342.39,673.57,341.19,674.17,341.18,676.56Zm3.47,273.77h4.19l-2.38-1.81ZM347,727.49a.9.9,0,1,0,0-1.79C346.44,725.69,346.44,727.49,347,727.49Zm0-9.58,6.59,0a8.33,8.33,0,0,0-5.38-1.81h-1.2Zm0,17.37h2.39v-4.2H347Zm4.44,131.8v-4.19h-2.39ZM356.13,685c.6,0,.61-1.8,0-1.8A.9.9,0,0,0,356.13,685Zm.16,167.13h3.6c4.19-1.79,12.59-6,12.59-6V842C367.09,847.36,356.32,840.73,356.29,852.12Zm1.63-161.73c1.2,0,1.2-2.4,0-2.4S356.72,690.38,357.92,690.39Zm-.7,264.16h2.4c3,0,6-.58,6-4.18v-1.79Zm2.72-123.39a2.89,2.89,0,0,0,0-4.19C358.76,825.76,358.74,832.36,359.94,831.16Zm1.74,24.56c1.19,0,1.2-2.39,0-2.39C361.08,853.33,361.08,855.72,361.68,855.72Zm0,3,4.19-1.78h-.59A3.6,3.6,0,0,0,361.67,858.72Zm2.88-184.49a.9.9,0,0,0,0-1.8A.9.9,0,0,0,364.55,674.23Zm5.28,41.94h3l0-9C369.85,708.39,369.83,715,369.83,716.17Zm3.11-44.92c2.4-1.19,4.21-3,4.21-5.38v-1.19Zm2.57,163.55c1.2-1.8,4.8-4.78,5.4-6V827Zm1.19,3.59a.9.9,0,1,0,0-1.79A.9.9,0,1,0,376.7,838.39ZM379,861.76a.9.9,0,1,0,0-1.8A.9.9,0,0,0,379,861.76Zm1.78,4.8c1.2,0,1.21-2.4,0-2.4C380.22,864.16,380.22,866.56,380.81,866.56Zm0-14.38,4.2-1.78L383.26,848Zm1.23-13.77c10.79,0,9.62-9.56,18-11.34-3.59-3-3.58-5.4-3-6.59l-3,6.58c-3.62,7.17-3.61,3-9,3v-3C382.11,830,382.09,835.41,382.08,838.41Zm3.41-153.34a.9.9,0,1,0,0-1.8C384.89,683.27,384.89,685.07,385.49,685.07ZM385,855.78c1.19,0,1.2-2.39,0-2.39C384.44,853.39,384.44,855.78,385,855.78ZM387.46,845c1.2,0,1.21-2.39,0-2.4S386.26,845,387.46,845Zm.39-147.36c2.4,0,5.39-.58,6.6-3h-6.59Zm-.67,252.79c0,1.2,2.4,1.2,2.4,0S387.19,949.24,387.18,950.44Zm3.09-263c.6,0,.61-2.39,0-2.39C389.08,685.08,389.08,687.47,390.27,687.47Zm-.7,268.36c.59,0,.6-1.79,0-1.79A.9.9,0,1,0,389.57,955.83Zm0,6.6c.59,0,.6-2.4,0-2.4C388.36,960,388.35,962.42,389.55,962.43Zm0-16.18a.9.9,0,1,0,1.8,0A.9.9,0,0,0,389.59,946.25ZM392.1,676.7c1.2,0,1.2-2.4,0-2.4S390.9,676.69,392.1,676.7Zm0,13.78c1.2,0,1.21-2.4,0-2.4S390.86,690.47,392.06,690.48Zm-.72,273.15c2.4-1.19,2.4-2.39,2.41-4.79v-1.79ZM394.39,715c.6,0,.61-2.4,0-2.4C393.2,712.64,393.2,715,394.39,715Zm0,12.58c.6,0,.6-1.8,0-1.8A.9.9,0,0,0,394.36,727.62Zm.07-26.36h1.8v-2.4Zm-.37,138.38a.9.9,0,0,0,1.8,0A.9.9,0,1,0,394.06,839.64Zm1.47,124c1.2.6,3.6-1.19,2.41-2.39S394.34,962.44,395.53,963.64Zm.79-298.91h2.4c1.8,0,3,0,4.2-1.78l-2.39-2.4Zm1.82,219.84a5.38,5.38,0,0,0,5.41-5.38A5,5,0,0,0,398.14,884.57ZM398,933.7h1.8v-4.2ZM402.27,908c4.2,0,15-5.36,15-8.35v-2.39l-15,8.34ZM404,924.72l2.41-1.79-4.18-6.6v2.4C402.24,920.53,402.23,922.92,404,924.72Zm-1.87,29.95h1.79v-4.19Zm0,4.2a.9.9,0,1,0,1.79,0C403.93,958.27,402.14,958.26,402.14,958.87Zm6.59-3c.6,0,.61-1.79,0-1.79A.9.9,0,1,0,408.73,955.88Zm4.21-5.37c0-1.2,1.81-5.39,1.82-6v-1.2c0-2.4,0-2.4-1.79-3.6l4.2-1.78-7.79,0c0,1.79,1.18,5.39,3.58,6.59l-4.21,4.19Zm-2-137.19c1.2,0,1.2-2.39,0-2.39S409.71,813.32,410.91,813.32Zm2.43-13.77c0-6.59,8.41-9.56,10.79-2.36,4.21-7.78-7.75-15-13.16-8.42Zm1.84-16.17c1.2,0,1.2-2.39,0-2.39C414.59,781,414.58,783.38,415.18,783.38Zm-.07,25.76c1.2,0,1.21-2.39,0-2.39C414.52,806.74,414.51,809.14,415.11,809.14Zm2.09,115.62a.9.9,0,0,0,0-1.8A.9.9,0,0,0,417.2,924.76Zm0,9.58a.9.9,0,1,0,0-1.8A.9.9,0,1,0,417.18,934.34Zm-.05,17.38c1.2,0,1.21-2.4,0-2.4S415.93,951.71,417.13,951.72ZM456,734.37c1.2,0,1.21-2.39,0-2.39S454.84,734.37,456,734.37Zm1.81-4.19c1.2,0,1.2-2.39,0-2.39C457.26,727.78,457.25,730.18,457.85,730.18Zm0,10.79c1.2,0,1.2-2.4,0-2.4C457.23,738.57,457.22,741,457.82,741Zm-.45,170.12a.9.9,0,0,0,0-1.8C456.78,909.29,456.78,911.08,457.37,911.09ZM460.24,732a.9.9,0,0,0,0-1.8A.9.9,0,0,0,460.24,732Zm-.11,43.73h1.19c1.2,0,1.8,0,3-1.79Zm2.08,117.41v-1.8h-2.4Zm1.78,8.39v-.6c0-2.39-1.79-3.6-4.18-3.6v1.19C459.8,900.91,462.19,901.51,464,901.52Zm4.49-112.6c-1.79-2.41-11.37-5.42-6,.58Zm-5.85-54.53c.6,0,.61-2.39,0-2.4C461.44,732,461.43,734.38,462.63,734.39Zm0,9.59c.6,0,.61-2.4,0-2.4C461.41,741.57,461.41,744,462.6,744Zm-.45,170.71c.6,0,.61-2.39,0-2.39C461,912.3,461,914.69,462.15,914.69ZM464.39,747a.9.9,0,1,0,0-1.79A.9.9,0,1,0,464.39,747Zm9,9q3.58-2.7,3.62-9c-3,0-9.61,7.76-12.61,9.55h4.19a10.2,10.2,0,0,0,4.2-.59c-.6,0-.59-2.4,0-2.39S473.36,755.38,473.36,756Zm-6.64,19.74c0,1.2,1.79,2.4,1.79,2.4,4.19,0,8.39-4.17,13.19-4.15v-4.2a10,10,0,0,1-6.6,1.78c-3,0-5.38-1.81-9.57-1.82C465.53,770.34,466.72,775.13,466.72,775.73Zm0,7.79c.59,0,.6-2.4,0-2.4C465.51,781.12,465.5,783.52,466.7,783.52Zm.08-32.94,1.81-2.4h-1.8Zm-.38,145,1.8-2.4V889A13.74,13.74,0,0,0,466.4,895.54ZM486,733.25c1.81-1.79,7.21-7.17,7.22-10.76-4.19,0-6,0-9.59,2.37,0-1.2,2.41-5.39,2.41-6.58v-1.8l-4.2,4.18v-2.39c.6-1.2,5.41-5.38,6-6l2.39,1.81,1.81-4.19h-1.8c-2.4,0-20.39,7.14-21.59,10.73C478.26,715.26,479.42,729,486,733.25ZM468.6,744c0,1.2,2.39,1.2,2.39,0S468.6,742.79,468.6,744Zm3.7,184.51c1.2,0,1.21-2.4,0-2.4C471.71,926.1,471.71,928.5,472.3,928.5ZM475.09,780l4.2-1.79h-1.2C476.89,778.15,476.29,778.15,475.09,780ZM477,757.79a.9.9,0,0,0,0-1.8C476.35,756,476.35,757.79,477,757.79Zm2.6-79.06a.9.9,0,1,0,0-1.8A.9.9,0,0,0,479.55,678.73Zm6.08,191.1c0-4.19,0-7.79-2.36-10.79-1.2,0-4.2,1.19-4.2,2.38C477.86,865.62,482,869.82,485.63,869.83Zm-4-83.28c.6,1.2,3-1.18,1.81-1.79A1.27,1.27,0,0,0,481.66,786.55Zm0-6.59,9.58,0c0-3-2.37-6-5.37-6C483.49,774,481.68,780,481.68,780Zm1.9-38.33a.9.9,0,1,0,0-1.8A.9.9,0,0,0,483.58,741.63Zm0,5.39a.9.9,0,1,0,0-1.79A.9.9,0,1,0,483.56,747Zm-.33,128.19c1.19,0,1.2-2.39,0-2.39S482,875.21,483.23,875.21Zm-.16,58.71c1.2,0,1.2-2.4,0-2.4S481.87,933.92,483.07,933.92Zm.21-79.07h1.2c1.19,0,2.4,0,3-2.39l-1.8-1.8Zm2.78-146.16a.9.9,0,1,0,0-1.79A.9.9,0,1,0,486.06,708.69ZM486,751.22a.9.9,0,1,0,0-1.8A.9.9,0,0,0,486,751.22Zm.21-82.66v.6l4.2-1.79-2.38-4.2C487.38,665,486.17,666.16,486.16,668.56Zm-.76,290.53h1.8v-1.8Zm1.87-29.36c1.21,0,1.21-2.39,0-2.39C486.68,927.34,486.68,929.73,487.27,929.73Zm0,4.2c0,.6,2.4.6,2.4,0C489.66,932.73,487.27,932.73,487.26,933.93ZM490.11,762a.9.9,0,0,0,0-1.8A.9.9,0,0,0,490.11,762Zm-.5,192.28c1.19,0,1.2-2.39,0-2.39S488.41,954.3,489.61,954.3Zm.82-84.46,7.8-4.17c-1.79-2.4-4.19-2.41-6.59-2.41h-1.2a4.55,4.55,0,0,1,1.2,2.4A11,11,0,0,1,490.43,869.84ZM492,719.49c1.2,0,1.21-2.39,0-2.39C491.43,717.09,491.42,719.49,492,719.49Zm-.57,217.45c1.2,0,1.2-2.4,0-2.4C490.86,934.54,490.85,936.93,491.45,936.94Zm.16-58.71,2.39-1.79h-2.39Zm2.66-103c1.2,0,1.21-2.4,0-2.4S493.07,775.2,494.27,775.21Zm2.18,82.07v-2.4h-2.4Zm0,15.57c.6,0,.61-1.79,0-1.79A.9.9,0,1,0,496.41,872.85Zm2.24-168.32a.9.9,0,0,0,0-1.8A.9.9,0,0,0,498.65,704.53Zm1.94,172.53a6,6,0,0,0,1.8-.6l6.61-6.57-2.39-2.4-8.4,4.77C500.6,872.86,500.6,875.26,500.59,877.06ZM501.12,677c.6,0,.61-2.4,0-2.4C499.93,674.58,499.92,677,501.12,677Zm-.51,191.68c.6,0,.61-1.79,0-1.8A.9.9,0,0,0,500.61,868.67Zm-.24,92.85h6v-4.19C504.57,958.53,501,959.13,500.37,961.52Zm2.53-279.14c1.2,0,1.21-2.39,0-2.4S501.7,682.38,502.9,682.38Zm6.63-16.16a.9.9,0,1,0,0-1.79A.9.9,0,1,0,509.53,666.22Zm-.71,269.56L513,934h-4.19Zm8.36,12c1.2,0,1.21-2.4,0-2.4S516,947.79,517.18,947.79Zm.75-284.54c2.4-1.19,4.2-3.58,4.21-5.38v-1.2ZM517.21,934c4.2,0,12.59-2.37,10.81-9h-1.19C520.23,925,517.23,927.42,517.21,934Zm2.56-58.7c.59,0,.6-2.4,0-2.4C518.58,872.91,518.57,875.31,519.77,875.31Zm1.79,3H524v-4.19Zm0,6.59h2.39v-2.39Zm4.27-32.33a.9.9,0,1,0,0-1.8C525.22,850.77,525.22,852.56,525.81,852.57Zm0,5.38a.9.9,0,1,0,0-1.79C525.21,856.15,525.2,858,525.8,858Zm-.08,29.95a.9.9,0,1,0,0-1.79C525.13,886.11,525.13,887.9,525.72,887.9Zm2.45-18c1.19,0,1.8-1.19,1.8-2.39,0-1.8-1.78-5.4-4.18-6v1.8C525.78,865.74,525.77,867.54,528.17,869.94Zm-2.49,34.14h2.4c4.19-2.39,4.22-13.77,4.23-15l6.59,0v-3c-3.59,0-6.59,0-9,3-.6,3-4.22,10.76-4.22,10.76l2.39,1.81Zm2.46-22.16c1.19,0,1.2-2.39,0-2.4S526.94,881.92,528.14,881.92Zm-.08,29.35a.9.9,0,1,0,0-1.79A.9.9,0,1,0,528.06,911.27ZM528,934h5.39c0-2.4,0-9,4.82-9-.61,0-6-4.21-3.58-6C526.85,916.66,531,930.45,528,934Zm2.47-257c1.2,0,1.21-2.39,0-2.4C529.88,674.66,529.87,677.06,530.47,677.06Zm-.69,263a.9.9,0,1,0,0-1.8C529.18,938.23,529.18,940,529.78,940Zm2.35,14.39c1.21,0,1.21-2.4,0-2.4S530.94,954.41,532.13,954.42Zm3.13-275.55c.6,0,.6-1.79,0-1.79A.9.9,0,1,0,535.26,678.87Zm-.68,259.38a.9.9,0,1,0,1.79,0A.9.9,0,1,0,534.58,938.25Zm1.91-42.53c1.19,0,1.2-2.39,0-2.4S535.28,895.72,536.49,895.72Zm-.17,62.9c1.2,0,1.2-2.4,0-2.4S535.12,958.62,536.32,958.62Zm2.6-77.87c.6,1.2,3-1.19,1.8-2.39S537.72,879.55,538.92,880.75Zm1.75,15.58a.9.9,0,1,0,0-1.79A.9.9,0,1,0,540.67,896.33Zm-.08,33.55c1.2,0,1.2-2.39,0-2.4S539.39,929.87,540.59,929.88Zm-.05,16.77a.9.9,0,0,0,0-1.8A.9.9,0,0,0,540.54,946.65Zm.77-289.93h2.39c1.8,0,3,0,4.2-1.79l-2.39-2.4Zm-.6,225.84c0,1.19,2.4,1.2,2.4,0C543.11,882,540.71,882,540.71,882.56Zm-.1,36.54c0,1.19,2.4,1.2,2.4,0S540.62,917.89,540.61,919.1Zm-.08,31.74,4.2,0-1.8-1.81ZM543,909.52c1.19,0,1.2-2.4,0-2.4S541.84,909.52,543,909.52Zm1.86-23.36c1.19,0,1.2-2.39,0-2.4C544.3,883.76,544.3,886.16,544.9,886.16Zm2.39,1.8a.9.9,0,1,0,0-1.79A.9.9,0,1,0,547.29,888Zm1.79,2.4c1.2,0,1.2-2.39,0-2.39C548.49,888,548.48,890.36,549.08,890.36Zm0,13.78,4.8-2.38-4.79,0ZM558,924.53c0-3.59,0-6.59-2.37-9.59-3,0-4.19.59-4.2,3C551.39,922.12,553.78,924.52,558,924.53Zm-4.1-34.15c.6,0,.61-2.4,0-2.4C552.68,888,552.67,890.37,553.87,890.38Zm1.61,71.28c4.19,0,6.61-7.16,6.62-10.76v-1.8l-8.4,6C554.29,957.47,555.48,959.27,555.48,961.66Zm.78-295.31a.9.9,0,1,0,0-1.8A.9.9,0,1,0,556.26,666.35Zm-.6,225.83a.9.9,0,0,0,0-1.8A.9.9,0,0,0,555.66,892.18Zm0,19.16c5.39,0,8.39-1.77,8.41-7.16v-2.4a9,9,0,0,1-8.4,5.37Zm-.05,20.37,6.59-1.78h-2.39C558,929.92,556.76,929.92,555.56,931.71Zm2.37,7.8c1.2,0,1.21-2.4,0-2.4S556.74,939.51,557.93,939.51Zm.12-43.73h1.8v-2.39Zm2.4-227c1.19,0,1.2-2.4,0-2.4C559.85,666.36,559.85,668.75,560.45,668.76Zm1.67,272.55a.9.9,0,1,0,0-1.79A.9.9,0,1,0,562.12,941.31Zm1.82-7.18,2.4-2.39h-2.4Zm2.41-6.58h1.2c1.2,0,1.8,0,3-2.39ZM573,898.81c.6,0,.6-2.39,0-2.4C571.83,896.41,571.82,898.81,573,898.81Zm-.08,30c.6,0,.61-2.39,0-2.39C571.75,926.36,571.74,928.76,572.94,928.76Zm0,8.39c.6,0,.6-2.4,0-2.4C571.73,934.75,571.72,937.15,572.92,937.15Zm0,17.37c.6,0,.61-2.39,0-2.39C571.68,952.12,571.67,954.52,572.87,954.52Z"/><path class="cls-7" d="M612.8,727.32s.85-1.27,1.7-1.27,12.33-1.7,13.18-1.7V530.05c0-3.4-14.88,0-14.88-3.4l1.27-40.82c.43-5.95,3-8.5,8.93-8.5h44.22c16.15,0,45.91-.85,57,1.27,5.95.43,8.5,3,8.5,8.93V586.6c0,2.55-3.4,1.69-4.25,1.69h-3.83c-5.1,0-28.91-1.69-25.08-1.27-5.95-.42-8.5-3-8.5-8.93V531.32c0-2.12-6.81-1.27-6.81-1.27s-5.52-.85-5.52,1.27v59.1c0,6,2.55,8.5,8.5,8.5h14c5.95,0,8.5,2.56,8.5,8.51v25.51c0,5.95-2.55,8.5-8.5,8.5h-14c-6,0-8.5,2.55-8.5,8.5v74.41s3.4,1.7,4.67,1.7c1.71,0,7.66-.85,9.36-.85V660.57c0-6,2.55-8.5,8.5-8.5h21.26c6,0,8.5,2.55,8.5,8.5V773.24l-1.7,3.4H708c-31.89,0-62.5,0-86.73-1.7-5.95,0-8.5-2.55-8.5-8.5Zm28.06-220.23,1.7-1.7h-3.4Zm0,116.49c.85,0,.85-1.7,0-1.7S640,623.58,640.86,623.58Zm0,81.63a.64.64,0,1,0,0-1.27A.64.64,0,1,0,640.86,705.21Zm0-36.56h1.7l-1.7-3.4Zm0,39.12h.85c1.7,0,4.25-.85,4.25-2.56v-.85ZM642.56,584c.85,0,.85-1.7,0-1.7S641.71,584,642.56,584Zm0,5.11c.85,0,.85-1.7,0-1.7S641.71,589.15,642.56,589.15Zm0,37.41a.64.64,0,0,0,0-1.28A.64.64,0,0,0,642.56,626.56Zm0,5.1c.85,0,.85-1.7,0-1.7S641.71,631.66,642.56,631.66Zm1.7-35.29c2.55-.85,1.7-3.4,1.7-4.67v-3.41c-.85,0-3.4,2.56-3.4,3.41v.42C642.56,593.82,643.41,594.67,644.26,596.37Zm0,4.26c.85,0,.85-1.71,0-1.71S643.41,600.63,644.26,600.63Zm0,61.22c0,.85,1.7.85,1.7,0S644.26,661,644.26,661.85Zm0,98.21H646v-1.27ZM646,585.74c.85,0,.85-1.7,0-1.7S645.11,585.74,646,585.74ZM646,630c.85,0,.85-1.7,0-1.7S645.11,630,646,630Zm0,4.25c.85,0,.85-1.7,0-1.7S645.11,634.21,646,634.21Zm0,36.57a.64.64,0,0,0,0-1.28A.64.64,0,0,0,646,670.78Zm0,66.75c.85,0,.85-1.7,0-1.7S645.11,737.53,646,737.53Zm0-229.16c.85.84,2.55-.43,1.7-1.28S645.11,507.94,646,508.37Zm0-4.68h4.68v-3.4Zm1.7,133.07c.85,0,.85-1.7,0-1.7S646.81,636.76,647.66,636.76Zm0,119.47c.85,0,.85-1.69,0-1.69S646.81,756.23,647.66,756.23Zm0-69.72a2.06,2.06,0,0,0,3,0C651.49,685.66,646.81,685.66,647.66,686.51Zm2.13-94.81h.85l-1.28-5.1c-.85,0-1.7,2.55-1.7,3.4C647.66,591.7,649.36,591.7,649.79,591.7Zm-2.13,65.47v1.7l11.48-1.7c-.85,0-5.95-2.55-6.8-3.4a2.59,2.59,0,0,1,0-3.4C649.36,652.07,647.66,653.77,647.66,657.17Zm0,14.46c0,.85,1.7.85,1.7,0S647.66,670.78,647.66,671.63Zm0,60.79h3l-1.28-1.69Zm1.7-20.4c.43,0,.43-1.7,0-1.7C648.51,710.32,648.51,712,649.36,712Zm8.08-4.25v-8.08c-.85.85-6.8,2.55-8.08,4.67h3.83C653.19,706.92,654,707.77,657.44,707.77Zm-6.8-136.06c0,.86,1.7.86,1.7,0S650.64,570.86,650.64,571.71Zm0,45.92h1.7v-1.7Zm0,57.4,1.7-1.7h-1.7Zm1.7-110.55c.85,0,.85-1.69,0-1.69S651.49,564.48,652.34,564.48Zm0-56.54c.85,0,4.25,0,5.1-2.55,0-.85-2.55-1.7-3.4-1.7C652.34,503.69,652.34,507.09,652.34,507.94Zm0,128c0,.85,1.7.85,1.7,0S652.34,635.06,652.34,635.91Zm0,52.3c0,.85,1.7.85,1.7,0S652.34,687.36,652.34,688.21Zm1.7-35.29c.85,0,.85-1.7,0-1.7S653.19,652.92,654,652.92Zm1.7-163.26c.85,0,.85-1.7,0-1.7S654.89,489.66,655.74,489.66Zm0,201.1c.85,0,.85-1.7,0-1.7S654.89,690.76,655.74,690.76Zm0,71h4.68v-3C659.14,759.63,656.59,760.06,655.74,761.76Zm1.7-252.55a.64.64,0,1,0,0-1.27A.64.64,0,1,0,657.44,509.21Zm0,14.89c.85,0,.85-1.7,0-1.7S656.59,524.1,657.44,524.1Zm0,36.13,3-1.7H660C659.14,558.53,658.29,558.53,657.44,560.23Zm1.7-33.58c.85.85,2.13-.85,1.28-1.7C660,524.1,658.29,525.8,659.14,526.65Zm1.28,166.24,1.69-1.28-3-1.7v.85C659.14,691.61,659.14,692.46,660.42,692.89Zm0-203.23c.85,0,.85-1.7,0-1.7C660,488,660,489.66,660.42,489.66Zm0,155.18c.85,0,.85-1.7,0-1.7C660,643.14,660,644.84,660.42,644.84Zm1.69-94.38v-1.7h-1.69Zm-1.69,78.65,3.4-1.7-3.4-1.7Zm1.69-66.32c.85,0,.85-1.71,0-1.71S661.27,562.79,662.11,562.79Zm0,41.66a3.28,3.28,0,0,0,3.41-3h-3.41Zm4.26,68.88c0-.85,0-3.83-2.55-4.68-.86,0-1.71,2.13-1.71,3C662.11,673.33,665.52,673.33,666.37,673.33Zm-4.26,54h1.71V721h-1.71Zm0,14.88,3.41-1.69h-3.41Zm1.71-252.54c.85,0,.85-1.7,0-1.7S663,489.66,663.82,489.66Zm0,74.82c.85,0,.85-1.69,0-1.69S663,564.48,663.82,564.48Zm0,16.16a.64.64,0,1,0,0-1.27A.64.64,0,1,0,663.82,580.64Zm0,123.3c.85,0,.85-1.7,0-1.7S663,703.94,663.82,703.94Zm0-40.39c.85.85,2.55-.85,1.7-1.7S663,662.7,663.82,663.55Zm1.7-159c.85,0,.85-1.7,0-1.7S664.67,504.54,665.52,504.54Zm0,61.65c.85,0,.85-1.71,0-1.71S664.67,566.19,665.52,566.19Zm3.4,184.94c.85,0,.85-1.7,0-1.7S668.07,751.13,668.92,751.13Zm3.82-122c6,0,7.66-8.08,7.66-12.33v-.85c-1.7,6-5.1,10.63-11.48,11.48C670.62,628.26,671.47,629.11,672.74,629.11Zm.85-113.94c7.66-4.25,12.33-7.23,16.58-14.88-2.54,3.4-5.95,6.8-9.77,8.08l3-4.68h-3c-2.55,0-9.78,4.25-9.78,6.37h3ZM675.3,738.8V738c0-1.27-1.71-2.12-3.41-2.12a1.9,1.9,0,0,0-1.27,1.7Zm5.1-110.54c.85,0,.85-1.7,0-1.7S679.55,628.26,680.4,628.26Zm0,128c.85,0,.85-1.69,0-1.69S679.55,756.23,680.4,756.23Zm1.7-142.42c.85,0,.85-1.71,0-1.71S681.25,613.81,682.1,613.81Zm0,16.15c.85,0,.85-1.7,0-1.7S681.25,630,682.1,630Zm1.27,129.67c.85,0,.85-1.69,0-1.69C683,757.94,683,759.63,683.37,759.63Zm0-269.12c2.55,0,5.11,0,6.8-1.7h-6.8Zm1.71,121.59c.84,0,.84-1.69,0-1.69S684.22,612.1,685.08,612.1Zm1.69,138.18c.86,0,.86-1.7,0-1.7S685.92,750.28,686.77,750.28Zm0,3.4h3.4l-1.69-1.7Zm3.4-248.29c3.83,0,7.23-3.4,8.09-6.8-6.38,0-4.26,6-8.09,6ZM691.88,516c.85,0,.85-1.7,0-1.7S691,516,691.88,516Zm0,96.93c0,.86,1.7.86,1.7,0S691.88,612.1,691.88,613Zm3,13.61a.64.64,0,0,0,0-1.28A.64.64,0,0,0,694.85,626.56Zm1.7,130.53h1.71c2.54,0,5.1-.86,5.1-3.41V752Zm1.71-266.58c.85.85,2.54-.85,1.69-1.7S697.4,489.66,698.26,490.51Zm3.4,1.7c.85,0,.85-1.7,0-1.7S700.8,492.21,701.66,492.21Zm1.7,49.74a.64.64,0,1,0,0-1.27A.64.64,0,1,0,703.36,542Zm0,14c.85,0,.85-1.7,0-1.7S702.51,556,703.36,556Zm1.7-64.62c.42,0,.42-1.7,0-1.7C704.21,489.66,704.21,491.36,705.06,491.36Zm1.27,211.73c0-.85,1.7-6,1.7-6.8l1.7-3.4c0-.43-.85-3-1.7-3l-3,1.7v3.83S703.36,702.24,706.33,703.09Zm-1.27-197.7h3l-1.7-3.4Zm0,43.37v2.55l1.27-6.81C705.06,545.36,705.06,547.05,705.06,548.76Zm0,191.75,1.27-1.71h-1.27ZM706.33,542a.64.64,0,1,0,0-1.27A.64.64,0,1,0,706.33,542ZM708,681.41v5.1a18.3,18.3,0,0,0,5.1-13.18C708,675,708,676.73,708,681.41Zm1.7-182.82h1.7l-1.7-1.28Zm0,44.21h1.7v-1.27Zm1.7-34.86c.86,0,.86-1.7,0-1.7S710.58,507.94,711.43,507.94Zm0,49.32c.86,0,.86-1.7,0-1.7S710.58,557.26,711.43,557.26Zm0,133.5c.86,0,.86-1.7,0-1.7S710.58,690.76,711.43,690.76Zm0-167.52c.86.86,4.26.86,5.11,0C717,522.4,710.58,522.4,711.43,523.24Zm1.7,191.33c2.56-.85,6.38-3.4,6.38-6s-6.38-2.55-8.08-2.55C711.43,709.47,714,711.17,713.13,714.57Zm-1.7,21.26c0,.85,1.7.85,1.7,0S711.43,735,711.43,735.83ZM713.13,576c.85,0,.85-1.71,0-1.71S712.29,576,713.13,576Zm0,109.69c.85,0,.85-1.7,0-1.7S712.29,685.66,713.13,685.66Zm0-191.75v1.7l8.08-1.7a7,7,0,0,0-5.52-3.4C714,490.51,713.13,492.21,713.13,493.91Zm0,14.46c0,.84,1.71.84,1.71,0C714.84,507.94,713.13,507.94,713.13,508.37Zm0,43.79h3.41l-1.7-1.7Zm1.71-3.4c.85,0,.85-1.71,0-1.71S714,548.76,714.84,548.76Zm0,140.3c.85,0,.85-1.7,0-1.7S714,689.06,714.84,689.06Zm7.22-144.56v-8.07c-1.7.84-5.52,2.55-7.22,5.1h3.82C718.66,543.65,714,543.65,722.06,544.5Zm-5.52-32.73,1.27-1.71h-1.27Zm0,154.33V667l3-1.7-1.7-1.7A2.55,2.55,0,0,0,716.54,666.1ZM717.81,525c0,.85,1.7.85,1.7,0S717.81,524.1,717.81,525Zm1.7,229.59c.85,0,.85-1.71,0-1.71S718.66,754.54,719.51,754.54Zm1.7-227c.85,0,.85-1.7,0-1.7S720.36,527.5,721.21,527.5Z"/><path class="cls-8" d="M611.41,1043c0-2.71,6.47-7,6.47-7l18.08-2.46c0-18.9,4-104.8,4-124.09,0-9.26-2.46-50.16-2.46-58.64H617.73c-2.7,0-6.32-1.16-6.32-6.32V814.8l1.55.92h29.32c62.11,0,112,.77,172.94,1.54,2.7,0,10.32,5.6,8.78,11.24v90.62c0,2.7-1.16,3.85-3.86,3.85H796.07c-2.7,0-4.24-1.15-5.79-3.47,1.16-24.3-1.78-61.82-36.12-61.82H694.27V926.3h22.47c14.66,0,13.12-27.25,13.12-34.57h22c2.7,0,3.86,1.15,3.86,3.85v98.77c0,2.7-1.16,3.86-3.86,3.86H733.72a5.48,5.48,0,0,1-5.41-3.47c.78-8.87,2.32-32.27-15.81-32.27H694.27v67.86c11.57,2.31,15.53,1.93,26.72,1.93,52.08,0,68.52-3.57,68.52-61.06a8.46,8.46,0,0,1,6.56-2.7h24.07c2.7,0,3.86,1.16,3.86,3.86,1.54,30.48,1.54,55,1.54,84.68,0,2.7,0,13.7-8.78,13.7H619.28c-2.71,0-6.32-3.61-6.71-6.32.39.39-1.16-16.44-1.16-20.3V1043Zm30,9.06,2.61-1.12h-.74C642.48,1050.91,642.1,1050.91,641.36,1052Zm6.73-22.08c.38,0,.38-1.5,0-1.5C647.34,1028.45,647.34,1030,648.09,1030Zm0-10.11v.75l2.62-2.62H650C648.47,1018,648.09,1018.72,648.09,1019.84Zm3.75,1.87c0,.75,1.49.75,1.49,0C653.33,1021.33,651.84,1021.33,651.84,1021.71Zm0,6.36h1.49v-1.87Zm1.49-13.1c1.13,0,5.24-4.49,5.24-6C658.57,1007.86,651.84,1015,653.33,1015Zm1.13,4.87a.56.56,0,1,0,0-1.12C654.08,1018.72,654.08,1019.84,654.46,1019.84Zm0-26.58h3c-.75-1.5-1.5-1.5-2.24-1.5h-.75Zm4.11,26.58c.38,0,.38-1.12,0-1.12A.56.56,0,1,0,658.57,1019.84Zm1.13-24.33c.37,0,.37-1.5,0-1.5C659,994,659,995.51,659.7,995.51Zm1.12,43c.75,0,.75-1.5,0-1.5S660.07,1038.55,660.82,1038.55Zm2.62-36.68c.75,0,.75-1.49,0-1.49C663.06,1000.38,663.06,1001.87,663.44,1001.87Zm4.12,0c0,.38,1.5.38,1.5,0C669.06,1001.12,667.56,1001.12,667.56,1001.87Zm2.62,9.36c.75,0,.75-1.5,0-1.5S669.43,1011.23,670.18,1011.23Zm0,25.82c.75,0,.75-1.49,0-1.49S669.43,1037.05,670.18,1037.05Zm1.5-96.56c.37,0,.37-1.13,0-1.13A.57.57,0,0,0,671.68,940.49Zm0,67.37a3.41,3.41,0,0,0,1.12-3h-1.12Zm1.12,47.91a.56.56,0,1,0,0-1.12A.56.56,0,1,0,672.8,1055.77Zm0-114.54c.75,1.13,2.24-.74,1.49-1.12C673.55,939.36,672.05,940.49,672.8,941.23Zm1.49,1.87c1.13-.74,3.37-1.87,3.37-3.74v-.74Zm1.13,88.34c.74,0,.74-1.49,0-1.49C675,1030,675,1031.44,675.42,1031.44Zm0-48.28c.74.75,2.24-.38,1.49-1.5C676.16,980.91,675,982.78,675.42,983.16Zm1.49,51.65c.75-.37.75-2.24,0-3C676.16,1031.44,676.16,1035.56,676.91,1034.81Zm.75-78.23c.75,0,.75-1.49,0-1.49Zm17.6,98.44,2.24-1.12-1.12-1.87Zm9-6.36c.37,0,.37-1.5,0-1.5C703.49,1047.16,703.49,1048.66,704.24,1048.66Zm0-102.93a41.9,41.9,0,0,0,2.62,5.61H708v-7.11h-3.74ZM708,1050.16c.75,0,.75-1.5,0-1.5C707.61,1048.66,707.61,1050.16,708,1050.16Zm2.62-99.57a.56.56,0,1,0,0-1.12C710.23,949.47,710.23,950.59,710.6,950.59Zm1.5.75a.76.76,0,1,0,1.5,0C713.6,950.59,712.1,950.59,712.1,951.34Zm2.62,96.95c0,.37,1.12.37,1.12,0C715.84,1047.16,714.72,1047.16,714.72,1048.29Zm2.25,1.87c.75,0,.75-1.5,0-1.5S716.22,1050.16,717,1050.16Zm1.49-104.43v-1.5H717ZM717,950.22h1.49v-1.5Zm2.62-7.86c.74,0,.74-1.87,0-1.87C719.21,940.49,719.21,942.36,719.59,942.36Zm4.11,0c.75,0,.75-1.87,0-1.87S723,942.36,723.7,942.36Zm0,118.65c.75,0,.75-1.49,0-1.49S723,1061,723.7,1061Zm2.62-100.31a.57.57,0,0,0,0-1.13A.57.57,0,0,0,726.32,960.7Zm6.36,92c.33-.11,1.88-1.44,2.21-1.66l.44-.33h-.22c-.55,0-3.2.11-3.2.77h.77Zm1.5-127.88c.38,0,.38-1.13,0-1.13S733.81,924.77,734.18,924.77Zm0,45.29a4.21,4.21,0,0,0,2.62-3.75v-.37Zm1.13-36.31c.74,0,.74-1.5,0-1.5S734.56,933.75,735.31,933.75Zm0,25.82c.74,0,.74-1.49,0-1.49S734.56,959.57,735.31,959.57Zm1.49,101.82c.38,0,.38-1.13,0-1.13A.57.57,0,0,0,736.8,1061.39Zm0-131.39c1.12-.74,1.12-1.49,1.12-2.62H736.8Zm3.75,23.59a.56.56,0,0,0,0-1.12C740.17,952.47,740.17,953.59,740.55,953.59Zm1.49,3.74a2.27,2.27,0,0,0,0-3C741.29,953.59,741.29,958.08,742,957.33Zm0,22.08a.56.56,0,1,0,0-1.12A.56.56,0,1,0,742,979.41Zm0,80.11c1.13-.75,2.62-2.25,2.62-3.75V1055Zm14.23-13.1c0,.74,1.49.74,1.49,0S756.27,1045.67,756.27,1046.42Zm0,8.6h1.49c1.13,0,1.88,0,2.62-1.12l-1.49-1.87Zm4.11-6.36c.38,0,.38-1.5,0-1.5C759.64,1047.16,759.64,1048.66,760.38,1048.66Zm1.13.75c0,.75,1.5.75,1.5,0S761.51,1048.66,761.51,1049.41Zm2.62,2.62,1.5-1.12h-1.5Zm1.5,9.36a.57.57,0,0,0,0-1.13A.57.57,0,0,0,765.63,1061.39Zm2.61-11.23c.75,0,.75-1.5,0-1.5S767.5,1050.16,768.24,1050.16Zm7.49.75h1.5c-.75-1.5-1.5-3.75-2.62-4.49-.75,0-1.5,2.24-1.5,3C773.11,1050.91,775.36,1050.91,775.73,1050.91Zm5.62-7.12,2.61-3c-2.61-.75-.74-2.62-.74-5.24l.74.75c.75,0,2.62-1.87,2.62-2.62h-1.49c-3.37,0-8.61,5.61-10.48,8.23h6.74Zm-2.62-8.23c.37,0,.37-1.12,0-1.12A.56.56,0,1,0,778.73,1035.56Zm3.74-3.74,2.62-1.12h-.38A2.24,2.24,0,0,0,782.47,1031.82Zm1.49,25.82h3.75c0-1.12,0-1.87-1.13-2.62Zm3.75-22.08a.56.56,0,1,0,0-1.12C787.33,1034.44,787.33,1035.56,787.71,1035.56Zm0,14.6c.75,0,.75-1.5,0-1.5C787.33,1048.66,787.33,1050.16,787.71,1050.16Zm0-9.36h.75c.75,0,1.49,0,2.24-1.5Zm1.5,11.23c.74.75,1.49-.75,1.49-1.12C790,1050.16,788.46,1051.28,789.21,1052Zm0-15.72H790c1.5,0,1.5-2.62,1.5-4.49v-1.12Zm1.49-7.86V1027C790,1027,790,1028.45,790.7,1028.45Zm0,28.82v-1.5C790,1055.77,790,1057.27,790.7,1057.27Zm.75-34.81v1.12c1.87-1.87,1.87-4.49,4.12-5.61h-.75C793,1018,791.45,1021.33,791.45,1022.46Zm1.5-5.61c.37,0,.37-1.5,0-1.5C792.2,1015.35,792.2,1016.85,793,1016.85Zm0,20.2c.37,0,.37-1.49,0-1.49C792.2,1035.56,792.2,1037.05,793,1037.05Zm0-25.07h1.12c1.5,0,5.24-1.5,5.24-1.5v-2.62Zm2.62,13.47a.56.56,0,1,0,0-1.12A.56.56,0,1,0,795.57,1025.45Zm3.37-9.35c1.12,0,1.87-1.87,1.87-3.75V1012l-5.24,3C796.69,1015.35,797.44,1016.1,798.94,1016.1ZM796.69,1027c.75,0,.75-1.5,0-1.5C796.32,1025.45,796.32,1027,796.69,1027Zm1.5,1.5c.75,0,.75-1.5,0-1.5S797.44,1028.45,798.19,1028.45Zm0,30.32c.75,0,.75-1.5,0-1.5S797.44,1058.77,798.19,1058.77Zm1.12-141.12c.75,0,.75-1.49,0-1.49C798.94,916.16,798.94,917.65,799.31,917.65Zm0-25.07c1.5-.75,3-2.25,3-3.75v-.75Zm3,163.94,2.62-5.61-1.5-1.5c-1.87,1.5-2.62,1.87-2.62,4.49A2.31,2.31,0,0,0,802.31,1056.52Zm0-14.6h1.12v-1.12Zm1.12-45.29a.56.56,0,1,0,0-1.12A.56.56,0,1,0,803.43,996.63Zm1.5,31.82c.37,0,.37-1.5,0-1.5C804.18,1027,804.18,1028.45,804.93,1028.45Zm0,16.09c.37,0,.37-1.87,0-1.87C804.18,1042.67,804.18,1044.54,804.93,1044.54Zm1.12-4.49c.75,0,.75-1.5,0-1.5S805.3,1040.05,806.05,1040.05Zm0,12.73c.75,0,.75-1.5,0-1.5S805.3,1052.78,806.05,1052.78Zm2.62-49.41v-1.12a3.55,3.55,0,0,0-2.62-3v1.13C806.05,1001.87,806.8,1003.37,808.67,1003.37Zm.75,22.83h.37l-1.12-4.49-2.62,3.37C807.55,1025.45,808.3,1026.2,809.42,1026.2Zm-1.87-124.27c.75,0,.75-1.49,0-1.49S806.8,901.93,807.55,901.93Zm0,114.17h1.12V1015h-1.12Zm1.12-6.37a.56.56,0,1,0,0-1.12C808.3,1008.61,808.3,1009.73,808.67,1009.73Zm1.12,51.28c.75-1.49.75-6.36,0-7.11C809.42,1052,809.42,1061.39,809.79,1061ZM650.27,850.72c.82,0,.82-2.06,0-2.06C649.85,848.66,649.85,850.72,650.27,850.72Zm0,37.41c.82,0,.82-1.65,0-1.65C649.85,886.48,649.85,888.13,650.27,888.13Zm4.53-35.35v-4.95l-2.89,3.3C652.74,852.78,653.15,852.78,654.8,852.78Zm-1.65,9.07a.62.62,0,1,0,0-1.24C652.74,860.61,652.74,861.85,653.15,861.85Zm0,36.59c.83,0,.83-2.06,0-2.06C652.74,896.38,652.74,898.44,653.15,898.44Zm1.65-55.56h1.65v-3.71C654.8,840.41,654.8,841.24,654.8,842.88Zm3.3,2.48c.82,0,.82-1.65,0-1.65S657.27,845.36,658.1,845.36ZM661,858.55a.62.62,0,0,0,0-1.24A.62.62,0,1,0,661,858.55Zm0,41.13a.62.62,0,0,0,0-1.24A.62.62,0,1,0,661,899.68Zm1.65-3.3a.62.62,0,0,0,0-1.24A.62.62,0,1,0,662.64,896.38Zm3.21-35.77c3.3,0,5.77-6.18,6.59-9.48h-.82C670,851.13,665.85,858.55,665.85,860.61Zm-4.37,21.1c1.24-.83,2.89-.83,4.54-.83V869.75a4.83,4.83,0,0,1-4.54,3.71Zm2.39,10.55c1.65,0,2.89-.42,2.89-2.48V889Zm1.65,8.24,2.89-3.29-4.54,2.06Zm6-56.71v-1.65H670.3Zm0,21.85c-.42,0-.42-2.06,0-2.06C672.36,863.58,672.36,865.64,671.54,865.64Zm1.64-19.37c.83,0,.83-1.65,0-1.65S672.36,846.27,673.18,846.27Zm-3.12,45.57c.41,0,.41-2.06,0-2.06C669.23,889.78,669.23,891.84,670.06,891.84Zm4.77-38.15c.41,1.23,2.06-.83,1.24-1.65C675.24,851.63,674,852.86,674.83,853.69Zm-4.77,45.58h.41c2.47,0,4.53-2.06,5.36-3.72h-2.89v-3.29Zm6-32.8c.82,0,.82-1.65,0-1.65S675.24,866.47,676.07,866.47Zm-3.13,20c.41,0,.41-1.65,0-1.65C672.12,884.83,672.12,886.48,672.94,886.48Zm6-33.62a.62.62,0,0,0,0-1.23A.62.62,0,1,0,679,852.86Zm1.65,2.06c.82,0,.82-2.06,0-2.06S679.78,854.92,680.61,854.92Zm-4.78,44.76a.62.62,0,0,0,0-1.24A.62.62,0,1,0,675.83,899.68Zm0-12h1.24v-2.06Zm6-51.35c.83,0,.83-1.65,0-1.65C681.43,834.72,681.43,836.37,681.84,836.37Zm0,30.1c.83,0,.83-1.65,0-1.65C681.43,864.82,681.43,866.47,681.84,866.47Zm1.65-27.62c.82,0,.82-2.06,0-2.06S682.67,838.85,683.49,838.85Zm0,24.32c.82,0,.82-1.65,0-1.65S682.67,863.17,683.49,863.17ZM680,884.83c.83,0,.83-1.64,0-1.64C679.54,883.19,679.54,884.83,680,884.83Zm6.43-45.16c.82,0,.82-1.65,0-1.65S685.55,839.67,686.38,839.67Zm-42.33,221.79h50.3c-.83-3.79-8.25,1.46-10.31-3.79l-3.13.81c-.82-.58-1.41.52-2.64.52-1.65,0-3.71-2.21-4.54-1.33l-7.16,1.92-2.15-1.69-7.16,1.1c-4.54,0,2,.13-2.91.13l-7.16.23C645.13,1061.4,642.4,1057.37,644.05,1061.46Zm65.55.09c1.24,0,6.6-.83,7-.83.82,0,1.65,0,1.65-1.26H709.6Zm13.2,9a.62.62,0,0,0,0-1.24A.62.62,0,1,0,722.8,1070.53Zm4.09-9,16.52-.83c-.41-3.3-7-.82-7-.82v-2.48C733.1,1059.9,729.77,1059.08,726.89,1061.55Z"/><path class="cls-9" d="M87.71,915.47s-79-6.89-86.18-17.66,12.38-14.6,32-6.5S87.71,915.47,87.71,915.47Z"/><path class="cls-9" d="M88.2,985.14s-75.35,17.94-81.51,28.33,15.5,10.25,31.47,2.85S88.2,985.14,88.2,985.14Z"/><path class="cls-9" d="M80.65,950.32s-62.81-9.79-71.14-1,5.86,16.45,23.08,12.79S80.65,950.32,80.65,950.32Z"/><path class="cls-9" d="M565.78,89.35s7-80.43,18-87.79,14.88,12.61,6.62,32.58S565.78,89.35,565.78,89.35Z"/><path class="cls-9" d="M494.81,89.85S476.53,13.09,466,6.82s-10.44,15.78-2.9,32.05S494.81,89.85,494.81,89.85Z"/><path class="cls-9" d="M530.28,82.16s10-64,1.05-72.47-16.76,6-13,23.51S530.28,82.16,530.28,82.16Z"/><path class="cls-2" d="M743.79,1358.31s24.35,1.27,40.48-15.14c13.78-14,28.65-62.8,26.37-100.15-.51-8.27,12.29-12.94,12.29-6.12,0,24.79-8.33,91.87-32.65,111.49-27.7,22.36-46.83,14.12-46.83,14.12"/><path class="cls-9" d="M330.52,1346.09V1101.65c0-17.14-25.44-14.93-25.44-17.7v-42c0-7.74,3.32-11.06,11.07-11.06h96.77c86.76-.35,72.45,81.3,72.45,202.41,0,130.51,9.4,195.21-74.66,195.21H316.15c-7.75,0-11.07-3.31-11.07-11.06v-43.68C322.78,1370.42,330.52,1366,330.52,1346.09Zm-8.84,69.12c0-8.84,8.84-14.93,8.84-21v-2.77c-6.08,5-9.95,14.94-12.16,21.57C318.36,1414.11,320.57,1415.21,321.68,1415.21Zm8.84,0c0,.56,1.66.56,1.66,0A.83.83,0,0,0,330.52,1415.21Zm10-13.82H346c0-1.11-.55-2.21-1.66-2.21S340.48,1400.28,340.48,1401.39ZM346,1194.56a.83.83,0,0,0,0-1.66C345.46,1192.9,345.46,1194.56,346,1194.56Zm0,27.65c1.1,0,1.1-2.21,0-2.21C345.46,1220,345.46,1222.21,346,1222.21Zm0,13.83c1.1,0,1.1-2.22,0-2.22C345.46,1233.82,345.46,1236,346,1236Zm0-22.68c1.1,1.11,3.32-1.11,2.21-2.21C347.11,1210.59,345.46,1212.25,346,1213.36Zm2.21,10,3.87-2.21H351C349.88,1221.1,349.33,1221.1,348.22,1223.31Zm3.87-7.19a.83.83,0,1,0,0-1.65A.83.83,0,1,0,352.09,1216.12Zm0,168.12a.83.83,0,1,0,0-1.66C351.54,1382.58,351.54,1384.24,352.09,1384.24ZM354.3,1236c.56,0,.56-2.22,0-2.22C353.2,1233.82,353.2,1236,354.3,1236Zm0,35.39c.56,0,.56-2.22,0-2.22C353.2,1269.21,353.2,1271.43,354.3,1271.43ZM356,1380.37a.83.83,0,1,0,0-1.66A.83.83,0,0,0,356,1380.37Zm0-107.84c2.21-1.1,2.21-2.21,2.21-3.32v-.55Zm2.21-36.49c.56,0,.56-2.22,0-2.22C357.07,1233.82,357.07,1236,358.17,1236Zm1.66-11.62c1.11,0,1.11-2.21,0-2.21S358.73,1224.42,359.83,1224.42Zm.56,170.89c.55,0,.55-2.22,0-2.22C359.28,1393.09,359.28,1395.31,360.39,1395.31Zm0,20.46c.55,0,.55-1.66,0-1.66A.83.83,0,1,0,360.39,1415.77Zm1.65-45.35a.83.83,0,1,0,0-1.66A.83.83,0,0,0,362,1370.42Zm2.22,26c1.1,0,1.1-2.21,0-2.21S363.15,1396.41,364.26,1396.41Zm3.87,7.74c1.11,0,1.11-2.21,0-2.21S367,1404.15,368.13,1404.15Zm1.66,1.11c1.1,1.11,3.32-1.11,2.21-2.21S369.24,1404.15,369.79,1405.26Zm2.21-32.63c1.11,0,1.11-2.21,0-2.21S370.89,1372.63,372,1372.63Zm0,27.65c1.11,0,1.11-2.21,0-2.21S370.89,1400.28,372,1400.28Zm2.21-25.44c.56,0,.56-2.21,0-2.21C373.11,1372.63,373.11,1374.84,374.21,1374.84Zm1.66,1.66a.83.83,0,1,0,0-1.66A.83.83,0,0,0,375.87,1376.5Zm2.21-126.64c1.11,0,1.11-2.21,0-2.21S377,1249.86,378.08,1249.86Zm1.66,118.9c1.11,0,1.11-2.21,0-2.21C379.19,1366.55,379.19,1368.76,379.74,1368.76Zm2.21,2.76a.83.83,0,1,0,0-1.66A.83.83,0,0,0,382,1371.52Zm3.87-290.88a.83.83,0,1,0,0-1.66A.83.83,0,0,0,385.82,1080.64ZM388.59,1413c2.21,0,3.87-2.21,5-3.87-1.11-2.21-1.66-2.21-2.77-2.21-2.21,0-3.87,2.21-5,3.87C386.93,1413,388,1413,388.59,1413ZM388,1056.3a.83.83,0,1,0,1.66,0A.83.83,0,0,0,388,1056.3Zm3.87-10c.55,0,.55-2.21,0-2.21C390.8,1044.14,390.8,1046.35,391.91,1046.35Zm1.66,53.09V1356c0,6.64,7.74,17.7,14.93,17.7,9.95,0,18.8-11.06,18.8-19.91V1111.05c0-10.51-6.08-23.22-17.7-23.22C403.52,1087.83,393.57,1090.59,393.57,1099.44Zm7.19,315.77c2.76,0,2.76-4.42,2.76-6.08v-2.21l-7.74,3.87C396.89,1413,398.55,1415.21,400.76,1415.21Zm-3.32-350.06c1.11,0,1.11-2.21,0-2.21C396.89,1062.94,396.89,1065.15,397.44,1065.15Zm0,321.31c1.11,0,1.11-2.22,0-2.22C396.89,1384.24,396.89,1386.46,397.44,1386.46Zm0-326.29h1.11c1.1,0,2.21,0,2.76-2.21l-1.66-1.66Zm8.29,342.88c.56,1.1,2.77-1.11,1.66-1.66A1.17,1.17,0,0,0,405.73,1403.05Zm1.66-14.94a.83.83,0,1,0,0-1.65A.83.83,0,0,0,407.39,1388.11Zm7.74,22.13v-3.32H409.6C410.16,1409.13,413.48,1410.24,415.13,1410.24Zm0-338.45c1.11,1.1,3.32-.56,2.22-1.66S414.58,1071.23,415.13,1071.79Zm16,332.36c1.11,0,1.11-2.21,0-2.21S430.07,1404.15,431.17,1404.15Zm5,8.85c3.87,0,8.85-2.76,8.85-6.63v-3.32c-3.32,1.1-7.19,3.87-10,6.08-1.1-2.21-2.21-2.21-2.76-2.21h-1.11C432.28,1409.13,432.83,1413,436.15,1413Zm2.76-8.85c1.11,0,1.11-2.21,0-2.21S437.81,1404.15,438.91,1404.15Zm2.22-5,1.66-3.87h-1.66Zm1.66-266c1.1,0,1.1-2.21,0-2.21S441.68,1133.17,442.79,1133.17Zm2.21-84.06a.83.83,0,0,0,0-1.66A.83.83,0,1,0,445,1049.11Zm0,224.53c1.1,0,1.1-2.21,0-2.21S443.89,1273.64,445,1273.64Zm1.66,138.25a.83.83,0,0,0,0-1.65C446.1,1410.24,446.1,1411.89,446.66,1411.89Zm2.21-53.09a.83.83,0,1,0,0-1.65A.83.83,0,1,0,448.87,1358.8Zm1.66-303.6c1.11,0,1.11-2.22,0-2.22C450,1053,450,1055.2,450.53,1055.2Zm0,3.87a.83.83,0,1,0,0-1.66C450,1057.41,450,1059.07,450.53,1059.07Zm0,188.58a.83.83,0,1,0,0-1.66C450,1246,450,1247.65,450.53,1247.65Zm0-167,2.21-2.77C450.53,1079,450.53,1080.08,450.53,1080.64Zm0,170.33c0,.55,2.21.55,2.21,0C452.74,1249.86,450.53,1249.86,450.53,1251Zm1.11,143.23a.83.83,0,0,0,0-1.66C451.08,1392.54,451.08,1394.2,451.64,1394.2Zm0-45.35V1350l2.21-3.87C451.64,1347.19,451.64,1348.3,451.64,1348.85Zm1.1-297.53c1.11,0,1.11-2.21,0-2.21S451.64,1051.32,452.74,1051.32Zm0,316.33a.83.83,0,1,0,0-1.66A.83.83,0,0,0,452.74,1367.65Zm0,28.76c1.11,0,1.11-2.21,0-2.21S451.64,1396.41,452.74,1396.41Zm1.11-335.13c1.1,0,1.1-2.21,0-2.21S452.74,1061.28,453.85,1061.28Zm6.08,227.85c.55,0,.55-2.22,0-2.22C458.82,1286.91,458.82,1289.13,459.93,1289.13Zm.55-70.79c1.11,0,1.11-2.22,0-2.22S459.38,1218.34,460.48,1218.34Zm0,32.63c0,.55,2.21.55,2.21,0C462.69,1249.86,460.48,1249.86,460.48,1251Zm1.11,24.33a.83.83,0,0,0,0-1.66A.83.83,0,1,0,461.59,1275.3Zm2.21,89.59c1.11,0,1.11-2.21,0-2.21S462.69,1364.89,463.8,1364.89Zm.55,26.54,2.22-2.21h-2.22Zm2.22-6.08a.83.83,0,0,0,0-1.66A.83.83,0,1,0,466.57,1385.35Zm1.1-16.59c1.11,0,1.11-2.21,0-2.21S466.57,1368.76,467.67,1368.76Zm1.66,6.08c1.11,0,1.11-2.21,0-2.21C468.78,1372.63,468.78,1374.84,469.33,1374.84Zm0,4.43c2.21-.56,2.21-1.66,2.21-2.77v-1.11Zm8.3-32.08v-3.32h-6.09C472.65,1346.09,475.42,1347.19,477.63,1347.19Zm-3.87-255.49c.55,1.1,2.76,1.1,3.87,0C478.18,1090.59,472.65,1090.59,473.76,1091.7Zm3.87,146c.55,0,.55-1.65,0-1.65A.83.83,0,1,0,477.63,1237.69Zm1.66,47.56c1.1,0,1.1-2.21,0-2.21S478.18,1285.25,479.29,1285.25Zm2.21,3.88c1.1,0,1.1-2.22,0-2.22S480.39,1289.13,481.5,1289.13Zm1.66-177a.83.83,0,0,0,0-1.66C482.6,1110.5,482.6,1112.16,483.16,1112.16Zm0,122.77c1.1,1.11,3.31-1.11,2.21-1.66C484.26,1232.16,482.6,1233.82,483.16,1234.93Z"/><path class="cls-10" d="M635.68,1100.8l2.13,1.07a6,6,0,0,1,3.54-1.07c14.55.36,35.47,8.87,41.14,11.71,6.74,3.54,11,11.7,17.38,15.24,6,0,11,14.19,17.38,19.16,1.06,1.06,12.41,14.18,12.41,22.69l-1.77,2.13v2.48a10.42,10.42,0,0,1-.71,3.19l.35.36a4.45,4.45,0,0,1,2.13-.36c9.93,0,11.35,37.6,11.35,48.24v11.7c0,2.13-1.42,5-3.19,7.09,0,1.07-.36,1.78-.36,3.19.71,0,1.42,1.07,1.42,1.78a1.94,1.94,0,0,1-1.06,1.77v1.42c0,4.26-.71,7.8-5.68,24.12v-.36c-3.9,11-5,17-6.74,18.09-16.31,25.53-42.91,54.26-95.75,54.26-64.9,0-104.27-49.65-104.27-87.6l.71-1.06c-5-8.87-4.61-22.35-4.61-33.69v-27.67c8.16-56.38,54.26-97.88,102.5-97.88Zm-77,65.26v-1.78c-1.42,0-3.19,0-3.19,1.78Zm3.19,17.37V1182h-1.77Zm39.55-30c0,1-1,1.65-1.64,2.64-18.44,16.78-32.59,38.83-32.59,66.48,0,6.91,2.31,16.13,4.61,23.37h-.33c2,7.24,3.62,13.16,3.62,18.76v.33c2.3,2-1,3.62,3.62,8.22,6.58,13.83,25.67,26.66,51.34,26.66,26,0,35.55-5.26,41.8-10.53l-.66.33,9.55-12.83-.33.32,2-3c5.26-5.92,4.27-5.59,5.92-7.57l-3-1c1.31-2,1.64-3.94,3.62-5.59a14.29,14.29,0,0,0-.33-1.65s3-8.55,3-11.51c0-2.31,3.62-11.2,3.62-12.51v-9.55c0-22.71-6.25-42.12-19.42-59.24h.33l-1.32-1.64h-1.64c-3.29-2-10.53-7.9-10.53-7.9,0-.66-.33-.66-.33-1-.33.33-.66.33-1.32.33-3.62,0-3.62-2.63-7.9-3.62a3.52,3.52,0,0,1-2,.33,28.43,28.43,0,0,1-10.53-2c-3.62-.66-8.23-2-11.19-2-4.94,0-10.21,0-13.83,4a3.93,3.93,0,0,1-3.29,1.31Zm-36.71,19.71c0,1.06.36,1.77,1.42,1.77.71,0,1.06-.71,1.06-1.77,0-.71-.35-1.77-1.06-1.77C565.11,1171.38,564.75,1172.44,564.75,1173.15Zm6.38,137.6c1.78,0,2.49-2.13,5.32-2.13v-7.44C575,1304.72,571.13,1307.91,571.13,1310.75Zm3.2-172a1.06,1.06,0,1,0,2.12,0c0-1.07-.35-1.77-1.06-1.77S574.33,1137.68,574.33,1138.75Zm5.67-3.9-1.42-1.78-1.42,1.78Zm-2.13,176.61c.71,0,.71-1.42,0-1.42S577.16,1311.46,577.87,1311.46Zm0,20.57c.71,0,.71-1.42,0-1.42S577.16,1332,577.87,1332Zm.71-172.71c0,1.06.36,1.42.71,1.42.71,0,.71-.36.71-1.42,0-.71,0-1.42-.71-1.42C578.94,1157.9,578.58,1158.61,578.58,1159.32Zm0,138c2.13,0,6,0,7.45-2.83-.71-.71-3.55-1.42-4.26-1.42C579.29,1293,578.58,1295.15,578.58,1297.27Zm.71,21.64h3.19c0-1.42-2.48-3.19-3.19-3.9Zm1.42,11,1.06-1.42-2.48-1.41v.71C579.29,1328.48,579.29,1329.19,580.71,1329.9Zm0-17c.71,0,.71-1.42,0-1.42S580,1312.88,580.71,1312.88Zm-.36-169.52c0,.71.36,1.77,1.42,1.77.71,0,.71-1.06.71-1.77,0-1.06,0-1.77-.71-1.77C580.71,1141.59,580.35,1142.3,580.35,1143.36Zm.36,180.51v.71c1.06-.71,2.48-2.12,2.48-3.54v-.71A4.27,4.27,0,0,0,580.71,1323.87Zm2.84-185.12c0,.71.35,1.06,1.42,1.06.35,0,.7-.35.7-1.06,0-1.07-.35-1.77-.7-1.77C583.9,1137,583.55,1137.68,583.55,1138.75Zm3.9,188.32c.71,0,.71-1.42,0-1.42S586.74,1327.07,587.45,1327.07Zm1.42-20.22c2.48-2.13,4.61-.71,5.32-4.26h-1.42Zm1.42,6.74c2.48-.71.35-3.55.35-5,2.84,0,5,2.13,5-2.48v-.71c-.72.71-5,1.78-5.32,2.48-.72,0-1.42,1.42-1.42,1.42C588.87,1310,589.57,1312.88,590.29,1313.59ZM589.57,1126c0,1.06.36,1.77,1.07,1.77a1.62,1.62,0,0,0,1.42-1.77c0-.35-.71-1.42-1.42-1.42S589.57,1125.63,589.57,1126Zm1.78,175.91c.71,0,.71-1.42,0-1.42S590.64,1301.89,591.35,1301.89Zm0,13.83c.71,0,.71-1.42,0-1.42S590.64,1315.72,591.35,1315.72Zm2.84,9.57c.7,0,.7-1.42,0-1.42S593.48,1325.29,594.19,1325.29Zm1.06-207.82,1.77-1.77h-3.19Zm4.61,207.11v-4.25l-2.84,2.83C597.73,1324.58,598.44,1324.58,599.86,1324.58ZM597,1329.9h1.42v-1.42H597Zm3.19-13.47h.71c.71,0,3.55-2.13,4.26-2.84l-2.84-2.84-3.9,4.26C599.15,1316.43,599.86,1316.43,600.21,1316.43Zm-1.41-188.32c0,.71.35,1.77,1.06,1.77,1.06,0,1.06-1.06,1.06-1.77,0-1.07,0-2.13-1.06-2.13C599.15,1126,598.8,1127,598.8,1128.11Zm1.06,13.48c1.06,0,1.06-.36,1.06-.71,0-.71,0-1.07-1.06-1.07a.94.94,0,0,0-1.06,1.07C598.8,1141.23,599.15,1141.59,599.86,1141.59Zm0,190.44c.35,0,.35-1.42,0-1.42C599.15,1330.61,599.15,1332,599.86,1332Zm5.32-23.41c.71,0,.71-1.41,0-1.41S604.47,1308.62,605.18,1308.62Zm1.42,29.44v-1.42C605.18,1336.64,603.76,1337.35,606.6,1338.06Zm0-20.57H608l-1.42-1.06ZM635,1112.15v-1.42l-1.42,1.42Zm-1.42,6.74H635v-1.42h-1.42Zm6.39-6.74,4.6-5h-1.77c-1.42,0-2.83,1.77-4.61,3.54Zm2.83,22.7c0,1.06.36,1.77.71,1.77.71,0,1.06-.71,1.06-1.77,0-.71-.35-1.42-1.06-1.42C643.13,1133.43,642.77,1134.14,642.77,1134.85Zm19.86,6.74c1.78,0,1.78-1.78,0-2.84Zm35.11,31.56c.71,0,1.42-.35,1.42-.71,0-.71-.71-1.06-1.42-1.06a.93.93,0,0,0-1.06,1.06C696.68,1172.8,697,1173.15,697.74,1173.15Zm3.19-5.32,3.2-3.55h-1.78Zm1.07,33.34h1.77v-1.78H702Zm9.57-43.62c-1.77,0-1.77,0-1.77,1.77,0,.35,0,.71.35.71a3.2,3.2,0,0,0,2.13-2.13A1.23,1.23,0,0,0,711.57,1157.55ZM719.38,1260c.35,0,1.06-.71,1.06-1.78,0-.71-.71-1.77-1.06-1.77-.71,0-1.42,1.06-1.42,1.77A1.63,1.63,0,0,0,719.38,1260Zm7.8-60.65c1.42,1.78,2.84,5,4.25,5,0-1.42-1.41-3.19-2.83-5Z"/><path class="cls-4" d="M640.83,1106,643,1107a6,6,0,0,1,3.54-1.07c14.55.36,35.47,8.87,41.14,11.71,6.74,3.54,11,11.7,17.38,15.25,6,0,11,14.18,17.38,19.15,1.06,1.06,12.41,14.18,12.41,22.69l-1.77,2.13v2.48a10.54,10.54,0,0,1-.71,3.2l.35.35a4.56,4.56,0,0,1,2.13-.35c9.93,0,11.35,37.59,11.35,48.23v11.7c0,2.13-1.42,5-3.19,7.09,0,1.07-.36,1.78-.36,3.19.71,0,1.42,1.07,1.42,1.78a1.94,1.94,0,0,1-1.06,1.77v1.42c0,4.26-.71,7.8-5.68,24.12v-.36c-3.9,11-5,17-6.74,18.09-16.31,25.53-42.91,54.26-95.75,54.26-64.9,0-104.27-49.65-104.27-87.6l.71-1.06c-5-8.87-4.61-22.34-4.61-33.69v-27.67c8.16-56.38,54.26-97.88,102.5-97.88Zm-77,65.26v-1.78c-1.42,0-3.19,0-3.19,1.78Zm3.19,17.37v-1.41h-1.77Zm39.55-30c0,1-1,1.65-1.64,2.64-18.44,16.78-32.59,38.83-32.59,66.48,0,6.91,2.31,16.13,4.61,23.37h-.33c2,7.24,3.62,13.16,3.62,18.76v.33c2.3,2-1,3.62,3.62,8.23,6.58,13.82,25.67,26.65,51.34,26.65,26,0,35.55-5.26,41.8-10.53l-.66.33,9.55-12.83-.33.32,2-3c5.26-5.92,4.27-5.59,5.92-7.57l-3-1c1.31-2,1.64-3.94,3.62-5.59a14.29,14.29,0,0,0-.33-1.65s3-8.55,3-11.51c0-2.31,3.62-11.2,3.62-12.51V1230c0-22.71-6.25-42.12-19.42-59.24h.33l-1.31-1.64h-1.65c-3.29-2-10.53-7.9-10.53-7.9,0-.66-.33-.66-.33-1-.33.33-.66.33-1.32.33-3.62,0-3.62-2.63-7.9-3.62a3.52,3.52,0,0,1-2,.33,28.43,28.43,0,0,1-10.53-2c-3.62-.66-8.23-2-11.19-2-4.94,0-10.21,0-13.83,4a3.92,3.92,0,0,1-3.29,1.31ZM569.9,1178.3c0,1.06.36,1.77,1.42,1.77.71,0,1.06-.71,1.06-1.77,0-.71-.35-1.77-1.06-1.77C570.26,1176.53,569.9,1177.59,569.9,1178.3Zm6.39,137.6c1.77,0,2.48-2.13,5.31-2.13v-7.44C580.18,1309.87,576.29,1313.06,576.29,1315.9Zm3.19-172a1.06,1.06,0,1,0,2.12,0c0-1.06-.35-1.77-1.06-1.77S579.48,1142.84,579.48,1143.9Zm5.67-3.9-1.42-1.77-1.42,1.77ZM583,1316.61c.71,0,.71-1.42,0-1.42S582.31,1316.61,583,1316.61Zm0,20.57c.71,0,.71-1.42,0-1.42S582.31,1337.18,583,1337.18Zm.71-172.71c0,1.06.36,1.42.71,1.42.71,0,.71-.36.71-1.42,0-.71,0-1.42-.71-1.42C584.09,1163.05,583.73,1163.76,583.73,1164.47Zm0,138c2.13,0,6,0,7.45-2.83-.71-.71-3.55-1.42-4.26-1.42C584.44,1298.17,583.73,1300.3,583.73,1302.42Zm.71,21.64h3.19c0-1.42-2.48-3.19-3.19-3.9Zm1.42,11,1.06-1.42-2.48-1.41v.71C584.44,1333.63,584.44,1334.34,585.86,1335.05Zm0-17c.71,0,.71-1.42,0-1.42S585.15,1318,585.86,1318Zm-.36-169.52c0,.71.36,1.77,1.42,1.77.71,0,.71-1.06.71-1.77,0-1.06,0-1.77-.71-1.77C585.86,1146.74,585.5,1147.45,585.5,1148.51Zm.36,180.51v.71c1.06-.71,2.48-2.12,2.48-3.54v-.71A4.27,4.27,0,0,0,585.86,1329Zm2.84-185.12c0,.71.35,1.06,1.42,1.06.35,0,.7-.35.7-1.06,0-1.06-.35-1.77-.7-1.77C589.05,1142.13,588.7,1142.84,588.7,1143.9Zm3.9,188.32c.71,0,.71-1.42,0-1.42S591.89,1332.22,592.6,1332.22ZM594,1312c2.48-2.13,4.61-.71,5.32-4.26h-1.42Zm1.42,6.74c2.48-.71.35-3.55.35-5,2.84,0,5,2.13,5-2.48v-.71c-.72.71-5,1.78-5.32,2.48-.72,0-1.42,1.42-1.42,1.42C594,1315.19,594.72,1318,595.44,1318.74Zm-.72-187.61c0,1.07.36,1.78,1.07,1.78a1.63,1.63,0,0,0,1.42-1.78c0-.35-.71-1.42-1.42-1.42S594.72,1130.78,594.72,1131.13ZM596.5,1307c.71,0,.71-1.42,0-1.42S595.79,1307,596.5,1307Zm0,13.83c.71,0,.71-1.42,0-1.42S595.79,1320.87,596.5,1320.87Zm2.84,9.57c.7,0,.7-1.42,0-1.42S598.63,1330.44,599.34,1330.44Zm1.06-207.82,1.77-1.77H599ZM605,1329.73v-4.25l-2.84,2.83C602.88,1329.73,603.59,1329.73,605,1329.73Zm-2.84,5.32h1.42v-1.42h-1.42Zm3.19-13.47h.71c.71,0,3.55-2.13,4.26-2.84l-2.84-2.84-3.9,4.26C604.3,1321.58,605,1321.58,605.36,1321.58ZM604,1133.26c0,.71.35,1.77,1.06,1.77,1.06,0,1.06-1.06,1.06-1.77,0-1.06,0-2.13-1.06-2.13C604.3,1131.13,604,1132.2,604,1133.26Zm1.06,13.48c1.06,0,1.06-.36,1.06-.71,0-.71,0-1.07-1.06-1.07A.94.94,0,0,0,604,1146C604,1146.38,604.3,1146.74,605,1146.74Zm0,190.44c.35,0,.35-1.42,0-1.42C604.3,1335.76,604.3,1337.18,605,1337.18Zm5.32-23.41c.71,0,.71-1.41,0-1.41S609.62,1313.77,610.33,1313.77Zm1.42,29.44v-1.42C610.33,1341.79,608.91,1342.5,611.75,1343.21Zm0-20.57h1.42l-1.42-1.06Zm28.37-205.34v-1.42l-1.42,1.42ZM638.7,1124h1.42v-1.42H638.7Zm6.39-6.74,4.6-5h-1.77c-1.42,0-2.83,1.77-4.61,3.54Zm2.83,22.7c0,1.06.36,1.77.71,1.77.71,0,1.06-.71,1.06-1.77,0-.71-.35-1.42-1.06-1.42C648.28,1138.58,647.92,1139.29,647.92,1140Zm19.86,6.74c1.78,0,1.78-1.78,0-2.84Zm35.11,31.56c.71,0,1.42-.35,1.42-.71,0-.71-.71-1.06-1.42-1.06a.93.93,0,0,0-1.06,1.06C701.83,1178,702.18,1178.3,702.89,1178.3Zm3.19-5.32,3.2-3.55H707.5Zm1.07,33.34h1.77v-1.78h-1.77Zm9.57-43.62c-1.77,0-1.77,0-1.77,1.77,0,.35,0,.71.35.71a3.18,3.18,0,0,0,2.13-2.13A1.23,1.23,0,0,0,716.72,1162.7Zm7.81,102.49c.35,0,1.06-.71,1.06-1.78,0-.71-.71-1.77-1.06-1.77-.71,0-1.42,1.06-1.42,1.77A1.63,1.63,0,0,0,724.53,1265.19Zm7.8-60.65c1.42,1.78,2.84,5,4.25,5,0-1.42-1.41-3.19-2.83-5Z"/><path class="cls-2" d="M122.82,1313.23s36.23,40,118.3,8.86c0,0-71.81,140.87,41.66,177.31,90.2,29,219.83,21.17,246.6-50.44,14.43-38.57,7.57-40,7.57-40s32.3,15.18,94.88,11.17c7.61-.48,11.75-6.57.54-5.6-68.87,5.94-104.29-18.75-104.29-18.75s7.52,3.57.76,30.41c-7.43,29.51-33.26,81.25-129.61,83-102.13,1.8-132.29-25.64-144.17-36.92-57.92-55,3.17-157.24-1.8-161s-31.09,12.86-56.62,15c-19.66,1.63-43.23-3.22-66.27-21.59C119.3,1295.76,118.51,1310.06,122.82,1313.23Z"/></g></g></svg>