<svg xmlns="http://www.w3.org/2000/svg" viewBox="0 0 424.99 736.55"><defs><style>.cls-1{fill:#c77c94;}.cls-2{fill:#ede652;}.cls-3{fill:#ede552;}.cls-4{fill:#5ca881;}.cls-5{fill:#844e95;}.cls-6{fill:#6b8893;}.cls-7{fill:#c7dec9;}.cls-8{fill:#51297d;}.cls-9{fill:#7dbcbc;}.cls-10{fill:#a07bb1;}</style></defs><title>logo-RGB</title><g id="Laag_2" data-name="Laag 2"><g id="Laag_1-2" data-name="Laag 1"><path class="cls-1" d="M423.24,411.67a.19.19,0,0,1-.14.07c-5.49,0-3.69-11.81-6.46-18.78-7.67-19.22-31.4-19.54-30.65-20.69.56-.94,23.69.06,34.22,16.55C424.64,395.75,426.72,411.74,423.24,411.67Z"/><path class="cls-2" d="M86.1,122.72S88.69,106.3,98.86,110a41.86,41.86,0,0,0,25.81.91C131.11,109,144.3,94.62,128,84.81s-10.67-3.31-18.52,3.56S87,95.13,83.05,99.09,73.85,116.53,86.1,122.72Z"/><path class="cls-3" d="M35.25,278.23c.32-6.7,6.71-14.69,13.41-14.69,9.27,0,12.46,9.27,12.46,16.61,0,6.71-5.43,11.18-5.43,16.93,0,13.1,12.46,19.81,23.64,19.81,11.5,0,20.45-5.11,23-16.93V262.58c0-24.6.32-45-1.27-69.32.64-12.14-16.62-11.5-19.81-9.9-1.92-1.28-2.88-2.56-2.88-4.8v-31c0-2.23,1-3.19,3.2-3.19,5.75,0,46.64-1.28,55.9-1.28h8c.64,7.35,1,22.68,1,32.91v3.51l-1,1c-5.75.64-17.25,0-19.49,8V293.25c-.63,37.38-2.23,63.57-45.36,63.57-36.42,0-45.36-29.7-45.36-62Zm6.71,16a57.09,57.09,0,0,1,.95,8l2.56,1.27a75.07,75.07,0,0,0,1-9.26c-1.6,0-3.52,0-4.47-1v1Zm.95-9.58c.64,0,.64-1.28,0-1.28C42.59,283.35,42.59,284.63,42.91,284.63Zm3.52,3.83V292A13.13,13.13,0,0,0,49.94,283C46.43,284,46.43,285.26,46.43,288.46Zm2.23,18.21a.48.48,0,0,0,0-1A.48.48,0,0,0,48.66,306.67Zm0,19.48c0,.64,1.28.64,1.28,0S48.66,325.52,48.66,326.15Zm1.28-14.69,1-1.28h-1Zm1-37.06c.64,0,.64-1.28,0-1.28C50.58,273.12,50.58,274.4,50.9,274.4Zm1.28,1.28c.63,0,.63-1.28,0-1.28S51.54,275.68,52.18,275.68Zm0,2.55,1-1h-1Zm2.24,60.38c0,.64,1.27.64,1.27,0S54.42,338,54.42,338.61Zm4.47-10.86a.48.48,0,1,0,0-1C58.57,326.79,58.57,327.75,58.89,327.75ZM60.16,345c.64,0,.64-1.27,0-1.27S59.53,345,60.16,345Zm0-15.33h1v-2.55Zm3.52-4.79,1-1c-.64-1.28-1-1.28-1.6-1.28H62.4Zm-1.28,16h1.28v-1Zm0,2.24c0,.64,1.28.64,1.28,0C63.68,342.77,62.4,342.77,62.4,343.09Zm6.71-8v-1H66.87Zm-1,3.51a.48.48,0,1,0,0-.95A.48.48,0,1,0,68.15,338.61Zm2.24-13.09a.48.48,0,1,0,0-1A.48.48,0,1,0,70.39,325.52Zm0,13.73c.64,0,.64-1.28,0-1.28S69.75,339.25,70.39,339.25Zm4.47,2.88c0,.64,1.28.64,1.28,0S74.86,341.49,74.86,342.13Zm1.28-10.22c0,.31,1,.31,1,0A.48.48,0,1,0,76.14,331.91ZM110,219.13h3.52c-1-.31-1.6-.95-2.88-.95H110Zm1.28,48.56c.64,0,.64-1.28,0-1.28S110.64,267.69,111.28,267.69Zm3.51-34.82v-5.75h-3.51C111.28,229,114.15,232.23,114.79,232.87Zm-2.23,28.43c.32.64,1.59-.64,1-.95A.68.68,0,1,0,112.56,261.3Zm0,20.45c.32.64,1.59-.64,1-1A.68.68,0,1,0,112.56,281.75Zm0-3.52h3.19V276ZM117,255.55v-2.23c0-1,.64-3.84-2.24-3.52v1.28A5.1,5.1,0,0,0,117,255.55Zm0,25.24h1v-2.56C117,278.87,117,279.51,117,280.79Z"/><path class="cls-4" d="M30.26,275.74c.32-6.71,6.71-14.69,13.41-14.69,9.27,0,12.46,9.26,12.46,16.61,0,6.71-5.43,11.18-5.43,16.93,0,13.1,12.46,19.81,23.64,19.81,11.5,0,20.45-5.12,23-16.94V260.09c0-24.6.32-45-1.27-69.33.64-12.14-16.62-11.5-19.81-9.9-1.92-1.28-2.88-2.56-2.88-4.79v-31c0-2.24,1-3.2,3.2-3.2,5.75,0,46.64-1.27,55.9-1.27h8c.64,7.34,1,22.68,1,32.9V177l-1,.95c-5.75.64-17.25,0-19.49,8V290.76c-.63,37.37-2.23,63.57-45.36,63.57-36.42,0-45.36-29.71-45.36-62Zm6.71,16a57.09,57.09,0,0,1,1,8L40.48,301a75.25,75.25,0,0,0,1-9.27c-1.6,0-3.52,0-4.47-.95v.95Zm1-9.58c.64,0,.64-1.28,0-1.28C37.6,280.85,37.6,282.13,37.92,282.13ZM41.44,286v3.52a13.15,13.15,0,0,0,3.51-9C41.44,281.49,41.44,282.77,41.44,286Zm2.23,18.21a.48.48,0,1,0,0-1A.48.48,0,0,0,43.67,304.17Zm0,19.49c0,.64,1.28.64,1.28,0S43.67,323,43.67,323.66ZM45,309l1-1.28H45Zm1-37.06c.64,0,.64-1.28,0-1.28C45.59,270.63,45.59,271.91,45.91,271.91Zm1.28,1.27c.64,0,.64-1.27,0-1.27S46.55,273.18,47.19,273.18Zm0,2.56,1-1h-1Zm2.24,60.38c0,.64,1.27.64,1.27,0S49.43,335.48,49.43,336.12Zm4.47-10.86a.48.48,0,1,0,0-1C53.58,324.3,53.58,325.26,53.9,325.26Zm1.28,17.25c.63,0,.63-1.28,0-1.28S54.54,342.51,55.18,342.51Zm0-15.33h1v-2.56Zm3.51-4.8,1-1c-.64-1.27-1-1.27-1.6-1.27h-.64Zm-1.28,16h1.28v-1Zm0,2.23c0,.64,1.28.64,1.28,0C58.69,340.27,57.41,340.27,57.41,340.59Zm6.71-8v-1H61.88Zm-1,3.51a.48.48,0,0,0,0-1A.48.48,0,0,0,63.16,336.12ZM65.4,323a.48.48,0,1,0,0-1A.48.48,0,0,0,65.4,323Zm0,13.74c.64,0,.64-1.28,0-1.28S64.76,336.76,65.4,336.76Zm4.47,2.87c0,.64,1.28.64,1.28,0S69.87,339,69.87,339.63Zm1.28-10.22c0,.32,1,.32,1,0A.48.48,0,0,0,71.15,329.41ZM105,216.64h3.52c-1-.32-1.6-1-2.88-1H105Zm1.28,48.56c.64,0,.64-1.28,0-1.28S105.65,265.2,106.29,265.2Zm3.51-34.82v-5.75h-3.51C106.29,226.54,109.16,229.74,109.8,230.38Zm-2.23,28.43c.32.64,1.59-.64,1-1A.68.68,0,0,0,107.57,258.81Zm0,20.45c.32.63,1.59-.64,1-1A.68.68,0,1,0,107.57,279.26Zm0-3.52h3.19v-2.23ZM112,253.06v-2.24c0-.95.64-3.83-2.24-3.51v1.28A5.12,5.12,0,0,0,112,253.06Zm0,25.24h1v-2.56C112,276.38,112,277,112,278.3Z"/><path class="cls-5" d="M136.3,243.12c0-8.19-1.37-24.85,3.82-32.23,4.65-5.46,15,.82,20.76-3.27,5.74-3.28,12.29-32.23,15.85-41,4.64-12,38-101.61,42.6-102.16,10.66-.27,23.49-2.18,34.15-2.18,8.74,0,32.23-2.19,39.87,3.55,5.19,3.55,8.74,23.22,10.66,28.68,3.27,9.56,44,115.54,47.52,115.54H370.1c1.1,0,2.19,3,2.19,3v39.06c0,4.37-11.2,3-11.47,3h-6.56c-1.36-2.18-2.18-2.18-4.37-2.18-1.36,0-2.18,0-3.28,2.18-9,0-50.25,1.37-59.54,1.37H272.6c-9,0-29.78-1.37-29.78-1.37l-.81-.82V212.26c0-1.37,2.73-2.18,2.73-2.18a96.75,96.75,0,0,0,11.19-1.37c1.92,0,9.57-1.09,11.48-1.09V206c1.36-12.57-10.11-11.2-18.58-10.65-11.74,0-18.84,0-30.59,1.36-4.91,1.64-5.46,7.65-5.46,12.84h25.4v45.61a81.89,81.89,0,0,1-9,1.37H189.56c-7.37,0-41-1.37-48.34-1.37C136.85,253.78,136.3,248,136.3,243.12Zm39.33-3.82c.55,0,.55-1.09,0-1.09C175.36,238.21,175.36,239.3,175.63,239.3Zm1.1,1.09c.54,0,.54-1.09,0-1.09S176.18,240.39,176.73,240.39Zm4.09-60.91c.55,0,.55-1.09,0-1.09A.55.55,0,1,0,180.82,179.48Zm1.09-4.09h1.92l-1.09-.82Zm3.83,3.55h.55c.81,0,.81,0,1.36-1.37,0-.27-1.36-.82-1.91-.82a12.3,12.3,0,0,0-3,.82C183.28,177.57,185.19,178.94,185.74,178.94Zm-1.91,54.9c.54,0,.54-1.37,0-1.37S183.28,233.84,183.83,233.84Zm.81-5.74a.41.41,0,1,0,0-.82C184.37,227.28,184.37,228.1,184.64,228.1Zm1.1-62c.55,0,.55-1.37,0-1.37S185.19,166.1,185.74,166.1Zm.82,26.22h.54c1.1,0,1.92-1.37,2.46-2.46h-3l1.09,1.09Zm1.09,27c.55,0,.55-1.09,0-1.09S187.1,219.36,187.65,219.36Zm0,4.92h1.09l-1.09-1.1Zm1.09-56.82c.28,0,.28-1.36,0-1.36C188.2,166.1,188.2,167.46,188.74,167.46Zm0-8.46c.28.54,1.37-.55.82-1.37C189,157.09,188.2,158.45,188.74,159Zm.82,58.45a.55.55,0,1,0,1.09,0C190.65,217.18,189.56,217.18,189.56,217.45Zm1.09,10.65a.41.41,0,1,0,0-.82A.41.41,0,0,0,190.65,228.1Zm.83,11.2c.54,0,.54-1.09,0-1.09C191.2,238.21,191.2,239.3,191.48,239.3Zm1.09-9a.41.41,0,0,0,0-.82A.41.41,0,1,0,192.57,230.29Zm0,15.57a.41.41,0,0,0,0-.82A.41.41,0,1,0,192.57,245.86Zm.82-22.68c.54,0,.54-1.09,0-1.09C193.11,222.09,193.11,223.18,193.39,223.18Zm0,4.1v.28l1.09-2.19A1.68,1.68,0,0,0,193.39,227.28Zm1.09-15.57c.55,0,.55-1.36,0-1.36S193.93,211.71,194.48,211.71Zm0,4.92c1.91-1.37,5.74-2.73,7.1-3.55l-1.09-5.46h-.27c-1.92,0-3.83,2.73-3.83,2.73h2.73c-2.18.54-1.09,3.55-4.64,3.55Zm3.82,9.29c.82,0,.82-.82,0-.82A.41.41,0,0,0,198.3,225.92Zm0-84.68h1.37v-4.37ZM199.67,248a.41.41,0,1,0,0-.82A.41.41,0,1,0,199.67,248Zm2.73-15a.41.41,0,1,0,0-.82C202.13,232.2,202.13,233,202.4,233Zm1.09-34.14c.55,0,.55-1.37,0-1.37S203,198.88,203.49,198.88Zm0,36.05c.55,0,.55-1.09,0-1.09S203,234.93,203.49,234.93Zm1.09-17.75c.28,0,.28-1.1,0-1.1C204,216.08,204,217.18,204.58,217.18Zm0-15h.82l-.82-1.09ZM206.5,215c.27,0,.27-1.09,0-1.09C206,213.9,206,215,206.5,215Zm.82-94.51c.54,0,.54-1.09,0-1.09S206.77,120.48,207.32,120.48Zm0,5.74c.54,0,.54-1.36,0-1.36S206.77,126.22,207.32,126.22Zm1.09.82a.41.41,0,1,0,0-.82A.41.41,0,1,0,208.41,127Zm.82,100.24c.55,0,.55-1.36,0-1.36C209,225.92,209,227.28,209.23,227.28Zm4.1-111.16c0-.55,0-2.74-1.1-2.74-.54,0-1.91.55-1.91,1.1C210.87,116.12,212.78,116.12,213.33,116.12Zm-3,18.57,1.91-1.37-1.91-2.18Zm.82,8.74,1.09-1.37-1.91-.82v.55A2.13,2.13,0,0,0,211.14,143.43ZM212.23,127a.41.41,0,1,0,0-.82A.41.41,0,0,0,212.23,127Zm0,63.37a.41.41,0,1,0,0-.82A.41.41,0,0,0,212.23,190.41Zm1.91-22.13a.41.41,0,1,0,0-.82A.41.41,0,0,0,214.14,168.28Zm4.1-38.23a19.32,19.32,0,0,0,4.92-2.19h-1.91c.54-.27,1.91-1.64,1.91-2.18,0-.82-.55-2.19-.82-2.19l-7.1,3.28A17.34,17.34,0,0,0,218.24,130.05Zm-2.18,16.11c.54,0,.54-1.37,0-1.37S215.51,146.16,216.06,146.16Zm0,30.59h1.36v-2.18C216.06,174.84,216.06,175.39,216.06,176.75Zm1.36-28.4c.55,0,.55-1.37,0-1.37A.69.69,0,0,0,217.42,148.35Zm0,24.3a.41.41,0,1,0,0-.81C216.6,171.84,216.6,172.65,217.42,172.65Zm.28-48.34c1.63-1.37,3-.55,3.55-3h-1.1Zm.54,28.4a.41.41,0,1,0,0-.81C218,151.9,218,152.71,218.24,152.71Zm0,2.19a.41.41,0,1,0,0-.82C218,154.08,218,154.9,218.24,154.9Zm0-22.67c.55.55,1.64-.55,1.09-1.09S218,131.68,218.24,132.23Zm0,45.34a.55.55,0,1,0,1.09,0C219.33,177.3,218.24,177.3,218.24,177.57Zm1.09-49.71c-.54,0-.54-1.09,0-1.09S219.88,127.86,219.33,127.86Zm0,44.79a.41.41,0,1,0,0-.81A.41.41,0,1,0,219.33,172.65Zm0,66.65c.55,0,.55-1.09,0-1.09S218.79,239.3,219.33,239.3Zm0-161.42h33.33c-.55-3.55-5.47,1.36-6.83-3.55l1.09-.82c-.55-.55-4.1-1.1-4.91-1.1a4.49,4.49,0,0,0-3,1.92V73h-3v-.55c-3,0-6.56,3.28-9.84,3.28V74.33C224.8,76.24,218.24,74.05,219.33,77.88Zm0,92h6.83l.82-1.09c-1.36.82-2.73,0-3.82-1.09l1.91-2.19-.82-1.09Zm.82,52.72c.55,0,.55-1.09,0-1.09C219.88,221.55,219.88,222.64,220.15,222.64Zm0-69.93v2.74h1.92C221,155.17,220.43,154.08,220.15,152.71Zm0,26.23c0,.54,1.1.54,1.1,0S220.15,178.39,220.15,178.94Zm1.1-39.33c.54,0,.54-1.37,0-1.37S220.7,139.61,221.25,139.61Zm0,96.41c.54,0,.54-1.09,0-1.09S220.7,236,221.25,236Zm0-16.11h1.09v-1.09Zm1.09-37.7c.82-.54.82-1.09.82-2.46h-.82Zm.82-38.78h1.09v-1.37h-1.09Zm1.09-22.12h4.92l-1.1-1.37c2.46-.55,4.92-2.19,4.92-5.46v-1.1C229.17,115,227,119.12,224.25,121.31ZM225.07,73c.55,0,.55-1.36,0-1.36C224.8,71.6,224.8,73,225.07,73Zm0,64.73,1.91-.82h-.27A1.64,1.64,0,0,0,225.07,137.69Zm4.1,103.25v-3a4.05,4.05,0,0,0-3,2.19A9.75,9.75,0,0,0,229.17,240.94ZM227,87.16a.41.41,0,1,0,0-.82C226.71,86.34,226.71,87.16,227,87.16Zm4.64,74.57c7.11,0,17.76-1.09,22.13-1.37V156c0-4.09-9.56-29.5-11.47-29.5-7.65,0-15,25.13-15,31.14C227.26,160.64,229.17,161.73,231.62,161.73Zm-3.55-23.49c.55,0,.55-1.09,0-1.09S227.53,138.24,228.07,138.24Zm0-49.16H230V88Zm1.1,137.38H230v-1.09h-.82Zm.82-93.14h1.91L230,132.23Zm1.91,47.8a1.24,1.24,0,0,0,1.09-1.37,3,3,0,0,1-1.91-4.36,4.58,4.58,0,0,0-1.09,3.55C230,180.58,230,181.12,231.9,181.12ZM230,246.4a1.17,1.17,0,0,0,1.09-1.09c0-.27-.55-2.19-1.09-2.19Zm1.09-73.2H233c1.37,0,6-4.37,6-6.55a1.23,1.23,0,0,0-.82-1.1ZM231.9,129a2.14,2.14,0,0,0,3,0C235.72,128.41,231.35,128.41,231.9,129Zm1.91-10.65c.55,0,.55-1.09,0-1.09C233.54,117.21,233.54,118.3,233.81,118.3ZM236,174.57c.54.27,1.63-.55,1.09-1.37C236.54,172.65,235.72,174,236,174.57Zm1.09-63.92c.54,0,.54-1.36,0-1.36S236.54,110.65,237.09,110.65Zm1.09,74.84h1.91V184.4C239,184.4,238.45,184.4,238.18,185.49ZM239,96.18c.55,0,.55-1.09,0-1.09S238.45,96.18,239,96.18Zm1.91,71.28c.55,0,.55-1.36,0-1.36S240.36,167.46,240.91,167.46Zm0,14.75c.55.55,1.64-.54,1.1-1.09S240.36,181.67,240.91,182.21Zm1.1-9v-.82h-1.1Zm0-98c-.55,0-.55-1.1,0-1.1S242.55,75.15,242,75.15Zm1.91,1.36c-.55.82-.55-2.46,0-2.18C244.46,75.15,244.46,76.24,243.92,76.51Zm0,93.41c.54.55,1.36-.27.82-1.09C244.46,168.28,243.37,169.65,243.92,169.92Zm3.82-6c.55,0,.55-1.36,0-1.36S247.19,163.91,247.74,163.91Zm1.91,13.66c.55-.27.55-1.37,0-2.18C249.11,174.84,249.11,178.39,249.65,177.57Zm1.91,42.34v-2.46h-1.91A2.43,2.43,0,0,0,251.56,219.91Zm-1.91,18h.55c1.91,0,4.64-1.36,4.64-3.55V233Zm3-111.16c0,.27.82.27.82,0A.41.41,0,1,0,252.66,126.77Zm.82-37.42c.82,0,.82-.82,0-.82C253.2,88.53,253.2,89.35,253.48,89.35Zm1.36-13.11c.55,0,.55-1.09,0-1.09S254.3,76.24,254.84,76.24Zm1.09,149.13v-1.09h-1.09Zm0-148.86h1.92v-.82Zm.82,15.3c.55,0,.55-1.1,0-1.1S256.21,91.81,256.75,91.81Zm0,25.4c.55,0,.55-1.09,0-1.09S256.21,117.21,256.75,117.21Zm0,9.56c.55.54,1.92,3,3,3v-3Zm1.92,96.41c.54.55,1.63-.54,1.09-1.09S258.39,222.64,258.67,223.18Zm1.09-136a.41.41,0,0,0,0-.82A.41.41,0,1,0,259.76,87.16Zm0,3.55c.54,0,.54-1.36,0-1.36S259.21,90.71,259.76,90.71Zm0-12.83a.41.41,0,0,0,.82,0A.41.41,0,1,0,259.76,77.88Zm1.91,9.28a.41.41,0,1,0,0-.82A.41.41,0,1,0,261.67,87.16Zm0,38.52h1.91v-1.1Zm0,3.27a6.65,6.65,0,0,0,3-1.09h-3Zm1.09-50.53c.82,0,4.37-.54,4.65-.54a1.26,1.26,0,0,0,1.09-1.37h-5.74Zm.82,155.42c.55,0,.55-1.37,0-1.37S263,233.84,263.58,233.84Zm1.09,1.09c.28,0,.28-1.09,0-1.09C264.13,233.84,264.13,234.93,264.67,234.93Zm0,2.19c.28,0,.28-1.1,0-1.1C264.13,236,264.13,237.12,264.67,237.12Zm.83-138.76c.54,0,.54-1.09,0-1.09S265,98.36,265.5,98.36Zm0,23h1.09c2.73,0,7.92-2.19,7.92-6.29v-1.64C270.41,115,268.5,119.12,265.5,121.31Zm1.91,103.79c.54,0,.54-1.37,0-1.37C267.13,223.73,267.13,225.1,267.41,225.1Zm0,15.29c.54,0,.54-1.09,0-1.09C267.13,239.3,267.13,240.39,267.41,240.39Zm0-144.76a6,6,0,0,0,4.09-4.37Zm3,130.83v-3.28l-1.91,2.19C269.05,226.46,269.32,226.46,270.41,226.46ZM269.32,97.27c.54,0,.54-1.09,0-1.09C269.05,96.18,269.05,97.27,269.32,97.27Zm0,135.2a.41.41,0,0,0,0-.82C269.05,231.65,269.05,232.47,269.32,232.47Zm0,14.75c.54,0,.54-1.36,0-1.36C269.05,245.86,269.05,247.22,269.32,247.22Zm0-125.91c0,.54,1.09.54,1.09,0A.55.55,0,1,0,269.32,121.31Zm1.09-10.66c.55,0,.55-1.36,0-1.36S269.86,110.65,270.41,110.65Zm1.09-3.82c.55-.55,2.19-2.73,2.19-3.28v-1.36l-3.28,3.55Zm-1.09,113.08h1.09v-2.46A2.38,2.38,0,0,0,270.41,219.91ZM271.5,82.79a.41.41,0,1,0,0-.82A.41.41,0,0,0,271.5,82.79Zm0-6.28h.55a1.64,1.64,0,0,0,1.64-.82Zm1.1,9.83c.54,0,.54-1.36,0-1.36S272.05,86.34,272.6,86.34Zm0,7.65c.54,0,.54-1.09,0-1.09S272.05,94,272.6,94Zm0,127.56c.54,0,.54-1.1,0-1.1S272.05,221.55,272.6,221.55Zm0-24h3c-1.09-.27-1.64-.82-2.46-.82h-.54Zm1.09-110.35c.27,0,.27-.82,0-.82A.41.41,0,1,0,273.69,87.16Zm0,12c.27,0,.27-1.36,0-1.36C273.14,97.82,273.14,99.18,273.69,99.18Zm0,7.92c.27,0,.27-.82,0-.82A.41.41,0,1,0,273.69,107.1Zm0,2.19c.27,0,.27-.82,0-.82A.41.41,0,1,0,273.69,109.29Zm0,19.66c.27.82,2.46.82,2.73,0C277,128.41,273.14,128.41,273.69,129Zm1.36-37.69h.55c-.55-1.09-1.09-1.09-1.64-1.09h-.27C274,91.26,274.51,91.26,275.05,91.26Zm-.54,19.39c.54,0,.54-1.36,0-1.36S274,110.65,274.51,110.65Zm0,119.64a.41.41,0,0,0,0-.82A.41.41,0,1,0,274.51,230.29Zm0,17.75a.41.41,0,0,0,0-.82A.41.41,0,1,0,274.51,248Zm0-170.16h10.65c-.27-2.19-4.64-.55-4.64-.55V75.69C278.33,77.33,276.42,76.24,274.51,77.88Zm0,132.47v.54a12.33,12.33,0,0,1,4.91-1.36,11.89,11.89,0,0,0-1.09-3C278.06,206.52,274.51,208.71,274.51,210.35ZM275.6,94c.55,0,.55-1.09,0-1.09S275.05,94,275.6,94Zm0,24.31c.55,0,.55-1.09,0-1.09S275.05,118.3,275.6,118.3Zm0,127.56a.41.41,0,1,0,0-.82A.41.41,0,1,0,275.6,245.86Zm.55-14.21c2.18,0,3.82-4.09,4.37-6.28H280C278.88,225.37,276.15,230.29,276.15,231.65Zm.27,7.65a5.36,5.36,0,0,1,3-.55v-7.37a3.2,3.2,0,0,1-3,2.46Zm0,3.82c1.09,0,1.91-.27,1.91-1.64v-.54Zm1.09,5.47,1.91-2.19-3,1.37Zm0-155.69c.55,0,.55-1.09,0-1.09S277,92.9,277.51,92.9Zm.82,129.19V221h-.82Zm0-111.44c.55,0,.55-1.36,0-1.36C278.06,109.29,278.06,110.65,278.33,110.65Zm0,125.92c-.27,0-.27-1.37,0-1.37C278.88,235.2,278.88,236.57,278.33,236.57Zm1.09-114.72c.55,0,.55-1.37,0-1.37S278.88,121.85,279.42,121.85Zm0,101.88c.55,0,.55-1.09,0-1.09S278.88,223.73,279.42,223.73Zm0-130.29h1.1a15.77,15.77,0,0,0,2.73-2.18h-.82C281.88,91.26,280,92.9,279.42,93.44Zm1.1,2.74c.27,0,.27-1.09,0-1.09C280,95.09,280,96.18,280.52,96.18Zm0,146.67c.27,0,.27-1.37,0-1.37C280,241.48,280,242.85,280.52,242.85Zm0-14.2c.27.82,1.36-.55.82-1.09C280.79,227.28,280,228.1,280.52,228.65Zm.82-24.31h1.09c1.36-1.1,2.73-6.83,2.73-6.83h-.27c-.55,0-1.1,0-1.64,1.37a2.44,2.44,0,0,0-2.73-1.64A28,28,0,0,0,281.34,204.34Zm-.82,43.43h.27a4.38,4.38,0,0,0,3.55-2.46h-1.91v-2.19Zm.82-33.33c.54,0,.54-1.36,0-1.36S280.79,214.44,281.34,214.44Zm0,22.68c.54,0,.54-1.1,0-1.1S280.79,237.12,281.34,237.12Zm1.09-34.42c-.55,0-.55-1.09,0-1.09C282.7,201.61,282.7,202.7,282.43,202.7Zm0,36.6c.27,0,.27-1.09,0-1.09C281.88,238.21,281.88,239.3,282.43,239.3Zm.82-11.2a.41.41,0,0,0,0-.82A.41.41,0,1,0,283.25,228.1ZM285.16,97v-.81a1.64,1.64,0,0,0-.82-1.64S289,87.71,292,86.89c-.82-.27-2.46-1.09-2.73-1.09h-.55c-1.64,0-3.55,2.18-4.37,3.28.55.27.82,1.63,1.91,1.09-.54.54-2.46,3.82-3,4.37v.55A2,2,0,0,0,285.16,97Zm-.82,132.48c.55,0,.55-1.37,0-1.37S283.79,229.47,284.34,229.47Zm0,18.57a.41.41,0,1,0,0-.82A.41.41,0,1,0,284.34,248Zm5.74-133.56c-1.37,3-3.28,5.73-5.74,6.83h.82c2.46,0,4.37-2.19,6.28-4.38A3.22,3.22,0,0,1,290.08,114.48Zm-5.74,125.64h.82v-1.37Zm.82-22.94c.55,0,.55-1.1,0-1.1C284.89,216.08,284.89,217.18,285.16,217.18Zm0,19.94c.55,0,.55-1.1,0-1.1C284.89,236,284.89,237.12,285.16,237.12Zm1.09-18.3c.55,0,.55-1.37,0-1.37S285.71,218.82,286.25,218.82Zm0,16.11c.55,0,.55-1.09,0-1.09S285.71,234.93,286.25,234.93Zm.82-152.14a.41.41,0,1,0,0-.82C286.8,82,286.8,82.79,287.07,82.79Zm0,11.2c.55,0,.55-1.09,0-1.09C286.8,92.9,286.8,94,287.07,94Zm0,24.31c.55,0,.55-1.09,0-1.09C286.8,117.21,286.8,118.3,287.07,118.3Zm0,119.91c.55,0,.55-1.09,0-1.09C286.8,237.12,286.8,238.21,287.07,238.21Zm0-161.7v2.73c1.64-.82,1.09-2.73,1.09-3.55V73.51C286.8,74.05,287.07,75.69,287.07,76.51Zm1.09,142.85c.55,0,.55-1.09,0-1.09S287.62,219.36,288.16,219.36Zm1.1-128.65c.27,0,.27-1.36,0-1.36C288.71,89.35,288.71,90.71,289.26,90.71Zm0,3.28c.27,0,.27-1.09,0-1.09C288.71,92.9,288.71,94,289.26,94Zm1.09.55c0,.55,1.09.55,1.09,0S290.35,94,290.35,94.54Zm1.09,24.58h.28c.54,0,1.09,0,1.63-1.37Zm.82-16.39a.41.41,0,1,0,0-.82A.41.41,0,0,0,292.26,102.73ZM293.35,85a.41.41,0,1,0,0-.82A.41.41,0,0,0,293.35,85Zm0,6.28c.55-.55.55-1.91,0-2.18C292.81,88.53,292.81,91.81,293.35,91.26Zm0,2.73c.55,0,.55-1.09,0-1.09S292.81,94,293.35,94Zm0,148.86c.55,0,.55-1.37,0-1.37S292.81,242.85,293.35,242.85Zm.82-41.24c.55,0,.55-1.1,0-1.1C293.9,200.51,293.9,201.61,294.17,201.61Zm1.1,33.32c.54,0,.54-1.09,0-1.09S294.72,234.93,295.27,234.93Zm0-131.38c0,.55,1.09.55,1.09,0A.55.55,0,1,0,295.27,103.55Zm3,13.66c.27,0,.27-1.09,0-1.09C297.73,116.12,297.73,117.21,298.27,117.21Zm3.82,5.46a.41.41,0,1,0,0-.82A.41.41,0,0,0,302.09,122.67Zm0,109c.55,0,.55-1.36,0-1.36S301.55,231.65,302.09,231.65ZM302.91,124c.55,0,.55-1.37,0-1.37C302.64,122.67,302.64,124,302.91,124Zm0,2.18c.55,0,.55-1.36,0-1.36C302.64,124.86,302.64,126.22,302.91,126.22Zm0,27.86c.55,0,.55-1.37,0-1.37C302.64,152.71,302.64,154.08,302.91,154.08Zm0,24.31c.55,0,.55-1.09,0-1.09C302.64,177.3,302.64,178.39,302.91,178.39Zm0,63.09c.55,0,.55-1.09,0-1.09C302.64,240.39,302.64,241.48,302.91,241.48Zm1.1-9.83c.54,0,.54-1.36,0-1.36S303.46,231.65,304,231.65Zm1.09-54.35c.27,0,.27-1.1,0-1.1C304.55,176.2,304.55,177.3,305.1,177.3ZM309.2,129c.54,0,.54-1.09,0-1.09S308.65,129,309.2,129Zm0,54.9c.54,0,.54-1.09,0-1.09S308.65,183.85,309.2,183.85ZM310,147a.41.41,0,0,0,0-.82C309.74,146.16,309.74,147,310,147Zm0,24.86c.54,0,.54-1.37,0-1.37C309.74,170.47,309.74,171.84,310,171.84Zm0,14.2c.54,0,.54-1.09,0-1.09C309.74,185,309.74,186,310,186Zm0-29.23h1.09c.82,0,1.36,0,1.91-1.36Zm1.09-12a.41.41,0,0,0,0-.82A.41.41,0,1,0,311.11,144.79Zm0,9.84h.82v-1.37Zm3.82,12c-.55.81-2.18,3-3,3.27h.54c2.46,0,5.47-2.46,6.29-4.37l-.82-1.09A22.16,22.16,0,0,1,314.93,166.65ZM313,248a.41.41,0,1,0,0-.82A.41.41,0,1,0,313,248Zm0-49.16,3-1.37h-1.09C314.11,197.51,313.57,197.51,313,198.88Zm1.09-47c.27,0,.27-1.37,0-1.37C313.57,150.53,313.57,151.9,314.11,151.9Zm0,6.55c.27,0,.27-1.36,0-1.36C313.57,157.09,313.57,158.45,314.11,158.45Zm0-13.93,1.91-1.09a2.19,2.19,0,0,1-1.09-2.19h-.82Zm.82,11.75c.55,0,.55-1.37,0-1.37S314.38,156.27,314.93,156.27Zm0,15.57c.55,0,.55-1.37,0-1.37S314.38,171.84,314.93,171.84ZM316,144.79c.28,0,.28-.82,0-.82A.41.41,0,0,0,316,144.79Zm.82,25.68a.41.41,0,1,0,0-.82A.41.41,0,0,0,316.84,170.47Zm0,4.37a.41.41,0,1,0,0-.82A.41.41,0,0,0,316.84,174.84Zm0-17.75v.54l1.92-2.18h-.28A1.58,1.58,0,0,0,316.84,157.09Zm1.1-3c.54,0,.54-1.37,0-1.37S317.39,154.08,317.94,154.08Zm0,27a.41.41,0,1,0,.82,0A.41.41,0,0,0,317.94,181.12Zm.82-18.85c.54,0,.54-1.09,0-1.09C318.48,161.18,318.48,162.27,318.76,162.27Zm1.09,80.85a.41.41,0,0,0,0-.82A.41.41,0,1,0,319.85,243.12Zm0-79.75h.54c.28,0,.83,0,1.37-1.1Zm.82,22.67c.55,0,.55-1.09,0-1.09C320.39,185,320.39,186,320.67,186Zm1.09-21.58c0,.27,1.09.27,1.09,0C322.85,163.91,321.76,163.91,321.76,164.46Zm0,22.13h1.09v-1.1ZM322.85,248c.27,0,.27-.82,0-.82A.41.41,0,0,0,322.85,248Zm1.92-76.2c.27,0,.27-1.37,0-1.37C324.22,170.47,324.22,171.84,324.77,171.84Zm3,75.93a3.06,3.06,0,0,0,2.19,0C330.23,247.22,327.5,247.22,327.77,247.77Zm4.92-3.55h.54c.55,0,1.09,0,1.37-1.1ZM337.6,200h-1.09C331.05,202.43,333.78,203.79,337.6,200Zm-3,7.65c0,.54,1.09.54,1.09,0C335.69,207.34,334.6,207.34,334.6,207.62Zm1.09-9.29c.55,0,.55-1.09,0-1.09S335.14,198.33,335.69,198.33Zm.82,7.65a.41.41,0,1,0,0-.82C336.24,205.16,336.24,206,336.51,206Zm0,42.06a.41.41,0,1,0,0-.82C336.24,247.22,336.24,248,336.51,248Zm1.09-45.34c.55,0,.55-1.09,0-1.09S337.06,202.7,337.6,202.7Zm0,39.6c.55,0,.55-1.36,0-1.36S337.06,242.3,337.6,242.3Zm1.91.55c.55,0,.55-1.37,0-1.37S339,242.85,339.51,242.85Zm0,2.19c.55,0,.55-1.37,0-1.37S339,245,339.51,245Zm1.92,3a.41.41,0,0,0,0-.82A.41.41,0,1,0,341.43,248Zm3-32a.55.55,0,1,0,0-1.09C343.88,215,343.88,216.08,344.43,216.08Zm0,27.59c.82,0,.82-.82,0-.82A.41.41,0,1,0,344.43,243.67Zm0,2.19c.82,0,.82-.82,0-.82A.41.41,0,1,0,344.43,245.86Zm1.09-23.77v-2.18L344.43,221Zm2.19,9.56c.27,0,.27-1.36,0-1.36C347.16,230.29,347.16,231.65,347.71,231.65Zm1.91-9c.27,0,.27-1.09,0-1.09C349.07,221.55,349.07,222.64,349.62,222.64Zm0-5.19c0,.82.82.82.82,0C350.44,217.18,349.62,217.18,349.62,217.45Zm1.91,4.1c.55,0,.55-1.1,0-1.1S351,221.55,351.53,221.55Zm1.92-.55v-3.55l-1.92,1.37Zm0,13.38a.41.41,0,1,0,.81,0A.41.41,0,0,0,353.45,234.38Zm.81-9.28c.55,0,.55-1.37,0-1.37C354,223.73,354,225.1,354.26,225.1Zm0,20.76a.41.41,0,1,0,0-.82C354,245,354,245.86,354.26,245.86Zm0-5.74h.55c1.64,0,2.46-2.19,3.82-2.19h.55l-.82.82c.27,0,2.46,1.37,2.73,1.37h1.09c.55,0,2.19-1.91,2.19-2.19l-2.19.82v-.82c0-2.73,2.74-3,2.74-5.73-1.1,0-2.19,0-2.74-1.37-1.09.82-1.36,2.19-1.91,3.55L359.18,233C357.27,234.93,356.45,238.21,354.26,240.12Zm2.19,7.1c.27,0,.27-1.36,0-1.36C355.9,245.86,355.9,247.22,356.45,247.22Zm0-14.2c.27.82,1.36-.55.82-.82A.58.58,0,1,0,356.45,233Zm1.91,12.29h.27c.55,0,1.64,0,1.64-1.09,0-.55-.54-1.92-1.09-1.92Zm.82-15a.41.41,0,1,0,0-.82A.41.41,0,1,0,359.18,230.29Zm0-3.83h1.09a1.93,1.93,0,0,0,1.91-2.18Zm1.09-4.91c.55,0,.55-1.1,0-1.1S359.73,221.55,360.27,221.55Zm1.91,6.55a.41.41,0,1,0,0-.82A.41.41,0,0,0,362.18,228.1Zm0,6.83c-.54,0-.54-1.09,0-1.09S362.73,234.93,362.18,234.93Zm0,7.92c.55,0,.55-1.37,0-1.37S361.64,242.85,362.18,242.85Zm2.19-13.38c.55,0,.55-1.37,0-1.37S363.82,229.47,364.37,229.47Zm0,16.39a.41.41,0,1,0,0-.82A.41.41,0,1,0,364.37,245.86Z"/><path class="cls-1" d="M55.87,533.1c0-3.82,1.48-5.46,4.92-5.46h.49c3.2,0,4.68-1.37,4.92-4.92,0-1.64,1-41,1-58.72V420l-1-1.64H60.79c-3.44,0-5.17-1.64-4.92-5.47l.74-27.58c0-3.82,1.72-5.19,5.16-5.46l27.06-.82c3.45,0,4.92,1.37,4.92,5.19v28.67c0,3.83-1.47,5.47-4.92,5.47H85.14v46.7c3.94-5.19,19.93-41.51,19.93-45.06.24-1.1-2.95-1.92-4.19-1.64-2.21-.82-3.19-2.73-3.19-6v-32.5l.73-1.09h3.94c18.7,0,29.27-1.37,29.27,6.55v32.5c-1.47.27-6.39,2.19-10.33,2.19-5.65,12-12.3,25.67-17,38.78v1.09l18.94,62a16,16,0,0,0,1,3c0,.54,2.46,2.73,7.38,2.73,3.45,0,4.92,1.64,4.92,5.46v28.68c0,3.82-1.47,5.46-4.92,5.46h-29c-3.45,0-4.92-1.64-4.92-34.14,0-2.73,1.12-4.8,3-5.46s3.44-1.37,3.44-3.83c0-4.64-3.44-14.47-9.34-37.68h-.5c-2.95,0-6.39,15.29-9.1,19.11v17.48c0,3.55,1.23,5.19,3.94,5.47h.49c3,.27,4.18,2.18,4.18,5.46v27c0,1.1,3.2,6.28-13.77,6.28-15.75,0-24.11,1.37-24.11-6.28ZM63,388.36a.56.56,0,0,0,.5.54c.24,0,.24-.27.24-.54s0-.55-.24-.55A.56.56,0,0,0,63,388.36Zm1,2.18a.56.56,0,0,0,.49.55c.25,0,.25-.28.25-.55s0-.55-.25-.55A.56.56,0,0,0,64,390.54Zm5.66,13.66h1.47v-4.37C69.65,400.37,69.65,403.65,69.65,404.2Zm3.68,53.52a.56.56,0,0,0,.5.55c.24,0,.24-.27.24-.55s0-.54-.24-.54A.56.56,0,0,0,73.33,457.72Zm0,32.77a.56.56,0,0,0,.5.55c.24,0,.24-.27.24-.55s0-.54-.24-.54A.56.56,0,0,0,73.33,490.49Zm.5-51.61h.49c1.47,0,3.44-3.82,3.44-4.37Zm.49,42.06a.55.55,0,0,0,.49.54c.25,0,.25-.27.25-.54s0-.55-.25-.55A.55.55,0,0,0,74.32,480.94Zm0,11.47a.55.55,0,0,0,.49.54c.25,0,.25-.27.25-.54s0-.55-.25-.55A.55.55,0,0,0,74.32,492.41Zm.49-81.66v1.91h6.64c-1.23-.82-1.47-1.09-2-1.09H77.76v-.82c-.24.55-1.47.82-2,.82A.88.88,0,0,1,74.81,410.75Zm.49,78.65a.56.56,0,0,0,.49.55c.25,0,.25-.27.25-.55s0-.54-.25-.54A.56.56,0,0,0,75.3,489.4Zm2.46-26.49v-.27a1.76,1.76,0,0,0-2-1.64v.55C75.79,462.64,76.78,462.91,77.76,462.91Zm-1.47-74.55a.55.55,0,0,0,.49.54c.24,0,.24-.27.24-.54s0-.55-.24-.55A.55.55,0,0,0,76.29,388.36Zm0,84.11a.56.56,0,0,0,.49.55c.24,0,.24-.28.24-.55s0-.54-.24-.54A.55.55,0,0,0,76.29,472.47Zm1.47,41v-4.1h-1Zm-.49-76.2a.57.57,0,0,0,.49.55c.25,0,.25-.28.25-.55s0-.55-.25-.55A.57.57,0,0,0,77.27,437.24Zm0,30a.57.57,0,0,0,.49.55c.25,0,.25-.28.25-.55s0-.54-.25-.54A.56.56,0,0,0,77.27,467.28Zm4.18-62h2c-.49-1.09-1-1.09-5.66-1.09h3.69Zm-3.2-15.84c0,.27,0,.54.25.54s.25-.27.25-.54,0-.55-.25-.55S78.25,389.18,78.25,389.45Zm.74,2.18a.85.85,0,0,0,.49.28c.25,0,.25-.28.25-.28,0-.27,0-.54-.25-.54A.56.56,0,0,0,79,391.63Zm1,1.91a.55.55,0,0,0,.49.55c.24,0,.24-.27.24-.55s0-.54-.24-.54A.55.55,0,0,0,80,393.54Zm0,9.56a.55.55,0,0,0,.49.55c.24,0,.24-.27.24-.55s0-.54-.24-.54A.55.55,0,0,0,80,403.1Zm0,6.28a.55.55,0,0,0,.49.55c.24,0,.24-.27.24-.55s0-.54-.24-.54A.55.55,0,0,0,80,409.38Zm.49-12.56h2v-1.09C81.45,395.73,81,395.73,80.47,396.82Zm3.44,78.93a.56.56,0,0,0,.49.54c.25,0,.25-.27.25-.54s0-.55-.25-.55A.56.56,0,0,0,83.91,475.75Zm1.72-68.55a.56.56,0,0,0,.5.54c.24,0,.24-.27.24-.54s0-.55-.24-.55A.57.57,0,0,0,85.63,407.2Zm1,1.09a.55.55,0,0,0,.49.55c.25,0,.25-.27.25-.55s0-.55-.25-.55A.56.56,0,0,0,86.62,408.29Zm4.92,69.64s0,.28.24.28.25-.28.25-.28c0-.27,0-.54-.25-.54S91.54,477.66,91.54,477.93Zm4.18-15h1l-1-3Zm2.21-9.28a.56.56,0,0,0,.49.54c.25,0,.25-.27.25-.54s0-.55-.25-.55A.56.56,0,0,0,97.93,453.63Zm1.48,22.12h1v-4.37h-1Zm1.47-57.35a.85.85,0,0,1,.74.27C101.38,418.67,101.13,418.4,100.88,418.4Zm0,65.81a.85.85,0,0,0,.5.28c.24,0,.24-.28.24-.28,0-.27,0-.54-.24-.54A.56.56,0,0,0,100.88,484.21Zm.74-65.54h0Zm4.92,15a.57.57,0,0,0,.5.55c.24,0,.24-.28.24-.55s0-.55-.24-.55A.57.57,0,0,0,106.54,433.69Zm.5-23.21h2a35.25,35.25,0,0,0,1-5.19V404.2S107,409.38,107,410.48Zm2.46,1.09a.56.56,0,0,0,.49.55c.24,0,.24-.28.24-.55s0-.55-.24-.55A.56.56,0,0,0,109.5,411.57Zm1-9.56a.57.57,0,0,0,.49.55.73.73,0,0,0,0-1.1A.57.57,0,0,0,110.48,402Zm0,10.65a.85.85,0,0,0,.49.27l.25-.27a1,1,0,0,0-.25-.54A.56.56,0,0,0,110.48,412.66Zm2.21-11.74v-2.19l-1,1.1Zm-.49,19.66a.85.85,0,0,0,.49.27c.25,0,.25-.27.25-.27,0-.27,0-.54-.25-.54A.56.56,0,0,0,112.2,420.58Zm1-2.73a.56.56,0,0,0,.49.55c.24,0,.24-.28.24-.55s0-.54-.24-.54A.55.55,0,0,0,113.19,417.85Zm4.67-7.37a.56.56,0,0,0,.49.54c.25,0,.25-.27.25-.54s0-.55-.25-.55A.56.56,0,0,0,117.86,410.48Zm3.93-21a.56.56,0,0,0,.5.54c.24,0,.24-.27.24-.54s0-.55-.24-.55A.57.57,0,0,0,121.79,389.45Zm1,13.65a.55.55,0,0,0,.49.55c.25,0,.25-.27.25-.55s0-.54-.25-.54A.55.55,0,0,0,122.78,403.1Zm.49-7.37,1.72-1.09h-.49C124,394.64,123.76,394.64,123.27,395.73Z"/><path class="cls-6" d="M144.41,424.29c4.94-.56,13.93-1.12,14.24-8.37,0-6.1,1.26-36,1.27-42.37l.09-33.94c-2-7.84-7.81-10.47-15.35-10.49l.12-46.72c0-2,.88-2.89,2.91-2.89l64.13.17-.13,48.75c0,2.61-11.32,1.42-11.33,7.22L200.28,365c2.61,0,25.9-28.37,25.9-31,0-3.48-9-4.67-10.43-4.67l.13-47.3,1.16-2.32,47.3.13c4.35,0,14.5,1.2,14.5,1.2l1.16,1.16s.5,30.47.76,43.24V328c0,2-16,5.47-20.63,9.81-3.49,2.89-17.45,15.33-17.47,22,0,9.87,21.9,59,28.56,63.63,2.61,1.45,13.06,2.06,13.63,4.1.25,15.95.81,24.37.77,37.72l0,6.67a3.22,3.22,0,0,1-3.2,3.19l-65-.18c-2,0-2.9-.87-2.9-2.91l.12-45.55c0-3.19,10.16-.56,10.18-7.81,0-4.06-10.08-27.3-12.4-28.47C206.29,394.86,199,404.12,199,412c0,9.87,10.41,14,10.41,14.54l-.12,45.55c0,2-.88,2.9-2.91,2.89l-59.19-.15c-2,0-2.9-.88-2.89-2.91Zm6.91,19.46h1.16v-4.06h-1.16Zm0,9.29,2.32-.87H151.3Zm4.34,5.81c.28,0,.29-1.16,0-1.16C155.06,457.69,155.06,458.85,155.64,458.85Zm4.08-7.82c.58,0,.88-2.61.88-3.19a4.66,4.66,0,0,0-4.07,2.31A13.11,13.11,0,0,0,159.72,451Zm2.07-15.09a4.42,4.42,0,0,1,2-3.47h-2Zm1.09,26.12c.29,0,.29-1.16,0-1.16C162.3,460.9,162.3,462.06,162.88,462.06Zm0-16.25c.29.58,1.46-.28.88-.86S162.35,445.52,162.92,445.81Zm.92-18a.44.44,0,0,0,0-.88A.44.44,0,0,0,163.84,427.83Zm1.07,36.27c.58,0,.58-1.16,0-1.16S164.33,464.1,164.91,464.1Zm.36-136.38v.58l2-1.15-1.16-2C165.85,326.27,165.27,326.56,165.27,327.72ZM167,460.33h2l-1.16-.88Zm1.15-107.94a.44.44,0,0,0,0-.87C167.81,351.52,167.81,352.39,168.1,352.39Zm0-4.64h3.19a4.11,4.11,0,0,0-2.61-.88h-.58Zm0,8.42h1.16v-2H168.1ZM170.25,420v-2h-1.16Zm2.26-88.21c.29,0,.29-.87,0-.87A.44.44,0,0,0,172.51,331.8Zm.08,81h1.74c2-.87,6.1-2.89,6.1-2.89v-2C177.81,410.45,172.6,407.25,172.59,412.76Zm.78-78.34c.58,0,.59-1.16,0-1.16S172.79,334.42,173.37,334.42Zm-.33,128h1.16c1.45,0,2.9-.28,2.9-2v-.87Zm1.31-59.77a1.39,1.39,0,0,0,0-2C173.78,400,173.77,403.19,174.35,402.61Zm.84,11.9c.58,0,.59-1.16,0-1.16C174.91,413.35,174.9,414.51,175.19,414.51Zm0,1.45,2-.87h-.29A1.74,1.74,0,0,0,175.19,416Zm1.39-89.37a.44.44,0,1,0,0-.87A.44.44,0,0,0,176.58,326.59Zm2.56,20.32h1.45l0-4.35C179.15,343.14,179.14,346.33,179.14,346.91Zm1.51-21.76a3.08,3.08,0,0,0,2-2.61V322Zm1.24,79.22c.59-.87,2.33-2.32,2.62-2.89v-.87Zm.58,1.74a.44.44,0,0,0,0-.87A.44.44,0,0,0,182.47,406.11Zm1.13,11.32a.43.43,0,1,0,0-.87A.43.43,0,0,0,183.6,417.43Zm.86,2.33c.58,0,.59-1.16,0-1.17C184.18,418.59,184.18,419.75,184.46,419.76Zm0-7,2-.86-.87-1.17Zm.6-6.67c5.22,0,4.66-4.63,8.72-5.49-1.74-1.46-1.73-2.62-1.44-3.2l-1.46,3.19c-1.75,3.48-1.75,1.45-4.36,1.44v-1.45C185.09,402.06,185.08,404.67,185.08,406.12Zm1.65-74.28a.44.44,0,0,0,0-.87C186.44,331,186.44,331.84,186.73,331.84Zm-.22,82.7c.58,0,.58-1.16,0-1.16C186.22,413.38,186.22,414.54,186.51,414.54Zm1.17-5.22c.59,0,.59-1.16,0-1.16S187.1,409.32,187.68,409.32Zm.19-71.38c1.16,0,2.61-.28,3.2-1.44h-3.19Zm-.32,122.45c0,.58,1.16.58,1.16,0S187.55,459.8,187.55,460.39ZM189.05,333c.28,0,.29-1.16,0-1.16C188.47,331.85,188.47,333,189.05,333Zm-.35,130c.29,0,.29-.87,0-.87A.44.44,0,0,0,188.7,463Zm0,3.19c.29,0,.3-1.16,0-1.16C188.12,465,188.12,466.19,188.69,466.19Zm0-7.83a.44.44,0,1,0,.87,0A.44.44,0,0,0,188.72,458.36Zm1.21-130.57c.58,0,.58-1.16,0-1.16S189.35,327.79,189.93,327.79Zm0,6.67c.58,0,.59-1.16,0-1.16S189.33,334.46,189.91,334.46Zm-.35,132.32c1.16-.58,1.17-1.16,1.17-2.32v-.87ZM191,346.36c.29,0,.3-1.16,0-1.16C190.46,345.2,190.46,346.36,191,346.36Zm0,6.09c.3,0,.3-.87,0-.87A.44.44,0,0,0,191,352.45Zm0-12.76h.87v-1.16Zm-.18,67a.44.44,0,0,0,.87,0A.44.44,0,0,0,190.88,406.71Zm.71,60.07c.59.29,1.75-.57,1.17-1.16S191,466.2,191.59,466.78ZM192,322h1.16c.87,0,1.45,0,2-.86L194,320Zm.88,106.49a2.6,2.6,0,0,0,2.62-2.6A2.42,2.42,0,0,0,192.86,428.48Zm-.07,23.8h.87v-2Zm2.07-12.48c2,0,7.26-2.59,7.26-4V434.6l-7.26,4Zm.85,8.13,1.16-.87-2-3.19V445A3.81,3.81,0,0,0,195.71,447.93Zm-.91,14.51h.87v-2Zm0,2a.43.43,0,1,0,.87,0C195.66,464.18,194.79,464.18,194.79,464.47ZM198,463c.29,0,.29-.86,0-.86A.43.43,0,1,0,198,463Zm2-2.6c0-.58.87-2.61.87-2.9v-.58c0-1.16,0-1.16-.87-1.74l2-.87H198.3a4,4,0,0,0,1.73,3.2l-2,2ZM199,394c.58,0,.59-1.16,0-1.16S198.46,394,199,394Zm1.18-6.67c0-3.19,4.07-4.63,5.22-1.15,2.05-3.77-3.75-7.26-6.37-4.08Zm.89-7.83c.58,0,.58-1.16,0-1.17C200.82,378.3,200.82,379.47,201.11,379.47Zm0,12.47c.58,0,.58-1.16,0-1.16C200.79,390.78,200.79,391.94,201.08,391.94Zm1,56a.44.44,0,1,0,0-.87A.44.44,0,0,0,202.09,448Zm0,4.64a.44.44,0,0,0,0-.87A.44.44,0,1,0,202.08,452.59Zm0,8.41c.59,0,.59-1.16,0-1.16S201.48,461,202.05,461ZM220.9,355.72c.59,0,.59-1.15,0-1.15S220.32,355.72,220.9,355.72Zm.88-2c.58,0,.58-1.16,0-1.17C221.49,352.53,221.49,353.7,221.78,353.7Zm0,5.22c.57,0,.58-1.16,0-1.16C221.48,357.76,221.48,358.92,221.77,358.92Zm-.22,82.4a.43.43,0,1,0,0-.86C221.26,440.46,221.26,441.32,221.55,441.32Zm1.39-86.75a.44.44,0,1,0,0-.87A.44.44,0,0,0,222.94,354.57Zm-.06,21.18h.58c.58,0,.87,0,1.45-.86Zm1,56.88v-.87h-1.15Zm.86,4.06v-.29c0-1.16-.86-1.74-2-1.74v.57C222.72,436.4,223.88,436.69,224.75,436.69Zm2.18-54.54c-.87-1.17-5.51-2.63-2.91.28Zm-2.84-26.42c.3,0,.3-1.16,0-1.16C223.52,354.57,223.52,355.73,224.09,355.73Zm0,4.65c.29,0,.3-1.16,0-1.16C223.51,359.21,223.5,360.38,224.08,360.38Zm-.22,82.69c.3,0,.3-1.16,0-1.16C223.29,441.91,223.28,443.07,223.86,443.07ZM225,361.83a.44.44,0,0,0,0-.87A.44.44,0,0,0,225,361.83Zm4.34,4.36c1.16-.86,1.75-2.31,1.75-4.34-1.45,0-4.65,3.75-6.1,4.62h2a4.94,4.94,0,0,0,2-.29c-.29,0-.29-1.16,0-1.16S229.29,365.9,229.29,366.19Zm-3.22,9.57c0,.58.87,1.16.87,1.16,2,0,4.07-2,6.39-2v-2a4.94,4.94,0,0,1-3.2.86c-1.45,0-2.61-.88-4.64-.88C225.5,373.15,226.08,375.47,226.07,375.76Zm0,3.77c.29,0,.3-1.16,0-1.16C225.49,378.37,225.48,379.53,226.06,379.53Zm.05-16,.87-1.16h-.87Zm-.19,70.22.88-1.16v-2A6.63,6.63,0,0,0,225.92,433.79Zm9.49-78.61c.88-.87,3.49-3.47,3.5-5.21-2,0-2.9,0-4.65,1.15,0-.58,1.17-2.61,1.17-3.19v-.87l-2,2v-1.17a27.25,27.25,0,0,1,2.91-2.89l1.16.87.88-2h-.88c-1.16,0-9.87,3.46-10.45,5.2C231.66,346.47,232.23,353.14,235.41,355.18Zm-8.42,5.2c0,.58,1.15.59,1.15,0S227,359.8,227,360.38Zm1.79,89.38c.58,0,.59-1.16,0-1.16C228.49,448.6,228.49,449.76,228.78,449.76Zm1.35-72,2-.86h-.58C231,376.93,230.71,376.93,230.13,377.8Zm.9-10.73a.44.44,0,0,0,0-.87C230.74,366.2,230.74,367.07,231,367.07Zm1.26-38.3a.43.43,0,0,0,0-.87A.43.43,0,0,0,232.29,328.77Zm3,92.57c0-2,0-3.77-1.15-5.23-.58,0-2,.58-2,1.16C231.47,419.3,233.5,421.33,235.24,421.34ZM233.31,381c.29.58,1.46-.57.88-.87A.62.62,0,0,0,233.31,381Zm0-3.19H238a2.86,2.86,0,0,0-2.6-2.91C234.2,374.91,233.32,377.81,233.32,377.81Zm.92-18.57a.44.44,0,0,0,0-.87A.44.44,0,1,0,234.24,359.24Zm0,2.61a.44.44,0,1,0,0-.87A.44.44,0,1,0,234.24,361.85Zm-.17,62.1c.58,0,.58-1.16,0-1.16S233.49,424,234.07,424ZM234,452.38c.58,0,.58-1.16,0-1.16S233.41,452.38,234,452.38Zm.1-38.3h.58c.58,0,1.16,0,1.45-1.15l-.87-.87Zm1.34-70.79a.44.44,0,1,0,0-.87A.44.44,0,0,0,235.44,343.29Zm-.05,20.6a.44.44,0,0,0,0-.87A.44.44,0,1,0,235.39,363.89Zm.11-40v.29l2-.87-1.16-2C236.08,322.11,235.5,322.68,235.5,323.85Zm-.38,140.72H236v-.87Zm.91-14.21c.58,0,.59-1.16,0-1.16C235.75,449.2,235.74,450.36,236,450.36Zm0,2c0,.29,1.16.29,1.16,0C237.19,451.81,236,451.81,236,452.39Zm1.38-83.27a.43.43,0,0,0,0-.87A.43.43,0,1,0,237.41,369.12Zm-.25,93.14c.58,0,.59-1.16,0-1.16S236.58,462.26,237.16,462.26Zm.4-40.91,3.78-2c-.87-1.17-2-1.17-3.19-1.17h-.58a2.26,2.26,0,0,1,.58,1.17A5.4,5.4,0,0,1,237.56,421.35Zm.77-72.83c.58,0,.59-1.16,0-1.16C238.05,347.36,238,348.52,238.33,348.52Zm-.27,105.33c.58,0,.58-1.16,0-1.17C237.77,452.68,237.76,453.85,238.06,453.85Zm.07-28.44,1.16-.87h-1.16Zm1.29-49.9c.58,0,.59-1.16,0-1.17S238.84,375.5,239.42,375.51Zm1.06,39.75V414.1h-1.16Zm0,7.54c.29,0,.29-.86,0-.86A.43.43,0,1,0,240.46,422.8Zm1.08-81.53a.44.44,0,0,0,0-.87A.44.44,0,0,0,241.54,341.27Zm.94,83.57a2.92,2.92,0,0,0,.87-.29l3.2-3.18-1.15-1.16-4.07,2.31C242.49,422.81,242.49,424,242.48,424.84Zm.26-96.91c.29,0,.29-1.16,0-1.16C242.16,326.76,242.16,327.93,242.74,327.93Zm-.25,92.85c.29,0,.3-.87,0-.87A.44.44,0,0,0,242.49,420.78Zm-.11,45h2.9v-2C244.41,464.31,242.67,464.59,242.38,465.75Zm1.22-135.21c.58,0,.59-1.16,0-1.16S243,330.54,243.6,330.54Zm3.21-7.83a.43.43,0,1,0,0-.86A.43.43,0,1,0,246.81,322.71Zm-.34,130.58,2-.87h-2Zm4.05,5.81c.58,0,.58-1.16,0-1.16S249.94,459.1,250.52,459.1Zm.36-137.83a3.49,3.49,0,0,0,2-2.6v-.58Zm-.35,131.16c2,0,6.1-1.15,5.24-4.34h-.58C252,448.08,250.54,449.24,250.53,452.43ZM251.77,424c.29,0,.29-1.17,0-1.17C251.2,422.83,251.19,424,251.77,424Zm.87,1.45h1.16v-2Zm0,3.19h1.16v-1.16ZM254.7,413a.44.44,0,1,0,0-.87C254.42,412.11,254.41,413,254.7,413Zm0,2.61a.44.44,0,1,0,0-.87C254.41,414.72,254.41,415.59,254.69,415.59Zm0,14.5a.43.43,0,1,0,0-.86C254.37,429.23,254.37,430.09,254.66,430.09Zm1.18-8.7c.58,0,.87-.57.87-1.15,0-.87-.86-2.62-2-2.91v.87A3.66,3.66,0,0,0,255.84,421.39Zm-1.2,16.54h1.16c2-1.15,2-6.66,2.05-7.24H261v-1.45c-1.74,0-3.19,0-4.35,1.44a40.26,40.26,0,0,1-2.05,5.22l1.16.87Zm1.19-10.73c.58,0,.58-1.16,0-1.16S255.25,427.2,255.83,427.2Zm0,14.21a.43.43,0,1,0,0-.86A.43.43,0,1,0,255.79,441.41Zm0,11h2.61c0-1.16,0-4.35,2.33-4.35-.29,0-2.89-2-1.73-2.9C255.2,444,257.21,450.7,255.76,452.44ZM257,328c.58,0,.58-1.16,0-1.16C256.67,326.8,256.67,328,257,328Zm-.34,127.39a.44.44,0,0,0,0-.88C256.33,454.47,256.33,455.34,256.62,455.35Zm1.14,7c.59,0,.59-1.16,0-1.16S257.18,462.31,257.76,462.31Zm1.52-133.47c.29,0,.29-.87,0-.87A.44.44,0,0,0,259.28,328.84ZM259,454.48a.44.44,0,1,0,.87,0A.44.44,0,1,0,259,454.48Zm.92-20.6c.58,0,.58-1.16,0-1.16S259.29,433.88,259.87,433.88Zm-.08,30.47c.58,0,.58-1.16,0-1.16S259.21,464.35,259.79,464.35Zm1.26-37.72c.29.58,1.45-.58.87-1.16S260.47,426.05,261.05,426.63Zm.85,7.55a.43.43,0,1,0,0-.87A.43.43,0,1,0,261.9,434.18Zm0,16.25c.58,0,.58-1.16,0-1.16S261.28,450.42,261.86,450.43Zm0,8.12a.43.43,0,1,0,0-.87A.43.43,0,1,0,261.84,458.55Zm.37-140.44h1.16c.87,0,1.45,0,2-.87l-1.16-1.16Zm-.29,109.39c0,.58,1.16.59,1.16,0C263.08,427.22,261.92,427.21,261.92,427.5Zm-.05,17.7c0,.58,1.16.59,1.16,0S261.87,444.62,261.87,445.2Zm0,15.38h2l-.87-.87Zm1.21-20c.58,0,.59-1.16,0-1.17S262.46,440.56,263,440.57Zm.9-11.32c.58,0,.59-1.16,0-1.16C263.66,428.09,263.65,429.25,263.94,429.25Zm1.16.87a.44.44,0,1,0,0-.87A.44.44,0,0,0,265.1,430.12Zm.87,1.17c.58,0,.58-1.16,0-1.17C265.68,430.12,265.68,431.29,266,431.29Zm0,6.67,2.33-1.15H266Zm4.33,9.88c0-1.74,0-3.2-1.15-4.65-1.45,0-2,.29-2,1.45A2.9,2.9,0,0,0,270.28,447.84Zm-2-16.55c.29,0,.29-1.16,0-1.16C267.71,430.13,267.71,431.29,268.29,431.29Zm.78,34.53c2,0,3.2-3.47,3.21-5.21v-.87l-4.07,2.89A13,13,0,0,1,269.07,465.82Zm.38-143a.43.43,0,1,0,0-.86A.43.43,0,1,0,269.45,322.77Zm-.29,109.4a.44.44,0,1,0,0-.87A.44.44,0,1,0,269.16,432.17Zm0,9.28c2.62,0,4.07-.86,4.08-3.47v-1.16a4.39,4.39,0,0,1-4.07,2.6Zm0,9.87,3.19-.87h-1.16C270.27,450.45,269.69,450.45,269.11,451.32Zm1.15,3.77c.58,0,.58-1.16,0-1.16S269.68,455.09,270.26,455.09Zm.06-21.18h.87v-1.16Zm1.16-110c.58,0,.58-1.16,0-1.16C271.19,322.78,271.19,323.94,271.48,323.94Zm.81,132a.44.44,0,0,0,0-.87A.44.44,0,1,0,272.29,456Zm.88-3.48,1.16-1.16h-1.16Zm1.17-3.19h.58c.58,0,.87,0,1.45-1.16Zm3.23-13.92c.29,0,.29-1.16,0-1.16C277,434.22,277,435.38,277.57,435.38Zm0,14.51c.29,0,.29-1.16,0-1.16C277,448.72,277,449.89,277.53,449.89Zm0,4.06c.29,0,.29-1.16,0-1.16C276.94,452.79,276.94,454,277.52,454Zm0,8.42c.3,0,.3-1.17,0-1.17C276.92,461.2,276.92,462.36,277.49,462.37Z"/><path class="cls-7" d="M296.84,352.31s.41-.62.82-.62,6-.82,6.38-.82V256.75c0-1.65-7.2,0-7.2-1.65l.61-19.77c.21-2.88,1.44-4.12,4.33-4.12H323.2c7.82,0,22.24-.41,27.59.62,2.89.21,4.12,1.44,4.12,4.33v48c0,1.24-1.65.83-2.06.83H351c-2.47,0-14-.83-12.15-.62-2.88-.21-4.12-1.44-4.12-4.33V257.37c0-1-3.3-.62-3.3-.62s-2.67-.41-2.67.62V286c0,2.88,1.23,4.11,4.12,4.11h6.79c2.88,0,4.12,1.24,4.12,4.12v12.36c0,2.88-1.24,4.12-4.12,4.12h-6.79c-2.89,0-4.12,1.24-4.12,4.12v36a8.85,8.85,0,0,0,2.26.82c.83,0,3.71-.41,4.53-.41V320c0-2.89,1.24-4.12,4.12-4.12H350c2.88,0,4.12,1.23,4.12,4.12v54.57l-.83,1.65H343c-15.45,0-30.28,0-42-.82-2.88,0-4.11-1.24-4.11-4.12Zm13.59-106.68.82-.82H309.6Zm0,56.43c.41,0,.41-.82,0-.82S310,302.06,310.43,302.06Zm0,39.54a.31.31,0,1,0,0-.61A.31.31,0,1,0,310.43,341.6Zm0-17.71h.82l-.82-1.65Zm0,18.95h.41c.82,0,2.06-.41,2.06-1.24v-.41Zm.82-59.93c.41,0,.41-.83,0-.83S310.84,282.91,311.25,282.91Zm0,2.47c.41,0,.41-.83,0-.83S310.84,285.38,311.25,285.38Zm0,18.12a.31.31,0,0,0,0-.62A.31.31,0,0,0,311.25,303.5Zm0,2.47c.41,0,.41-.82,0-.82S310.84,306,311.25,306Zm.82-17.09c1.24-.41.83-1.65.83-2.27V285a3.22,3.22,0,0,0-1.65,1.64v.21C311.25,287.64,311.66,288.06,312.07,288.88Zm0,2.06c.42,0,.42-.83,0-.83S311.66,290.94,312.07,290.94Zm0,29.66c0,.41.83.41.83,0S312.07,320.18,312.07,320.6Zm0,47.57h.83v-.62Zm.83-84.44c.41,0,.41-.82,0-.82S312.49,283.73,312.9,283.73Zm0,21.42c.41,0,.41-.83,0-.83S312.49,305.15,312.9,305.15Zm0,2.06c.41,0,.41-.82,0-.82S312.49,307.21,312.9,307.21Zm0,17.71a.31.31,0,0,0,0-.62A.31.31,0,0,0,312.9,324.92Zm0,32.33c.41,0,.41-.82,0-.82S312.49,357.25,312.9,357.25Zm0-111c.41.41,1.23-.21.82-.62S312.49,246,312.9,246.25Zm0-2.27h2.26v-1.64Zm.82,64.46c.41,0,.41-.82,0-.82S313.31,308.44,313.72,308.44Zm0,57.88c.41,0,.41-.83,0-.83S313.31,366.32,313.72,366.32Zm0-33.78a1,1,0,0,0,1.44,0C315.58,332.13,313.31,332.13,313.72,332.54Zm1-45.93h.41l-.61-2.47c-.42,0-.83,1.24-.83,1.65C313.72,286.61,314.55,286.61,314.75,286.61Zm-1,31.72v.82l5.56-.82a12.37,12.37,0,0,1-3.29-1.65,1.25,1.25,0,0,1,0-1.64C314.55,315.86,313.72,316.68,313.72,318.33Zm0,7c0,.41.83.41.83,0S313.72,324.92,313.72,325.33Zm0,29.45h1.44l-.61-.82Zm.83-9.88c.2,0,.2-.83,0-.83C314.13,344.07,314.13,344.9,314.55,344.9Zm3.91-2.06v-3.92c-.41.42-3.3,1.24-3.91,2.27h1.85C316.4,342.43,316.81,342.84,318.46,342.84Zm-3.3-65.91c0,.42.83.42.83,0S315.16,276.52,315.16,276.93Zm0,22.25H316v-.83Zm0,27.8.83-.82h-.83Zm.83-53.55c.41,0,.41-.82,0-.82S315.58,273.43,316,273.43ZM316,246c.41,0,2.06,0,2.47-1.23,0-.41-1.24-.83-1.65-.83C316,244,316,245.63,316,246Zm0,62c0,.41.82.41.82,0S316,307.62,316,308Zm0,25.33c0,.42.82.42.82,0S316,333,316,333.36Zm.82-17.09c.41,0,.41-.82,0-.82S316.4,316.27,316.81,316.27Zm.83-79.08c.41,0,.41-.83,0-.83S317.22,237.19,317.64,237.19Zm0,97.41c.41,0,.41-.82,0-.82S317.22,334.6,317.64,334.6Zm0,34.39h2.26v-1.44C319.28,368,318.05,368.17,317.64,369Zm.82-122.33a.31.31,0,0,0,0-.62A.31.31,0,0,0,318.46,246.66Zm0,7.21c.41,0,.41-.82,0-.82S318.05,253.87,318.46,253.87Zm0,17.5,1.44-.82h-.21C319.28,270.55,318.87,270.55,318.46,271.37Zm.82-16.27c.41.42,1-.41.62-.82C319.69,253.87,318.87,254.69,319.28,255.1Zm.62,80.53.82-.62-1.44-.82v.41C319.28,335,319.28,335.42,319.9,335.63Zm0-98.44c.41,0,.41-.83,0-.83C319.69,236.36,319.69,237.19,319.9,237.19Zm0,75.17c.41,0,.41-.83,0-.83C319.69,311.53,319.69,312.36,319.9,312.36Zm.82-45.72v-.83h-.82Zm-.82,38.1,1.65-.83-1.65-.82Zm.82-32.13c.42,0,.42-.82,0-.82S320.31,272.61,320.72,272.61Zm0,20.18a1.58,1.58,0,0,0,1.65-1.44h-1.65Zm2.06,33.37c0-.42,0-1.86-1.23-2.27-.41,0-.83,1-.83,1.44C320.72,326.16,322.37,326.16,322.78,326.16Zm-2.06,26.15h.83v-3.09h-.83Zm0,7.21,1.65-.82h-1.65Zm.83-122.33c.41,0,.41-.83,0-.83S321.14,237.19,321.55,237.19Zm0,36.24c.41,0,.41-.82,0-.82S321.14,273.43,321.55,273.43Zm0,7.83a.31.31,0,0,0,0-.62A.31.31,0,0,0,321.55,281.26Zm0,59.73c.41,0,.41-.83,0-.83S321.14,341,321.55,341Zm0-19.57c.41.41,1.23-.41.82-.82S321.14,321,321.55,321.42Zm.82-77c.41,0,.41-.83,0-.83S322,244.4,322.37,244.4Zm0,29.86c.41,0,.41-.83,0-.83S322,274.26,322.37,274.26ZM324,363.84c.41,0,.41-.82,0-.82S323.61,363.84,324,363.84Zm1.85-59.1c2.89,0,3.71-3.91,3.71-6v-.41c-.82,2.89-2.47,5.15-5.56,5.56C324.84,304.32,325.26,304.74,325.87,304.74Zm.41-55.2c3.71-2,6-3.5,8-7.2a10.93,10.93,0,0,1-4.74,3.91L331,244h-1.44c-1.24,0-4.74,2.06-4.74,3.09h1.44Zm.83,108.33v-.41c0-.62-.83-1-1.65-1a.93.93,0,0,0-.62.82Zm2.47-53.55c.41,0,.41-.82,0-.82S329.17,304.32,329.58,304.32Zm0,62c.41,0,.41-.83,0-.83S329.17,366.32,329.58,366.32Zm.82-69c.42,0,.42-.82,0-.82S330,297.32,330.4,297.32Zm0,7.83c.42,0,.42-.83,0-.83S330,305.15,330.4,305.15ZM331,368c.41,0,.41-.82,0-.82C330.82,367.14,330.82,368,331,368Zm0-130.36c1.24,0,2.47,0,3.3-.83H331Zm.83,58.9c.41,0,.41-.82,0-.82S331.43,296.5,331.85,296.5Zm.82,66.93c.41,0,.41-.82,0-.82S332.26,363.43,332.67,363.43Zm0,1.65h1.65l-.83-.82Zm1.65-120.27a4.4,4.4,0,0,0,3.91-3.3c-3.09,0-2.06,2.89-3.91,2.89Zm.82,5.15c.41,0,.41-.83,0-.83S334.73,250,335.14,250Zm0,47c0,.41.83.41.83,0S335.14,296.5,335.14,296.91Zm1.44,6.59a.31.31,0,0,0,0-.62A.31.31,0,0,0,336.58,303.5Zm.83,63.23h.82c1.23,0,2.47-.41,2.47-1.65v-.82Zm.82-129.13c.41.41,1.23-.41.82-.83S337.82,237.19,338.23,237.6Zm1.65.82c.41,0,.41-.82,0-.82S339.46,238.42,339.88,238.42Zm.82,24.1a.31.31,0,0,0,0-.62A.31.31,0,0,0,340.7,262.52Zm0,6.8c.41,0,.41-.83,0-.83S340.29,269.32,340.7,269.32Zm.83-31.31c.2,0,.2-.82,0-.82C341.11,237.19,341.11,238,341.53,238Zm.61,102.56c0-.41.83-2.88.83-3.29l.82-1.65c0-.21-.41-1.44-.82-1.44l-1.44.82v1.86S340.7,340.16,342.14,340.57Zm-.61-95.76H343l-.83-1.65Zm0,21v1.24l.61-3.3C341.53,264.17,341.53,265,341.53,265.81Zm0,92.89.61-.83h-.61Zm.61-96.18a.31.31,0,0,0,0-.62A.31.31,0,0,0,342.14,262.52Zm.83,67.55v2.47a8.89,8.89,0,0,0,2.47-6.38C343,327,343,327.8,343,330.07Zm.82-88.56h.82l-.82-.62Zm0,21.42h.82v-.62Zm.82-16.89c.42,0,.42-.82,0-.82S344.2,246,344.61,246Zm0,23.89c.42,0,.42-.82,0-.82S344.2,269.93,344.61,269.93Zm0,64.67c.42,0,.42-.82,0-.82S344.2,334.6,344.61,334.6Zm0-81.14a2.65,2.65,0,0,0,2.48,0C347.29,253.05,344.2,253.05,344.61,253.46Zm.83,92.67c1.23-.41,3.09-1.65,3.09-2.88s-3.09-1.24-3.92-1.24C344.61,343.66,345.85,344.48,345.44,346.13Zm-.83,10.3c0,.41.83.41.83,0S344.61,356,344.61,356.43Zm.83-77.44c.41,0,.41-.82,0-.82S345,279,345.44,279Zm0,53.14c.41,0,.41-.83,0-.83S345,332.13,345.44,332.13Zm0-92.88v.82l3.91-.82a3.39,3.39,0,0,0-2.68-1.65C345.85,237.6,345.44,238.42,345.44,239.25Zm0,7c0,.41.82.41.82,0C346.26,246,345.44,246,345.44,246.25Zm0,21.21h1.65l-.83-.82Zm.82-1.65c.41,0,.41-.82,0-.82S345.85,265.81,346.26,265.81Zm0,68c.41,0,.41-.83,0-.83S345.85,333.78,346.26,333.78Zm3.5-70v-3.91a9.27,9.27,0,0,0-3.5,2.47h1.85C348.11,263.34,345.85,263.34,349.76,263.75Zm-2.67-15.85.61-.83h-.61Zm0,74.75v.42l1.44-.83-.83-.82A1.23,1.23,0,0,0,347.09,322.65Zm.61-68.37c0,.41.83.41.83,0S347.7,253.87,347.7,254.28Zm.83,111.21c.41,0,.41-.82,0-.82S348.11,365.49,348.53,365.49Zm.82-110c.41,0,.41-.83,0-.83S348.94,255.52,349.35,255.52Z"/><path class="cls-8" d="M296.16,505.21c0-1.31,3.14-3.37,3.14-3.37l8.75-1.19c0-9.16,1.94-50.76,1.94-60.11,0-4.48-1.19-24.29-1.19-28.41h-9.58a2.79,2.79,0,0,1-3.06-3.06V394.68l.75.45h14.21c30.08,0,54.24.37,83.77.75,1.3,0,5,2.71,4.25,5.44v43.89c0,1.31-.56,1.87-1.87,1.87H385.61a3.08,3.08,0,0,1-2.8-1.68c.56-11.77-.86-29.94-17.5-29.94h-29V448.7h10.88c7.11,0,6.36-13.2,6.36-16.75h10.65c1.31,0,1.87.56,1.87,1.87v47.84c0,1.31-.56,1.87-1.87,1.87h-8.78a2.64,2.64,0,0,1-2.62-1.69c.37-4.29,1.12-15.62-7.66-15.62H336.3v32.86c5.61,1.12,7.52.94,12.94.94,25.23,0,33.19-1.73,33.19-29.58a4.12,4.12,0,0,1,3.18-1.3h11.66c1.31,0,1.87.56,1.87,1.86.75,14.77.75,26.63.75,41,0,1.31,0,6.64-4.26,6.64H300c-1.31,0-3.06-1.75-3.25-3.06.19.19-.56-8-.56-9.83v-.56Zm14.51,4.39,1.27-.55h-.36C311.21,509.05,311,509.05,310.67,509.6Zm3.26-10.7c.18,0,.18-.73,0-.73C313.57,498.17,313.57,498.9,313.93,498.9Zm0-4.9v.37l1.27-1.27h-.36C314.11,493.1,313.93,493.46,313.93,494Zm1.82.91c0,.36.72.36.72,0C316.47,494.73,315.75,494.73,315.75,494.91Zm0,3.08h.72v-.9Zm.72-6.34c.54,0,2.54-2.18,2.54-2.9C319,488.2,315.75,491.65,316.47,491.65ZM317,494a.27.27,0,1,0,0-.54C316.83,493.46,316.83,494,317,494Zm0-12.87h1.46c-.37-.73-.73-.73-1.09-.73H317ZM319,494c.18,0,.18-.54,0-.54A.27.27,0,1,0,319,494Zm.54-11.78c.18,0,.18-.73,0-.73C319.19,481.49,319.19,482.22,319.55,482.22Zm.55,20.85c.36,0,.36-.73,0-.73S319.73,503.07,320.1,503.07Zm1.27-17.77c.36,0,.36-.72,0-.72C321.18,484.58,321.18,485.3,321.37,485.3Zm2,0c0,.18.73.18.73,0C324.09,484.94,323.36,484.94,323.36,485.3Zm1.27,4.53c.36,0,.36-.72,0-.72S324.27,489.83,324.63,489.83Zm0,12.51c.36,0,.36-.72,0-.72S324.27,502.34,324.63,502.34Zm.73-46.77c.18,0,.18-.55,0-.55A.28.28,0,1,0,325.36,455.57Zm0,32.63a1.65,1.65,0,0,0,.54-1.45h-.54Zm.54,23.21a.27.27,0,0,0,0-.54A.27.27,0,0,0,325.9,511.41Zm0-55.48c.36.54,1.09-.36.72-.55C326.26,455,325.54,455.57,325.9,455.93Zm.72.9c.55-.36,1.64-.9,1.64-1.81v-.36Zm.55,42.79c.36,0,.36-.72,0-.72C327,498.9,327,499.62,327.17,499.62Zm0-23.38c.36.36,1.09-.19.72-.73C327.53,475.15,327,476.05,327.17,476.24Zm.72,25c.37-.18.37-1.09,0-1.45C327.53,499.62,327.53,501.62,327.89,501.26Zm.37-37.9c.36,0,.36-.72,0-.72Zm8.52,47.69,1.09-.55-.55-.9Zm4.35-3.09c.18,0,.18-.72,0-.72C340.77,507.24,340.77,508,341.13,508Zm0-49.86a19.94,19.94,0,0,0,1.27,2.72h.54v-3.44h-1.81Zm1.81,50.59c.37,0,.37-.73,0-.73C342.76,508,342.76,508.69,342.94,508.69Zm1.27-48.23a.27.27,0,0,0,0-.54C344,459.92,344,460.46,344.21,460.46Zm.73.36a.36.36,0,1,0,.72,0C345.66,460.46,344.94,460.46,344.94,460.82Zm1.27,47c0,.18.54.18.54,0C346.75,507.24,346.21,507.24,346.21,507.78Zm1.08.91c.37,0,.37-.73,0-.73S346.93,508.69,347.29,508.69ZM348,458.1v-.72h-.73Zm-.73,2.18H348v-.72Zm1.27-3.81c.36,0,.36-.9,0-.9C348.38,455.57,348.38,456.47,348.56,456.47Zm2,0c.36,0,.36-.9,0-.9S350.19,456.47,350.56,456.47Zm0,57.48c.36,0,.36-.73,0-.73S350.19,514,350.56,514Zm1.27-48.59a.28.28,0,0,0,0-.55A.28.28,0,1,0,351.83,465.36Zm3.08,44.54c.16-.06.91-.7,1.07-.81l.21-.16h-.11c-.26,0-1.55.06-1.55.38h.38Zm.72-61.95c.19,0,.19-.54,0-.54S355.45,448,355.63,448Zm0,21.94a2,2,0,0,0,1.27-1.81v-.19Zm.55-17.59c.36,0,.36-.72,0-.72S355.82,452.3,356.18,452.3Zm0,12.51c.36,0,.36-.72,0-.72S355.82,464.81,356.18,464.81Zm.72,49.32c.18,0,.18-.54,0-.54A.27.27,0,0,0,356.9,514.13Zm0-63.64c.55-.36.55-.73.55-1.27h-.55Zm1.82,11.42a.27.27,0,1,0,0-.54C358.53,461.37,358.53,461.91,358.72,461.91Zm.72,1.81a1.11,1.11,0,0,0,0-1.45C359.08,461.91,359.08,464.09,359.44,463.72Zm0,10.7a.27.27,0,0,0,0-.54A.27.27,0,0,0,359.44,474.42Zm0,38.8a2.63,2.63,0,0,0,1.27-1.81v-.36Zm6.89-6.34c0,.36.73.36.73,0S366.33,506.51,366.33,506.88Zm0,4.17h.73a1.22,1.22,0,0,0,1.27-.55l-.73-.9Zm2-3.09c.18,0,.18-.72,0-.72C368,507.24,368,508,368.33,508Zm.54.37c0,.36.73.36.73,0S368.87,508,368.87,508.33Zm1.27,1.27.72-.55h-.72Zm.72,4.53a.27.27,0,1,0,0-.54A.27.27,0,0,0,370.86,514.13Zm1.27-5.44c.37,0,.37-.73,0-.73S371.77,508.69,372.13,508.69Zm3.63.36h.72c-.36-.72-.72-1.81-1.27-2.17-.36,0-.72,1.08-.72,1.45C374.49,509.05,375.58,509.05,375.76,509.05Zm2.72-3.44,1.27-1.45c-1.27-.37-.36-1.27-.36-2.54l.36.36a2.18,2.18,0,0,0,1.27-1.27h-.73c-1.63,0-4.17,2.72-5.08,4h3.27Zm-1.27-4c.18,0,.18-.54,0-.54A.27.27,0,0,0,377.21,501.62Zm1.81-1.81,1.27-.55h-.18A1.09,1.09,0,0,0,379,499.81Zm.73,12.51h1.81c0-.55,0-.91-.54-1.27Zm1.81-10.7a.27.27,0,1,0,0-.54C381.38,501.08,381.38,501.62,381.56,501.62Zm0,7.07c.36,0,.36-.73,0-.73C381.38,508,381.38,508.69,381.56,508.69Zm0-4.53h.36c.37,0,.73,0,1.09-.73Zm.73,5.44c.36.36.72-.37.72-.55C382.65,508.69,381.92,509.23,382.29,509.6Zm0-7.62h.36c.73,0,.73-1.27.73-2.17v-.55Zm.72-3.81v-.72C382.65,497.45,382.65,498.17,383,498.17Zm0,14v-.72C382.65,511.41,382.65,512.13,383,512.13Zm.37-16.86v.55c.9-.91.9-2.18,2-2.72H385C384.1,493.1,383.38,494.73,383.38,495.27Zm.72-2.72c.18,0,.18-.72,0-.72C383.74,491.83,383.74,492.55,384.1,492.55Zm0,9.79c.18,0,.18-.72,0-.72C383.74,501.62,383.74,502.34,384.1,502.34Zm0-12.14h.54a11.13,11.13,0,0,0,2.54-.73V488.2Zm1.27,6.52a.27.27,0,1,0,0-.54A.27.27,0,0,0,385.37,496.72Zm1.63-4.53c.54,0,.91-.91.91-1.81v-.18l-2.54,1.45A4.35,4.35,0,0,0,387,492.19Zm-1.09,5.26c.37,0,.37-.73,0-.73C385.73,496.72,385.73,497.45,385.91,497.45Zm.73.72c.36,0,.36-.72,0-.72S386.28,498.17,386.64,498.17Zm0,14.69c.36,0,.36-.73,0-.73S386.28,512.86,386.64,512.86Zm.54-68.35c.36,0,.36-.73,0-.73C387,443.78,387,444.51,387.18,444.51Zm0-12.15a2.4,2.4,0,0,0,1.45-1.81v-.37Zm1.45,79.41,1.27-2.72-.72-.72c-.91.72-1.27.9-1.27,2.17A1.11,1.11,0,0,0,388.63,511.77Zm0-7.07h.55v-.54Zm.55-21.94a.27.27,0,1,0,0-.54A.27.27,0,1,0,389.18,482.76Zm.72,15.41c.18,0,.18-.72,0-.72C389.54,497.45,389.54,498.17,389.9,498.17Zm0,7.8c.18,0,.18-.91,0-.91C389.54,505.06,389.54,506,389.9,506Zm.54-2.18c.37,0,.37-.72,0-.72S390.08,503.79,390.44,503.79Zm0,6.17c.37,0,.37-.73,0-.73S390.08,510,390.44,510ZM391.71,486v-.55a1.71,1.71,0,0,0-1.27-1.45v.55A1.29,1.29,0,0,0,391.71,486Zm.37,11.06h.18l-.55-2.18-1.27,1.63C391.17,496.72,391.53,497.09,392.08,497.09Zm-.91-60.2c.36,0,.36-.72,0-.72S390.81,436.89,391.17,436.89Zm0,55.3h.54v-.54h-.54Zm.54-3.08a.27.27,0,1,0,0-.54C391.53,488.57,391.53,489.11,391.71,489.11Zm.55,24.84c.36-.73.36-3.08,0-3.45C392.08,509.6,392.08,514.13,392.26,514ZM315,412.08c.39,0,.39-1,0-1C314.79,411.08,314.79,412.08,315,412.08Zm0,18.13c.39,0,.39-.8,0-.8C314.79,429.41,314.79,430.21,315,430.21Zm2.19-17.13v-2.4l-1.4,1.6C316.18,413.08,316.38,413.08,317.18,413.08Zm-.8,4.39a.3.3,0,1,0,0-.59C316.18,416.88,316.18,417.47,316.38,417.47Zm0,17.73c.4,0,.4-1,0-1C316.18,434.2,316.18,435.2,316.38,435.2Zm.8-26.91h.8v-1.8A1.74,1.74,0,0,0,317.18,408.29Zm1.6,1.2c.4,0,.4-.8,0-.8S318.38,409.49,318.78,409.49Zm1.4,6.39a.3.3,0,1,0,0-.6A.3.3,0,1,0,320.18,415.88Zm0,19.92a.3.3,0,1,0,0-.6A.3.3,0,1,0,320.18,435.8Zm.8-1.6a.3.3,0,1,0,0-.6A.3.3,0,0,0,321,434.2Zm1.55-17.32c1.6,0,2.8-3,3.2-4.6h-.4C324.53,412.28,322.53,415.88,322.53,416.88Zm-2.11,10.21a3.94,3.94,0,0,1,2.19-.4V421.3a2.32,2.32,0,0,1-2.19,1.8Zm1.16,5.11c.8,0,1.39-.2,1.39-1.2v-.4Zm.8,4,1.39-1.6-2.19,1Zm2.91-27.47v-.8h-.6Zm0,10.58c-.2,0-.2-1,0-1C325.69,418.31,325.69,419.31,325.29,419.31Zm.8-9.38c.39,0,.39-.8,0-.8S325.69,409.93,326.09,409.93ZM324.57,432c.2,0,.2-1,0-1C324.17,431,324.17,432,324.57,432Zm2.31-18.48c.2.6,1-.4.6-.8C327.08,412.52,326.48,413.12,326.88,413.52Zm-2.31,22.08h.2a3.2,3.2,0,0,0,2.6-1.8H326v-1.6Zm2.91-15.89c.4,0,.4-.8,0-.8S327.08,419.71,327.48,419.71Zm-1.51,9.7c.2,0,.2-.8,0-.8C325.57,428.61,325.57,429.41,326,429.41Zm2.91-16.29a.3.3,0,1,0,0-.6A.3.3,0,0,0,328.88,413.12Zm.8,1c.4,0,.4-1,0-1S329.28,414.12,329.68,414.12Zm-2.31,21.68a.3.3,0,1,0,0-.6A.3.3,0,0,0,327.37,435.8Zm0-5.79h.6v-1Zm2.91-24.88c.4,0,.4-.79,0-.79C330.08,404.34,330.08,405.13,330.28,405.13Zm0,14.58c.4,0,.4-.8,0-.8C330.08,418.91,330.08,419.71,330.28,419.71Zm.8-13.38c.4,0,.4-1,0-1S330.68,406.33,331.08,406.33Zm0,11.79c.4,0,.4-.8,0-.8S330.68,418.12,331.08,418.12Zm-1.72,10.49c.4,0,.4-.8,0-.8C329.16,427.81,329.16,428.61,329.36,428.61Zm3.12-21.88c.4,0,.4-.8,0-.8S332.08,406.73,332.48,406.73ZM312,514.17h24.37c-.4-1.84-4,.7-5-1.84l-1.51.39c-.4-.28-.68.26-1.28.26-.8,0-1.8-1.08-2.2-.65l-3.47.93-1-.82-3.47.54c-2.2,0,1,0-1.41,0l-3.47.12C312.5,514.14,311.17,512.18,312,514.17Zm31.76,0c.6,0,3.19-.4,3.39-.4.4,0,.8,0,.8-.61h-4.19Zm6.39,4.35a.3.3,0,0,0,0-.6A.3.3,0,0,0,350.12,518.56Zm2-4.35,8-.4c-.2-1.6-3.39-.4-3.39-.4v-1.2C355.11,513.41,353.5,513,352.1,514.21Z"/><path class="cls-9" d="M42.49,443.45S4.24,440.11.74,434.89s6-7.07,15.5-3.14S42.49,443.45,42.49,443.45Z"/><path class="cls-9" d="M42.73,477.2s-36.5,8.69-39.49,13.72,7.51,5,15.24,1.38S42.73,477.2,42.73,477.2Z"/><path class="cls-9" d="M39.07,460.33s-30.43-4.74-34.46-.5,2.84,8,11.18,6.2S39.07,460.33,39.07,460.33Z"/><path class="cls-9" d="M274.06,43.28s3.4-39,8.71-42.52S290,6.86,286,16.54,274.06,43.28,274.06,43.28Z"/><path class="cls-9" d="M239.68,43.52s-8.85-37.18-14-40.22-5,7.65-1.4,15.53S239.68,43.52,239.68,43.52Z"/><path class="cls-9" d="M256.86,39.8s4.83-31,.51-35.11-8.11,2.89-6.31,11.39S256.86,39.8,256.86,39.8Z"/><path class="cls-9" d="M160.1,652V533.63c0-8.3-12.32-7.23-12.32-8.57V504.7c0-3.75,1.61-5.36,5.36-5.36H200c42-.17,35.09,39.38,35.09,98.05,0,63.22,4.55,94.56-36.16,94.56H153.14c-3.75,0-5.36-1.61-5.36-5.36V665.43C156.35,663.82,160.1,661.68,160.1,652Zm-4.28,33.48c0-4.29,4.28-7.23,4.28-10.18V674c-2.94,2.41-4.82,7.23-5.89,10.45C154.21,685,155.28,685.52,155.82,685.52Zm4.28,0c0,.27.81.27.81,0A.41.41,0,0,0,160.1,685.52Zm4.83-6.7h2.67c0-.53-.26-1.07-.8-1.07S164.93,678.29,164.93,678.82Zm2.67-100.18a.41.41,0,0,0,0-.81C167.34,577.83,167.34,578.64,167.6,578.64Zm0,13.39c.54,0,.54-1.07,0-1.07C167.34,591,167.34,592,167.6,592Zm0,6.7c.54,0,.54-1.07,0-1.07C167.34,597.66,167.34,598.73,167.6,598.73Zm0-11c.54.54,1.61-.53,1.08-1.07C168.14,586.4,167.34,587.21,167.6,587.74Zm1.08,4.83,1.87-1.08H170C169.48,591.49,169.21,591.49,168.68,592.57Zm1.87-3.49a.4.4,0,1,0,0-.8A.4.4,0,1,0,170.55,589.08Zm0,81.44a.4.4,0,0,0,0-.81C170.28,669.71,170.28,670.52,170.55,670.52Zm1.07-71.79c.27,0,.27-1.07,0-1.07C171.09,597.66,171.09,598.73,171.62,598.73Zm0,17.14c.27,0,.27-1.07,0-1.07C171.09,614.8,171.09,615.87,171.62,615.87Zm.81,52.77a.4.4,0,0,0,0-.8A.4.4,0,1,0,172.43,668.64Zm0-52.23c1.07-.54,1.07-1.07,1.07-1.61v-.27Zm1.07-17.68c.27,0,.27-1.07,0-1.07C173,597.66,173,598.73,173.5,598.73Zm.8-5.63c.54,0,.54-1.07,0-1.07S173.77,593.1,174.3,593.1Zm.27,82.78c.27,0,.27-1.08,0-1.08C174,674.8,174,675.88,174.57,675.88Zm0,9.91c.27,0,.27-.81,0-.81A.4.4,0,1,0,174.57,685.79Zm.8-22a.4.4,0,1,0,0-.8A.4.4,0,0,0,175.37,663.82Zm1.07,12.59c.54,0,.54-1.07,0-1.07S175.91,676.41,176.44,676.41Zm1.88,3.75c.54,0,.54-1.07,0-1.07S177.78,680.16,178.32,680.16Zm.8.54c.54.53,1.61-.54,1.07-1.07S178.86,680.16,179.12,680.7Zm1.07-15.81c.54,0,.54-1.07,0-1.07S179.66,664.89,180.19,664.89Zm0,13.4c.54,0,.54-1.07,0-1.07S179.66,678.29,180.19,678.29ZM181.27,666c.26,0,.26-1.08,0-1.08C180.73,664.89,180.73,666,181.27,666Zm.8.8a.4.4,0,1,0,0-.8A.4.4,0,1,0,182.07,666.77Zm1.07-61.35c.54,0,.54-1.07,0-1.07S182.61,605.42,183.14,605.42Zm.8,57.6c.54,0,.54-1.07,0-1.07C183.68,662,183.68,663,183.94,663Zm1.08,1.34a.41.41,0,0,0,0-.81A.41.41,0,0,0,185,664.36Zm1.87-140.91a.4.4,0,1,0,0-.8A.4.4,0,0,0,186.89,523.45Zm1.34,161c1.07,0,1.88-1.07,2.41-1.88-.53-1.07-.8-1.07-1.34-1.07-1.07,0-1.87,1.07-2.41,1.88C187.43,684.45,188,684.45,188.23,684.45ZM188,511.67a.41.41,0,0,0,.81,0A.41.41,0,0,0,188,511.67Zm1.88-4.83c.27,0,.27-1.07,0-1.07C189.3,505.77,189.3,506.84,189.84,506.84Zm.8,25.72v124.3c0,3.21,3.75,8.57,7.23,8.57,4.83,0,9.11-5.36,9.11-9.64V538.19c0-5.09-2.94-11.25-8.57-11.25C195.46,526.94,190.64,528.27,190.64,532.56Zm3.48,153c1.34,0,1.34-2.14,1.34-2.95V681.5l-3.75,1.88C192.25,684.45,193.05,685.52,194.12,685.52ZM192.52,516c.53,0,.53-1.07,0-1.07C192.25,514.88,192.25,516,192.52,516Zm0,155.64c.53,0,.53-1.07,0-1.07C192.25,670.52,192.25,671.59,192.52,671.59Zm0-158.05h.53c.54,0,1.07,0,1.34-1.07l-.8-.8Zm4,166.09c.26.53,1.33-.54.8-.81A.57.57,0,1,0,196.54,679.63Zm.8-7.24a.4.4,0,0,0,0-.8A.4.4,0,1,0,197.34,672.39Zm3.75,10.72V681.5h-2.68C198.68,682.57,200.29,683.11,201.09,683.11Zm0-163.94c.53.53,1.61-.27,1.07-.81S200.82,518.9,201.09,519.17Zm7.77,161c.53,0,.53-1.07,0-1.07S208.32,680.16,208.86,680.16Zm2.41,4.29c1.87,0,4.28-1.34,4.28-3.22v-1.6a17.93,17.93,0,0,0-4.82,2.94c-.53-1.07-1.07-1.07-1.34-1.07h-.53C209.39,682.57,209.66,684.45,211.27,684.45Zm1.34-4.29c.53,0,.53-1.07,0-1.07S212.07,680.16,212.61,680.16Zm1.07-2.41.8-1.87h-.8Zm.8-128.85c.54,0,.54-1.07,0-1.07S214,548.9,214.48,548.9Zm1.07-40.72a.4.4,0,1,0,0-.8A.4.4,0,0,0,215.55,508.18Zm0,108.76c.54,0,.54-1.07,0-1.07S215,616.94,215.55,616.94Zm.81,67a.4.4,0,0,0,0-.8C216.09,683.11,216.09,683.91,216.36,683.91Zm1.07-25.71a.4.4,0,1,0,0-.81A.4.4,0,0,0,217.43,658.2Zm.8-147.07c.54,0,.54-1.07,0-1.07C218,510.06,218,511.13,218.23,511.13Zm0,1.88a.4.4,0,1,0,0-.81C218,512.2,218,513,218.23,513Zm0,91.34a.4.4,0,1,0,0-.8C218,603.55,218,604.35,218.23,604.35Zm0-80.9,1.07-1.34C218.23,522.65,218.23,523.18,218.23,523.45Zm0,82.51c0,.27,1.07.27,1.07,0C219.3,605.42,218.23,605.42,218.23,606Zm.54,69.38a.4.4,0,0,0,0-.8C218.5,674.54,218.5,675.34,218.77,675.34Zm0-22v.54l1.07-1.87C218.77,652.57,218.77,653.11,218.77,653.37Zm.53-144.11c.54,0,.54-1.08,0-1.08S218.77,509.26,219.3,509.26Zm0,153.22a.4.4,0,1,0,0-.8A.4.4,0,0,0,219.3,662.48Zm0,13.93c.54,0,.54-1.07,0-1.07S218.77,676.41,219.3,676.41Zm.54-162.33c.54,0,.54-1.07,0-1.07S219.3,514.08,219.84,514.08Zm2.95,110.36c.27,0,.27-1.07,0-1.07C222.25,623.37,222.25,624.44,222.79,624.44Zm.27-34.28c.53,0,.53-1.08,0-1.08S222.52,590.16,223.06,590.16Zm0,15.8c0,.27,1.07.27,1.07,0C224.13,605.42,223.06,605.42,223.06,606Zm.53,11.79a.4.4,0,1,0,0-.81A.4.4,0,0,0,223.59,617.75Zm1.07,43.39c.54,0,.54-1.07,0-1.07S224.13,661.14,224.66,661.14Zm.27,12.86,1.07-1.07h-1.07Zm1.07-3a.4.4,0,1,0,0-.8A.4.4,0,0,0,226,671.05Zm.54-8c.53,0,.53-1.07,0-1.07S226,663,226.54,663Zm.8,3c.54,0,.54-1.08,0-1.08C227.07,664.89,227.07,666,227.34,666Zm0,2.14c1.07-.27,1.07-.8,1.07-1.34v-.54Zm4-15.54V651h-3A3.36,3.36,0,0,0,231.36,652.57Zm-1.88-123.76c.27.54,1.34.54,1.88,0C231.63,528.27,229,528.27,229.48,528.81Zm1.88,70.72c.27,0,.27-.8,0-.8A.4.4,0,1,0,231.36,599.53Zm.8,23c.54,0,.54-1.07,0-1.07S231.63,622.57,232.16,622.57Zm1.07,1.87c.54,0,.54-1.07,0-1.07S232.7,624.44,233.23,624.44Zm.81-85.72a.4.4,0,0,0,0-.8C233.77,537.92,233.77,538.72,234,538.72Zm0,59.47c.53.54,1.61-.53,1.07-.8C234.57,596.85,233.77,597.66,234,598.19Z"/><path class="cls-10" d="M307.92,533.22l1,.52a2.87,2.87,0,0,1,1.72-.52c7,.17,17.18,4.3,19.93,5.67,3.26,1.72,5.32,5.67,8.41,7.39,2.92,0,5.33,6.87,8.42,9.27.52.52,6,6.88,6,11l-.86,1v1.2a5.08,5.08,0,0,1-.34,1.55l.17.17a2.22,2.22,0,0,1,1-.17c4.81,0,5.5,18.21,5.5,23.36v5.67a6.2,6.2,0,0,1-1.55,3.44c0,.51-.17.85-.17,1.54.35,0,.69.52.69.86a.94.94,0,0,1-.52.86v.69c0,2.06-.34,3.78-2.74,11.68v-.17c-1.89,5.32-2.41,8.24-3.27,8.76-7.9,12.37-20.78,26.28-46.38,26.28-31.44,0-50.51-24-50.51-42.43l.35-.52c-2.41-4.29-2.24-10.82-2.24-16.32v-13.4c4-27.31,26.29-47.41,49.65-47.41Zm-37.28,31.61V564c-.69,0-1.55,0-1.55.86Zm1.55,8.42v-.69h-.86Zm19.15-14.53c0,.48-.47.8-.79,1.28-8.93,8.13-15.79,18.81-15.79,32.2A41.75,41.75,0,0,0,277,603.52h-.16c1,3.51,1.75,6.38,1.75,9.09v.16c1.12,1-.48,1.75,1.75,4,3.19,6.7,12.44,12.92,24.87,12.92,12.6,0,17.22-2.56,20.25-5.11l-.32.16,4.63-6.21-.16.15.95-1.43a29.69,29.69,0,0,0,2.87-3.67l-1.43-.48c.63-1,.79-1.91,1.75-2.71a7.14,7.14,0,0,0-.16-.79A30,30,0,0,0,335,604c0-1.12,1.75-5.42,1.75-6.06v-4.62c0-11-3-20.41-9.41-28.7h.16l-.63-.8h-.8c-1.6-1-5.1-3.82-5.1-3.82,0-.32-.16-.32-.16-.48-.16.16-.32.16-.64.16-1.75,0-1.75-1.28-3.83-1.76a1.68,1.68,0,0,1-.95.16,13.91,13.91,0,0,1-5.1-1,39,39,0,0,0-5.43-1c-2.39,0-4.94,0-6.69,1.91a1.9,1.9,0,0,1-1.6.64Zm-17.78,9.55c0,.51.17.86.69.86.34,0,.51-.35.51-.86,0-.35-.17-.86-.51-.86C273.73,567.41,273.56,567.92,273.56,568.27Zm3.09,66.65c.86,0,1.21-1,2.58-1v-3.61C278.54,632,276.65,633.55,276.65,634.92Zm1.55-83.32a.52.52,0,1,0,1,0c0-.51-.17-.86-.51-.86S278.2,551.09,278.2,551.6Zm2.75-1.89-.69-.86-.69.86Zm-1,85.55c.34,0,.34-.68,0-.68S279.57,635.26,279.92,635.26Zm0,10c.34,0,.34-.69,0-.69S279.57,645.23,279.92,645.23Zm.34-83.66c0,.51.17.68.34.68.35,0,.35-.17.35-.68,0-.35,0-.69-.35-.69C280.43,560.88,280.26,561.22,280.26,561.57Zm0,66.82c1,0,2.92,0,3.61-1.37a4.84,4.84,0,0,0-2.06-.69C280.6,626.33,280.26,627.36,280.26,628.39Zm.34,10.48h1.55c0-.69-1.2-1.55-1.55-1.89Zm.69,5.33.52-.69-1.21-.69v.35C280.6,643.51,280.6,643.85,281.29,644.2Zm0-8.25c.35,0,.35-.69,0-.69S281,636,281.29,636Zm-.17-82.11c0,.34.17.86.69.86.34,0,.34-.52.34-.86,0-.52,0-.86-.34-.86C281.29,553,281.12,553.32,281.12,553.84Zm.17,87.44v.34a2.46,2.46,0,0,0,1.2-1.72v-.34A2.07,2.07,0,0,0,281.29,641.28Zm1.38-89.68c0,.35.17.52.68.52.17,0,.35-.17.35-.52,0-.51-.18-.86-.35-.86C282.84,550.74,282.67,551.09,282.67,551.6Zm1.89,91.22c.34,0,.34-.69,0-.69S284.21,642.82,284.56,642.82Zm.68-9.79c1.21-1,2.24-.34,2.58-2.06h-.69Zm.69,3.26c1.2-.34.17-1.71.17-2.4,1.38,0,2.41,1,2.41-1.2v-.35c-.35.35-2.41.86-2.58,1.21-.34,0-.69.68-.69.68A4.89,4.89,0,0,0,285.93,636.29Zm-.34-90.87c0,.51.17.86.51.86a.79.79,0,0,0,.69-.86c0-.17-.34-.69-.69-.69S285.59,545.25,285.59,545.42Zm.86,85.21c.34,0,.34-.69,0-.69S286.1,630.63,286.45,630.63Zm0,6.69c.34,0,.34-.68,0-.68S286.1,637.32,286.45,637.32Zm1.37,4.64c.34,0,.34-.68,0-.68S287.48,642,287.82,642Zm.52-100.66.85-.86h-1.54Zm2.23,100.32v-2.06l-1.38,1.37C289.54,641.62,289.88,641.62,290.57,641.62Zm-1.38,2.58h.69v-.69h-.69Zm1.55-6.53h.34a7.12,7.12,0,0,0,2.07-1.38l-1.38-1.37L289.88,637C290.22,637.67,290.57,637.67,290.74,637.67Zm-.69-91.22c0,.34.17.86.52.86.51,0,.51-.52.51-.86,0-.52,0-1-.51-1C290.22,545.42,290.05,545.93,290.05,546.45Zm.52,6.53c.51,0,.51-.17.51-.35,0-.34,0-.51-.51-.51a.45.45,0,0,0-.52.51C290.05,552.81,290.22,553,290.57,553Zm0,92.25c.17,0,.17-.69,0-.69C290.22,644.54,290.22,645.23,290.57,645.23Zm2.58-11.34c.34,0,.34-.69,0-.69S292.8,633.89,293.15,633.89Zm.68,14.26v-.69C293.15,647.46,292.46,647.8,293.83,648.15Zm0-10h.69l-.69-.51Zm13.74-99.46V538l-.68.69Zm-.68,3.26h.68v-.68h-.68Zm3.09-3.26,2.23-2.41h-.85c-.69,0-1.38.86-2.24,1.72Zm1.38,11c0,.52.17.86.34.86.34,0,.51-.34.51-.86,0-.34-.17-.68-.51-.68C311.53,549,311.36,549.37,311.36,549.71ZM321,553c.85,0,.85-.86,0-1.38Zm17,15.29c.35,0,.69-.18.69-.35,0-.34-.34-.51-.69-.51a.45.45,0,0,0-.51.51C337.47,568.09,337.64,568.27,338,568.27Zm1.55-2.58,1.54-1.72h-.86Zm.51,16.15h.86V581H340Zm4.64-21.13c-.86,0-.86,0-.86.86,0,.17,0,.34.17.34a1.56,1.56,0,0,0,1-1A.64.64,0,0,0,344.68,560.71Zm3.78,49.64c.17,0,.52-.34.52-.85,0-.35-.35-.86-.52-.86-.34,0-.69.51-.69.86A.78.78,0,0,0,348.46,610.35ZM352.24,581c.69.86,1.38,2.4,2.06,2.4a5,5,0,0,0-1.37-2.4Z"/><path class="cls-3" d="M310.41,535.72l1,.51a3,3,0,0,1,1.72-.51c7,.17,17.18,4.29,19.93,5.67,3.26,1.71,5.32,5.66,8.42,7.38,2.92,0,5.32,6.87,8.41,9.28.52.51,6,6.87,6,11l-.86,1v1.21a5,5,0,0,1-.34,1.54l.17.17a2.18,2.18,0,0,1,1-.17c4.81,0,5.49,18.21,5.49,23.37v5.66a6.12,6.12,0,0,1-1.54,3.44c0,.52-.17.86-.17,1.55.34,0,.68.51.68.86a.93.93,0,0,1-.51.85v.69c0,2.06-.35,3.78-2.75,11.68v-.17c-1.89,5.33-2.4,8.25-3.26,8.76-7.91,12.37-20.79,26.29-46.39,26.29-31.43,0-50.5-24-50.5-42.44l.34-.51c-2.4-4.3-2.23-10.82-2.23-16.32v-13.4c4-27.31,26.28-47.41,49.64-47.41Zm-37.27,31.61v-.86c-.69,0-1.55,0-1.55.86Zm1.54,8.41v-.68h-.86Zm19.16-14.52c0,.47-.48.79-.8,1.27-8.93,8.13-15.78,18.81-15.78,32.21A41.66,41.66,0,0,0,279.49,606h-.16c1,3.51,1.75,6.38,1.75,9.09v.16c1.12,1-.47,1.75,1.76,4,3.19,6.69,12.43,12.91,24.87,12.91,12.59,0,17.22-2.55,20.25-5.1l-.32.16,4.62-6.22-.16.16,1-1.44a30.08,30.08,0,0,0,2.87-3.66l-1.44-.48c.64-1,.8-1.91,1.76-2.71a6.93,6.93,0,0,0-.16-.8,30,30,0,0,0,1.43-5.58c0-1.11,1.75-5.42,1.75-6.06v-4.62c0-11-3-20.41-9.4-28.7H330l-.64-.79h-.8c-1.59-1-5.1-3.83-5.1-3.83,0-.32-.16-.32-.16-.48-.16.16-.32.16-.64.16-1.75,0-1.75-1.27-3.82-1.75a1.73,1.73,0,0,1-1,.16,13.75,13.75,0,0,1-5.1-1,38.78,38.78,0,0,0-5.42-1c-2.39,0-4.94,0-6.7,1.91a1.88,1.88,0,0,1-1.59.64Zm-17.78,9.54c0,.52.17.86.68.86.35,0,.52-.34.52-.86,0-.34-.17-.86-.52-.86C276.23,569.9,276.06,570.42,276.06,570.76Zm3.09,66.66c.86,0,1.2-1,2.57-1v-3.6C281,634.49,279.15,636,279.15,637.42Zm1.54-83.32a.46.46,0,0,0,.52.51.45.45,0,0,0,.51-.51c0-.52-.17-.86-.51-.86S280.69,553.58,280.69,554.1Zm2.75-1.89-.68-.86-.69.86Zm-1,85.55c.35,0,.35-.69,0-.69S282.07,637.76,282.41,637.76Zm0,10c.35,0,.35-.69,0-.69S282.07,647.72,282.41,647.72Zm.35-83.66c0,.52.17.69.34.69.34,0,.34-.17.34-.69,0-.34,0-.69-.34-.69C282.93,563.37,282.76,563.72,282.76,564.06Zm0,66.83c1,0,2.92,0,3.6-1.38a4.87,4.87,0,0,0-2.06-.68C283.1,628.83,282.76,629.86,282.76,630.89Zm.34,10.48h1.55c0-.69-1.21-1.55-1.55-1.89Zm.69,5.32.51-.69-1.2-.68v.34C283.1,646,283.1,646.35,283.79,646.69Zm0-8.24c.34,0,.34-.69,0-.69S283.44,638.45,283.79,638.45Zm-.18-82.12c0,.34.18.86.69.86.35,0,.35-.52.35-.86,0-.51,0-.86-.35-.86C283.79,555.47,283.61,555.82,283.61,556.33Zm.18,87.44v.34a2.49,2.49,0,0,0,1.2-1.71v-.35A2.07,2.07,0,0,0,283.79,643.77Zm1.37-89.67c0,.34.17.51.69.51.17,0,.34-.17.34-.51,0-.52-.17-.86-.34-.86C285.33,553.24,285.16,553.58,285.16,554.1Zm1.89,91.22c.34,0,.34-.69,0-.69S286.71,645.32,287.05,645.32Zm.69-9.8c1.2-1,2.23-.34,2.57-2.06h-.68Zm.69,3.27c1.2-.34.17-1.72.17-2.41,1.37,0,2.4,1,2.4-1.2v-.34c-.34.34-2.4.86-2.57,1.2-.35,0-.69.69-.69.69A4.8,4.8,0,0,0,288.43,638.79Zm-.35-90.88c0,.52.17.86.52.86a.78.78,0,0,0,.68-.86c0-.17-.34-.68-.68-.68S288.08,547.74,288.08,547.91Zm.86,85.21c.34,0,.34-.69,0-.69S288.6,633.12,288.94,633.12Zm0,6.7c.34,0,.34-.69,0-.69S288.6,639.82,288.94,639.82Zm1.37,4.64c.35,0,.35-.69,0-.69S290,644.46,290.31,644.46Zm.52-100.67.86-.86h-1.55Zm2.23,100.32v-2.06l-1.37,1.38C292,644.11,292.38,644.11,293.06,644.11Zm-1.37,2.58h.69V646h-.69Zm1.54-6.53h.35a7.24,7.24,0,0,0,2.06-1.37l-1.37-1.37-1.89,2.06C292.72,640.16,293.06,640.16,293.23,640.16Zm-.68-91.22c0,.35.17.86.51.86.52,0,.52-.51.52-.86,0-.51,0-1-.52-1C292.72,547.91,292.55,548.43,292.55,548.94Zm.51,6.53c.52,0,.52-.17.52-.34,0-.35,0-.52-.52-.52a.45.45,0,0,0-.51.52C292.55,555.3,292.72,555.47,293.06,555.47Zm0,92.25c.17,0,.17-.69,0-.69C292.72,647,292.72,647.72,293.06,647.72Zm2.58-11.34c.34,0,.34-.68,0-.68S295.3,636.38,295.64,636.38Zm.69,14.26V650C295.64,650,295,650.3,296.33,650.64Zm0-10H297l-.68-.52Zm13.74-99.47v-.68l-.69.68Zm-.69,3.27h.69v-.69h-.69Zm3.1-3.27,2.23-2.4h-.86c-.69,0-1.37.86-2.23,1.72Zm1.37,11c0,.51.17.86.34.86.35,0,.52-.35.52-.86,0-.35-.17-.69-.52-.69C314,551.52,313.85,551.86,313.85,552.21Zm9.62,3.26c.86,0,.86-.86,0-1.37Zm17,15.29c.34,0,.68-.17.68-.34,0-.35-.34-.52-.68-.52a.46.46,0,0,0-.52.52C340,570.59,340.13,570.76,340.48,570.76Zm1.54-2.58,1.55-1.71h-.86Zm.52,16.15h.86v-.86h-.86Zm4.64-21.13c-.86,0-.86,0-.86.86,0,.17,0,.34.17.34a1.54,1.54,0,0,0,1-1A.59.59,0,0,0,347.18,563.2ZM351,612.85c.17,0,.51-.34.51-.86,0-.34-.34-.86-.51-.86-.35,0-.69.52-.69.86A.78.78,0,0,0,351,612.85Zm3.78-29.38c.68.86,1.37,2.41,2.06,2.41a5,5,0,0,0-1.38-2.41Z"/><path class="cls-5" d="M294.31,685.84c-1.92.09,10.46-.13,14.58-1,1.61-.36,20.71,47.26,26,47.52s16.84-59.61,16.84-59.61,3-.58,5.53-4.73a16.91,16.91,0,0,0,2.7-10,4.4,4.4,0,0,0,2.07.33c.83,2.11,1.19,7.22-3,12.76a15.25,15.25,0,0,1-3.76,3.13l-.92,3.15s-13.14,60.43-21,59.2-25.7-47-30.56-47.84a33.06,33.06,0,0,0-3.71-.53Z"/><path class="cls-5" d="M360.29,658s11.79.61,19.6-7.34c6.68-6.79,13.88-30.42,12.78-48.51-.25-4,5.95-6.27,5.95-3,0,12-4,44.5-15.81,54C369.39,664,360.12,660,360.12,660"/><path class="cls-5" d="M59.49,636.12s17.56,19.35,57.31,4.29c0,0-34.79,68.24,20.18,85.89,43.69,14,106.48,10.26,119.45-24.43,7-18.69,3.66-19.38,3.66-19.38s15.65,7.35,46,5.41c3.69-.23,5.7-3.18.27-2.71-33.36,2.88-50.52-9.08-50.52-9.08s3.64,1.72.37,14.73c-3.6,14.29-16.12,39.36-62.79,40.18-49.46.88-64.08-12.42-69.83-17.88-28.06-26.65,1.53-76.17-.87-78s-15.06,6.23-27.43,7.25c-9.52.79-20.94-1.56-32.1-10.46C57.79,627.66,57.41,634.58,59.49,636.12Z"/></g></g></svg>