<svg xmlns="http://www.w3.org/2000/svg" viewBox="0 0 1119.33 1939.91"><defs><style>.cls-1{fill:#c47884;}.cls-2{fill:#8958a1;}.cls-3{fill:#ecea52;}.cls-4{fill:#63ab8a;}.cls-5{fill:#687f87;}.cls-6{fill:#d7e2bf;}.cls-7{fill:#5d4586;}.cls-8{fill:#75bdba;}.cls-9{fill:#a07bb1;}</style></defs><title>logo-PMS_1</title><g id="Laag_2" data-name="Laag 2"><g id="Laag_1-2" data-name="Laag 1"><path class="cls-1" d="M1114.73,1084.24a.51.51,0,0,1-.37.2c-14.46.06-9.72-31.12-17-49.47-20.18-50.62-82.68-51.48-80.71-54.5,1.47-2.47,62.4.17,90.14,43.6C1118.39,1042.31,1123.89,1084.44,1114.73,1084.24Z"/><path class="cls-2" d="M775.14,1806.34c-5.06.24,27.57-.34,38.4-2.73,4.24-.94,54.55,124.46,68.39,125.15s44.34-157,44.34-157,7.85-1.53,14.58-12.46c8.59-14,7.11-26.4,7.11-26.4a11.6,11.6,0,0,0,5.45.88c2.17,5.55,3.12,19-7.84,33.59-3.28,4.37-9.9,8.27-9.9,8.27l-2.43,8.29s-34.59,159.15-55.35,155.93-67.68-123.87-80.49-126c-8.43-1.41-9.78-1.38-9.78-1.38Z"/><path class="cls-3" d="M226.77,323.22s6.81-43.26,33.61-33.6a110.31,110.31,0,0,0,68,2.39c17-4.85,51.69-42.79,8.89-68.63s-28.11-8.74-48.78,9.36-59.4,17.8-69.71,28.24S194.51,306.93,226.77,323.22Z"/><path class="cls-3" d="M92.83,732.81c.84-17.67,17.67-38.7,35.34-38.7,24.4,0,32.81,24.4,32.81,43.75,0,17.66-14.3,29.45-14.3,44.59,0,34.5,32.81,52.17,62.26,52.17,30.29,0,53.85-13.46,60.58-44.6V691.58c0-64.79.85-118.64-3.36-182.59,1.68-32-43.75-30.28-52.17-26.07-5.05-3.37-7.57-6.74-7.57-12.62V388.68c0-5.9,2.52-8.42,8.41-8.42,15.14,0,122.84-3.36,147.25-3.36h21c1.68,19.35,2.52,59.73,2.52,86.66v9.26l-2.52,2.52c-15.14,1.68-45.44,0-51.33,21v276c-1.67,98.44-5.88,167.43-119.47,167.43-95.93,0-119.48-78.24-119.48-163.22Zm17.67,42.07c1.68,5.89,2.52,21,2.52,21l6.73,3.36c.85-5.89,2.53-16.83,2.53-24.4-4.21,0-9.26,0-11.78-2.52v2.52ZM113,749.64c1.69,0,1.69-3.37,0-3.37C112.18,746.27,112.18,749.64,113,749.64Zm9.26,10.09V769c5.89-5.89,9.26-15.14,9.26-23.56C122.28,748,122.28,751.32,122.28,759.73Zm5.89,48a1.27,1.27,0,0,0,0-2.53A1.27,1.27,0,1,0,128.17,807.7Zm0,51.32c0,1.68,3.37,1.68,3.37,0S128.17,857.34,128.17,859Zm3.37-38.7,2.52-3.37h-2.52Zm2.52-97.6c1.68,0,1.68-3.37,0-3.37C133.22,719.35,133.22,722.72,134.06,722.72Zm3.37,3.36c1.67,0,1.67-3.36,0-3.36S135.74,726.08,137.43,726.08Zm0,6.73,2.52-2.53h-2.52Zm5.89,159c0,1.69,3.36,1.69,3.36,0S143.32,890.15,143.32,891.83Zm11.77-28.61a1.26,1.26,0,1,0,0-2.52C154.25,860.7,154.25,863.22,155.09,863.22Zm3.37,45.44c1.68,0,1.68-3.36,0-3.36S156.78,908.66,158.46,908.66Zm0-40.38H161v-6.73Zm9.25-12.62,2.52-2.53c-1.67-3.36-2.52-3.36-4.2-3.36h-1.68Zm-3.36,42.06h3.36V895.2Zm0,5.89c0,1.69,3.36,1.69,3.36,0C167.71,902.77,164.35,902.77,164.35,903.61Zm17.67-21v-2.52h-5.89Zm-2.53,9.25a1.26,1.26,0,1,0,0-2.52A1.26,1.26,0,1,0,179.49,891.83Zm5.9-34.49a1.27,1.27,0,0,0,0-2.53A1.27,1.27,0,1,0,185.39,857.34Zm0,36.18c1.68,0,1.68-3.37,0-3.37S183.7,893.52,185.39,893.52Zm11.78,7.57c0,1.68,3.36,1.68,3.36,0S197.17,899.41,197.17,901.09Zm3.36-26.92c0,.84,2.52.84,2.52,0A1.26,1.26,0,1,0,200.53,874.17Zm89.19-297H299c-2.54-.84-4.21-2.52-7.58-2.52h-1.68ZM293.08,705c1.69,0,1.69-3.37,0-3.37S291.4,705,293.08,705Zm9.26-91.71V598.18h-9.26C293.08,603.24,300.65,611.65,302.34,613.33Zm-5.9,74.89c.85,1.68,4.21-1.69,2.54-2.53A1.79,1.79,0,0,0,296.44,688.22Zm0,53.85c.85,1.68,4.21-1.69,2.54-2.53A1.79,1.79,0,0,0,296.44,742.07Zm0-9.26h8.43v-5.89Zm11.79-59.74v-5.89c0-2.52,1.68-10.1-5.89-9.26v3.37C302.34,665.5,303.18,668.87,308.23,673.07Zm0,66.47h2.52v-6.73C308.23,734.49,308.23,736.17,308.23,739.54Z"/><path class="cls-4" d="M79.69,726.24c.84-17.67,17.67-38.7,35.34-38.7,24.4,0,32.81,24.4,32.81,43.75,0,17.66-14.3,29.45-14.3,44.59,0,34.5,32.81,52.17,62.26,52.17,30.29,0,53.85-13.46,60.58-44.6V685c0-64.79.84-118.64-3.36-182.59,1.68-32-43.75-30.28-52.17-26.07-5-3.37-7.57-6.74-7.57-12.63V382.1c0-5.89,2.52-8.41,8.41-8.41,15.14,0,122.84-3.36,147.24-3.36h21c1.68,19.35,2.52,59.73,2.52,86.66v9.26L370,468.77c-15.14,1.68-45.44,0-51.33,21v276c-1.67,98.44-5.88,167.43-119.47,167.43C103.24,933.22,79.69,855,79.69,770Zm17.67,42.07c1.68,5.89,2.52,21,2.52,21l6.73,3.37c.85-5.89,2.52-16.83,2.52-24.4-4.2,0-9.25,0-11.77-2.52v2.52Zm2.52-25.24c1.69,0,1.69-3.37,0-3.37C99,739.7,99,743.07,99.88,743.07Zm9.25,10.09v9.26c5.9-5.89,9.26-15.14,9.26-23.56C109.13,741.39,109.13,744.75,109.13,753.16Zm5.9,48a1.27,1.27,0,0,0,0-2.53A1.27,1.27,0,1,0,115,801.13Zm0,51.32c0,1.68,3.36,1.68,3.36,0S115,850.77,115,852.45Zm3.36-38.7,2.53-3.37h-2.53Zm2.53-97.6c1.68,0,1.68-3.37,0-3.37C120.08,712.78,120.08,716.15,120.92,716.15Zm3.37,3.36c1.67,0,1.67-3.36,0-3.36S122.6,719.51,124.29,719.51Zm0,6.73,2.52-2.53h-2.52Zm5.89,159c0,1.69,3.36,1.69,3.36,0S130.18,883.58,130.18,885.26ZM142,856.65a1.26,1.26,0,0,0,0-2.52C141.11,854.13,141.11,856.65,142,856.65Zm3.37,45.44c1.68,0,1.68-3.36,0-3.36S143.63,902.09,145.32,902.09Zm0-40.38h2.52V855Zm9.25-12.62,2.52-2.54c-1.67-3.36-2.52-3.36-4.2-3.36h-1.68Zm-3.36,42.06h3.36v-2.52Zm0,5.89c0,1.69,3.36,1.69,3.36,0C154.57,896.2,151.21,896.2,151.21,897Zm17.66-21v-2.52H163Zm-2.52,9.25a1.26,1.26,0,1,0,0-2.52A1.26,1.26,0,0,0,166.35,885.26Zm5.89-34.49a1.27,1.27,0,1,0,0-2.53A1.27,1.27,0,0,0,172.24,850.77Zm0,36.18c1.69,0,1.69-3.37,0-3.37S170.56,887,172.24,887ZM184,894.52c0,1.68,3.36,1.68,3.36,0S184,892.84,184,894.52Zm3.36-26.92c0,.83,2.52.83,2.52,0A1.26,1.26,0,1,0,187.39,867.6Zm89.18-297h9.26c-2.53-.84-4.2-2.52-7.57-2.52h-1.69Zm3.37,127.89c1.69,0,1.69-3.37,0-3.37S278.26,698.47,279.94,698.47Zm9.25-91.71V591.61h-9.25C279.94,596.66,287.51,605.08,289.19,606.76Zm-5.89,74.89c.85,1.68,4.21-1.69,2.53-2.53A1.79,1.79,0,0,0,283.3,681.65Zm0,53.85c.85,1.68,4.21-1.69,2.53-2.53A1.79,1.79,0,0,0,283.3,735.5Zm0-9.26h8.42v-5.89Zm11.79-59.74v-5.89c0-2.52,1.68-10.1-5.9-9.26v3.37C289.19,658.93,290,662.3,295.09,666.5Zm0,66.47h2.52v-6.73C295.09,727.92,295.09,729.6,295.09,733Z"/><path class="cls-2" d="M359,640.33c0-21.58-3.6-65.46,10.07-84.88,12.23-14.39,39.57,2.15,54.67-8.64,15.11-8.63,32.37-84.88,41.73-107.9,12.23-31.66,100-267.61,112.22-269,28.05-.72,61.86-5.75,89.92-5.75,23,0,84.89-5.76,105,9.35,13.67,9.35,23,61.15,28,75.53,8.64,25.18,115.82,304.3,125.18,304.3h48.91c2.88,0,5.76,7.91,5.76,7.91V664.07c0,11.51-29.5,7.92-30.22,7.92H933.05c-3.6-5.76-5.76-5.76-11.51-5.76-3.6,0-5.76,0-8.64,5.76-23.73,0-132.36,3.59-156.82,3.59H718c-23.73,0-78.41-3.59-78.41-3.59l-2.15-2.17V559c0-3.59,7.19-5.75,7.19-5.75s20.86-1.44,29.49-3.6c5,0,25.18-2.88,30.22-2.88v-4.32c3.6-33.08-26.62-29.49-48.92-28-30.94,0-49.64,0-80.57,3.6-12.95,4.31-14.39,20.14-14.39,33.81h66.9V672s-18,3.59-23.73,3.59H499.27c-19.43,0-107.91-3.59-127.33-3.59C360.42,668.39,359,653.28,359,640.33Zm103.59-10.07c1.44,0,1.44-2.88,0-2.88C461.86,627.38,461.86,630.26,462.58,630.26Zm2.88,2.88c1.43,0,1.43-2.88,0-2.88S464,633.14,465.46,633.14Zm10.79-160.42c1.44,0,1.44-2.88,0-2.88A1.45,1.45,0,1,0,476.25,472.72Zm2.87-10.79h5l-2.88-2.16Zm10.07,9.35h1.44c2.16,0,2.16,0,3.6-3.6,0-.72-3.6-2.16-5-2.16a32.39,32.39,0,0,0-7.91,2.16C482.72,467.68,487.75,471.28,489.19,471.28Zm-5,144.59c1.44,0,1.44-3.59,0-3.59S482.72,615.87,484.16,615.87Zm2.15-15.11a1.08,1.08,0,1,0,0-2.15C485.6,598.61,485.6,600.76,486.31,600.76Zm2.88-163.29c1.44,0,1.44-3.6,0-3.6S487.75,437.47,489.19,437.47Zm2.16,69.06h1.44c2.88,0,5-3.6,6.48-6.48h-7.92l2.88,2.88Zm2.88,71.21c1.44,0,1.44-2.87,0-2.87S492.79,577.74,494.23,577.74Zm0,13h2.88l-2.88-2.88Zm2.88-149.64c.72,0,.72-3.59,0-3.59C495.67,437.47,495.67,441.06,497.11,441.06Zm0-22.29c.72,1.43,3.6-1.44,2.16-3.6C497.83,413.73,495.67,417.33,497.11,418.77Zm2.16,153.94a1.45,1.45,0,1,0,2.87,0C502.14,572,499.27,572,499.27,572.71Zm2.87,28a1.08,1.08,0,1,0,0-2.15A1.08,1.08,0,0,0,502.14,600.76Zm2.16,29.5c1.44,0,1.44-2.88,0-2.88C503.58,627.38,503.58,630.26,504.3,630.26Zm2.88-23.74a1.08,1.08,0,1,0,0-2.16A1.08,1.08,0,0,0,507.18,606.52Zm0,41a1.08,1.08,0,1,0,0-2.16A1.08,1.08,0,1,0,507.18,647.53Zm2.15-59.71c1.44,0,1.44-2.88,0-2.88C508.62,584.94,508.62,587.82,509.33,587.82Zm0,10.79v.72l2.88-5.76C509.33,595,509.33,596.45,509.33,598.61Zm2.88-41c1.44,0,1.44-3.59,0-3.59S510.77,557.6,512.21,557.6Zm0,12.95c5-3.6,15.11-7.19,18.71-9.35L528,546.81h-.72c-5,0-10.07,7.2-10.07,7.2h7.19c-5.75,1.44-2.88,9.35-12.23,9.35ZM522.29,595c2.15,0,2.15-2.16,0-2.16A1.08,1.08,0,1,0,522.29,595Zm0-223h3.59V360.5Zm3.59,281.28a1.08,1.08,0,1,0,0-2.16A1.08,1.08,0,1,0,525.88,653.28Zm7.2-39.56a1.09,1.09,0,0,0,0-2.17C532.35,611.55,532.35,613.72,533.08,613.72ZM536,523.79c1.44,0,1.44-3.59,0-3.59S534.52,523.79,536,523.79Zm0,95c1.44,0,1.44-2.88,0-2.88S534.52,618.75,536,618.75ZM538.83,572c.72,0,.72-2.87,0-2.87C537.39,569.12,537.39,572,538.83,572Zm0-39.56H541l-2.16-2.88Zm5,33.81c.71,0,.71-2.88,0-2.88C542.43,563.36,542.43,566.24,543.87,566.24ZM546,317.33c1.44,0,1.44-2.87,0-2.87S544.58,317.33,546,317.33Zm0,15.11c1.44,0,1.44-3.6,0-3.6S544.58,332.44,546,332.44Zm2.88,2.16a1.08,1.08,0,0,0,0-2.16A1.08,1.08,0,0,0,548.9,334.6Zm2.16,264c1.44,0,1.44-3.6,0-3.6C550.34,595,550.34,598.61,551.06,598.61Zm10.79-292.79c0-1.44,0-7.19-2.88-7.19-1.43,0-5,1.44-5,2.87C555.37,305.82,560.41,305.82,561.85,305.82Zm-7.91,48.92,5-3.6-5-5.75Zm2.16,23,2.87-3.6-5-2.16v1.44C553.94,374.16,553.94,375.6,556.1,377.76ZM559,334.6a1.08,1.08,0,1,0,0-2.16A1.08,1.08,0,0,0,559,334.6Zm0,166.89a1.08,1.08,0,0,0,0-2.16A1.08,1.08,0,0,0,559,501.49Zm5-58.27a1.08,1.08,0,0,0,0-2.16A1.08,1.08,0,0,0,564,443.22ZM574.8,342.51c1.44,0,11.51-4.32,13-5.76h-5c1.44-.71,5-4.31,5-5.75,0-2.16-1.44-5.75-2.16-5.75l-18.7,8.63C566.89,334.6,574.08,342.51,574.8,342.51ZM569,385c1.44,0,1.44-3.61,0-3.61S567.6,385,569,385Zm0,80.56h3.6v-5.75C569,460.49,569,461.93,569,465.52Zm3.6-74.81c1.44,0,1.44-3.6,0-3.6C570.48,387.11,570.48,390.71,572.64,390.71Zm0,64a1.08,1.08,0,1,0,0-2.15C570.48,452.58,570.48,454.73,572.64,454.73Zm.72-127.33c4.32-3.59,7.91-1.44,9.35-7.91h-2.88Zm1.44,74.82a1.08,1.08,0,0,0,0-2.16C574.08,400.06,574.08,402.22,574.8,402.22Zm0,5.75a1.08,1.08,0,0,0,0-2.16C574.08,405.81,574.08,408,574.8,408Zm0-59.7c1.44,1.44,4.32-1.44,2.88-2.88S574.08,346.83,574.8,348.27Zm0,119.41a1.45,1.45,0,1,0,2.88,0C577.68,467,574.8,467,574.8,467.68Zm2.88-130.93c-1.44,0-1.44-2.87,0-2.87S579.12,336.75,577.68,336.75Zm0,118a1.08,1.08,0,1,0,0-2.15A1.08,1.08,0,1,0,577.68,454.73Zm0,175.53c1.44,0,1.44-2.88,0-2.88S576.24,630.26,577.68,630.26Zm0-425.15h87.76c-1.44-9.35-14.39,3.6-18-9.35l2.88-2.16c-1.44-1.44-10.79-2.88-12.94-2.88-2.88,0-6.48,2.88-7.92,5v-3.6h-7.91v-1.44c-7.92,0-17.27,8.64-25.9,8.64v-3.6C592.06,200.8,574.8,195,577.68,205.11Zm0,242.43h18l2.16-2.88c-3.6,2.16-7.2,0-10.07-2.87l5-5.76-2.17-2.88Zm2.15,138.84c1.44,0,1.44-2.88,0-2.88C579.12,583.5,579.12,586.38,579.83,586.38Zm0-184.16v7.19h5C582,408.69,580.56,405.81,579.83,402.22Zm0,69.06c0,1.44,2.88,1.44,2.88,0S579.83,469.84,579.83,471.28Zm2.88-103.59c1.44,0,1.44-3.6,0-3.6S581.27,367.69,582.71,367.69Zm0,253.94c1.44,0,1.44-2.88,0-2.88S581.27,621.63,582.71,621.63Zm0-42.45h2.88v-2.87Zm2.88-99.27c2.16-1.44,2.16-2.87,2.16-6.48h-2.16Zm2.16-102.15h2.87v-3.6h-2.87Zm2.87-58.27h13l-2.88-3.6c6.47-1.43,12.94-5.75,12.94-14.39v-2.87C603.58,302.94,597.82,313.73,590.62,319.49Zm2.17-127.33c1.43,0,1.43-3.59,0-3.59C592.06,188.57,592.06,192.16,592.79,192.16Zm0,170.49,5-2.15h-.72A4.3,4.3,0,0,0,592.79,362.65Zm10.79,271.92v-7.91c-2.88.72-6.48,2.16-7.92,5.76C597.82,633.14,600.7,634.57,603.58,634.57Zm-5.76-405a1.08,1.08,0,1,0,0-2.16C597.1,227.41,597.1,229.57,597.82,229.57ZM610.05,426c18.7,0,46.76-2.88,58.27-3.6V410.85c0-10.79-25.18-77.69-30.22-77.69-20.14,0-39.56,66.18-39.56,82C598.54,423.08,603.58,426,610.05,426Zm-9.35-61.87c1.44,0,1.44-2.88,0-2.88S599.26,364.09,600.7,364.09Zm0-129.48h5v-2.88Zm2.88,361.84h2.15v-2.88h-2.15Zm2.15-245.31h5l-5-2.87Zm5,125.9c1.44,0,2.87-1.44,2.87-3.61-4.31-.71-7.91-6.47-5-11.5-2.88,3.59-2.88,5.75-2.88,9.35C605.73,475.6,605.73,477,610.77,477Zm-5,171.93a3.1,3.1,0,0,0,2.88-2.88c0-.72-1.44-5.76-2.88-5.76Zm2.88-192.8h5c3.6,0,15.83-11.51,15.83-17.26,0-1.44-1.44-2.88-2.16-2.88Zm2.16-116.54c1.44,2.16,6.47,2.16,7.91,0C620.84,338.19,609.33,338.19,610.77,339.63Zm5-28.05c1.43,0,1.43-2.88,0-2.88C615.08,308.7,615.08,311.58,615.81,311.58Zm5.75,148.19c1.44.72,4.31-1.44,2.87-3.6C623,454.73,620.84,458.33,621.56,459.77Zm2.87-168.33c1.44,0,1.44-3.6,0-3.6S623,291.44,624.43,291.44Zm2.88,197.1h5v-2.88C629.47,485.66,628,485.66,627.31,488.54Zm2.16-235.23c1.44,0,1.44-2.88,0-2.88S628,253.31,629.47,253.31Zm5,187.75c1.44,0,1.44-3.59,0-3.59S633.07,441.06,634.51,441.06Zm0,38.85c1.44,1.44,4.32-1.44,2.88-2.87S633.07,478.47,634.51,479.91Zm2.88-23.74V454h-2.88Zm0-258.25c-1.44,0-1.44-2.88,0-2.88S638.83,197.92,637.39,197.92Zm5,3.59c-1.44,2.16-1.44-6.47,0-5.75C643.86,197.92,643.86,200.8,642.42,201.51Zm0,246c1.44,1.44,3.6-.72,2.16-2.88C643.86,443.22,641,446.82,642.42,447.54Zm10.07-15.83c1.44,0,1.44-3.59,0-3.59S651.05,431.71,652.49,431.71Zm5,36c1.44-.72,1.44-3.6,0-5.75C656.09,460.49,656.09,469.84,657.53,467.68Zm5,111.5v-6.47h-5C657.53,576.31,660.41,579.18,662.56,579.18Zm-5,47.48H659c5,0,12.23-3.59,12.23-9.35v-3.59Zm7.91-292.78c0,.72,2.16.72,2.16,0A1.08,1.08,0,1,0,665.44,333.88Zm2.16-98.56c2.16,0,2.16-2.15,0-2.15C666.88,233.17,666.88,235.32,667.6,235.32Zm3.6-34.52c1.44,0,1.44-2.88,0-2.88S669.76,200.8,671.2,200.8Zm2.87,392.77V590.7H671.2Zm0-392.06h5v-2.15Zm2.16,40.29c1.44,0,1.44-2.88,0-2.88S674.79,241.8,676.23,241.8Zm0,66.9c1.44,0,1.44-2.88,0-2.88S674.79,308.7,676.23,308.7Zm0,25.18c1.44,1.43,5,7.91,7.91,7.91v-7.91Zm5,253.94c1.43,1.44,4.31-1.44,2.87-2.88S680.55,586.38,681.27,587.82Zm2.87-358.25a1.08,1.08,0,1,0,0-2.16A1.08,1.08,0,0,0,684.14,229.57Zm0,9.35c1.44,0,1.44-3.6,0-3.6S682.7,238.92,684.14,238.92Zm0-33.81a1.08,1.08,0,1,0,2.16,0A1.08,1.08,0,1,0,684.14,205.11Zm5,24.46a1.08,1.08,0,1,0,0-2.16A1.08,1.08,0,0,0,689.18,229.57Zm0,101.43h5v-2.88Zm0,8.63c2.88,0,5-1.44,7.91-2.88h-7.91Zm2.88-133.08c2.16,0,11.51-1.44,12.23-1.44,1.43,0,2.87-1.44,2.87-3.6h-15.1Zm2.16,409.32c1.44,0,1.44-3.59,0-3.59S692.78,615.87,694.22,615.87Zm2.87,2.88c.72,0,.72-2.88,0-2.88C695.66,615.87,695.66,618.75,697.09,618.75Zm0,5.76c.72,0,.72-2.88,0-2.88C695.66,621.63,695.66,624.51,697.09,624.51Zm2.16-365.45c1.44,0,1.44-2.87,0-2.87S697.81,259.06,699.25,259.06Zm0,60.43h2.88c7.19,0,20.86-5.76,20.86-16.55v-4.31C712.2,302.94,707.16,313.73,699.25,319.49Zm5,273.36c1.43,0,1.43-3.59,0-3.59C703.57,589.26,703.57,592.85,704.29,592.85Zm0,40.29c1.43,0,1.43-2.88,0-2.88C703.57,630.26,703.57,633.14,704.29,633.14Zm0-381.27a15.93,15.93,0,0,0,10.79-11.51Zm7.91,344.58v-8.63l-5,5.75C708.6,596.45,709.32,596.45,712.2,596.45Zm-2.88-340.26c1.44,0,1.44-2.88,0-2.88C708.6,253.31,708.6,256.19,709.32,256.19Zm0,356.09a1.08,1.08,0,0,0,0-2.16C708.6,610.12,708.6,612.28,709.32,612.28Zm0,38.84c1.44,0,1.44-3.59,0-3.59C708.6,647.53,708.6,651.12,709.32,651.12Zm0-331.63c0,1.44,2.88,1.44,2.88,0A1.45,1.45,0,1,0,709.32,319.49Zm2.88-28.05c1.44,0,1.44-3.6,0-3.6S710.76,291.44,712.2,291.44Zm2.88-10.08c1.43-1.44,5.75-7.19,5.75-8.63v-3.6l-8.63,9.35ZM712.2,579.18h2.88v-6.47C712.2,574.87,712.2,576.31,712.2,579.18Zm2.88-361.12a1.08,1.08,0,0,0,0-2.16A1.08,1.08,0,0,0,715.08,218.06Zm0-16.55h1.43a4.32,4.32,0,0,0,4.32-2.15Zm2.87,25.9c1.44,0,1.44-3.6,0-3.6S716.51,227.41,718,227.41Zm0,20.14c1.44,0,1.44-2.88,0-2.88S716.51,247.55,718,247.55Zm0,336c1.44,0,1.44-2.88,0-2.88S716.51,583.5,718,583.5Zm0-63.3h7.92c-2.88-.73-4.32-2.16-6.48-2.16H718Zm2.88-290.63c.72,0,.72-2.16,0-2.16A1.08,1.08,0,0,0,720.83,229.57Zm0,31.65c.72,0,.72-3.59,0-3.59C719.39,257.63,719.39,261.22,720.83,261.22Zm0,20.86c.72,0,.72-2.16,0-2.16A1.08,1.08,0,0,0,720.83,282.08Zm0,5.76c.72,0,.72-2.16,0-2.16A1.08,1.08,0,0,0,720.83,287.84Zm0,51.79c.72,2.16,6.48,2.16,7.2,0C729.47,338.19,719.39,338.19,720.83,339.63Zm3.6-99.27h1.44c-1.44-2.88-2.88-2.88-4.32-2.88h-.72C721.55,240.36,723,240.36,724.43,240.36ZM723,291.44c1.44,0,1.44-3.6,0-3.6S721.55,291.44,723,291.44Zm0,315.08a1.08,1.08,0,0,0,0-2.16A1.08,1.08,0,1,0,723,606.52Zm0,46.76a1.08,1.08,0,0,0,0-2.16A1.08,1.08,0,0,0,723,653.28Zm0-448.17h28.06c-.72-5.75-12.23-1.44-12.23-1.44v-4.31C733.06,203.67,728,200.8,723,205.11ZM723,554v1.44c4.32-2.16,9.35-3.6,13-3.6,0-2.16-2.88-7.92-2.88-7.92C732.34,543.93,723,549.69,723,554Zm2.88-306.46c1.44,0,1.44-2.88,0-2.88S724.43,247.55,725.87,247.55Zm0,64c1.44,0,1.44-2.88,0-2.88S724.43,311.58,725.87,311.58Zm0,336a1.08,1.08,0,0,0,0-2.16A1.08,1.08,0,0,0,725.87,647.53Zm1.44-37.41c5.75,0,10.07-10.79,11.51-16.55h-1.44C734.5,593.57,727.31,606.52,727.31,610.12Zm.72,20.14c2.15-1.44,5-1.44,7.91-1.44V609.4a8.44,8.44,0,0,1-7.91,6.47Zm0,10.07c2.88,0,5-.72,5-4.32v-1.44Zm2.88,14.39,5-5.75L728,652.56Zm0-410.05c1.43,0,1.43-2.87,0-2.87S729.47,244.67,730.91,244.67Zm2.15,340.27v-2.88h-2.15Zm0-293.5c1.44,0,1.44-3.6,0-3.6C732.34,287.84,732.34,291.44,733.06,291.44Zm0,331.63c-.72,0-.72-3.6,0-3.6C734.5,619.47,734.5,623.07,733.06,623.07Zm2.88-302.14c1.44,0,1.44-3.6,0-3.6S734.5,320.93,735.94,320.93Zm0,268.33c1.44,0,1.44-2.88,0-2.88S734.5,589.26,735.94,589.26Zm0-343.15h2.88c.71,0,5.75-4.31,7.19-5.75h-2.16C742.41,240.36,737.38,244.67,735.94,246.11Zm2.88,7.2c.71,0,.71-2.88,0-2.88C737.38,250.43,737.38,253.31,738.82,253.31Zm0,386.3c.71,0,.71-3.6,0-3.6C737.38,636,737.38,639.61,738.82,639.61Zm0-37.41c.71,2.16,3.59-1.44,2.15-2.87C739.53,598.61,737.38,600.76,738.82,602.2Zm2.15-64h2.88c3.6-2.88,7.2-18,7.2-18h-.72c-1.44,0-2.88,0-4.32,3.59-1.44-4.32-5-4.32-7.19-4.32A74.18,74.18,0,0,0,741,538.18Zm-2.15,114.38h.71c4.32,0,7.92-3.59,9.36-6.47h-5v-5.76ZM741,564.8c1.44,0,1.44-3.6,0-3.6S739.53,564.8,741,564.8Zm0,59.71c1.44,0,1.44-2.88,0-2.88S739.53,624.51,741,624.51Zm2.88-90.64c-1.44,0-1.44-2.88,0-2.88C744.57,531,744.57,533.87,743.85,533.87Zm0,96.39c.72,0,.72-2.88,0-2.88C742.41,627.38,742.41,630.26,743.85,630.26Zm2.16-29.5a1.08,1.08,0,1,0,0-2.15A1.08,1.08,0,1,0,746,600.76Zm5-345.3v-2.15a4.31,4.31,0,0,0-2.16-4.32s12.23-18,20.14-20.14c-2.16-.72-6.48-2.88-7.19-2.88H760.4c-4.32,0-9.35,5.76-11.51,8.64,1.44.71,2.16,4.31,5,2.87-1.44,1.44-6.48,10.07-7.92,11.51v1.44A5.4,5.4,0,0,0,751.05,255.46Zm-2.16,348.9c1.44,0,1.44-3.6,0-3.6S747.45,604.36,748.89,604.36Zm0,48.92a1.08,1.08,0,0,0,0-2.16A1.08,1.08,0,1,0,748.89,653.28ZM764,301.5c-3.59,7.92-8.63,15.11-15.1,18h2.16c6.47,0,11.5-5.76,16.54-11.51A8.58,8.58,0,0,1,764,301.5Zm-15.1,330.92h2.16v-3.6ZM751.05,572c1.44,0,1.44-2.87,0-2.87C750.33,569.12,750.33,572,751.05,572Zm0,52.52c1.44,0,1.44-2.88,0-2.88C750.33,621.63,750.33,624.51,751.05,624.51Zm2.88-48.2c1.43,0,1.43-3.6,0-3.6S752.49,576.31,753.93,576.31Zm0,42.44c1.43,0,1.43-2.88,0-2.88S752.49,618.75,753.93,618.75Zm2.15-400.69a1.08,1.08,0,0,0,0-2.16C755.36,215.9,755.36,218.06,756.08,218.06Zm0,29.49c1.44,0,1.44-2.88,0-2.88C755.36,244.67,755.36,247.55,756.08,247.55Zm0,64c1.44,0,1.44-2.88,0-2.88C755.36,308.7,755.36,311.58,756.08,311.58Zm0,315.8c1.44,0,1.44-2.87,0-2.87C755.36,624.51,755.36,627.38,756.08,627.38Zm0-425.87v7.2c4.32-2.16,2.88-7.2,2.88-9.35V193.6C755.36,195,756.08,199.36,756.08,201.51ZM759,577.74c1.44,0,1.44-2.87,0-2.87S757.52,577.74,759,577.74Zm2.88-338.82c.71,0,.71-3.6,0-3.6C760.4,235.32,760.4,238.92,761.84,238.92Zm0,8.63c.71,0,.71-2.88,0-2.88C760.4,244.67,760.4,247.55,761.84,247.55Zm2.88,1.44c0,1.44,2.87,1.44,2.87,0S764.72,247.55,764.72,249Zm2.87,64.74h.72c1.44,0,2.88,0,4.32-3.59Zm2.16-43.16a1.08,1.08,0,1,0,0-2.15A1.08,1.08,0,1,0,769.75,270.57Zm2.88-46.76a1.08,1.08,0,1,0,0-2.16A1.08,1.08,0,1,0,772.63,223.81Zm0,16.55c1.44-1.44,1.44-5,0-5.75C771.19,233.17,771.19,241.8,772.63,240.36Zm0,7.19c1.44,0,1.44-2.88,0-2.88S771.19,247.55,772.63,247.55Zm0,392.06c1.44,0,1.44-3.6,0-3.6S771.19,639.61,772.63,639.61ZM774.78,531c1.44,0,1.44-2.88,0-2.88C774.07,528.11,774.07,531,774.78,531Zm2.88,87.76c1.44,0,1.44-2.88,0-2.88S776.22,618.75,777.66,618.75Zm0-346c0,1.44,2.88,1.44,2.88,0A1.45,1.45,0,1,0,777.66,272.73Zm7.91,36c.73,0,.73-2.88,0-2.88C784.14,305.82,784.14,308.7,785.57,308.7Zm10.08,14.39a1.08,1.08,0,1,0,0-2.16A1.08,1.08,0,0,0,795.65,323.09Zm0,287c1.44,0,1.44-3.6,0-3.6S794.21,610.12,795.65,610.12Zm2.15-283.43c1.44,0,1.44-3.6,0-3.6C797.09,323.09,797.09,326.69,797.8,326.69Zm0,5.75c1.44,0,1.44-3.6,0-3.6C797.09,328.84,797.09,332.44,797.8,332.44Zm0,73.37c1.44,0,1.44-3.59,0-3.59C797.09,402.22,797.09,405.81,797.8,405.81Zm0,64c1.44,0,1.44-2.88,0-2.88C797.09,467,797.09,469.84,797.8,469.84Zm0,166.17c1.44,0,1.44-2.87,0-2.87C797.09,633.14,797.09,636,797.8,636Zm2.88-25.89c1.44,0,1.44-3.6,0-3.6S799.24,610.12,800.68,610.12ZM803.56,467c.72,0,.72-2.88,0-2.88C802.12,464.08,802.12,467,803.56,467Zm10.79-127.33c1.44,0,1.44-2.88,0-2.88S812.91,339.63,814.35,339.63Zm0,144.6c1.44,0,1.44-2.88,0-2.88S812.91,484.23,814.35,484.23Zm2.16-97.12a1.08,1.08,0,1,0,0-2.15C815.79,385,815.79,387.11,816.51,387.11Zm0,65.47c1.44,0,1.44-3.6,0-3.6C815.79,449,815.79,452.58,816.51,452.58Zm0,37.4c1.44,0,1.44-2.88,0-2.88C815.79,487.1,815.79,490,816.51,490Zm0-77h2.88c2.16,0,3.6,0,5-3.6Zm2.88-31.66a1.08,1.08,0,0,0,0-2.15A1.08,1.08,0,1,0,819.39,381.35Zm0,25.9h2.16v-3.59Zm10.07,31.66c-1.44,2.15-5.76,7.91-7.91,8.63H823c6.47,0,14.38-6.48,16.54-11.51l-2.16-2.88S832.34,437.47,829.46,438.91Zm-5,214.37a1.08,1.08,0,1,0,0-2.16A1.08,1.08,0,0,0,824.42,653.28Zm0-129.49,7.92-3.59h-2.88C827.3,520.2,825.86,520.2,824.42,523.79Zm2.88-123.73c.72,0,.72-3.6,0-3.6C825.86,396.46,825.86,400.06,827.3,400.06Zm0,17.27c.72,0,.72-3.6,0-3.6C825.86,413.73,825.86,417.33,827.3,417.33Zm0-36.69,5-2.88c-2.88-2.16-2.88-3.6-2.88-5.76H827.3Zm2.16,30.93c1.44,0,1.44-3.6,0-3.6S828,411.57,829.46,411.57Zm0,41c1.44,0,1.44-3.6,0-3.6S828,452.58,829.46,452.58Zm2.88-71.23c.71,0,.71-2.15,0-2.15A1.08,1.08,0,1,0,832.34,381.35ZM834.49,449a1.08,1.08,0,0,0,0-2.16A1.08,1.08,0,1,0,834.49,449Zm0,11.51a1.08,1.08,0,0,0,0-2.16A1.08,1.08,0,0,0,834.49,460.49Zm0-46.76v1.44l5-5.76h-.72A4.15,4.15,0,0,0,834.49,413.73Zm2.88-7.92c1.44,0,1.44-3.59,0-3.59S835.93,405.81,837.37,405.81Zm0,71.23a1.08,1.08,0,0,0,2.16,0A1.08,1.08,0,0,0,837.37,477Zm2.16-49.65c1.44,0,1.44-2.87,0-2.87C838.81,424.52,838.81,427.39,839.53,427.39Zm2.88,212.94a1.08,1.08,0,0,0,0-2.16A1.08,1.08,0,1,0,842.41,640.33Zm0-210.06h1.43c.73,0,2.17,0,3.6-2.88ZM844.57,490c1.44,0,1.44-2.88,0-2.88C843.84,487.1,843.84,490,844.57,490Zm2.87-56.83c0,.72,2.88.72,2.88,0C850.32,431.71,847.44,431.71,847.44,433.15Zm0,58.27h2.88v-2.88Zm2.88,161.86c.72,0,.72-2.16,0-2.16A1.08,1.08,0,1,0,850.32,653.28Zm5-200.7c.71,0,.71-3.6,0-3.6C853.92,449,853.92,452.58,855.36,452.58Zm7.91,200a8,8,0,0,0,5.76,0C869.74,651.12,862.55,651.12,863.27,652.56Zm13-9.35h1.43c1.44,0,2.88,0,3.6-2.88Zm12.95-116.54h-2.88C871.9,533.14,879.09,536.74,889.17,526.67Zm-7.92,20.14c0,1.44,2.88,1.44,2.88,0C884.13,546.09,881.25,546.09,881.25,546.81Zm2.88-24.46c1.44,0,1.44-2.88,0-2.88S882.69,522.35,884.13,522.35Zm2.16,20.14a1.08,1.08,0,1,0,0-2.15C885.57,540.34,885.57,542.49,886.29,542.49Zm0,110.79a1.08,1.08,0,1,0,0-2.16C885.57,651.12,885.57,653.28,886.29,653.28Zm2.88-119.41c1.44,0,1.44-2.88,0-2.88S887.73,533.87,889.17,533.87Zm0,104.3c1.44,0,1.44-3.6,0-3.6S887.73,638.17,889.17,638.17Zm5,1.44c1.44,0,1.44-3.6,0-3.6S892.76,639.61,894.2,639.61Zm0,5.76c1.44,0,1.44-3.6,0-3.6S892.76,645.37,894.2,645.37Zm5,7.91a1.08,1.08,0,0,0,0-2.16A1.08,1.08,0,0,0,899.24,653.28Zm7.91-84.16a1.45,1.45,0,1,0,0-2.88C905.71,566.24,905.71,569.12,907.15,569.12Zm0,72.65c2.16,0,2.16-2.16,0-2.16A1.08,1.08,0,0,0,907.15,641.77Zm0,5.76c2.16,0,2.16-2.16,0-2.16A1.08,1.08,0,1,0,907.15,647.53ZM910,584.94v-5.76l-2.88,2.88Zm5.75,25.18c.72,0,.72-3.6,0-3.6C914.34,606.52,914.34,610.12,915.78,610.12Zm5-23.74c.72,0,.72-2.88,0-2.88C919.38,583.5,919.38,586.38,920.82,586.38Zm0-13.67c0,2.16,2.16,2.16,2.16,0C923,572,920.82,572,920.82,572.71Zm5,10.79c1.43,0,1.43-2.88,0-2.88S924.42,583.5,925.86,583.5Zm5-1.44v-9.35l-5,3.6Zm0,35.25a1.08,1.08,0,1,0,2.16,0A1.08,1.08,0,0,0,930.89,617.31Zm2.16-24.46c1.44,0,1.44-3.59,0-3.59C932.33,589.26,932.33,592.85,933.05,592.85Zm0,54.68a1.08,1.08,0,0,0,0-2.16C932.33,645.37,932.33,647.53,933.05,647.53Zm0-15.11h1.44c4.31,0,6.47-5.76,10.07-5.76H946l-2.16,2.16c.72,0,6.47,3.6,7.19,3.6h2.88c1.44,0,5.76-5,5.76-5.76l-5.76,2.16v-2.16c0-7.19,7.2-7.91,7.2-15.11-2.88,0-5.76,0-7.2-3.59-2.88,2.16-3.6,5.76-5,9.35L946,613.72C941,618.75,938.8,627.38,933.05,632.42Zm5.75,18.7c.72,0,.72-3.59,0-3.59C937.36,647.53,937.36,651.12,938.8,651.12Zm0-37.4c.72,2.15,3.6-1.44,2.16-2.17A1.53,1.53,0,0,0,938.8,613.72Zm5,32.37h.72c1.44,0,4.32,0,4.32-2.88,0-1.44-1.44-5-2.88-5ZM946,606.52a1.08,1.08,0,1,0,0-2.16A1.08,1.08,0,0,0,946,606.52Zm0-10.07h2.88c2.15,0,5-1.44,5-5.75Zm2.88-13c1.43,0,1.43-2.88,0-2.88S947.44,583.5,948.88,583.5Zm5,17.26a1.08,1.08,0,1,0,0-2.15A1.08,1.08,0,1,0,953.91,600.76Zm0,18c-1.44,0-1.44-2.88,0-2.88S955.35,618.75,953.91,618.75Zm0,20.86c1.44,0,1.44-3.6,0-3.6S952.47,639.61,953.91,639.61Zm5.76-35.25c1.44,0,1.44-3.6,0-3.6S958.23,604.36,959.67,604.36Zm0,43.17a1.08,1.08,0,1,0,0-2.16A1.08,1.08,0,1,0,959.67,647.53Z"/><path class="cls-1" d="M147.15,1404.07c0-10.08,3.89-14.39,12.95-14.39h1.3c8.42,0,12.31-3.6,13-13,0-4.31,2.59-107.9,2.59-154.65v-115.8l-2.59-4.32H160.1c-9.06,0-13.6-4.31-12.95-14.38l1.94-72.65c0-10.07,4.53-13.67,13.61-14.39L234,998.39c9.06,0,12.95,3.59,12.95,13.66v75.53c0,10.07-3.89,14.38-12.95,14.38h-9.73v123c10.37-13.67,52.48-109.33,52.48-118.68.65-2.88-7.77-5-11-4.32-5.83-2.16-8.42-7.19-8.42-15.82v-85.6l1.94-2.88H269.6c49.24,0,77.09-3.59,77.09,17.27v85.59c-3.88.72-16.84,5.76-27.21,5.76-14.9,31.65-32.39,67.61-44.7,102.14v2.87l49.88,163.28c.66,2.88,2.6,8.64,2.6,7.92,0,1.43,6.48,7.19,19.43,7.19,9.08,0,13,4.31,13,14.39v75.52c0,10.07-3.88,14.39-13,14.39H270.24c-9.06,0-12.95-4.32-12.95-89.91,0-7.2,3-12.65,7.77-14.39s9.07-3.6,9.07-10.07c0-12.23-9.07-38.12-24.62-99.26h-1.3c-7.77,0-16.84,40.28-24,50.34v46c0,9.35,3.25,13.67,10.37,14.39h1.3c7.77.72,11,5.75,11,14.39v71.2c0,2.88,8.42,16.55-36.28,16.55-41.46,0-63.49,3.59-63.49-16.55Zm18.79-381.23a1.47,1.47,0,0,0,1.29,1.44c.65,0,.65-.72.65-1.44s0-1.44-.65-1.44A1.47,1.47,0,0,0,165.94,1022.84Zm2.59,5.76a1.49,1.49,0,0,0,1.29,1.44c.65,0,.65-.73.65-1.44s0-1.44-.65-1.44A1.47,1.47,0,0,0,168.53,1028.6Zm14.9,36h3.88v-11.51C183.43,1054.49,183.43,1063.12,183.43,1064.56Zm9.72,141a1.47,1.47,0,0,0,1.29,1.44c.65,0,.65-.72.65-1.44s0-1.44-.65-1.44A1.47,1.47,0,0,0,193.15,1205.54Zm0,86.31a1.46,1.46,0,0,0,1.29,1.44c.65,0,.65-.71.65-1.44s0-1.43-.65-1.43A1.47,1.47,0,0,0,193.15,1291.85Zm1.29-135.94h1.3c3.89,0,9.07-10.07,9.07-11.51Zm1.3,110.77a1.48,1.48,0,0,0,1.29,1.44c.65,0,.65-.72.65-1.44s0-1.44-.65-1.44A1.48,1.48,0,0,0,195.74,1266.68Zm0,30.21a1.48,1.48,0,0,0,1.29,1.44c.65,0,.65-.72.65-1.44s0-1.43-.65-1.43A1.47,1.47,0,0,0,195.74,1296.89ZM197,1081.82v5h17.49c-3.23-2.16-3.88-2.88-5.18-2.88h-4.53v-2.16c-.65,1.44-3.89,2.16-5.18,2.16A2.33,2.33,0,0,1,197,1081.82Zm1.3,207.16a1.48,1.48,0,0,0,1.3,1.44c.64,0,.64-.72.64-1.44s0-1.44-.64-1.44A1.48,1.48,0,0,0,198.33,1289Zm6.48-69.78v-.71c0-2.88-2.59-4.32-5.18-4.32v1.44C199.63,1218.49,202.22,1219.2,204.81,1219.2Zm-3.89-196.36a1.48,1.48,0,0,0,1.3,1.44c.64,0,.64-.72.64-1.44s0-1.44-.64-1.44A1.48,1.48,0,0,0,200.92,1022.84Zm0,221.54a1.48,1.48,0,0,0,1.3,1.44c.64,0,.64-.72.64-1.44s0-1.44-.64-1.44A1.48,1.48,0,0,0,200.92,1244.38Zm3.89,107.9v-10.79h-2.59Zm-1.3-200.69a1.47,1.47,0,0,0,1.3,1.44c.65,0,.65-.71.65-1.44s0-1.44-.65-1.44A1.49,1.49,0,0,0,203.51,1151.59Zm0,79.13a1.49,1.49,0,0,0,1.3,1.44c.65,0,.65-.73.65-1.44s0-1.44-.65-1.44A1.48,1.48,0,0,0,203.51,1230.72Zm11-163.28h5.19c-1.29-2.88-2.59-2.88-14.9-2.88h9.71Zm-8.42-41.72c0,.72,0,1.44.65,1.44s.65-.72.65-1.44,0-1.44-.65-1.44S206.1,1025,206.1,1025.72Zm2,5.75a2.21,2.21,0,0,0,1.29.72c.65,0,.65-.72.65-.72,0-.72,0-1.43-.65-1.43A1.47,1.47,0,0,0,208.05,1031.47Zm2.59,5a1.47,1.47,0,0,0,1.3,1.44c.64,0,.64-.71.64-1.44s0-1.43-.64-1.43A1.48,1.48,0,0,0,210.64,1036.5Zm0,25.18a1.48,1.48,0,0,0,1.3,1.44c.64,0,.64-.72.64-1.44s0-1.43-.64-1.43A1.47,1.47,0,0,0,210.64,1061.68Zm0,16.55a1.49,1.49,0,0,0,1.3,1.44c.64,0,.64-.73.64-1.44s0-1.44-.64-1.44A1.47,1.47,0,0,0,210.64,1078.23Zm1.3-33.09h5.18v-2.88C214.52,1042.26,213.23,1042.26,211.94,1045.14ZM221,1253a1.48,1.48,0,0,0,1.3,1.43c.65,0,.65-.72.65-1.43s0-1.44-.65-1.44A1.47,1.47,0,0,0,221,1253Zm4.54-180.55a1.48,1.48,0,0,0,1.3,1.44c.65,0,.65-.72.65-1.44s0-1.44-.65-1.44A1.48,1.48,0,0,0,225.54,1072.47Zm2.59,2.88a1.48,1.48,0,0,0,1.3,1.44c.65,0,.65-.72.65-1.44s0-1.44-.65-1.44A1.48,1.48,0,0,0,228.13,1075.35Zm13,183.42s0,.72.65.72.65-.72.65-.72c0-.72,0-1.44-.65-1.44S241.09,1258.05,241.09,1258.77Zm11-39.57h2.6l-2.6-7.91Zm5.84-24.45a1.47,1.47,0,0,0,1.29,1.44c.65,0,.65-.72.65-1.44s0-1.44-.65-1.44A1.47,1.47,0,0,0,257.94,1194.75Zm3.88,58.27h2.6V1241.5h-2.6ZM265.71,1102a2.25,2.25,0,0,1,2,.72C267,1102.68,266.36,1102,265.71,1102Zm0,173.35a2.21,2.21,0,0,0,1.29.72c.66,0,.66-.72.66-.72,0-.72,0-1.44-.66-1.44A1.48,1.48,0,0,0,265.71,1275.31Zm2-172.63h0Zm12.95,39.56a1.48,1.48,0,0,0,1.3,1.44c.64,0,.64-.72.64-1.44s0-1.44-.64-1.44A1.49,1.49,0,0,0,280.61,1142.24Zm1.3-61.14h5.18s2.59-10.07,2.59-13.66v-2.88S281.91,1078.23,281.91,1081.1Zm6.48,2.88a1.47,1.47,0,0,0,1.29,1.44c.65,0,.65-.72.65-1.44s0-1.44-.65-1.44A1.47,1.47,0,0,0,288.39,1084Zm2.59-25.17a1.49,1.49,0,0,0,1.29,1.44,2.65,2.65,0,0,0,.65-1.44,2.56,2.56,0,0,0-.65-1.44A1.47,1.47,0,0,0,291,1058.81Zm0,28a2.21,2.21,0,0,0,1.29.72l.65-.72a2.6,2.6,0,0,0-.65-1.44A1.48,1.48,0,0,0,291,1086.86Zm5.83-30.93v-5.76l-2.6,2.88Zm-1.3,51.78a2.21,2.21,0,0,0,1.3.73c.64,0,.64-.73.64-.73,0-.71,0-1.43-.64-1.43A1.48,1.48,0,0,0,295.51,1107.71Zm2.6-7.19a1.47,1.47,0,0,0,1.29,1.44c.65,0,.65-.72.65-1.44s0-1.43-.65-1.43A1.46,1.46,0,0,0,298.11,1100.52Zm12.31-19.42a1.47,1.47,0,0,0,1.29,1.44c.65,0,.65-.72.65-1.44s0-1.43-.65-1.43A1.46,1.46,0,0,0,310.42,1081.1Zm10.36-55.38a1.48,1.48,0,0,0,1.3,1.44c.64,0,.64-.72.64-1.44s0-1.44-.64-1.44A1.48,1.48,0,0,0,320.78,1025.72Zm2.59,36a1.48,1.48,0,0,0,1.29,1.44c.66,0,.66-.72.66-1.44s0-1.43-.66-1.43A1.47,1.47,0,0,0,323.37,1061.68Zm1.29-19.42,4.54-2.88h-1.3C326.61,1039.38,326,1039.38,324.66,1042.26Z"/><path class="cls-5" d="M380.34,1117.49c13-1.49,36.7-3,37.51-22.06,0-16,3.31-94.76,3.35-111.57l.24-89.42c-5.3-20.64-20.57-27.56-40.43-27.61l.32-123c0-5.35,2.31-7.64,7.66-7.62l168.9.44L557.55,865c0,6.88-29.82,3.74-29.86,19l-.2,77.19c6.88,0,68.21-74.71,68.23-81.59,0-9.17-23.66-12.29-27.48-12.3l.33-124.57,3.07-6.1,124.57.33c11.46,0,38.2,3.15,38.2,3.15l3.05,3.07s1.32,80.24,2,113.87l0,6.88c0,5.35-42.07,14.41-54.32,25.84-9.2,7.62-46,40.39-46,58-.07,26,57.67,155.29,75.22,167.57,6.87,3.83,34.37,5.43,35.89,10.79.65,42,2.12,64.19,2,99.35l0,17.58a8.48,8.48,0,0,1-8.43,8.39L572.57,1251c-5.34,0-7.63-2.31-7.61-7.66l.31-120c0-8.41,26.75-1.46,26.8-20.57,0-10.7-26.55-71.9-32.66-75-16.08,12.18-35.25,36.58-35.31,57.22-.07,26,27.42,36.75,27.41,38.28l-.31,120c0,5.35-2.32,7.64-7.66,7.63l-155.91-.41c-5.34,0-7.63-2.32-7.62-7.67Zm18.21,51.25h3.06l0-10.7h-3.06Zm-.07,24.46,6.12-2.28-6.11,0Zm11.43,15.31c.76,0,.77-3,0-3.06C408.39,1205.45,408.38,1208.51,409.91,1208.51Zm10.75-20.61c1.53,0,2.31-6.87,2.32-8.4-3.83,0-7.65,1.51-10.72,6.09A34.2,34.2,0,0,0,420.66,1187.9Zm5.45-39.72c0-3.06,2.32-7.63,5.38-9.16h-5.35ZM429,1217c.76,0,.77-3.06,0-3.06C427.47,1213.91,427.47,1217,429,1217Zm.12-42.8c.75,1.53,3.82-.75,2.29-2.28S427.58,1173.4,429.11,1174.17Zm2.41-47.37a1.15,1.15,0,0,0,0-2.3A1.15,1.15,0,0,0,431.52,1126.8Zm2.8,95.53c1.54,0,1.55-3,0-3.06S432.8,1222.33,434.32,1222.33Zm.95-359.18v1.53l5.36-3-3.05-5.36C436.82,859.33,435.28,860.09,435.27,863.15Zm4.43,349.26,5.35,0-3.05-2.3Zm3.05-284.29a1.15,1.15,0,0,0,0-2.29C442,925.83,442,928.12,442.75,928.12Zm0-12.22,8.41,0a10.72,10.72,0,0,0-6.88-2.31h-1.52Zm-.06,22.16h3l0-5.35h-3.06Zm5.67,168.15v-5.35h-3.06Zm6-232.31c.77,0,.77-2.29,0-2.29A1.15,1.15,0,1,0,454.35,873.9Zm.2,213.22h4.59c5.35-2.28,16.07-7.6,16.07-7.6v-5.35C468.32,1081,454.59,1072.59,454.55,1087.12Zm2.07-206.34c1.54,0,1.55-3,0-3.06S455.1,880.78,456.62,880.78Zm-.88,337h3.06c3.82,0,7.64-.74,7.65-5.33v-2.29Zm3.47-157.42a3.69,3.69,0,0,0,0-5.35C457.7,1053.5,457.68,1061.91,459.21,1060.38Zm2.21,31.34c1.53,0,1.54-3,0-3.06C460.66,1088.66,460.65,1091.71,461.42,1091.72Zm0,3.82,5.35-2.28H466A4.57,4.57,0,0,0,461.41,1095.54Zm3.67-235.37a1.15,1.15,0,1,0,0-2.3A1.15,1.15,0,0,0,465.08,860.17Zm6.74,53.51h3.82l0-11.46C471.85,903.75,471.83,912.16,471.82,913.68Zm4-57.3c3.07-1.52,5.37-3.81,5.38-6.87V848ZM479.06,1065c1.54-2.29,6.14-6.1,6.9-7.62v-2.3Zm1.52,4.59a1.15,1.15,0,1,0,0-2.29A1.15,1.15,0,1,0,480.58,1069.61Zm3,29.81a1.15,1.15,0,1,0,0-2.29A1.15,1.15,0,1,0,483.56,1099.42Zm2.28,6.12c1.52,0,1.53-3.06,0-3.06C485.08,1102.48,485.08,1105.54,485.84,1105.54Zm0-18.34,5.36-2.28-2.28-3.06Zm1.58-17.57c13.76,0,12.26-12.2,23-14.46-4.58-3.83-4.57-6.89-3.8-8.42l-3.85,8.4c-4.61,9.15-4.59,3.81-11.47,3.79v-3.82C487.49,1058.93,487.47,1065.81,487.46,1069.63ZM491.8,874a1.15,1.15,0,0,0,0-2.3C491,871.7,491,874,491.8,874Zm-.57,217.8c1.52,0,1.53-3,0-3.06C490.47,1088.74,490.46,1091.79,491.23,1091.8Zm3.09-13.75c1.53,0,1.54-3,0-3.06S492.79,1078.05,494.32,1078.05Zm.49-188c3.06,0,6.88-.74,8.42-3.8l-8.41,0ZM494,1212.56c0,1.52,3.06,1.53,3.06,0S494,1211,494,1212.56Zm3.94-335.49c.76,0,.77-3.05,0-3.06C496.39,874,496.38,877.06,497.9,877.07Zm-.9,342.37c.76,0,.77-2.29,0-2.29A1.15,1.15,0,0,0,497,1219.44Zm0,8.41c.76,0,.77-3.06,0-3.06C495.46,1224.79,495.45,1227.85,497,1227.85Zm0-20.64a1.15,1.15,0,0,0,2.3,0A1.15,1.15,0,0,0,497,1207.21Zm3.2-343.89c1.53,0,1.54-3.06,0-3.06S498.7,863.32,500.23,863.32Zm0,17.58c1.52,0,1.53-3.06,0-3.06S498.65,880.89,500.19,880.9Zm-.92,348.48c3.06-1.52,3.06-3.05,3.07-6.1V1221Zm3.89-317.14c.77,0,.77-3.06,0-3.06C501.64,909.17,501.63,912.23,503.16,912.24Zm0,16c.76,0,.77-2.29,0-2.29A1.15,1.15,0,0,0,503.12,928.28Zm.08-33.62h2.3v-3.06Zm-.46,176.53a1.15,1.15,0,1,0,2.29,0A1.15,1.15,0,0,0,502.74,1071.19Zm1.88,158.21c1.53.76,4.59-1.52,3.06-3.06S503.09,1227.87,504.62,1229.4Zm1-381.35h3.06c2.29,0,3.82,0,5.35-2.28l-3-3.06Zm2.32,280.47a6.85,6.85,0,0,0,6.9-6.86C510.25,1121.65,508,1124.7,507.94,1128.52Zm-.16,62.67h2.29v-5.35Zm5.43-32.85c5.35,0,19.12-6.83,19.13-10.65v-3l-19.13,10.65Zm2.24,21.41,3.06-2.29-5.33-8.42v3.06C513.17,1174.4,513.16,1177.45,515.45,1179.75Zm-2.4,38.2h2.29l0-5.35Zm0,5.36a1.15,1.15,0,0,0,2.29,0C515.33,1222.54,513,1222.54,513,1223.31Zm8.41-3.81c.77,0,.78-2.28,0-2.29A1.15,1.15,0,0,0,521.45,1219.5Zm5.37-6.86c0-1.53,2.32-6.87,2.32-7.64v-1.52c0-3.06,0-3.06-2.28-4.6l5.35-2.28-9.93,0c0,2.29,1.51,6.88,4.57,8.42l-5.37,5.33Zm-2.59-175c1.53,0,1.54-3.06,0-3.06S522.7,1037.62,524.23,1037.63Zm3.1-17.57c0-8.41,10.73-12.2,13.76-3,5.38-9.93-9.88-19.13-16.78-10.75Zm2.35-20.63c1.53,0,1.53-3.06,0-3.06C528.92,996.37,528.91,999.43,529.68,999.43Zm-.09,32.86c1.53,0,1.54-3,0-3.06C528.84,1029.23,528.83,1032.29,529.59,1032.29Zm2.67,147.5a1.15,1.15,0,1,0,0-2.29A1.15,1.15,0,0,0,532.26,1179.79Zm0,12.23a1.15,1.15,0,0,0,0-2.3A1.15,1.15,0,0,0,532.23,1192Zm-.06,22.16c1.53,0,1.54-3,0-3.06S530.64,1214.18,532.17,1214.18ZM581.81,936.9c1.53,0,1.54-3,0-3.06S580.28,936.89,581.81,936.9Zm2.31-5.34c1.52,0,1.53-3.06,0-3.06C583.36,928.5,583.36,931.55,584.12,931.56Zm0,13.76c1.53,0,1.53-3.06,0-3.06C583.33,942.25,583.32,945.31,584.08,945.32Zm-.57,217a1.15,1.15,0,0,0,0-2.29C582.75,1160.06,582.75,1162.35,583.51,1162.35Zm3.66-228.49a1.15,1.15,0,0,0,0-2.29A1.15,1.15,0,1,0,587.17,933.86ZM587,989.65h1.53c1.53,0,2.29,0,3.82-2.28Zm2.66,149.79v-2.29h-3.06Zm2.27,10.7v-.76c0-3.06-2.28-4.59-5.34-4.6v1.53C586.6,1149.37,589.65,1150.14,592,1150.14Zm5.73-143.65c-2.29-3.07-14.5-6.92-7.65.74Zm-7.47-69.57c.77,0,.78-3,0-3C588.7,933.86,588.69,936.92,590.21,936.92Zm0,12.23c.77,0,.78-3.06,0-3.06C588.66,946.09,588.66,949.15,590.18,949.15Zm-.57,217.8c.76,0,.77-3,0-3C588.09,1163.89,588.08,1167,589.61,1167Zm2.86-214a1.15,1.15,0,0,0,0-2.3A1.15,1.15,0,0,0,592.47,953Zm11.43,11.49q4.59-3.42,4.62-11.45c-3.82,0-12.26,9.9-16.09,12.18l5.36,0c1.52,0,3.82,0,5.34-.75-.76,0-.75-3.06,0-3.06S603.9,963.71,603.9,964.47Zm-8.47,25.2c0,1.53,2.28,3.06,2.28,3.06,5.35,0,10.72-5.32,16.83-5.3v-5.36c-3.06,2.29-6.11,2.28-8.41,2.28-3.82,0-6.87-2.32-12.22-2.33C593.92,982.79,595.43,988.9,595.43,989.67Zm0,9.93c.76,0,.77-3.06,0-3.06C593.88,996.54,593.88,999.6,595.4,999.6Zm.11-42,2.3-3.05h-2.29ZM595,1142.51l2.3-3v-5.35A17.27,17.27,0,0,0,595,1142.51Zm25-207c2.3-2.29,9.2-9.15,9.21-13.73-5.34,0-7.64,0-12.23,3,0-1.52,3.07-6.87,3.07-8.39v-2.3l-5.36,5.34v-3.06c.76-1.52,6.9-6.86,7.66-7.62l3.05,2.3,2.31-5.34h-2.29c-3.06,0-26,9.11-27.55,13.69C610.15,912.52,611.63,930.1,620,935.47Zm-22.19,13.7c0,1.53,3,1.54,3,0S597.83,947.64,597.83,949.17Zm4.72,235.39c1.54,0,1.55-3,0-3.06C601.8,1181.5,601.79,1184.56,602.55,1184.56ZM606.11,995l5.36-2.27h-1.53C608.41,992.76,607.65,992.76,606.11,995Zm2.37-28.27a1.14,1.14,0,1,0,0-2.28C607.72,964.48,607.71,966.77,608.48,966.77Zm3.32-100.86a1.15,1.15,0,0,0,0-2.3A1.15,1.15,0,0,0,611.8,865.91Zm7.76,243.8c0-5.34,0-9.93-3-13.76-1.54,0-5.36,1.51-5.36,3C609.65,1104.34,615,1109.7,619.56,1109.71Zm-5.06-106.24c.75,1.53,3.82-1.51,2.3-2.28A1.62,1.62,0,1,0,614.5,1003.47Zm0-8.4,12.23,0c0-3.82-3-7.65-6.86-7.66C616.83,987.43,614.52,995.07,614.52,995.07Zm2.42-48.91a1.15,1.15,0,0,0,0-2.29A1.15,1.15,0,1,0,616.94,946.16Zm0,6.88a1.15,1.15,0,1,0,0-2.29A1.15,1.15,0,1,0,616.92,953Zm-.43,163.54c1.53,0,1.54-3,0-3.06S615,1116.58,616.49,1116.58Zm-.19,74.9c1.52,0,1.53-3.06,0-3.06S614.76,1191.48,616.3,1191.48Zm.26-100.88h1.53c1.52,0,3.06,0,3.83-3l-2.29-2.3Zm3.55-186.46a1.15,1.15,0,1,0,0-2.29A1.15,1.15,0,0,0,620.11,904.14ZM620,958.4a1.15,1.15,0,1,0,0-2.3A1.15,1.15,0,0,0,620,958.4Zm.28-105.46v.76l5.36-2.28-3.05-5.36C621.79,848.35,620.25,849.88,620.24,852.94Zm-1,370.65h2.3v-2.29Zm2.4-37.45c1.53,0,1.54-3.05,0-3.05C620.9,1183.09,620.9,1186.14,621.66,1186.14Zm0,5.35c0,.76,3.06.77,3.06,0C624.71,1190,621.65,1190,621.64,1191.49Zm3.64-219.32a1.15,1.15,0,0,0,0-2.29A1.15,1.15,0,1,0,625.28,972.17Zm-.65,245.32c1.53,0,1.54-3.06,0-3.06S623.11,1217.48,624.63,1217.49Zm1-107.76,10-5.32c-2.28-3.07-5.34-3.08-8.4-3.08H625.7a5.77,5.77,0,0,1,1.52,3.07A14.09,14.09,0,0,1,625.68,1109.73Zm2-191.82c1.52,0,1.53-3,0-3C627,914.86,627,917.91,627.72,917.91ZM627,1195.33c1.53,0,1.54-3.06,0-3.06C626.23,1192.27,626.22,1195.33,627,1195.33Zm.2-74.9,3.06-2.28h-3ZM630.58,989c1.53,0,1.54-3.06,0-3.06S629.06,989,630.58,989Zm2.79,104.7v-3.06h-3.06Zm-.06,19.87c.77,0,.78-2.29,0-2.29A1.15,1.15,0,0,0,633.31,1113.57Zm2.86-214.74a1.15,1.15,0,1,0,0-2.29A1.15,1.15,0,0,0,636.17,898.83Zm2.48,220.11a7.75,7.75,0,0,0,2.29-.76l8.43-8.39-3-3.06-10.71,6.09C638.66,1113.58,638.65,1116.64,638.65,1118.94Zm.67-255.25c.76,0,.77-3.06,0-3.06C637.8,860.62,637.79,863.68,639.32,863.69Zm-.65,244.55c.77,0,.78-2.29,0-2.3A1.15,1.15,0,0,0,638.67,1108.24Zm-.31,118.45,7.65,0v-5.35C643.72,1222.88,639.14,1223.64,638.36,1226.69Zm3.23-356.12c1.54,0,1.54-3.05,0-3.06S640.07,870.57,641.59,870.57ZM650.05,850a1.15,1.15,0,1,0,0-2.29A1.15,1.15,0,0,0,650.05,850Zm-.9,343.9,5.36-2.28h-5.36Zm10.66,15.31c1.53,0,1.54-3.05,0-3.06S658.28,1209.17,659.81,1209.17Zm1-363c3.07-1.51,5.37-4.57,5.37-6.86v-1.53Zm-.91,345.43c5.36,0,16.06-3,13.79-11.43h-1.52C663.7,1180.14,659.87,1183.19,659.85,1191.59Zm3.26-74.88c.76,0,.77-3.06,0-3.06C661.59,1113.64,661.58,1116.7,663.11,1116.71Zm2.28,3.82h3.06v-5.35Zm0,8.41h3v-3.06Zm5.46-41.25a1.15,1.15,0,1,0,0-2.29C670.07,1085.39,670.07,1087.69,670.83,1087.69Zm0,6.87a1.15,1.15,0,1,0,0-2.29C670.05,1092.27,670.05,1094.56,670.81,1094.56Zm-.1,38.21a1.14,1.14,0,1,0,0-2.28C670,1130.48,670,1132.77,670.71,1132.77Zm3.12-22.91c1.52,0,2.29-1.52,2.3-3,0-2.29-2.28-6.89-5.33-7.66v2.29C670.78,1104.5,670.78,1106.79,673.83,1109.86Zm-3.18,43.55h3.06c5.36-3.05,5.39-17.57,5.4-19.09l8.4,0v-3.82c-4.58,0-8.4,0-11.46,3.79-.78,3.82-5.39,13.74-5.39,13.74l3.05,2.3Zm3.14-28.27c1.52,0,1.53-3.05,0-3.06S672.26,1125.14,673.79,1125.14Zm-.1,37.45a1.15,1.15,0,0,0,0-2.29A1.15,1.15,0,0,0,673.69,1162.59Zm-.08,29,6.88,0c0-3.06,0-11.47,6.14-11.45-.76,0-7.63-5.37-4.56-7.65C672.14,1169.46,677.44,1187.05,673.61,1191.63Zm3.16-327.84c1.53,0,1.53-3.06,0-3.06C676,860.72,676,863.78,676.77,863.79Zm-.89,335.49a1.15,1.15,0,0,0,0-2.3C675.12,1197,675.12,1199.27,675.88,1199.28Zm3,18.35c1.53,0,1.54-3.06,0-3.06S677.36,1217.63,678.89,1217.63Zm4-351.54c.76,0,.76-2.29,0-2.29A1.15,1.15,0,0,0,682.88,866.09ZM682,1197a1.15,1.15,0,1,0,2.3,0A1.15,1.15,0,0,0,682,1197Zm2.44-54.25c1.53,0,1.53-3.06,0-3.06S682.91,1142.74,684.44,1142.75Zm-.21,80.24c1.52,0,1.53-3.06,0-3.06S682.69,1223,684.23,1223Zm3.31-99.34c.77,1.53,3.83-1.52,2.3-3.05S686,1122.11,687.54,1123.65Zm2.24,19.87a1.14,1.14,0,1,0,0-2.28A1.14,1.14,0,1,0,689.78,1143.52Zm-.11,42.8c1.53,0,1.54-3,0-3S688.14,1186.32,689.67,1186.32Zm-.06,21.4a1.15,1.15,0,1,0,0-2.29A1.15,1.15,0,0,0,689.61,1207.72Zm1-369.88h3.06c2.29,0,3.82,0,5.35-2.27l-3-3.07ZM689.83,1126c0,1.53,3.06,1.54,3.06,0C692.89,1125.19,689.83,1125.18,689.83,1126Zm-.12,46.62c0,1.52,3,1.53,3.06,0S689.71,1171,689.71,1172.57Zm-.11,40.5,5.35,0-2.28-2.3Zm3.2-52.72c1.53,0,1.53-3.06,0-3.06S691.27,1160.35,692.8,1160.35Zm2.37-29.8c1.53,0,1.54-3,0-3.06C694.41,1127.49,694.4,1130.55,695.17,1130.55Zm3.05,2.3a1.15,1.15,0,1,0,0-2.29A1.15,1.15,0,0,0,698.22,1132.85Zm2.28,3.06c1.54,0,1.54-3.05,0-3.06C699.75,1132.85,699.74,1135.91,700.5,1135.91Zm0,17.58,6.12-3-6.12,0Zm11.39,26c0-4.59,0-8.42-3-12.25-3.82,0-5.35.76-5.36,3.81C703.46,1176.42,706.5,1179.49,711.85,1179.51Zm-5.23-43.58c.76,0,.77-3.06,0-3.06C705.1,1132.86,705.09,1135.92,706.62,1135.93Zm2,90.94c5.35,0,8.43-9.14,8.44-13.73v-2.29l-10.72,7.61C707.16,1221.52,708.68,1223.82,708.67,1226.87Zm1-376.76a1.14,1.14,0,1,0,0-2.28A1.14,1.14,0,1,0,709.66,850.11Zm-.76,288.12a1.15,1.15,0,1,0,0-2.3A1.15,1.15,0,0,0,708.9,1138.23Zm-.06,24.45c6.88,0,10.7-2.26,10.72-9.14v-3.06c-2.3,4.58-6.13,6.86-10.72,6.85Zm-.07,26,8.41-2.27h-3C711.84,1186.38,710.31,1186.37,708.77,1188.66Zm3,9.95c1.53,0,1.54-3.06,0-3.06S710.28,1198.61,711.8,1198.61Zm.15-55.79h2.29v-3.06ZM715,853.19c1.52,0,1.53-3.06,0-3.06C714.25,850.13,714.24,853.18,715,853.19Zm2.13,347.72a1.15,1.15,0,1,0,0-2.29A1.15,1.15,0,0,0,717.14,1200.91Zm2.32-9.16,3.07-3h-3.06Zm3.08-8.4h1.53c1.53,0,2.29,0,3.83-3Zm8.51-36.66c.76,0,.77-3.06,0-3.06C729.53,1143.63,729.52,1146.69,731.05,1146.69Zm-.1,38.21c.76,0,.77-3.06,0-3.06C729.43,1181.84,729.42,1184.9,731,1184.9Zm0,10.7c.76,0,.77-3.06,0-3.06C729.4,1192.54,729.39,1195.6,730.92,1195.6Zm-.06,22.17c.77,0,.77-3.06,0-3.06C729.34,1214.7,729.33,1217.76,730.86,1217.77Z"/><path class="cls-6" d="M781.8,927.91s1.08-1.63,2.16-1.63,15.74-2.17,16.82-2.17V676.22c0-4.33-19,0-19-4.33l1.62-52.07c.54-7.6,3.8-10.85,11.39-10.85h56.42c20.61,0,58.58-1.09,72.68,1.62,7.59.55,10.84,3.8,10.84,11.39V748.37c0,3.25-4.33,2.17-5.42,2.17h-4.88c-6.51,0-36.88-2.17-32-1.63-7.59-.54-10.85-3.8-10.85-11.39V677.85c0-2.71-8.68-1.63-8.68-1.63s-7-1.08-7,1.63v75.4c0,7.59,3.25,10.85,10.85,10.85h17.9c7.59,0,10.85,3.25,10.85,10.85v32.54c0,7.59-3.26,10.85-10.85,10.85h-17.9c-7.6,0-10.85,3.25-10.85,10.85v94.92s4.34,2.17,6,2.17c2.17,0,9.76-1.08,11.93-1.08V842.75c0-7.6,3.25-10.85,10.85-10.85h27.12c7.59,0,10.85,3.25,10.85,10.85V986.49l-2.17,4.34H903.3c-40.69,0-79.74,0-110.65-2.17-7.6,0-10.85-3.25-10.85-10.85Zm35.79-281,2.18-2.17h-4.34Zm0,148.62c1.09,0,1.09-2.17,0-2.17S816.51,795.56,817.59,795.56Zm0,104.14a.81.81,0,1,0,0-1.62A.81.81,0,1,0,817.59,899.7Zm0-46.65h2.18l-2.18-4.34Zm0,49.91h1.09c2.17,0,5.43-1.09,5.43-3.26v-1.08Zm2.18-157.85c1.08,0,1.08-2.17,0-2.17S818.68,745.11,819.77,745.11Zm0,6.51c1.08,0,1.08-2.17,0-2.17S818.68,751.62,819.77,751.62Zm0,47.74a.82.82,0,0,0,0-1.63A.82.82,0,1,0,819.77,799.36Zm0,6.51c1.08,0,1.08-2.18,0-2.18S818.68,805.87,819.77,805.87Zm2.16-45c3.26-1.08,2.18-4.34,2.18-6v-4.34c-1.09,0-4.34,3.25-4.34,4.34v.54C819.77,757.59,820.85,758.67,821.93,760.84Zm0,5.43c1.09,0,1.09-2.17,0-2.17S820.85,766.27,821.93,766.27Zm0,78.11c0,1.08,2.18,1.08,2.18,0S821.93,843.29,821.93,844.38Zm0,125.29h2.18v-1.62Zm2.18-222.39c1.08,0,1.08-2.17,0-2.17S823,747.28,824.11,747.28Zm0,56.41c1.08,0,1.08-2.17,0-2.17S823,803.69,824.11,803.69Zm0,5.43c1.08,0,1.08-2.17,0-2.17S823,809.12,824.11,809.12Zm0,46.65a.82.82,0,0,0,0-1.63A.82.82,0,1,0,824.11,855.77Zm0,85.16c1.08,0,1.08-2.17,0-2.17S823,940.93,824.11,940.93Zm0-292.37c1.08,1.09,3.25-.54,2.16-1.62S823,648,824.11,648.56Zm0-6h6v-4.34Zm2.16,169.77c1.09,0,1.09-2.17,0-2.17S825.19,812.37,826.27,812.37Zm0,152.42c1.09,0,1.09-2.17,0-2.17S825.19,964.79,826.27,964.79Zm0-89a2.62,2.62,0,0,0,3.8,0C831.16,874.75,825.19,874.75,826.27,875.83Zm2.72-121h1.08l-1.63-6.51c-1.08,0-2.17,3.25-2.17,4.34C826.27,754.88,828.44,754.88,829,754.88Zm-2.72,83.53v2.17l14.65-2.17c-1.09,0-7.59-3.26-8.68-4.34a3.31,3.31,0,0,1,0-4.34C828.44,831.9,826.27,834.07,826.27,838.41Zm0,18.44c0,1.09,2.17,1.09,2.17,0S826.27,855.77,826.27,856.85Zm0,77.56h3.8l-1.63-2.16Zm2.17-26c.55,0,.55-2.17,0-2.17C827.36,906.21,827.36,908.38,828.44,908.38ZM838.75,903V892.65c-1.08,1.08-8.68,3.26-10.31,6h4.89C833.33,901.87,834.41,903,838.75,903Zm-8.68-173.58c0,1.09,2.17,1.09,2.17,0S830.07,728.3,830.07,729.38Zm0,58.58h2.17V785.8Zm0,73.23,2.17-2.17h-2.17Zm2.17-141c1.09,0,1.09-2.17,0-2.17S831.16,720.16,832.24,720.16Zm0-72.14c1.09,0,5.43,0,6.51-3.25,0-1.09-3.26-2.17-4.34-2.17C832.24,642.6,832.24,646.94,832.24,648Zm0,163.27c0,1.08,2.17,1.08,2.17,0S832.24,810.2,832.24,811.29Zm0,66.72c0,1.08,2.17,1.08,2.17,0S832.24,876.92,832.24,878Zm2.17-45c1.08,0,1.08-2.17,0-2.17S833.33,833,834.41,833Zm2.17-208.29c1.09,0,1.09-2.17,0-2.17S835.49,624.7,836.58,624.7Zm0,256.56c1.09,0,1.09-2.17,0-2.17S835.49,881.26,836.58,881.26Zm0,90.59h6v-3.8C840.92,969.13,837.67,969.67,836.58,971.85Zm2.17-322.2a.82.82,0,0,0,0-1.63A.82.82,0,0,0,838.75,649.65Zm0,19c1.08,0,1.08-2.18,0-2.18S837.67,668.64,838.75,668.64Zm0,46.1,3.8-2.17H842C840.92,712.57,839.83,712.57,838.75,714.74Zm2.17-42.85c1.08,1.08,2.71-1.09,1.63-2.17C842,668.64,839.83,670.8,840.92,671.89ZM842.55,884l2.17-1.62-3.8-2.18v1.09C840.92,882.35,840.92,883.43,842.55,884Zm0-259.27c1.08,0,1.08-2.17,0-2.17C842,622.53,842,624.7,842.55,624.7Zm0,198c1.08,0,1.08-2.17,0-2.17C842,820.51,842,822.68,842.55,822.68Zm2.17-120.42v-2.17h-2.17Zm-2.17,100.35,4.34-2.17-4.34-2.17ZM844.72,718c1.08,0,1.08-2.17,0-2.17S843.63,718,844.72,718Zm0,53.16c2.17,0,4.33-1.63,4.33-3.8h-4.33ZM850.14,859c0-1.08,0-4.88-3.25-6-1.09,0-2.17,2.72-2.17,3.8C844.72,859,849.05,859,850.14,859Zm-5.42,68.89h2.17v-8.14h-2.17Zm0,19,4.33-2.17h-4.33Zm2.17-322.19c1.08,0,1.08-2.17,0-2.17S845.8,624.7,846.89,624.7Zm0,95.46c1.08,0,1.08-2.17,0-2.17S845.8,720.16,846.89,720.16Zm0,20.62a.82.82,0,0,0,0-1.63A.82.82,0,1,0,846.89,740.78Zm0,157.3c1.08,0,1.08-2.17,0-2.17S845.8,898.08,846.89,898.08Zm0-51.53c1.08,1.08,3.25-1.09,2.16-2.17S845.8,845.46,846.89,846.55Zm2.16-202.87c1.09,0,1.09-2.17,0-2.17S848,643.68,849.05,643.68Zm0,78.65c1.09,0,1.09-2.17,0-2.17S848,722.33,849.05,722.33Zm4.34,236c1.09,0,1.09-2.18,0-2.18S852.31,958.29,853.39,958.29Zm4.89-155.68c7.59,0,9.76-10.3,9.76-15.73V785.8c-2.17,7.59-6.51,13.56-14.65,14.64C855.56,801.52,856.65,802.61,858.28,802.61Zm1.08-145.37c9.76-5.42,15.73-9.22,21.15-19-3.25,4.34-7.59,8.68-12.47,10.3l3.8-6H868c-3.25,0-12.48,5.42-12.48,8.13h3.8Zm2.17,285.31v-1.08c0-1.63-2.17-2.71-4.34-2.71a2.42,2.42,0,0,0-1.63,2.17Zm6.51-141c1.08,0,1.08-2.16,0-2.16S867,801.52,868,801.52Zm0,163.27c1.08,0,1.08-2.17,0-2.17S867,964.79,868,964.79Zm2.17-181.71c1.09,0,1.09-2.17,0-2.17S869.12,783.08,870.21,783.08Zm0,20.61c1.09,0,1.09-2.17,0-2.17S869.12,803.69,870.21,803.69Zm1.63,165.44c1.08,0,1.08-2.17,0-2.17C871.3,967,871.3,969.13,871.84,969.13Zm0-343.35c3.25,0,6.51,0,8.67-2.17h-8.67ZM874,780.91c1.08,0,1.08-2.16,0-2.16S872.92,780.91,874,780.91Zm2.16,176.29c1.09,0,1.09-2.17,0-2.17S875.09,957.2,876.17,957.2Zm0,4.34h4.34l-2.16-2.17Zm4.34-316.77c4.89,0,9.23-4.34,10.31-8.68-8.13,0-5.42,7.59-10.31,7.59Zm2.18,13.56c1.08,0,1.08-2.17,0-2.17S881.6,658.33,882.69,658.33Zm0,123.67c0,1.08,2.17,1.08,2.17,0S882.69,780.91,882.69,782Zm3.79,17.36a.82.82,0,1,0,0-1.63A.82.82,0,0,0,886.48,799.36Zm2.17,166.52h2.17c3.25,0,6.51-1.09,6.51-4.34v-2.17Zm2.17-340.1c1.09,1.09,3.25-1.08,2.17-2.17S889.74,624.7,890.82,625.78Zm4.34,2.17c1.09,0,1.09-2.17,0-2.17S894.07,628,895.16,628Zm2.17,63.46a.81.81,0,1,0,0-1.62A.81.81,0,1,0,897.33,691.41Zm0,17.91c1.09,0,1.09-2.18,0-2.18S896.25,709.32,897.33,709.32Zm2.17-82.45c.54,0,.54-2.17,0-2.17C898.42,624.7,898.42,626.87,899.5,626.87ZM901.13,897c0-1.08,2.17-7.59,2.17-8.68l2.17-4.34c0-.54-1.09-3.8-2.17-3.8l-3.8,2.18v4.88S897.33,895.91,901.13,897ZM899.5,644.77h3.8l-2.17-4.34Zm0,55.32v3.26l1.63-8.68C899.5,695.76,899.5,697.92,899.5,700.09Zm0,244.63,1.63-2.17H899.5Zm1.63-253.31a.81.81,0,0,0,0-1.62A.81.81,0,1,0,901.13,691.41Zm2.17,177.92v6.5A23.35,23.35,0,0,0,909.81,859C903.3,861.19,903.3,863.36,903.3,869.33Zm2.17-233.24h2.16l-2.16-1.63Zm0,56.41h2.16v-1.63ZM907.63,648c1.09,0,1.09-2.17,0-2.17S906.55,648,907.63,648Zm0,62.92c1.09,0,1.09-2.17,0-2.17S906.55,710.94,907.63,710.94Zm0,170.32c1.09,0,1.09-2.17,0-2.17S906.55,881.26,907.63,881.26Zm0-213.71c1.09,1.09,5.43,1.09,6.51,0C914.69,666.46,906.55,666.46,907.63,667.55Zm2.18,244.09c3.25-1.09,8.13-4.35,8.13-7.6s-8.13-3.25-10.31-3.25C907.63,905.13,910.89,907.29,909.81,911.64Zm-2.18,27.12c0,1.08,2.18,1.08,2.18,0S907.63,937.67,907.63,938.76Zm2.18-204c1.08,0,1.08-2.17,0-2.17S908.72,734.81,909.81,734.81Zm0,139.94c1.08,0,1.08-2.17,0-2.17S908.72,874.75,909.81,874.75Zm0-244.63v2.17l10.3-2.17a9,9,0,0,0-7.05-4.34C910.89,625.78,909.81,628,909.81,630.12Zm0,18.44c0,1.09,2.17,1.09,2.17,0C912,648,909.81,648,909.81,648.56Zm0,55.87h4.33L912,702.26Zm2.17-4.34c1.08,0,1.08-2.17,0-2.17S910.89,700.09,912,700.09Zm0,179c1.08,0,1.08-2.17,0-2.17S910.89,879.09,912,879.09Zm9.21-184.42V684.36c-2.16,1.09-7.05,3.26-9.21,6.51h4.88C916.86,693.58,910.89,693.58,921.19,694.67Zm-7.05-41.77,1.63-2.17h-1.63Zm0,196.9v1.09l3.8-2.18-2.17-2.16A3.23,3.23,0,0,0,914.14,849.8Zm1.63-180.08c0,1.08,2.17,1.08,2.17,0S915.77,668.64,915.77,669.72Zm2.17,292.9c1.09,0,1.09-2.17,0-2.17S916.86,962.62,917.94,962.62ZM920.11,673c1.08,0,1.08-2.17,0-2.17S919,673,920.11,673Z"/><path class="cls-7" d="M780,1330.6c0-3.45,8.25-8.86,8.25-8.86l23.07-3.14c0-24.12,5.1-133.7,5.1-158.31,0-11.82-3.14-64-3.14-74.82H788.09c-3.45,0-8.06-1.48-8.06-8.06v-37.9l2,1.17h37.41c79.24,0,142.86,1,220.63,2,3.45,0,13.17,7.15,11.2,14.34v115.6c0,3.45-1.47,4.92-4.92,4.92h-30.7c-3.45,0-5.42-1.47-7.39-4.42,1.48-31-2.27-78.87-46.08-78.87H885.74v87.54h28.67c18.7,0,16.73-34.76,16.73-44.11H959.2c3.44,0,4.92,1.47,4.92,4.92v126c0,3.44-1.48,4.92-4.92,4.92H936.06c-3.44,0-5.41-1.48-6.89-4.43,1-11.32,3-41.16-20.18-41.16H885.74v86.56c14.76,3,19.81,2.46,34.08,2.46,66.45,0,87.43-4.54,87.43-77.89a10.79,10.79,0,0,1,8.37-3.44h30.7c3.45,0,4.92,1.48,4.92,4.92,2,38.89,2,70.13,2,108,0,3.45,0,17.49-11.2,17.49h-252c-3.44,0-8.06-4.62-8.56-8.06.5.49-1.47-21-1.47-25.91v-1.47Zm38.2,11.56,3.34-1.43h-1C819.66,1340.73,819.18,1340.73,818.23,1342.16Zm8.6-28.17c.47,0,.47-1.91,0-1.91C825.87,1312.08,825.87,1314,826.83,1314Zm0-12.9v1l3.34-3.34h-1C827.3,1298.71,826.83,1299.66,826.83,1301.09Zm4.77,2.39c0,1,1.91,1,1.91,0C833.51,1303,831.6,1303,831.6,1303.48Zm0,8.12h1.91v-2.39Zm1.91-16.72c1.44,0,6.69-5.72,6.69-7.63C840.2,1285.81,831.6,1294.88,833.51,1294.88Zm1.44,6.21a.72.72,0,0,0,0-1.43C834.47,1299.66,834.47,1301.09,835,1301.09Zm0-33.9h3.81c-1-1.91-1.91-1.91-2.86-1.91H835Zm5.25,33.9c.48,0,.48-1.43,0-1.43A.72.72,0,1,0,840.2,1301.09Zm1.43-31c.48,0,.48-1.9,0-1.9C840.68,1268.15,840.68,1270.05,841.63,1270.05Zm1.43,54.92c1,0,1-1.91,0-1.91S842.11,1325,843.06,1325Zm3.35-46.8c1,0,1-1.91,0-1.91C845.93,1276.26,845.93,1278.17,846.41,1278.17Zm5.25,0c0,.48,1.91.48,1.91,0C853.57,1277.22,851.66,1277.22,851.66,1278.17Zm3.34,11.94c1,0,1-1.91,0-1.91S854.05,1290.11,855,1290.11Zm0,33c1,0,1-1.91,0-1.91S854.05,1323.06,855,1323.06Zm1.91-123.2c.48,0,.48-1.44,0-1.44A.72.72,0,0,0,856.91,1199.86Zm0,86a4.33,4.33,0,0,0,1.44-3.82h-1.44Zm1.44,61.13a.72.72,0,0,0,0-1.43A.72.72,0,1,0,858.35,1346.94Zm0-146.13c.95,1.44,2.86-1,1.9-1.43C859.3,1198.42,857.39,1199.86,858.35,1200.81Zm1.9,2.39c1.44-1,4.3-2.39,4.3-4.78v-1Zm1.44,112.7c.95,0,.95-1.91,0-1.91C861.21,1314,861.21,1315.9,861.69,1315.9Zm0-61.6c.95,1,2.86-.48,1.91-1.92C862.64,1251.43,861.21,1253.82,861.69,1254.3Zm1.91,65.89c.95-.47.95-2.86,0-3.81C862.64,1315.9,862.64,1321.15,863.6,1320.19Zm.95-99.8c1,0,1-1.91,0-1.91ZM887,1346l2.86-1.43-1.43-2.39Zm11.46-8.12c.47,0,.47-1.91,0-1.91C897.5,1336,897.5,1337.86,898.46,1337.86Zm0-131.32c.47,1.91,3.34,7.16,3.34,7.16h1.43v-9.07h-4.77Zm4.77,133.24c1,0,1-1.92,0-1.92C902.76,1337.86,902.76,1339.78,903.23,1339.78Zm3.35-127a.72.72,0,0,0,0-1.43C906.1,1211.32,906.1,1212.75,906.58,1212.75Zm1.9,1a1,1,0,1,0,1.91,0C910.39,1212.75,908.48,1212.75,908.48,1213.7Zm3.35,123.69c0,.47,1.43.47,1.43,0C913.26,1336,911.83,1336,911.83,1337.39Zm2.86,2.39c1,0,1-1.92,0-1.92S913.74,1339.78,914.69,1339.78Zm1.91-133.24v-1.91h-1.91Zm-1.91,5.73h1.91v-1.91Zm3.35-10c1,0,1-2.39,0-2.39C917.56,1199.86,917.56,1202.25,918,1202.25Zm5.25,0c1,0,1-2.39,0-2.39S922.33,1202.25,923.29,1202.25Zm0,151.37c1,0,1-1.91,0-1.91S922.33,1353.62,923.29,1353.62Zm3.34-128a.72.72,0,0,0,0-1.44A.72.72,0,0,0,926.63,1225.65Zm8.11,117.3a35,35,0,0,0,2.82-2.11l.57-.42h-.28c-.71,0-4.1.14-4.1,1h1Zm1.92-163.15c.48,0,.48-1.43,0-1.43S936.18,1179.8,936.66,1179.8Zm0,57.78a5.37,5.37,0,0,0,3.34-4.77v-.48Zm1.43-46.32c.95,0,.95-1.91,0-1.91S937.14,1191.26,938.09,1191.26Zm0,33c.95,0,.95-1.91,0-1.91S937.14,1224.21,938.09,1224.21ZM940,1354.1c.48,0,.48-1.43,0-1.43A.72.72,0,1,0,940,1354.1Zm0-167.61c1.43-1,1.43-1.91,1.43-3.35H940Zm4.78,30.08a.72.72,0,0,0,0-1.43C944.3,1215.14,944.3,1216.57,944.78,1216.57Zm1.91,4.78a2.92,2.92,0,0,0,0-3.82C945.73,1216.57,945.73,1222.3,946.69,1221.35Zm0,28.17a.72.72,0,0,0,0-1.43A.72.72,0,1,0,946.69,1249.52Zm0,102.19c1.43-1,3.34-2.87,3.34-4.77v-1ZM964.83,1335c0,1,1.91,1,1.91,0S964.83,1334,964.83,1335Zm0,11h1.91c1.43,0,2.39,0,3.35-1.43l-1.92-2.39Zm5.26-8.12c.47,0,.47-1.91,0-1.91C969.13,1336,969.13,1337.86,970.09,1337.86Zm1.43,1c0,1,1.91,1,1.91,0S971.52,1337.86,971.52,1338.82Zm3.34,3.34,1.91-1.43h-1.91Zm1.91,11.94a.72.72,0,0,0,0-1.43A.72.72,0,0,0,976.77,1354.1Zm3.34-14.32c1,0,1-1.92,0-1.92S979.16,1339.78,980.11,1339.78Zm9.55,1h1.91c-1-1.91-1.91-4.78-3.34-5.73-1,0-1.91,2.86-1.91,3.82C986.32,1340.73,989.19,1340.73,989.66,1340.73Zm7.17-9.07,3.34-3.82c-3.34-1-.95-3.35-.95-6.69l.95,1c1,0,3.34-2.39,3.34-3.35h-1.91c-4.29,0-11,7.17-13.37,10.51h8.6Zm-3.34-10.51c.47,0,.47-1.43,0-1.43A.72.72,0,1,0,993.49,1321.15Zm4.77-4.77,3.34-1.44h-.48A2.85,2.85,0,0,0,998.26,1316.38Zm1.91,32.95h4.77c0-1.44,0-2.39-1.43-3.35Zm4.77-28.18a.72.72,0,1,0,0-1.43C1004.47,1319.72,1004.47,1321.15,1004.94,1321.15Zm0,18.63c1,0,1-1.92,0-1.92C1004.47,1337.86,1004.47,1339.78,1004.94,1339.78Zm0-11.94h1c1,0,1.91,0,2.87-1.91Zm1.92,14.32c.95,1,1.91-1,1.91-1.43C1007.81,1339.78,1005.9,1341.21,1006.86,1342.16Zm0-20.05h.95c1.91,0,1.91-3.35,1.91-5.73v-1.44Zm1.91-10v-1.91C1007.81,1310.17,1007.81,1312.08,1008.77,1312.08Zm0,36.76v-1.9C1007.81,1346.94,1007.81,1348.84,1008.77,1348.84Zm1-44.4v1.43c2.39-2.39,2.39-5.73,5.25-7.16h-1C1011.63,1298.71,1009.72,1303,1009.72,1304.44Zm1.91-7.16c.48,0,.48-1.92,0-1.92C1010.67,1295.36,1010.67,1297.28,1011.63,1297.28Zm0,25.78c.48,0,.48-1.91,0-1.91C1010.67,1321.15,1010.67,1323.06,1011.63,1323.06Zm0-32h1.43c1.91,0,6.69-1.9,6.69-1.9v-3.35Zm3.34,17.2a.72.72,0,1,0,0-1.43A.72.72,0,0,0,1015,1308.26Zm4.3-11.94c1.43,0,2.39-2.39,2.39-4.78v-.48l-6.69,3.82C1016.41,1295.36,1017.36,1296.32,1019.27,1296.32Zm-2.86,13.85c1,0,1-1.91,0-1.91C1015.93,1308.26,1015.93,1310.17,1016.41,1310.17Zm1.91,1.91c.95,0,.95-1.91,0-1.91S1017.36,1312.08,1018.32,1312.08Zm0,38.68c.95,0,.95-1.92,0-1.92S1017.36,1350.76,1018.32,1350.76Zm1.43-180c1,0,1-1.91,0-1.91C1019.27,1168.82,1019.27,1170.73,1019.75,1170.73Zm0-32c1.91-1,3.82-2.87,3.82-4.78v-1Zm3.82,209.15,3.34-7.16-1.91-1.91c-2.39,1.91-3.34,2.39-3.34,5.73C1021.66,1346,1021.66,1346.94,1023.57,1347.89Zm0-18.62H1025v-1.43Zm1.43-57.78a.72.72,0,0,0,0-1.44A.72.72,0,0,0,1025,1271.49Zm1.91,40.59c.48,0,.48-1.91,0-1.91C1026,1310.17,1026,1312.08,1026.91,1312.08Zm0,20.53c.48,0,.48-2.38,0-2.38C1026,1330.23,1026,1332.61,1026.91,1332.61Zm1.43-5.73c1,0,1-1.91,0-1.91S1027.39,1326.88,1028.34,1326.88Zm0,16.24c1,0,1-1.91,0-1.91S1027.39,1343.12,1028.34,1343.12Zm3.35-63v-1.43a4.54,4.54,0,0,0-3.35-3.82v1.43C1028.34,1278.17,1029.3,1280.08,1031.69,1280.08Zm1,29.13h.48l-1.43-5.73-3.35,4.3C1030.25,1308.26,1031.21,1309.21,1032.64,1309.21Zm-2.39-158.54c1,0,1-1.91,0-1.91S1029.3,1150.67,1030.25,1150.67Zm0,145.65h1.44v-1.44h-1.44Zm1.44-8.12a.72.72,0,0,0,0-1.43C1031.21,1286.77,1031.21,1288.2,1031.69,1288.2Zm1.43,65.42c1-1.91,1-8.11,0-9.07C1032.64,1342.16,1032.64,1354.1,1033.12,1353.62ZM829.6,1085.33c1,0,1-2.63,0-2.63C829.07,1082.7,829.07,1085.33,829.6,1085.33Zm0,47.74c1,0,1-2.11,0-2.11C829.07,1131,829.07,1133.07,829.6,1133.07Zm5.79-45.11v-6.31l-3.69,4.2C832.76,1088,833.28,1088,835.39,1088Zm-2.11,11.57a.79.79,0,1,0,0-1.57C832.76,1098,832.76,1099.53,833.28,1099.53Zm0,46.69c1.05,0,1.05-2.63,0-2.63C832.76,1143.59,832.76,1146.22,833.28,1146.22Zm2.11-70.89h2.1v-4.73C835.39,1072.18,835.39,1073.23,835.39,1075.33Zm4.2,3.16c1,0,1-2.1,0-2.1S838.54,1078.49,839.59,1078.49Zm3.68,16.84a.8.8,0,1,0,0-1.59A.8.8,0,0,0,843.27,1095.33Zm0,52.46a.79.79,0,1,0,0-1.57A.79.79,0,1,0,843.27,1147.79Zm2.11-4.2a.79.79,0,0,0,0-1.58A.79.79,0,0,0,845.38,1143.59Zm4.1-45.63c4.21,0,7.36-7.89,8.41-12.11h-1C854.74,1085.85,849.48,1095.33,849.48,1098Zm-5.57,26.91c1.58-1,3.68-1,5.78-1v-14.21a6.16,6.16,0,0,1-5.78,4.74Zm3.05,13.46c2.1,0,3.68-.53,3.68-3.16v-1.05Zm2.1,10.52,3.68-4.21-5.78,2.63Zm7.67-72.36v-2.1h-1.57Zm0,27.88c-.53,0-.53-2.62,0-2.62C857.79,1101.75,857.79,1104.37,856.73,1104.37Zm2.1-24.72c1.06,0,1.06-2.1,0-2.1S857.79,1079.65,858.83,1079.65Zm-4,58.15c.52,0,.52-2.63,0-2.63C853.79,1135.17,853.79,1137.8,854.85,1137.8Zm6.09-48.68c.52,1.58,2.63-1,1.58-2.1C861.46,1086.49,859.89,1088.07,860.94,1089.12Zm-6.09,58.15h.52c3.16,0,5.79-2.63,6.84-4.74h-3.68v-4.2Zm7.67-41.84c1.05,0,1.05-2.11,0-2.11S861.46,1105.43,862.52,1105.43Zm-4,25.53c.52,0,.52-2.1,0-2.1C857.48,1128.86,857.48,1131,858.53,1131Zm7.67-42.89a.79.79,0,0,0,0-1.58A.79.79,0,0,0,866.2,1088.07Zm2.11,2.63c1.05,0,1.05-2.63,0-2.63S867.25,1090.7,868.31,1090.7Zm-6.1,57.09a.79.79,0,1,0,0-1.57A.79.79,0,1,0,862.21,1147.79Zm0-15.25h1.58v-2.63Zm7.67-65.51c1.06,0,1.06-2.1,0-2.1C869.36,1064.93,869.36,1067,869.88,1067Zm0,38.4c1.06,0,1.06-2.11,0-2.11C869.36,1103.32,869.36,1105.43,869.88,1105.43Zm2.11-35.24c1,0,1-2.63,0-2.63S870.94,1070.19,872,1070.19Zm0,31c1,0,1-2.1,0-2.1S870.94,1101.22,872,1101.22Zm-4.52,27.64c1.06,0,1.06-2.1,0-2.1C866.94,1126.76,866.94,1128.86,867.47,1128.86Zm8.2-57.62c1.05,0,1.05-2.11,0-2.11S874.62,1071.24,875.67,1071.24Zm-54,283h64.18c-1.06-4.85-10.53,1.86-13.16-4.85l-4,1c-1.05-.74-1.79.67-3.37.67-2.1,0-4.73-2.83-5.79-1.71l-9.14,2.46-2.73-2.16-9.14,1.41c-5.79,0,2.6.16-3.71.16l-9.14.29C823,1354.12,819.56,1349,821.66,1354.2Zm83.64.1c1.58,0,8.41-1,8.94-1,1,0,2.1,0,2.1-1.61h-11Zm16.83,11.46a.79.79,0,1,0,0-1.57A.79.79,0,1,0,922.13,1365.76Zm5.22-11.46,21.08-1c-.53-4.2-8.94-1-8.94-1v-3.15C935.28,1352.2,931,1351.15,927.35,1354.3Z"/><path class="cls-8" d="M111.9,1167.94S11.17,1159.16,2,1145.41s15.8-18.62,40.81-8.29S111.9,1167.94,111.9,1167.94Z"/><path class="cls-8" d="M112.53,1256.83S16.4,1279.72,8.54,1293s19.76,13.08,40.14,3.63S112.53,1256.83,112.53,1256.83Z"/><path class="cls-8" d="M102.9,1212.4s-80.14-12.49-90.77-1.32,7.48,21,29.45,16.33S102.9,1212.4,102.9,1212.4Z"/><path class="cls-8" d="M721.81,114s9-102.61,23-112,19,16.09,8.44,41.57S721.81,114,721.81,114Z"/><path class="cls-8" d="M631.27,114.62S608,16.71,594.45,8.69s-13.32,20.14-3.7,40.9S631.27,114.62,631.27,114.62Z"/><path class="cls-8" d="M676.52,104.81s12.72-81.63,1.34-92.45-21.38,7.61-16.63,30S676.52,104.81,676.52,104.81Z"/><path class="cls-2" d="M948.92,1732.91s31.06,1.61,51.64-19.32c17.58-17.89,36.55-80.12,33.64-127.77-.64-10.55,15.68-16.51,15.68-7.8,0,31.62-10.62,117.2-41.65,142.24-35.35,28.52-59.75,18-59.75,18"/><path class="cls-8" d="M421.68,1717.31V1405.47c0-21.87-32.46-19-32.46-22.58v-53.62c0-9.88,4.23-14.11,14.11-14.11H526.8c110.69-.45,92.43,103.71,92.43,258.22,0,166.51,12,249.06-95.25,249.06H403.33c-9.88,0-14.11-4.24-14.11-14.11v-55.74C411.8,1748.36,421.68,1742.71,421.68,1717.31Zm-11.29,88.2c0-11.29,11.29-19.06,11.29-26.81v-3.53c-7.76,6.35-12.7,19-15.53,27.52C406.15,1804.09,409,1805.51,410.39,1805.51Zm11.29,0c0,.7,2.11.7,2.11,0A1.06,1.06,0,1,0,421.68,1805.51Zm12.7-17.64h7.05c0-1.42-.7-2.82-2.12-2.82S434.38,1786.45,434.38,1787.87ZM441.43,1524a1.06,1.06,0,0,0,0-2.12C440.73,1521.88,440.73,1524,441.43,1524Zm0,35.27c1.41,0,1.41-2.82,0-2.82C440.73,1556.45,440.73,1559.27,441.43,1559.27Zm0,17.64c1.41,0,1.41-2.82,0-2.82C440.73,1574.09,440.73,1576.91,441.43,1576.91Zm0-28.92c1.41,1.41,4.23-1.42,2.82-2.83C442.84,1544.46,440.73,1546.57,441.43,1548Zm2.82,12.69,4.94-2.82h-1.41C446.37,1557.86,445.66,1557.86,444.25,1560.68Zm4.94-9.17a1.06,1.06,0,1,0,0-2.11A1.06,1.06,0,1,0,449.19,1551.51Zm0,214.48a1.06,1.06,0,1,0,0-2.11C448.49,1763.88,448.49,1766,449.19,1766ZM452,1576.91c.71,0,.71-2.82,0-2.82C450.6,1574.09,450.6,1576.91,452,1576.91Zm0,45.16c.71,0,.71-2.83,0-2.83C450.6,1619.24,450.6,1622.07,452,1622.07Zm2.12,139a1.06,1.06,0,0,0,0-2.12A1.06,1.06,0,0,0,454.13,1761.06Zm0-137.58c2.82-1.41,2.82-2.82,2.82-4.24v-.7Zm2.82-46.57c.71,0,.71-2.82,0-2.82C455.54,1574.09,455.54,1576.91,457,1576.91Zm2.12-14.81c1.41,0,1.41-2.83,0-2.83S457.66,1562.1,459.07,1562.1Zm.71,218c.7,0,.7-2.83,0-2.83C458.36,1777.28,458.36,1780.11,459.78,1780.11Zm0,26.1c.7,0,.7-2.12,0-2.12A1.06,1.06,0,1,0,459.78,1806.21Zm2.11-57.85a1.06,1.06,0,0,0,0-2.12A1.06,1.06,0,0,0,461.89,1748.36Zm2.82,33.16c1.41,0,1.41-2.82,0-2.82S463.3,1781.52,464.71,1781.52Zm4.94,9.88c1.41,0,1.41-2.83,0-2.83S468.24,1791.4,469.65,1791.4Zm2.12,1.41c1.41,1.41,4.23-1.41,2.82-2.83S471.06,1791.4,471.77,1792.81Zm2.82-41.63c1.41,0,1.41-2.82,0-2.82S473.18,1751.18,474.59,1751.18Zm0,35.27c1.41,0,1.41-2.82,0-2.82S473.18,1786.45,474.59,1786.45Zm2.82-32.45c.71,0,.71-2.82,0-2.82C476,1751.18,476,1754,477.41,1754Zm2.12,2.12a1.06,1.06,0,0,0,0-2.12A1.06,1.06,0,0,0,479.53,1756.12Zm2.82-161.57c1.41,0,1.41-2.82,0-2.82S480.94,1594.55,482.35,1594.55Zm2.12,151.69c1.41,0,1.41-2.82,0-2.82C483.76,1743.42,483.76,1746.24,484.47,1746.24Zm2.82,3.53a1.06,1.06,0,0,0,0-2.12A1.06,1.06,0,0,0,487.29,1749.77Zm4.94-371.11a1.06,1.06,0,0,0,0-2.12A1.06,1.06,0,0,0,492.23,1378.66Zm3.53,424c2.82,0,4.94-2.83,6.35-5-1.41-2.82-2.12-2.82-3.53-2.82-2.82,0-4.94,2.82-6.35,4.94C493.64,1802.69,495.05,1802.69,495.76,1802.69Zm-.71-455.08a1.06,1.06,0,1,0,2.12,0A1.06,1.06,0,0,0,495.05,1347.61Zm4.94-12.7c.71,0,.71-2.82,0-2.82C498.58,1332.09,498.58,1334.91,500,1334.91Zm2.12,67.73V1730c0,8.47,9.87,22.58,19,22.58,12.7,0,24-14.11,24-25.4V1417.46c0-13.4-7.76-29.63-22.57-29.63C514.81,1387.83,502.11,1391.36,502.11,1402.64Zm9.17,402.87c3.53,0,3.53-5.65,3.53-7.77v-2.82l-9.88,4.94C506.34,1802.69,508.46,1805.51,511.28,1805.51ZM507,1358.9c1.42,0,1.42-2.82,0-2.82C506.34,1356.08,506.34,1358.9,507,1358.9Zm0,409.92c1.42,0,1.42-2.83,0-2.83C506.34,1766,506.34,1768.82,507,1768.82Zm0-416.27h1.42c1.41,0,2.82,0,3.52-2.82l-2.11-2.12ZM517.63,1790c.7,1.42,3.53-1.41,2.12-2.11A1.5,1.5,0,1,0,517.63,1790Zm2.12-19a1.06,1.06,0,1,0,0-2.11A1.06,1.06,0,1,0,519.75,1770.93Zm9.87,28.23v-4.24h-7C523.27,1797.74,527.51,1799.16,529.62,1799.16Zm0-431.79c1.41,1.41,4.24-.71,2.83-2.12S528.92,1366.66,529.62,1367.37Zm20.46,424c1.41,0,1.41-2.83,0-2.83S548.67,1791.4,550.08,1791.4Zm6.35,11.29c4.94,0,11.29-3.53,11.29-8.47V1790c-4.23,1.42-9.17,4.94-12.7,7.76-1.41-2.82-2.82-2.82-3.53-2.82h-1.41C551.49,1797.74,552.2,1802.69,556.43,1802.69ZM560,1791.4c1.41,0,1.41-2.83,0-2.83S558.55,1791.4,560,1791.4Zm2.82-6.35,2.12-4.94h-2.12Zm2.12-339.37c1.41,0,1.41-2.82,0-2.82S563.49,1445.68,564.9,1445.68Zm2.82-107.24a1.06,1.06,0,1,0,0-2.11A1.06,1.06,0,1,0,567.72,1338.44Zm0,286.45c1.41,0,1.41-2.82,0-2.82S566.31,1624.89,567.72,1624.89Zm2.12,176.38a1.06,1.06,0,1,0,0-2.11C569.13,1799.16,569.13,1801.27,569.84,1801.27Zm2.82-67.73a1.06,1.06,0,0,0,0-2.12A1.06,1.06,0,0,0,572.66,1733.54Zm2.12-387.34c1.41,0,1.41-2.82,0-2.82C574.07,1343.38,574.07,1346.2,574.78,1346.2Zm0,4.94a1.06,1.06,0,1,0,0-2.11C574.07,1349,574.07,1351.14,574.78,1351.14Zm0,240.59a1.06,1.06,0,0,0,0-2.12C574.07,1589.61,574.07,1591.73,574.78,1591.73Zm0-213.07,2.82-3.53C574.78,1376.54,574.78,1378,574.78,1378.66Zm0,217.3c0,.71,2.82.71,2.82,0C577.6,1594.55,574.78,1594.55,574.78,1596Zm1.41,182.74a1.06,1.06,0,0,0,0-2.12C575.48,1776.58,575.48,1778.7,576.19,1778.7Zm0-57.86v1.41l2.82-4.94C576.19,1718.72,576.19,1720.14,576.19,1720.84Zm1.41-379.58c1.41,0,1.41-2.82,0-2.82S576.19,1341.26,577.6,1341.26Zm0,403.57a1.06,1.06,0,0,0,0-2.12A1.06,1.06,0,0,0,577.6,1744.83Zm0,36.69c1.41,0,1.41-2.82,0-2.82S576.19,1781.52,577.6,1781.52ZM579,1354c1.41,0,1.41-2.82,0-2.82S577.6,1354,579,1354Zm7.76,290.69c.71,0,.71-2.83,0-2.83C585.36,1641.82,585.36,1644.65,586.77,1644.65Zm.71-90.31c1.41,0,1.41-2.83,0-2.83S586.06,1554.34,587.48,1554.34Zm0,41.62c0,.71,2.82.71,2.82,0C590.3,1594.55,587.48,1594.55,587.48,1596Zm1.41,31a1.06,1.06,0,0,0,0-2.12A1.06,1.06,0,0,0,588.89,1627Zm2.82,114.29c1.41,0,1.41-2.82,0-2.82S590.3,1741.3,591.71,1741.3Zm.71,33.87,2.82-2.83h-2.82Zm2.82-7.76a1.06,1.06,0,0,0,0-2.12A1.06,1.06,0,0,0,595.24,1767.41Zm1.41-21.17c1.41,0,1.41-2.82,0-2.82S595.24,1746.24,596.65,1746.24Zm2.12,7.76c1.41,0,1.41-2.82,0-2.82C598.06,1751.18,598.06,1754,598.77,1754Zm0,5.65c2.82-.71,2.82-2.12,2.82-3.53v-1.41Zm10.58-40.93v-4.23h-7.76C603,1717.31,606.53,1718.72,609.35,1718.72Zm-4.94-326c.7,1.41,3.53,1.41,4.94,0C610.05,1391.36,603,1391.36,604.41,1392.77ZM609.35,1579c.7,0,.7-2.12,0-2.12A1.06,1.06,0,0,0,609.35,1579Zm2.11,60.67c1.42,0,1.42-2.82,0-2.82S610.05,1639.7,611.46,1639.7Zm2.83,5c1.41,0,1.41-2.83,0-2.83S612.88,1644.65,614.29,1644.65Zm2.11-225.78a1.06,1.06,0,1,0,0-2.11C615.7,1416.76,615.7,1418.87,616.4,1418.87Zm0,156.63c1.42,1.41,4.24-1.41,2.83-2.12C617.82,1572,615.7,1574.09,616.4,1575.5Z"/><path class="cls-9" d="M811,1404.39l2.71,1.35a7.7,7.7,0,0,1,4.53-1.35c18.55.45,45.24,11.31,52.48,14.93,8.6,4.52,14,14.93,22.17,19.45,7.69,0,14,18.1,22.17,24.43,1.36,1.36,15.84,18.1,15.84,29l-2.26,2.71V1498a13.22,13.22,0,0,1-.91,4.07l.45.46a5.68,5.68,0,0,1,2.72-.46c12.67,0,14.48,48,14.48,61.54v14.93c0,2.71-1.81,6.33-4.07,9.05,0,1.35-.46,2.26-.46,4.07.91,0,1.81,1.36,1.81,2.26a2.48,2.48,0,0,1-1.35,2.26V1598c0,5.43-.91,10-7.24,30.77v-.45c-5,14-6.34,21.71-8.6,23.07-20.81,32.58-54.75,69.23-122.16,69.23-82.8,0-133-63.35-133-111.76l.9-1.35c-6.33-11.32-5.88-28.51-5.88-43v-35.29c10.41-71.94,69.22-124.87,130.76-124.87Zm-98.18,83.25v-2.27c-1.81,0-4.08,0-4.08,2.27Zm4.07,22.17V1508h-2.26Zm50.45-38.27c0,1.27-1.26,2.1-2.09,3.36-23.52,21.42-41.57,49.55-41.57,84.82,0,8.82,2.93,20.58,5.87,29.81h-.42c2.52,9.24,4.62,16.8,4.62,23.94v.42c2.94,2.52-1.26,4.62,4.62,10.5,8.4,17.63,32.75,34,65.5,34,33.17,0,45.35-6.72,53.33-13.44l-.84.42L868.53,1629l-.42.42,2.52-3.78c6.71-7.55,5.45-7.13,7.55-9.65l-3.77-1.26c1.67-2.52,2.09-5,4.61-7.14a18.19,18.19,0,0,0-.42-2.1s3.78-10.92,3.78-14.7c0-2.94,4.62-14.27,4.62-16v-12.18c0-29-8-53.74-24.77-75.58h.42L861,1485h-2.1c-4.2-2.52-13.44-10.08-13.44-10.08,0-.83-.42-.83-.42-1.26-.42.43-.84.43-1.68.43-4.62,0-4.62-3.36-10.07-4.62a4.55,4.55,0,0,1-2.52.42,36.38,36.38,0,0,1-13.44-2.52c-4.62-.84-10.5-2.52-14.28-2.52-6.29,0-13,0-17.63,5a5,5,0,0,1-4.2,1.67Zm-46.83,25.15c0,1.35.45,2.26,1.81,2.26.9,0,1.36-.91,1.36-2.26,0-.91-.46-2.27-1.36-2.27C721,1494.42,720.5,1495.78,720.5,1496.69Zm8.14,175.55c2.27,0,3.17-2.72,6.79-2.72V1660C733.62,1664.54,728.64,1668.62,728.64,1672.24Zm4.08-219.44a1.36,1.36,0,0,0,2.71,0c0-1.36-.45-2.26-1.36-2.26S732.72,1451.44,732.72,1452.8Zm7.23-5-1.81-2.26-1.8,2.26Zm-2.71,225.32c.9,0,.9-1.81,0-1.81S736.34,1673.14,737.24,1673.14Zm0,26.24c.9,0,.9-1.81,0-1.81S736.34,1699.38,737.24,1699.38Zm.9-220.34c0,1.36.46,1.81.91,1.81.9,0,.9-.45.9-1.81,0-.91,0-1.81-.9-1.81C738.6,1477.23,738.14,1478.13,738.14,1479Zm0,176c2.72,0,7.7,0,9.51-3.62-.91-.9-4.53-1.81-5.43-1.81C739.05,1649.61,738.14,1652.33,738.14,1655Zm.91,27.6h4.07c0-1.81-3.17-4.07-4.07-5Zm1.81,14,1.36-1.81-3.17-1.81v.9C739.05,1694.86,739.05,1695.76,740.86,1696.67Zm0-21.72c.9,0,.9-1.81,0-1.81S740,1675,740.86,1675Zm-.45-216.27c0,.9.45,2.26,1.81,2.26.9,0,.9-1.36.9-2.26,0-1.36,0-2.26-.9-2.26C740.86,1456.42,740.41,1457.32,740.41,1458.68Zm.45,230.3v.9c1.36-.9,3.17-2.71,3.17-4.52v-.91A5.47,5.47,0,0,0,740.86,1689Zm3.62-236.18c0,.9.45,1.35,1.81,1.35.45,0,.9-.45.9-1.35,0-1.36-.45-2.26-.9-2.26C744.93,1450.54,744.48,1451.44,744.48,1452.8Zm5,240.25c.9,0,.9-1.81,0-1.81S748.55,1693.05,749.46,1693.05Zm1.8-25.79c3.17-2.72,5.89-.91,6.79-5.43h-1.81Zm1.82,8.6c3.16-.91.45-4.53.45-6.34,3.62,0,6.33,2.72,6.33-3.17v-.9c-.9.9-6.33,2.26-6.78,3.17-.91,0-1.82,1.81-1.82,1.81C751.26,1671.33,752.17,1675,753.08,1675.86Zm-.91-239.35c0,1.36.45,2.26,1.36,2.26a2.07,2.07,0,0,0,1.81-2.26c0-.45-.91-1.81-1.81-1.81S752.17,1436.06,752.17,1436.51Zm2.26,224.41c.91,0,.91-1.81,0-1.81S753.53,1660.92,754.43,1660.92Zm0,17.65c.91,0,.91-1.81,0-1.81S753.53,1678.57,754.43,1678.57Zm3.62,12.22c.91,0,.91-1.81,0-1.81S757.15,1690.79,758.05,1690.79Zm1.36-265.14,2.26-2.26H757.6Zm5.88,264.23v-5.43l-3.62,3.62C762.58,1689.88,763.48,1689.88,765.29,1689.88Zm-3.62,6.79h1.81v-1.81h-1.81Zm4.07-17.19h.91c.9,0,4.52-2.72,5.43-3.62l-3.62-3.62-5,5.43C764.39,1679.48,765.29,1679.48,765.74,1679.48Zm-1.81-240.26c0,.91.46,2.27,1.36,2.27,1.36,0,1.36-1.36,1.36-2.27,0-1.35,0-2.71-1.36-2.71C764.39,1436.51,763.93,1437.87,763.93,1439.22Zm1.36,17.2c1.36,0,1.36-.46,1.36-.91,0-.9,0-1.36-1.36-1.36a1.21,1.21,0,0,0-1.36,1.36C763.93,1456,764.39,1456.42,765.29,1456.42Zm0,243c.45,0,.45-1.81,0-1.81C764.39,1697.57,764.39,1699.38,765.29,1699.38Zm6.79-29.86c.9,0,.9-1.81,0-1.81S771.17,1669.52,772.08,1669.52Zm1.81,37.55v-1.81C772.08,1705.26,770.27,1706.17,773.89,1707.07Zm0-26.24h1.81l-1.81-1.35Zm36.19-262v-1.81l-1.81,1.81Zm-1.81,8.6h1.81v-1.81h-1.81Zm8.15-8.6,5.88-6.33H820c-1.81,0-3.62,2.26-5.88,4.52Zm3.62,29c0,1.36.45,2.26.9,2.26.91,0,1.36-.9,1.36-2.26,0-.91-.45-1.81-1.36-1.81C820.49,1446,820,1446.91,820,1447.82Zm25.34,8.6c2.26,0,2.26-2.27,0-3.62Zm44.79,40.27c.9,0,1.81-.46,1.81-.91,0-.91-.91-1.36-1.81-1.36a1.2,1.2,0,0,0-1.36,1.36C888.81,1496.23,889.26,1496.69,890.17,1496.69Zm4.07-6.79,4.07-4.53h-2.26Zm1.36,42.53h2.26v-2.26H895.6Zm12.21-55.65c-2.26,0-2.26,0-2.26,2.26,0,.45,0,.9.45.9a4.08,4.08,0,0,0,2.72-2.71A1.57,1.57,0,0,0,907.81,1476.78Zm10,130.76c.45,0,1.36-.91,1.36-2.27,0-.9-.91-2.26-1.36-2.26-.91,0-1.81,1.36-1.81,2.26A2.07,2.07,0,0,0,917.77,1607.54Zm10-77.37c1.81,2.26,3.62,6.33,5.43,6.33,0-1.81-1.81-4.07-3.62-6.33Z"/><path class="cls-3" d="M817.56,1411l2.71,1.35a7.7,7.7,0,0,1,4.53-1.35c18.55.45,45.25,11.31,52.48,14.93,8.6,4.52,14,14.93,22.17,19.45,7.69,0,14,18.1,22.17,24.43,1.36,1.36,15.84,18.1,15.84,29l-2.26,2.72v3.16a13.22,13.22,0,0,1-.91,4.07l.45.46a5.68,5.68,0,0,1,2.72-.46c12.67,0,14.48,48,14.48,61.54v14.93c0,2.71-1.81,6.33-4.07,9,0,1.36-.46,2.26-.46,4.07.91,0,1.81,1.36,1.81,2.26a2.48,2.48,0,0,1-1.35,2.26v1.81c0,5.43-.91,10-7.24,30.77v-.45c-5,14-6.34,21.72-8.6,23.07-20.81,32.58-54.75,69.23-122.16,69.23-82.8,0-133-63.35-133-111.76l.9-1.35c-6.33-11.32-5.88-28.51-5.88-43v-35.29C682.28,1463.89,741.09,1411,802.63,1411Zm-98.18,83.25v-2.27c-1.81,0-4.08,0-4.08,2.27Zm4.07,22.17v-1.81h-2.26Zm50.45-38.26c0,1.26-1.25,2.1-2.09,3.36-23.52,21.41-41.57,49.54-41.57,84.81,0,8.82,2.94,20.58,5.87,29.81h-.42c2.52,9.24,4.62,16.8,4.62,23.94v.42c2.94,2.52-1.26,4.62,4.62,10.5,8.4,17.63,32.75,34,65.5,34,33.18,0,45.35-6.72,53.33-13.44l-.84.42,12.18-16.38-.42.42,2.52-3.78c6.71-7.55,5.45-7.13,7.55-9.65L881,1621.3c1.67-2.52,2.1-5,4.61-7.14a18.58,18.58,0,0,0-.41-2.1s3.77-10.92,3.77-14.7c0-2.94,4.62-14.27,4.62-15.95v-12.18c0-29-8-53.74-24.77-75.58h.42l-1.68-2.1h-2.1c-4.2-2.52-13.44-10.07-13.44-10.07,0-.84-.42-.84-.42-1.26-.42.42-.84.42-1.68.42-4.62,0-4.62-3.36-10.07-4.62a4.55,4.55,0,0,1-2.52.42,36.38,36.38,0,0,1-13.44-2.52c-4.62-.84-10.5-2.52-14.28-2.52-6.29,0-13,0-17.63,5a5,5,0,0,1-4.2,1.68Zm-46.83,25.14c0,1.35.45,2.26,1.81,2.26.9,0,1.36-.91,1.36-2.26,0-.91-.46-2.27-1.36-2.27C727.52,1501,727.07,1502.35,727.07,1503.26Zm8.15,175.55c2.26,0,3.16-2.72,6.78-2.72v-9.5C740.19,1671.11,735.22,1675.19,735.22,1678.81Zm4.07-219.44a1.36,1.36,0,0,0,2.71,0c0-1.36-.45-2.26-1.36-2.26S739.29,1458,739.29,1459.37Zm7.23-5-1.8-2.26-1.81,2.26Zm-2.71,225.32c.91,0,.91-1.81,0-1.81S742.91,1679.71,743.81,1679.71Zm0,26.24c.91,0,.91-1.81,0-1.81S742.91,1706,743.81,1706Zm.91-220.34c0,1.36.45,1.81.9,1.81.9,0,.9-.45.9-1.81,0-.91,0-1.81-.9-1.81C745.17,1483.8,744.72,1484.7,744.72,1485.61Zm0,176c2.71,0,7.69,0,9.5-3.62-.91-.9-4.53-1.81-5.43-1.81C745.62,1656.18,744.72,1658.9,744.72,1661.61Zm.9,27.6h4.07c0-1.81-3.17-4.07-4.07-5Zm1.81,14,1.36-1.81-3.17-1.81v.9C745.62,1701.43,745.62,1702.33,747.43,1703.24Zm0-21.72c.91,0,.91-1.81,0-1.81S746.52,1681.52,747.43,1681.52ZM747,1465.25c0,.9.45,2.26,1.81,2.26.9,0,.9-1.36.9-2.26,0-1.36,0-2.26-.9-2.26C747.43,1463,747,1463.89,747,1465.25Zm.45,230.3v.9c1.36-.9,3.17-2.71,3.17-4.52V1691A5.47,5.47,0,0,0,747.43,1695.55Zm3.62-236.18c0,.9.45,1.35,1.81,1.35.45,0,.9-.45.9-1.35,0-1.36-.45-2.26-.9-2.26C751.5,1457.11,751.05,1458,751.05,1459.37Zm5,240.25c.9,0,.9-1.81,0-1.81S755.12,1699.62,756,1699.62Zm1.81-25.79c3.16-2.72,5.88-.91,6.78-5.43h-1.81Zm1.81,8.6c3.16-.91.45-4.53.45-6.34,3.62,0,6.33,2.72,6.33-3.17v-.9c-.9.9-6.33,2.26-6.78,3.17-.91,0-1.81,1.81-1.81,1.81C757.84,1677.9,758.74,1681.52,759.65,1682.43Zm-.91-239.35c0,1.36.45,2.26,1.36,2.26a2.07,2.07,0,0,0,1.81-2.26c0-.45-.91-1.81-1.81-1.81S758.74,1442.63,758.74,1443.08ZM761,1667.5c.91,0,.91-1.81,0-1.81S760.1,1667.5,761,1667.5Zm0,17.64c.91,0,.91-1.81,0-1.81S760.1,1685.14,761,1685.14Zm3.62,12.22c.91,0,.91-1.81,0-1.81S763.72,1697.36,764.62,1697.36ZM766,1432.22l2.26-2.26h-4.07Zm5.88,264.23V1691l-3.62,3.62C769.15,1696.45,770.05,1696.45,771.86,1696.45Zm-3.62,6.79h1.81v-1.81h-1.81Zm4.07-17.19h.91c.91,0,4.52-2.72,5.43-3.62l-3.62-3.62-5,5.43C771,1686.05,771.86,1686.05,772.31,1686.05Zm-1.8-240.26c0,.91.45,2.27,1.35,2.27,1.36,0,1.36-1.36,1.36-2.27,0-1.35,0-2.71-1.36-2.71C771,1443.08,770.51,1444.44,770.51,1445.79Zm1.35,17.2c1.36,0,1.36-.45,1.36-.91,0-.9,0-1.36-1.36-1.36a1.2,1.2,0,0,0-1.35,1.36C770.51,1462.54,771,1463,771.86,1463Zm0,243c.45,0,.45-1.81,0-1.81C771,1704.14,771,1706,771.86,1706Zm6.79-29.86c.9,0,.9-1.81,0-1.81S777.74,1676.09,778.65,1676.09Zm1.81,37.56v-1.82C778.65,1711.83,776.84,1712.74,780.46,1713.65Zm0-26.25h1.81l-1.81-1.35Zm36.19-262v-1.81l-1.81,1.81Zm-1.81,8.6h1.81v-1.81h-1.81Zm8.15-8.6,5.88-6.33h-2.26c-1.81,0-3.62,2.26-5.88,4.52Zm3.62,29c0,1.36.45,2.26.9,2.26.91,0,1.36-.9,1.36-2.26,0-.9-.45-1.81-1.36-1.81C827.06,1452.58,826.61,1453.49,826.61,1454.39ZM852,1463c2.26,0,2.26-2.27,0-3.62Zm44.79,40.27c.9,0,1.81-.46,1.81-.91,0-.9-.91-1.36-1.81-1.36a1.2,1.2,0,0,0-1.36,1.36C895.38,1502.8,895.83,1503.26,896.74,1503.26Zm4.07-6.79,4.07-4.53h-2.26Zm1.36,42.53h2.26v-2.26h-2.26Zm12.22-55.65c-2.27,0-2.27,0-2.27,2.26,0,.45,0,.91.45.91a4.09,4.09,0,0,0,2.72-2.72A1.57,1.57,0,0,0,914.39,1483.35Zm10,130.76c.45,0,1.36-.91,1.36-2.27,0-.9-.91-2.26-1.36-2.26-.91,0-1.81,1.36-1.81,2.26A2.07,2.07,0,0,0,924.34,1614.11Zm9.95-77.37c1.81,2.26,3.62,6.33,5.43,6.33,0-1.81-1.81-4.07-3.62-6.33Z"/><path class="cls-2" d="M156.69,1675.4s46.23,51,150.93,11.3c0,0-91.61,179.72,53.14,226.21,115.08,37,280.46,27,314.62-64.35,18.4-49.21,9.65-51,9.65-51s41.21,19.36,121.05,14.25c9.71-.62,15-8.38.69-7.14-87.86,7.57-133.06-23.93-133.06-23.93s9.6,4.55,1,38.8c-9.49,37.65-42.44,103.66-165.36,105.83-130.29,2.31-168.77-32.7-183.93-47.09-73.89-70.19,4-200.61-2.29-205.43s-39.67,16.4-72.24,19.09c-25.08,2.07-55.15-4.11-84.55-27.55C152.2,1653.11,151.2,1671.35,156.69,1675.4Z"/></g></g></svg>