<svg xmlns="http://www.w3.org/2000/svg" viewBox="0 0 1686.45 2922.79"><defs><style>.cls-1{fill:#fff;}</style></defs><title>logo-wit</title><g id="Laag_2" data-name="Laag 2"><g id="Laag_1-2" data-name="Laag 1"><path class="cls-1" d="M1679.52,1633.57a.74.74,0,0,1-.56.3c-21.79.11-14.64-46.88-25.67-74.53-30.4-76.26-124.57-77.55-121.61-82.1,2.22-3.73,94,.25,135.81,65.69C1685,1570.4,1693.32,1633.87,1679.52,1633.57Z"/><path class="cls-1" d="M1167.88,2721.54c-7.64.36,41.53-.51,57.85-4.12,6.39-1.41,82.19,187.52,103,188.56s66.8-236.53,66.8-236.53,11.82-2.3,22-18.77c13-21,10.72-39.78,10.72-39.78a17.41,17.41,0,0,0,8.21,1.33c3.27,8.36,4.7,28.64-11.8,50.61-5,6.59-14.92,12.45-14.92,12.45l-3.66,12.49s-52.12,239.8-83.39,234.94-102-186.63-121.27-189.86c-12.71-2.13-14.75-2.09-14.75-2.09Z"/><path class="cls-1" d="M341.67,487s10.26-65.18,50.63-50.63A166.14,166.14,0,0,0,494.72,440c25.54-7.3,77.87-64.47,13.39-103.41s-42.36-13.15-73.5,14.1-89.5,26.83-105,42.56S293.06,462.43,341.67,487Z"/><path class="cls-1" d="M120.06,1094.19c1.28-26.62,26.63-58.31,53.24-58.31,36.77,0,49.45,36.77,49.45,65.92,0,26.62-21.56,44.37-21.56,67.18,0,52,49.45,78.61,93.81,78.61,45.65,0,81.14-20.29,91.27-67.19V1032.07c0-97.61,1.28-178.74-5.06-275.09,2.54-48.17-65.92-45.63-78.59-39.29-7.62-5.08-11.42-10.15-11.42-19v-123c0-8.88,3.8-12.68,12.68-12.68C326.69,563,489,558,525.73,558h31.69c2.53,29.15,3.8,90,3.8,130.56v14l-3.8,3.8c-22.82,2.53-68.46,0-77.34,31.69v415.81c-2.52,148.32-8.86,252.26-180,252.26-144.53,0-180-117.88-180-245.92Zm26.63,63.39c2.52,8.88,3.8,31.69,3.8,31.69l10.14,5.07c1.27-8.87,3.8-25.36,3.8-36.76-6.34,0-13.94,0-17.74-3.8v3.8Zm3.8-38c2.54,0,2.54-5.07,0-5.07C149.21,1114.48,149.21,1119.55,150.49,1119.55Zm13.94,15.21v14c8.87-8.88,13.95-22.82,13.95-35.51C164.43,1117,164.43,1122.08,164.43,1134.76ZM173.3,1207a1.91,1.91,0,0,0,0-3.81A1.91,1.91,0,0,0,173.3,1207Zm0,77.32c0,2.54,5.08,2.54,5.08,0S173.3,1281.82,173.3,1284.34Zm5.08-58.3,3.8-5.08h-3.8Zm3.8-147c2.54,0,2.54-5.08,0-5.08C180.92,1073.91,180.92,1079,182.18,1079Zm5.08,5.06c2.52,0,2.52-5.06,0-5.06S184.72,1084.05,187.26,1084.05Zm0,10.14,3.8-3.8h-3.8Zm8.87,239.6c0,2.53,5.06,2.53,5.06,0S196.13,1331.25,196.13,1333.79Zm17.74-43.11a1.9,1.9,0,1,0,0-3.8C212.61,1286.88,212.61,1290.68,213.87,1290.68Zm5.08,68.46c2.53,0,2.53-5.06,0-5.06S216.41,1359.14,219,1359.14Zm0-60.84h3.8v-10.14Zm13.93-19,3.81-3.81c-2.53-5.06-3.81-5.06-6.34-5.06h-2.53Zm-5.06,63.38h5.06v-3.8Zm0,8.88c0,2.54,5.06,2.54,5.06,0C232.88,1350.26,227.82,1350.26,227.82,1351.54Zm26.62-31.69v-3.8h-8.88Zm-3.8,13.94a1.9,1.9,0,0,0,0-3.8A1.9,1.9,0,1,0,250.64,1333.79Zm8.87-52a1.9,1.9,0,1,0,0-3.81A1.9,1.9,0,1,0,259.51,1281.82Zm0,54.5c2.54,0,2.54-5.07,0-5.07S257,1336.32,259.51,1336.32Zm17.75,11.42c0,2.52,5.07,2.52,5.07,0S277.26,1345.2,277.26,1347.74Zm5.07-40.57c0,1.26,3.8,1.26,3.8,0A1.9,1.9,0,1,0,282.33,1307.17ZM416.7,859.67h13.95c-3.81-1.27-6.33-3.8-11.41-3.8H416.7Zm5.08,192.69c2.54,0,2.54-5.08,0-5.08S419.24,1052.36,421.78,1052.36Zm13.94-138.18V891.36H421.78C421.78,899,433.18,911.65,435.72,914.18ZM426.84,1027c1.28,2.53,6.34-2.54,3.81-3.8C428.12,1020.67,424.32,1024.47,426.84,1027Zm0,81.13c1.28,2.54,6.34-2.54,3.81-3.8C428.12,1101.8,424.32,1105.6,426.84,1108.14Zm0-14h12.69v-8.86Zm17.75-90v-8.87c0-3.8,2.54-15.22-8.87-14v5.07C435.72,992.78,437,997.85,444.59,1004.19Zm0,100.15h3.8v-10.15C444.59,1096.73,444.59,1099.26,444.59,1104.34Z"/><path class="cls-1" d="M540.87,964.76c0-32.51-5.42-98.63,15.17-127.89,18.43-21.68,59.62,3.25,82.38-13,22.76-13,48.77-127.89,62.86-162.58,18.43-47.69,150.66-403.19,169.08-405.36,42.27-1.08,93.21-8.67,135.49-8.67,34.68,0,127.89-8.67,158.24,14.09,20.59,14.09,34.68,92.13,42.27,113.81,13,37.93,174.49,458.47,188.59,458.47h73.7c4.34,0,8.68,11.92,8.68,11.92v155c0,17.34-44.45,11.93-45.54,11.93h-26c-5.42-8.68-8.68-8.68-17.35-8.68-5.42,0-8.67,0-13,8.68-35.77,0-199.43,5.41-236.28,5.41h-57.45c-35.76,0-118.14-5.41-118.14-5.41l-3.25-3.26V842.29c0-5.42,10.84-8.67,10.84-8.67s31.44-2.17,44.43-5.42c7.59,0,37.95-4.34,45.54-4.34v-6.51c5.41-49.85-40.12-44.43-73.71-42.26-46.61,0-74.79,0-121.4,5.42-19.5,6.5-21.67,30.34-21.67,50.94h100.8v181s-27.1,5.41-35.77,5.41H752.22c-29.26,0-162.57-5.41-191.84-5.41C543,1007,540.87,984.27,540.87,964.76Zm156.07-15.17c2.17,0,2.17-4.34,0-4.34C695.87,945.25,695.87,949.59,696.94,949.59Zm4.34,4.34c2.16,0,2.16-4.34,0-4.34S699.11,953.93,701.28,953.93Zm16.26-241.71c2.17,0,2.17-4.34,0-4.34A2.18,2.18,0,1,0,717.54,712.22ZM721.87,696h7.59l-4.33-3.25Zm15.18,14.08h2.17c3.25,0,3.25,0,5.42-5.42,0-1.08-5.42-3.25-7.59-3.25s-9.76,2.17-11.92,3.25C727.29,704.63,734.88,710.05,737.05,710.05Zm-7.59,217.86c2.17,0,2.17-5.42,0-5.42S727.29,927.91,729.46,927.91Zm3.25-22.76a1.63,1.63,0,1,0,0-3.25C731.63,901.9,731.63,905.15,732.71,905.15Zm4.34-246c2.17,0,2.17-5.42,0-5.42S734.88,659.11,737.05,659.11Zm3.25,104h2.17c4.34,0,7.58-5.42,9.75-9.76H740.3l4.34,4.34Zm4.34,107.3c2.17,0,2.17-4.33,0-4.33S742.47,870.46,744.64,870.46Zm0,19.52H749l-4.34-4.34ZM749,664.53c1.07,0,1.07-5.42,0-5.42C746.81,659.11,746.81,664.53,749,664.53Zm0-33.59c1.07,2.16,5.41-2.17,3.24-5.42C750.05,623.35,746.81,628.77,749,630.94Zm3.24,231.94a2.18,2.18,0,1,0,4.33,0C756.55,861.79,752.22,861.79,752.22,862.88Zm4.33,42.27a1.63,1.63,0,1,0,0-3.25A1.63,1.63,0,0,0,756.55,905.15Zm3.26,44.44c2.16,0,2.16-4.34,0-4.34C758.72,945.25,758.72,949.59,759.81,949.59Zm4.33-35.77a1.63,1.63,0,0,0,0-3.26A1.63,1.63,0,0,0,764.14,913.82Zm0,61.78a1.63,1.63,0,1,0,0-3.25A1.63,1.63,0,1,0,764.14,975.6Zm3.25-90c2.17,0,2.17-4.34,0-4.34C766.31,881.3,766.31,885.64,767.39,885.64Zm0,16.26V903l4.34-8.68C767.39,896.48,767.39,898.65,767.39,901.9Zm4.34-61.78c2.17,0,2.17-5.42,0-5.42S769.56,840.12,771.73,840.12Zm0,19.5c7.59-5.41,22.77-10.83,28.19-14.08l-4.34-21.68H794.5c-7.59,0-15.18,10.84-15.18,10.84h10.84c-8.67,2.17-4.34,14.09-18.43,14.09Zm15.18,36.86c3.25,0,3.25-3.25,0-3.25A1.63,1.63,0,1,0,786.91,896.48Zm0-336h5.42V543.15Zm5.42,423.79a1.63,1.63,0,1,0,0-3.25A1.63,1.63,0,1,0,792.33,984.27Zm10.83-59.61a1.63,1.63,0,0,0,0-3.26C802.07,921.4,802.07,924.66,803.16,924.66Zm4.33-135.48c2.17,0,2.17-5.42,0-5.42S805.33,789.18,807.49,789.18Zm0,143.07c2.17,0,2.17-4.34,0-4.34S805.33,932.25,807.49,932.25Zm4.34-70.46c1.08,0,1.08-4.32,0-4.32C809.66,857.47,809.66,861.79,811.83,861.79Zm0-59.6h3.25l-3.25-4.34Zm7.59,50.94c1.08,0,1.08-4.34,0-4.34C817.25,848.79,817.25,853.13,819.42,853.13Zm3.25-375c2.17,0,2.17-4.33,0-4.33S820.5,478.11,822.67,478.11Zm0,22.76c2.17,0,2.17-5.42,0-5.42S820.5,500.87,822.67,500.87Zm4.34,3.25a1.63,1.63,0,1,0,0-3.25A1.63,1.63,0,1,0,827,504.12Zm3.25,397.78c2.17,0,2.17-5.42,0-5.42C829.18,896.48,829.18,901.9,830.26,901.9Zm16.26-441.13c0-2.17,0-10.84-4.34-10.84-2.16,0-7.58,2.17-7.58,4.33C836.76,460.77,844.35,460.77,846.52,460.77Zm-11.92,73.7,7.58-5.42-7.58-8.67Zm3.25,34.68,4.33-5.42-7.58-3.25v2.17C834.6,563.73,834.6,565.9,837.85,569.15Zm4.33-65a1.63,1.63,0,1,0,0-3.25A1.63,1.63,0,0,0,842.18,504.12Zm0,251.45a1.63,1.63,0,1,0,0-3.25A1.63,1.63,0,0,0,842.18,755.57Zm7.59-87.79a1.63,1.63,0,1,0,0-3.25A1.63,1.63,0,0,0,849.77,667.78ZM866,516.05c2.17,0,17.35-6.51,19.52-8.68H878c2.17-1.08,7.59-6.5,7.59-8.67,0-3.25-2.17-8.66-3.26-8.66L854.1,503C854.1,504.12,864.94,516.05,866,516.05Zm-8.67,64c2.17,0,2.17-5.43,0-5.43S855.18,580,857.35,580Zm0,121.38h5.42v-8.66C857.35,693.8,857.35,696,857.35,701.38Zm5.42-112.71c2.17,0,2.17-5.42,0-5.42C859.52,583.25,859.52,588.67,862.77,588.67Zm0,96.46a1.63,1.63,0,1,0,0-3.25C859.52,681.88,859.52,685.13,862.77,685.13Zm1.09-191.85c6.5-5.41,11.92-2.17,14.09-11.91h-4.34ZM866,606a1.63,1.63,0,1,0,0-3.25C864.94,602.75,864.94,606,866,606Zm0,8.67a1.63,1.63,0,1,0,0-3.25C864.94,611.42,864.94,614.67,866,614.67Zm0-89.95c2.17,2.17,6.51-2.17,4.34-4.34S864.94,522.55,866,524.72Zm0,179.91a2.18,2.18,0,1,0,4.34,0C870.36,703.55,866,703.55,866,704.63Zm4.34-197.26c-2.17,0-2.17-4.33,0-4.33S872.53,507.37,870.36,507.37Zm0,177.76a1.63,1.63,0,1,0,0-3.25A1.63,1.63,0,1,0,870.36,685.13Zm0,264.46c2.17,0,2.17-4.34,0-4.34S868.19,949.59,870.36,949.59Zm0-640.56H1002.6c-2.17-14.09-21.69,5.42-27.11-14.09l4.34-3.26c-2.17-2.16-16.26-4.33-19.51-4.33-4.33,0-9.75,4.33-11.92,7.59v-5.42H936.48v-2.17c-11.93,0-26,13-39,13v-5.42C892,302.53,866,293.85,870.36,309Zm0,365.26h27.1l3.25-4.34c-5.42,3.25-10.84,0-15.17-4.33l7.59-8.68-3.26-4.33Zm3.25,209.18c2.17,0,2.17-4.33,0-4.33C872.53,879.14,872.53,883.47,873.61,883.47Zm0-277.47v10.84h7.59C876.86,615.76,874.7,611.42,873.61,606Zm0,104c0,2.17,4.34,2.17,4.34,0S873.61,707.88,873.61,710.05ZM878,554c2.17,0,2.17-5.42,0-5.42S875.78,554,878,554Zm0,382.6c2.17,0,2.17-4.33,0-4.33S875.78,936.58,878,936.58Zm0-64h4.33V868.3Zm4.33-149.57c3.26-2.17,3.26-4.33,3.26-9.76h-3.26Zm3.26-153.91h4.33v-5.42h-4.33Zm4.33-87.78h19.51l-4.33-5.43c9.75-2.16,19.5-8.67,19.5-21.68v-4.33C909.38,456.43,900.71,472.69,889.87,481.37Zm3.26-191.85c2.16,0,2.16-5.42,0-5.42C892,284.1,892,289.52,893.13,289.52Zm0,256.87,7.58-3.24h-1.08C897.46,543.15,895.29,543.15,893.13,546.39Zm16.25,409.7V944.17c-4.33,1.08-9.75,3.25-11.92,8.67C900.71,953.93,905.05,956.09,909.38,956.09Zm-8.67-610.21a1.63,1.63,0,1,0,0-3.25C899.63,342.63,899.63,345.88,900.71,345.88Zm18.42,295.9c28.19,0,70.46-4.34,87.8-5.42V619C1006.93,602.75,969,502,961.4,502c-30.34,0-59.6,99.72-59.6,123.57C901.8,637.44,909.38,641.78,919.13,641.78Zm-14.08-93.22c2.16,0,2.16-4.34,0-4.34S902.88,548.56,905.05,548.56Zm0-195.09h7.58v-4.34Zm4.33,545.18h3.25v-4.34h-3.25Zm3.25-369.6h7.59l-7.59-4.33Zm7.59,189.68c2.17,0,4.33-2.17,4.33-5.43-6.5-1.08-11.92-9.75-7.58-17.33-4.34,5.41-4.34,8.66-4.34,14.08C912.63,716.56,912.63,718.73,920.22,718.73Zm-7.59,259a4.67,4.67,0,0,0,4.34-4.34c0-1.08-2.17-8.67-4.34-8.67ZM917,687.3h7.58c5.42,0,23.85-17.35,23.85-26,0-2.17-2.17-4.34-3.25-4.34Zm3.25-175.59c2.17,3.25,9.75,3.25,11.92,0C935.39,509.54,918.05,509.54,920.22,511.71Zm7.59-42.27c2.16,0,2.16-4.34,0-4.34C926.72,465.1,926.72,469.44,927.81,469.44Zm8.67,223.28c2.17,1.08,6.5-2.17,4.33-5.42C938.65,685.13,935.39,690.55,936.48,692.72Zm4.33-253.63c2.17,0,2.17-5.41,0-5.41S938.65,439.09,940.81,439.09Zm4.34,297h7.59v-4.34C948.4,731.73,946.23,731.73,945.15,736.07Zm3.25-354.42c2.17,0,2.17-4.33,0-4.33S946.23,381.65,948.4,381.65ZM956,664.53c2.17,0,2.17-5.42,0-5.42S953.82,664.53,956,664.53Zm0,58.53c2.17,2.17,6.5-2.17,4.33-4.33S953.82,720.89,956,723.06Zm4.33-35.76V684H956Zm0-389.11c-2.16,0-2.16-4.34,0-4.34S962.49,298.19,960.32,298.19Zm7.59,5.42c-2.17,3.25-2.17-9.76,0-8.67C970.07,298.19,970.07,302.53,967.91,303.61Zm0,370.68c2.16,2.17,5.42-1.09,3.25-4.34C970.07,667.78,965.74,673.2,967.91,674.29Zm15.17-23.85c2.17,0,2.17-5.41,0-5.41S980.91,650.44,983.08,650.44Zm7.59,54.19c2.17-1.08,2.17-5.41,0-8.66C988.5,693.8,988.5,707.88,990.67,704.63Zm7.59,168v-9.75h-7.59C990.67,868.3,995,872.63,998.26,872.63Zm-7.59,71.54h2.17c7.59,0,18.42-5.42,18.42-14.09v-5.42ZM1002.6,503c0,1.08,3.25,1.08,3.25,0A1.63,1.63,0,1,0,1002.6,503Zm3.25-148.49c3.25,0,3.25-3.25,0-3.25C1004.76,351.3,1004.76,354.55,1005.85,354.55Zm5.41-52c2.17,0,2.17-4.34,0-4.34S1009.1,302.53,1011.26,302.53Zm4.33,591.78V890h-4.33Zm0-590.7h7.59v-3.25Zm3.26,60.7c2.16,0,2.16-4.34,0-4.34S1016.68,364.31,1018.85,364.31Zm0,100.79c2.16,0,2.16-4.33,0-4.33S1016.68,465.1,1018.85,465.1Zm0,37.94c2.16,2.16,7.59,11.92,11.92,11.92V503Zm7.59,382.6c2.16,2.17,6.5-2.17,4.33-4.34S1025.35,883.47,1026.44,885.64Zm4.33-539.76a1.63,1.63,0,1,0,0-3.25A1.63,1.63,0,1,0,1030.77,345.88Zm0,14.09c2.17,0,2.17-5.42,0-5.42S1028.6,360,1030.77,360Zm0-50.94a1.63,1.63,0,1,0,3.25,0A1.63,1.63,0,1,0,1030.77,309Zm7.59,36.85a1.63,1.63,0,1,0,0-3.25A1.63,1.63,0,1,0,1038.36,345.88Zm0,152.82H1046v-4.34Zm0,13c4.34,0,7.59-2.17,11.92-4.34h-11.92Zm4.34-200.51c3.25,0,17.34-2.17,18.43-2.17,2.15,0,4.32-2.17,4.32-5.42H1042.7ZM1046,927.91c2.17,0,2.17-5.42,0-5.42S1043.78,927.91,1046,927.91Zm4.33,4.34c1.09,0,1.09-4.34,0-4.34C1048.12,927.91,1048.12,932.25,1050.28,932.25Zm0,8.67c1.09,0,1.09-4.34,0-4.34C1048.12,936.58,1048.12,940.92,1050.28,940.92Zm3.26-550.61c2.17,0,2.17-4.33,0-4.33S1051.37,390.31,1053.54,390.31Zm0,91.06h4.33c10.83,0,31.43-8.68,31.43-24.94v-6.5C1073,456.43,1065.45,472.69,1053.54,481.37Zm7.59,411.86c2.15,0,2.15-5.42,0-5.42C1060,887.81,1060,893.23,1061.13,893.23Zm0,60.7c2.15,0,2.15-4.34,0-4.34C1060,949.59,1060,953.93,1061.13,953.93Zm0-574.45a24,24,0,0,0,16.25-17.34ZM1073,898.65v-13l-7.59,8.67C1067.62,898.65,1068.7,898.65,1073,898.65ZM1068.7,386c2.17,0,2.17-4.33,0-4.33C1067.62,381.65,1067.62,386,1068.7,386Zm0,536.51a1.63,1.63,0,1,0,0-3.25C1067.62,919.24,1067.62,922.49,1068.7,922.49Zm0,58.53c2.17,0,2.17-5.42,0-5.42C1067.62,975.6,1067.62,981,1068.7,981Zm0-499.65c0,2.16,4.34,2.16,4.34,0A2.19,2.19,0,1,0,1068.7,481.37Zm4.34-42.28c2.17,0,2.17-5.41,0-5.41S1070.87,439.09,1073,439.09Zm4.34-15.17c2.16-2.17,8.67-10.84,8.67-13v-5.42l-13,14.09ZM1073,872.63h4.34v-9.75C1073,866.13,1073,868.3,1073,872.63Zm4.34-544.09a1.63,1.63,0,0,0,0-3.25A1.63,1.63,0,1,0,1077.38,328.54Zm0-24.93h2.16c2.17,0,4.34,0,6.51-3.25Zm4.33,39c2.17,0,2.17-5.43,0-5.43S1079.54,342.63,1081.71,342.63Zm0,30.35c2.17,0,2.17-4.34,0-4.34S1079.54,373,1081.71,373Zm0,506.16c2.17,0,2.17-4.34,0-4.34S1079.54,879.14,1081.71,879.14Zm0-95.38h11.93c-4.34-1.09-6.51-3.25-9.76-3.25h-2.17Zm4.34-437.88c1.08,0,1.08-3.25,0-3.25A1.63,1.63,0,1,0,1086.05,345.88Zm0,47.69c1.08,0,1.08-5.42,0-5.42C1083.88,388.15,1083.88,393.57,1086.05,393.57Zm0,31.43c1.08,0,1.08-3.25,0-3.25A1.63,1.63,0,1,0,1086.05,425Zm0,8.68c1.08,0,1.08-3.26,0-3.26A1.63,1.63,0,0,0,1086.05,433.68Zm0,78c1.08,3.25,9.76,3.25,10.84,0C1099.06,509.54,1083.88,509.54,1086.05,511.71Zm5.42-149.57h2.17c-2.17-4.34-4.34-4.34-6.51-4.34h-1.08C1087.13,362.14,1089.3,362.14,1091.47,362.14Zm-2.17,76.95c2.17,0,2.17-5.41,0-5.41S1087.13,439.09,1089.3,439.09Zm0,474.73a1.63,1.63,0,0,0,0-3.26A1.63,1.63,0,0,0,1089.3,913.82Zm0,70.45a1.63,1.63,0,1,0,0-3.25A1.63,1.63,0,1,0,1089.3,984.27Zm0-675.24h42.27c-1.08-8.67-18.42-2.17-18.42-2.17v-6.5C1104.48,306.86,1096.89,302.53,1089.3,309Zm0,525.67v2.17c6.51-3.25,14.09-5.42,19.51-5.42,0-3.25-4.33-11.93-4.33-11.93C1103.39,819.52,1089.3,828.2,1089.3,834.7ZM1093.64,373c2.17,0,2.17-4.34,0-4.34S1091.47,373,1093.64,373Zm0,96.46c2.17,0,2.17-4.34,0-4.34S1091.47,469.44,1093.64,469.44Zm0,506.16a1.63,1.63,0,1,0,0-3.25A1.63,1.63,0,1,0,1093.64,975.6Zm2.17-56.36c8.67,0,15.17-16.25,17.34-24.93H1111C1106.65,894.31,1095.81,913.82,1095.81,919.24Zm1.08,30.35c3.25-2.17,7.59-2.17,11.92-2.17V918.15a12.7,12.7,0,0,1-11.92,9.76Zm0,15.17c4.34,0,7.59-1.09,7.59-6.5v-2.17Zm4.34,21.68,7.58-8.67-11.92,5.42Zm0-617.8c2.16,0,2.16-4.33,0-4.33S1099.06,368.64,1101.23,368.64Zm3.25,512.66V877h-3.25Zm0-442.21c2.17,0,2.17-5.41,0-5.41C1103.39,433.68,1103.39,439.09,1104.48,439.09Zm0,499.66c-1.09,0-1.09-5.42,0-5.42C1106.65,933.33,1106.65,938.75,1104.48,938.75Zm4.33-455.22c2.17,0,2.17-5.42,0-5.42S1106.65,483.53,1108.81,483.53Zm0,404.28c2.17,0,2.17-4.34,0-4.34S1106.65,887.81,1108.81,887.81Zm0-517h4.34c1.08,0,8.66-6.5,10.83-8.67h-3.25C1118.56,362.14,1111,368.64,1108.81,370.81Zm4.34,10.84c1.08,0,1.08-4.33,0-4.33C1111,377.32,1111,381.65,1113.15,381.65Zm0,582c1.08,0,1.08-5.41,0-5.41C1111,958.26,1111,963.67,1113.15,963.67Zm0-56.35c1.08,3.24,5.41-2.17,3.24-4.33C1114.23,901.9,1111,905.15,1113.15,907.32Zm3.24-96.47h4.34c5.42-4.34,10.84-27.09,10.84-27.09h-1.08c-2.17,0-4.34,0-6.51,5.42-2.17-6.51-7.59-6.51-10.83-6.51A112.1,112.1,0,0,0,1116.39,810.85Zm-3.24,172.34h1.08c6.5,0,11.92-5.42,14.09-9.76h-7.59v-8.67ZM1116.39,851c2.17,0,2.17-5.42,0-5.42S1114.23,851,1116.39,851Zm0,90c2.17,0,2.17-4.34,0-4.34S1114.23,940.92,1116.39,940.92Zm4.34-136.56c-2.17,0-2.17-4.34,0-4.34C1121.81,800,1121.81,804.36,1120.73,804.36Zm0,145.23c1.08,0,1.08-4.34,0-4.34C1118.56,945.25,1118.56,949.59,1120.73,949.59Zm3.25-44.44a1.63,1.63,0,1,0,0-3.25A1.63,1.63,0,1,0,1124,905.15Zm7.59-520.26v-3.24c0-2.17,0-4.33-3.25-6.5,0,0,18.43-27.1,30.35-30.36-3.25-1.08-9.76-4.33-10.84-4.33h-2.17c-6.5,0-14.09,8.67-17.34,13,2.17,1.08,3.25,6.5,7.59,4.33-2.17,2.17-9.76,15.18-11.93,17.35v2.17C1124,381.65,1128.32,384.89,1131.57,384.89Zm-3.25,525.67c2.17,0,2.17-5.41,0-5.41S1126.15,910.56,1128.32,910.56Zm0,73.71a1.63,1.63,0,1,0,0-3.25A1.63,1.63,0,1,0,1128.32,984.27Zm22.76-530c-5.42,11.93-13,22.77-22.76,27.11h3.25c9.76,0,17.34-8.68,24.93-17.35A12.94,12.94,0,0,1,1151.08,454.26Zm-22.76,498.58h3.25v-5.42Zm3.25-91.05c2.17,0,2.17-4.32,0-4.32C1130.49,857.47,1130.49,861.79,1131.57,861.79Zm0,79.13c2.17,0,2.17-4.34,0-4.34C1130.49,936.58,1130.49,940.92,1131.57,940.92Zm4.34-72.62c2.16,0,2.16-5.42,0-5.42S1133.74,868.3,1135.91,868.3Zm0,64c2.16,0,2.16-4.34,0-4.34S1133.74,932.25,1135.91,932.25Zm3.25-603.71a1.63,1.63,0,1,0,0-3.25C1138.07,325.29,1138.07,328.54,1139.16,328.54Zm0,44.44c2.17,0,2.17-4.34,0-4.34C1138.07,368.64,1138.07,373,1139.16,373Zm0,96.46c2.17,0,2.17-4.34,0-4.34C1138.07,465.1,1138.07,469.44,1139.16,469.44Zm0,475.81c2.17,0,2.17-4.33,0-4.33C1138.07,940.92,1138.07,945.25,1139.16,945.25Zm0-641.64v10.84c6.5-3.25,4.33-10.84,4.33-14.09v-8.68C1138.07,293.85,1139.16,300.36,1139.16,303.61Zm4.33,566.85c2.17,0,2.17-4.33,0-4.33S1141.33,870.46,1143.49,870.46ZM1147.83,360c1.08,0,1.08-5.42,0-5.42C1145.66,354.55,1145.66,360,1147.83,360Zm0,13c1.08,0,1.08-4.34,0-4.34C1145.66,368.64,1145.66,373,1147.83,373Zm4.34,2.17c0,2.17,4.33,2.17,4.33,0S1152.17,373,1152.17,375.15Zm4.33,97.54h1.09c2.16,0,4.33,0,6.5-5.42Zm3.25-65a1.63,1.63,0,1,0,0-3.25A1.63,1.63,0,0,0,1159.75,407.66Zm4.34-70.46a1.63,1.63,0,1,0,0-3.25A1.63,1.63,0,1,0,1164.09,337.2Zm0,24.94c2.17-2.17,2.17-7.59,0-8.67C1161.92,351.3,1161.92,364.31,1164.09,362.14Zm0,10.84c2.17,0,2.17-4.34,0-4.34S1161.92,373,1164.09,373Zm0,590.69c2.17,0,2.17-5.41,0-5.41S1161.92,963.67,1164.09,963.67ZM1167.33,800c2.17,0,2.17-4.34,0-4.34C1166.26,795.68,1166.26,800,1167.33,800Zm4.34,132.23c2.17,0,2.17-4.34,0-4.34S1169.5,932.25,1171.67,932.25Zm0-521.34c0,2.17,4.34,2.17,4.34,0A2.18,2.18,0,1,0,1171.67,410.91Zm11.92,54.19c1.09,0,1.09-4.33,0-4.33C1181.43,460.77,1181.43,465.1,1183.59,465.1Zm15.18,21.69a1.63,1.63,0,0,0,0-3.26A1.63,1.63,0,0,0,1198.77,486.79Zm0,432.45c2.17,0,2.17-5.42,0-5.42S1196.6,919.24,1198.77,919.24Zm3.25-427c2.17,0,2.17-5.41,0-5.41C1200.94,486.79,1200.94,492.2,1202,492.2Zm0,8.67c2.17,0,2.17-5.42,0-5.42C1200.94,495.45,1200.94,500.87,1202,500.87Zm0,110.55c2.17,0,2.17-5.42,0-5.42C1200.94,606,1200.94,611.42,1202,611.42Zm0,96.46c2.17,0,2.17-4.33,0-4.33C1200.94,703.55,1200.94,707.88,1202,707.88Zm0,250.38c2.17,0,2.17-4.33,0-4.33C1200.94,953.93,1200.94,958.26,1202,958.26Zm4.34-39c2.17,0,2.17-5.42,0-5.42S1204.19,919.24,1206.36,919.24Zm4.34-215.69c1.08,0,1.08-4.33,0-4.33C1208.53,699.22,1208.53,703.55,1210.7,703.55ZM1227,511.71c2.16,0,2.16-4.34,0-4.34S1224.78,511.71,1227,511.71Zm0,217.86c2.16,0,2.16-4.34,0-4.34S1224.78,729.57,1227,729.57Zm3.25-146.32a1.63,1.63,0,1,0,0-3.25C1229.11,580,1229.11,583.25,1230.2,583.25Zm0,98.63c2.17,0,2.17-5.42,0-5.42C1229.11,676.46,1229.11,681.88,1230.2,681.88Zm0,56.36c2.17,0,2.17-4.34,0-4.34C1229.11,733.9,1229.11,738.24,1230.2,738.24Zm0-116h4.34c3.25,0,5.42,0,7.58-5.42Zm4.34-47.69a1.63,1.63,0,0,0,0-3.25A1.63,1.63,0,1,0,1234.54,574.57Zm0,39h3.25v-5.42Zm15.17,47.69c-2.17,3.25-8.67,11.92-11.92,13H1240c9.75,0,21.68-9.76,24.93-17.35l-3.25-4.33S1254.05,659.11,1249.71,661.28Zm-7.59,323a1.63,1.63,0,1,0,0-3.25A1.63,1.63,0,0,0,1242.12,984.27Zm0-195.09,11.93-5.42h-4.34C1246.46,783.76,1244.29,783.76,1242.12,789.18Zm4.34-186.43c1.08,0,1.08-5.42,0-5.42C1244.29,597.33,1244.29,602.75,1246.46,602.75Zm0,26c1.08,0,1.08-5.42,0-5.42C1244.29,623.35,1244.29,628.77,1246.46,628.77Zm0-55.28,7.59-4.34c-4.34-3.25-4.34-5.42-4.34-8.67h-3.25Zm3.25,46.61c2.17,0,2.17-5.43,0-5.43S1247.54,620.1,1249.71,620.1Zm0,61.78c2.17,0,2.17-5.42,0-5.42S1247.54,681.88,1249.71,681.88Zm4.34-107.31c1.08,0,1.08-3.25,0-3.25A1.63,1.63,0,1,0,1254.05,574.57Zm3.25,101.89a1.63,1.63,0,0,0,0-3.26A1.63,1.63,0,0,0,1257.3,676.46Zm0,17.34a1.63,1.63,0,1,0,0-3.25A1.63,1.63,0,1,0,1257.3,693.8Zm0-70.45v2.17l7.59-8.68h-1.08A6.26,6.26,0,0,0,1257.3,623.35Zm4.34-11.93c2.17,0,2.17-5.42,0-5.42S1259.47,611.42,1261.64,611.42Zm0,107.31a1.63,1.63,0,0,0,3.25,0A1.63,1.63,0,1,0,1261.64,718.73Zm3.25-74.79c2.17,0,2.17-4.33,0-4.33C1263.81,639.61,1263.81,643.94,1264.89,643.94Zm4.34,320.82a1.63,1.63,0,0,0,0-3.26A1.63,1.63,0,0,0,1269.23,964.76Zm0-316.49h2.16c1.09,0,3.26,0,5.41-4.33Zm3.25,90c2.17,0,2.17-4.34,0-4.34C1271.39,733.9,1271.39,738.24,1272.48,738.24Zm4.32-85.63c0,1.08,4.34,1.08,4.34,0C1281.14,650.44,1276.8,650.44,1276.8,652.61Zm0,87.8h4.34v-4.34Zm4.34,243.86c1.08,0,1.08-3.25,0-3.25A1.63,1.63,0,1,0,1281.14,984.27Zm7.59-302.39c1.08,0,1.08-5.42,0-5.42C1286.56,676.46,1286.56,681.88,1288.73,681.88Zm11.92,301.31a12,12,0,0,0,8.68,0C1310.41,981,1299.57,981,1300.65,983.19Zm19.52-14.1h2.16c2.17,0,4.33,0,5.41-4.33Zm19.5-175.57h-4.34C1313.66,803.27,1324.5,808.68,1339.67,793.52Zm-11.93,30.34c0,2.17,4.34,2.17,4.34,0C1332.08,822.77,1327.74,822.77,1327.74,823.86Zm4.34-36.85c2.17,0,2.17-4.34,0-4.34S1329.91,787,1332.08,787Zm3.25,30.34a1.63,1.63,0,1,0,0-3.25C1334.25,814.1,1334.25,817.35,1335.33,817.35Zm0,166.92a1.63,1.63,0,1,0,0-3.25C1334.25,981,1334.25,984.27,1335.33,984.27Zm4.34-179.91c2.17,0,2.17-4.34,0-4.34S1337.5,804.36,1339.67,804.36Zm0,157.14c2.17,0,2.17-5.41,0-5.41S1337.5,961.5,1339.67,961.5Zm7.59,2.17c2.17,0,2.17-5.41,0-5.41S1345.09,963.67,1347.26,963.67Zm0,8.68c2.17,0,2.17-5.42,0-5.42S1345.09,972.35,1347.26,972.35Zm7.59,11.92a1.63,1.63,0,0,0,0-3.25A1.63,1.63,0,1,0,1354.85,984.27Zm11.92-126.8a2.18,2.18,0,1,0,0-4.34C1364.6,853.13,1364.6,857.47,1366.77,857.47Zm0,109.46c3.25,0,3.25-3.26,0-3.26A1.63,1.63,0,0,0,1366.77,966.93Zm0,8.67c3.25,0,3.25-3.25,0-3.25A1.63,1.63,0,1,0,1366.77,975.6Zm4.34-94.3v-8.67l-4.34,4.34Zm8.66,37.94c1.08,0,1.08-5.42,0-5.42C1377.61,913.82,1377.61,919.24,1379.77,919.24Zm7.59-35.77c1.08,0,1.08-4.33,0-4.33C1385.19,879.14,1385.19,883.47,1387.36,883.47Zm0-20.59c0,3.25,3.25,3.25,3.25,0C1390.61,861.79,1387.36,861.79,1387.36,862.88Zm7.59,16.26c2.16,0,2.16-4.34,0-4.34S1392.78,879.14,1395,879.14Zm7.59-2.17V862.88L1395,868.3Zm0,53.11a1.63,1.63,0,1,0,3.25,0A1.63,1.63,0,1,0,1402.54,930.08Zm3.25-36.85c2.17,0,2.17-5.42,0-5.42C1404.7,887.81,1404.7,893.23,1405.79,893.23Zm0,82.37a1.63,1.63,0,1,0,0-3.25C1404.7,972.35,1404.7,975.6,1405.79,975.6Zm0-22.76H1408c6.5,0,9.75-8.67,15.17-8.67h2.17l-3.25,3.25c1.08,0,9.74,5.42,10.83,5.42h4.33c2.17,0,8.68-7.59,8.68-8.67l-8.68,3.25v-3.25c0-10.84,10.85-11.92,10.85-22.77-4.34,0-8.68,0-10.85-5.42-4.33,3.26-5.42,8.68-7.57,14.1l-4.34-5.42C1417.71,932.25,1414.46,945.25,1405.79,952.84Zm8.67,28.18c1.08,0,1.08-5.42,0-5.42C1412.29,975.6,1412.29,981,1414.46,981Zm0-56.36c1.08,3.25,5.42-2.17,3.25-3.26A2.3,2.3,0,0,0,1414.46,924.66Zm7.59,48.77h1.08c2.17,0,6.51,0,6.51-4.34,0-2.16-2.17-7.59-4.34-7.59Zm3.25-59.61a1.63,1.63,0,0,0,0-3.26A1.63,1.63,0,0,0,1425.3,913.82Zm0-15.17h4.34c3.24,0,7.57-2.17,7.57-8.67Zm4.34-19.51c2.15,0,2.15-4.34,0-4.34S1427.47,879.14,1429.64,879.14Zm7.57,26a1.63,1.63,0,1,0,0-3.25A1.63,1.63,0,0,0,1437.21,905.15Zm0,27.1c-2.16,0-2.16-4.34,0-4.34S1439.38,932.25,1437.21,932.25Zm0,31.42c2.17,0,2.17-5.41,0-5.41S1435.05,963.67,1437.21,963.67Zm8.68-53.11c2.17,0,2.17-5.41,0-5.41S1443.72,910.56,1445.89,910.56Zm0,65a1.63,1.63,0,1,0,0-3.25A1.63,1.63,0,1,0,1445.89,975.6Z"/><path class="cls-1" d="M221.7,2115.45c0-15.18,5.86-21.68,19.52-21.68h1.95c12.69,0,18.55-5.41,19.53-19.51,0-6.5,3.9-162.56,3.9-233V1666.79l-3.9-6.51H241.22c-13.66,0-20.49-6.5-19.52-21.67l2.93-109.46c0-15.18,6.83-20.59,20.5-21.67l107.38-3.25c13.66,0,19.52,5.42,19.52,20.58v113.8c0,15.17-5.86,21.67-19.52,21.67H337.86V1845.6c15.62-20.59,79.06-164.73,79.06-178.81,1-4.34-11.7-7.59-16.59-6.51-8.78-3.25-12.69-10.84-12.69-23.84v-129l2.93-4.34h15.62c74.19,0,116.16-5.42,116.16,26v129c-5.85,1.09-25.38,8.68-41,8.68-22.45,47.68-48.8,101.87-67.35,153.88V1825l75.16,246c1,4.34,3.91,13,3.91,11.93,0,2.16,9.76,10.83,29.28,10.83,13.67,0,19.52,6.5,19.52,21.68v113.79c0,15.17-5.85,21.68-19.52,21.68H407.16c-13.66,0-19.52-6.51-19.52-135.47,0-10.84,4.47-19,11.72-21.68S413,2088.36,413,2078.6c0-18.42-13.67-57.43-37.1-149.55h-2c-11.7,0-25.37,60.69-36.11,75.85v69.36c0,14.1,4.89,20.59,15.62,21.68h1.95c11.72,1.08,16.6,8.67,16.6,21.68V2224.9c0,4.34,12.69,24.93-54.67,24.93-62.47,0-95.66,5.41-95.66-24.93ZM250,1541.08a2.21,2.21,0,0,0,2,2.15c1,0,1-1.07,1-2.15s0-2.17-1-2.17A2.22,2.22,0,0,0,250,1541.08Zm3.91,8.66a2.23,2.23,0,0,0,1.94,2.17c1,0,1-1.09,1-2.17s0-2.17-1-2.17A2.22,2.22,0,0,0,253.92,1549.74Zm22.45,54.19h5.85v-17.34C276.37,1588.75,276.37,1601.76,276.37,1603.93ZM291,1816.34a2.23,2.23,0,0,0,1.95,2.17c1,0,1-1.09,1-2.17s0-2.17-1-2.17A2.22,2.22,0,0,0,291,1816.34Zm0,130a2.22,2.22,0,0,0,1.95,2.17c1,0,1-1.08,1-2.17s0-2.16-1-2.16A2.22,2.22,0,0,0,291,1946.38ZM293,1741.56h2c5.86,0,13.66-15.17,13.66-17.34Zm2,166.89a2.23,2.23,0,0,0,1.95,2.17c1,0,1-1.08,1-2.17s0-2.17-1-2.17A2.23,2.23,0,0,0,294.91,1908.45Zm0,45.52a2.23,2.23,0,0,0,1.95,2.17c1,0,1-1.08,1-2.17s0-2.16-1-2.16A2.22,2.22,0,0,0,294.91,1954Zm1.95-324v7.59h26.36c-4.89-3.26-5.86-4.34-7.81-4.34h-6.84v-3.25c-1,2.17-5.85,3.25-7.8,3.25S296.86,1632.11,296.86,1629.94Zm1.95,312.11a2.24,2.24,0,0,0,2,2.17c1,0,1-1.09,1-2.17s0-2.17-1-2.17A2.23,2.23,0,0,0,298.81,1942.05Zm9.76-105.13v-1.08c0-4.33-3.89-6.49-7.8-6.49v2.16C300.77,1835.84,304.68,1836.92,308.57,1836.92Zm-5.85-295.84a2.21,2.21,0,0,0,2,2.15c1,0,1-1.07,1-2.15s0-2.17-1-2.17A2.22,2.22,0,0,0,302.72,1541.08Zm0,333.78a2.22,2.22,0,0,0,2,2.16c1,0,1-1.08,1-2.16s0-2.17-1-2.17A2.22,2.22,0,0,0,302.72,1874.86Zm5.85,162.56v-16.25h-3.89Zm-1.95-302.36a2.22,2.22,0,0,0,1.95,2.16c1,0,1-1.07,1-2.16s0-2.17-1-2.17A2.23,2.23,0,0,0,306.62,1735.06Zm0,119.21a2.23,2.23,0,0,0,1.95,2.17c1,0,1-1.09,1-2.17s0-2.17-1-2.17A2.23,2.23,0,0,0,306.62,1854.27Zm16.6-246H331c-1.95-4.33-3.91-4.33-22.46-4.33h14.65Zm-12.69-62.86c0,1.09,0,2.17,1,2.17s1-1.08,1-2.17,0-2.17-1-2.17S310.53,1544.32,310.53,1545.4Zm2.92,8.67a3.37,3.37,0,0,0,2,1.09c1,0,1-1.09,1-1.09,0-1.08,0-2.16-1-2.16A2.23,2.23,0,0,0,313.45,1554.07Zm3.91,7.59a2.22,2.22,0,0,0,2,2.17c1,0,1-1.08,1-2.17s0-2.17-1-2.17A2.23,2.23,0,0,0,317.36,1561.66Zm0,37.93a2.22,2.22,0,0,0,2,2.17c1,0,1-1.08,1-2.17s0-2.16-1-2.16A2.22,2.22,0,0,0,317.36,1599.59Zm0,24.93a2.23,2.23,0,0,0,2,2.17c1,0,1-1.09,1-2.17s0-2.17-1-2.17A2.22,2.22,0,0,0,317.36,1624.52Zm2-49.85h7.8v-4.34C323.22,1570.33,321.27,1570.33,319.32,1574.67ZM333,1887.87a2.22,2.22,0,0,0,1.95,2.16c1,0,1-1.08,1-2.16s0-2.17-1-2.17A2.23,2.23,0,0,0,333,1887.87Zm6.83-272a2.22,2.22,0,0,0,1.95,2.16c1,0,1-1.08,1-2.16s0-2.17-1-2.17A2.23,2.23,0,0,0,339.81,1615.85Zm3.91,4.33a2.22,2.22,0,0,0,1.95,2.17c1,0,1-1.08,1-2.17s0-2.17-1-2.17A2.23,2.23,0,0,0,343.72,1620.18Zm19.52,276.36s0,1.08,1,1.08,1-1.08,1-1.08c0-1.09,0-2.17-1-2.17S363.24,1895.45,363.24,1896.54Zm16.6-59.62h3.9l-3.9-11.91Zm8.78-36.83a2.21,2.21,0,0,0,1.95,2.15c1,0,1-1.07,1-2.15s0-2.17-1-2.17A2.23,2.23,0,0,0,388.62,1800.09Zm5.86,87.78h3.9v-17.35h-3.9Zm5.85-227.59a3.38,3.38,0,0,1,2.94,1.09C402.28,1661.37,401.31,1660.28,400.33,1660.28Zm0,261.18a3.33,3.33,0,0,0,1.95,1.09c1,0,1-1.09,1-1.09,0-1.08,0-2.17-1-2.17A2.23,2.23,0,0,0,400.33,1921.46Zm2.94-260.09h0Zm19.52,59.6a2.23,2.23,0,0,0,1.95,2.17c1,0,1-1.09,1-2.17s0-2.17-1-2.17A2.23,2.23,0,0,0,422.79,1721Zm1.95-92.12h7.81s3.9-15.17,3.9-20.59v-4.33S424.74,1624.52,424.74,1628.85Zm9.76,4.34a2.23,2.23,0,0,0,1.95,2.17c1,0,1-1.09,1-2.17s0-2.17-1-2.17A2.23,2.23,0,0,0,434.5,1633.19Zm3.9-37.93a2.23,2.23,0,0,0,2,2.17,3.93,3.93,0,0,0,1-2.17,3.89,3.89,0,0,0-1-2.17A2.23,2.23,0,0,0,438.4,1595.26Zm0,42.27a3.34,3.34,0,0,0,2,1.08l1-1.08a3.89,3.89,0,0,0-1-2.17A2.23,2.23,0,0,0,438.4,1637.53Zm8.79-46.61v-8.67l-3.91,4.34Zm-2,78a3.37,3.37,0,0,0,2,1.09c1,0,1-1.09,1-1.09,0-1.08,0-2.16-1-2.16A2.23,2.23,0,0,0,445.23,1669Zm3.91-10.84a2.23,2.23,0,0,0,2,2.17c1,0,1-1.08,1-2.17s0-2.16-1-2.16A2.22,2.22,0,0,0,449.14,1658.11Zm18.55-29.26a2.22,2.22,0,0,0,1.95,2.17c1,0,1-1.08,1-2.17s0-2.16-1-2.16A2.22,2.22,0,0,0,467.69,1628.85Zm15.62-83.45a2.22,2.22,0,0,0,1.95,2.17c1,0,1-1.08,1-2.17s0-2.17-1-2.17A2.23,2.23,0,0,0,483.31,1545.4Zm3.9,54.19a2.23,2.23,0,0,0,2,2.17c1,0,1-1.08,1-2.17s0-2.16-1-2.16A2.22,2.22,0,0,0,487.21,1599.59Zm2-29.26L496,1566H494C492.09,1566,491.11,1566,489.16,1570.33Z"/><path class="cls-1" d="M573.05,1683.67c19.58-2.25,55.28-4.45,56.5-33.23.07-24.19,5-142.77,5.06-168.1l.35-134.72c-8-31.11-31-41.53-60.91-41.61l.48-185.38c0-8.05,3.49-11.5,11.54-11.48l254.47.67L840,1303.26c0,10.36-44.92,5.63-45,28.66l-.31,116.3c10.37,0,102.78-112.57,102.8-122.94,0-13.81-35.64-18.51-41.4-18.53l.5-187.67,4.62-9.2,187.69.49c17.26.05,57.56,4.76,57.56,4.76l4.59,4.62s2,120.9,3,171.56l0,10.37c0,8-63.38,21.71-81.85,38.93-13.85,11.48-69.25,60.85-69.32,87.32-.1,39.15,86.89,234,113.33,252.47,10.35,5.78,51.8,8.19,54.07,16.26,1,63.33,3.2,96.72,3.06,149.69l-.07,26.49a12.76,12.76,0,0,1-12.69,12.63l-257.93-.68c-8,0-11.5-3.49-11.48-11.55l.48-180.77c0-12.66,40.3-2.2,40.38-31,0-16.12-40-108.33-49.21-113-24.23,18.36-53.12,55.12-53.2,86.22-.1,39.15,41.31,55.37,41.3,57.68l-.48,180.76c0,8.07-3.48,11.52-11.54,11.49L584,1884.06c-8,0-11.5-3.49-11.48-11.56Zm27.43,77.22h4.61l0-16.12h-4.61Zm-.1,36.85,9.22-3.43-9.21,0Zm17.21,23.08c1.15,0,1.16-4.61,0-4.61C615.31,1816.2,615.29,1820.81,617.59,1820.82Zm16.21-31.06c2.3,0,3.48-10.35,3.48-12.65-5.76,0-11.52,2.27-16.14,9.17C623.44,1787.44,631.49,1789.76,633.8,1789.76Zm8.21-59.84c0-4.61,3.48-11.51,8.1-13.8l-8.06,0Zm4.34,103.64c1.14,0,1.15-4.61,0-4.61C644.06,1828.94,644.05,1833.55,646.35,1833.56Zm.17-64.48c1.13,2.3,5.75-1.14,3.46-3.45S644.22,1767.92,646.52,1769.08Zm3.64-71.38a1.73,1.73,0,0,0,0-3.46A1.73,1.73,0,1,0,650.16,1697.7Zm4.22,143.94c2.31,0,2.32-4.61,0-4.62S652.08,1841.63,654.38,1841.64Zm1.43-541.17v2.3l8.08-4.58-4.59-8.08C658.13,1294.72,655.82,1295.86,655.81,1300.47Zm6.67,526.22,8.06,0-4.59-3.46Zm4.59-428.32a1.73,1.73,0,0,0,0-3.46C665.92,1394.91,665.91,1398.36,667.07,1398.37Zm0-18.42,12.66,0c-3.45-2.31-5.74-3.47-10.35-3.48h-2.3Zm-.09,33.39h4.6l0-8.06h-4.6Zm8.54,253.34,0-8.07H671Zm9-350c1.15,0,1.16-3.46,0-3.46A1.73,1.73,0,0,0,684.55,1316.67Zm.31,321.25,6.91,0c8.06-3.44,24.2-11.46,24.2-11.46l0-8.06C705.6,1628.76,684.91,1616,684.86,1637.92ZM688,1327c2.31,0,2.32-4.6,0-4.61S685.68,1327,688,1327Zm-1.34,507.77h4.61c5.75,0,11.51-1.11,11.53-8v-3.46Zm5.23-237.18a5.56,5.56,0,0,0,0-8.06C689.6,1587.26,689.57,1599.93,691.87,1597.63Zm3.33,47.21c2.3,0,2.32-4.59,0-4.6C694.06,1640.24,694.05,1644.84,695.2,1644.84Zm0,5.77,8.06-3.43h-1.14C699.8,1647.17,697.5,1647.16,695.19,1650.61ZM700.72,1296a1.73,1.73,0,1,0,0-3.46A1.73,1.73,0,0,0,700.72,1296Zm10.16,80.63h5.75l0-17.26C710.92,1361.64,710.88,1374.31,710.88,1376.61Zm6-86.34c4.62-2.29,8.08-5.74,8.09-10.35v-2.3Zm4.93,314.35c2.31-3.45,9.24-9.19,10.39-11.48v-3.46Zm2.29,6.92a1.73,1.73,0,0,0,0-3.46A1.73,1.73,0,1,0,724.08,1611.54Zm4.48,44.91a1.73,1.73,0,1,0,0-3.45A1.73,1.73,0,0,0,728.56,1656.45Zm3.43,9.22c2.3,0,2.31-4.6,0-4.61C730.86,1661.06,730.84,1665.67,732,1665.67Zm.07-27.63,8.08-3.43-3.45-4.62Zm2.37-26.48c20.73.06,18.48-18.37,34.61-21.78-6.89-5.77-6.88-10.38-5.72-12.68l-5.8,12.65c-6.95,13.79-6.93,5.73-17.28,5.71l0-5.76C734.47,1595.44,734.45,1605.81,734.43,1611.56ZM741,1316.82a1.73,1.73,0,0,0,0-3.46C739.83,1313.36,739.82,1316.81,741,1316.82ZM740.11,1645c2.3,0,2.31-4.59,0-4.6C739,1640.36,739,1645,740.11,1645Zm4.65-20.71c2.31,0,2.33-4.6,0-4.61S742.46,1624.25,744.76,1624.25Zm.75-283.25c4.61,0,10.37-1.12,12.68-5.72l-12.66,0Zm-1.28,485.91c0,2.3,4.6,2.31,4.61,0S744.24,1824.6,744.23,1826.91Zm5.94-505.47c1.15,0,1.16-4.6,0-4.6C747.88,1316.83,747.87,1321.43,750.17,1321.44Zm-1.36,515.83c1.15,0,1.16-3.44,0-3.44A1.72,1.72,0,1,0,748.81,1837.27Zm0,12.68c1.14,0,1.16-4.61,0-4.61C746.49,1845.33,746.48,1849.94,748.78,1850Zm.08-31.1a1.73,1.73,0,1,0,3.46,0A1.73,1.73,0,0,0,748.86,1818.85Zm4.82-518.12c2.3,0,2.31-4.61,0-4.61S751.37,1300.72,753.68,1300.73Zm-.07,26.48c2.3,0,2.31-4.6,0-4.61S751.3,1327.21,753.61,1327.21Zm-1.38,525.05c4.6-2.29,4.61-4.6,4.62-9.2v-3.45Zm5.86-477.83c1.15,0,1.17-4.61,0-4.61C755.8,1369.81,755.79,1374.42,758.09,1374.43Zm-.07,24.18c1.16,0,1.17-3.46,0-3.46A1.73,1.73,0,0,0,758,1398.61Zm.14-50.66h3.45l0-4.6Zm-.7,266a1.73,1.73,0,0,0,3.45,0A1.73,1.73,0,0,0,757.46,1613.92Zm2.82,238.36c2.31,1.15,6.92-2.28,4.63-4.6S758,1850,760.28,1852.28Zm1.52-574.56h4.61c3.45,0,5.75,0,8.06-3.43l-4.59-4.61Zm3.49,422.58a10.32,10.32,0,0,0,10.4-10.34C768.78,1689.94,765.31,1694.55,765.29,1700.3Zm-.25,94.42h3.46l0-8.06Zm8.19-49.49c8.07,0,28.81-10.29,28.83-16v-4.6l-28.83,16.05Zm3.37,32.25,4.62-3.45-8-12.68V1766C773.17,1769.41,773.15,1774,776.6,1777.48ZM773,1835h3.46l0-8.06Zm0,8.06a1.73,1.73,0,0,0,3.46,0C776.43,1842,773,1842,773,1843.1Zm12.68-5.73c1.16,0,1.17-3.44,0-3.44A1.72,1.72,0,1,0,785.65,1837.37Zm8.1-10.33c0-2.31,3.48-10.36,3.48-11.51v-2.3c0-4.61,0-4.61-3.44-6.92l8.06-3.44-15,0c0,3.46,2.27,10.38,6.88,12.69l-8.09,8Zm-3.92-263.69c2.31,0,2.32-4.61,0-4.61S787.53,1563.34,789.83,1563.35Zm4.68-26.48c0-12.66,16.17-18.37,20.73-4.54,8.11-14.95-14.89-28.83-25.29-16.19Zm3.54-31.07c2.3,0,2.31-4.61,0-4.61C796.9,1501.19,796.89,1505.8,798.05,1505.8Zm-.13,49.51c2.3,0,2.31-4.6,0-4.61C796.77,1550.7,796.76,1555.31,797.92,1555.31Zm4,222.23a1.73,1.73,0,1,0,0-3.45A1.73,1.73,0,0,0,801.93,1777.54Zm0,18.42a1.73,1.73,0,1,0,0-3.45A1.73,1.73,0,0,0,801.88,1796Zm-.09,33.4c2.31,0,2.33-4.61,0-4.61S799.49,1829.35,801.79,1829.36Zm74.8-417.78c2.31,0,2.32-4.59,0-4.6S874.29,1411.58,876.59,1411.58Zm3.47-8c2.3,0,2.32-4.61,0-4.61C878.93,1398.93,878.92,1403.54,880.06,1403.54Zm0,20.73c2.3,0,2.31-4.61,0-4.61C878.88,1419.66,878.86,1424.27,880,1424.27Zm-.86,327a1.72,1.72,0,1,0,0-3.44C878,1747.81,878,1751.26,879.15,1751.26ZM884.66,1407a1.73,1.73,0,0,0,0-3.46A1.73,1.73,0,1,0,884.66,1407Zm-.22,84h2.3c2.3,0,3.46,0,5.77-3.44Zm4,225.69v-3.46h-4.6Zm3.41,16.12v-1.14c0-4.61-3.43-6.92-8-6.93v2.3C883.81,1731.71,888.4,1732.87,891.86,1732.87Zm8.64-216.44c-3.45-4.62-21.85-10.42-11.53,1.12Zm-11.25-104.81c1.16,0,1.17-4.6,0-4.6C887,1407,887,1411.61,889.25,1411.62Zm0,18.43c1.16,0,1.17-4.61,0-4.61C886.92,1425.43,886.9,1430,889.2,1430.05Zm-.86,328.15c1.15,0,1.17-4.6,0-4.6C886.05,1753.59,886,1758.19,888.34,1758.2Zm4.3-322.39a1.73,1.73,0,1,0,0-3.45A1.73,1.73,0,0,0,892.64,1435.81Zm17.23,17.32q6.92-5.16,7-17.25c-5.76,0-18.47,14.91-24.24,18.35l8.07,0c2.3,0,5.75,0,8.06-1.12-1.15,0-1.13-4.61,0-4.61S909.88,1452,909.87,1453.13Zm-12.76,38c0,2.3,3.44,4.61,3.44,4.61,8.06,0,16.14-8,25.35-8l0-8.07c-4.62,3.44-9.22,3.43-12.67,3.42-5.76,0-10.36-3.48-18.41-3.5C894.84,1480.72,897.11,1489.94,897.11,1491.09Zm0,15c1.14,0,1.16-4.61,0-4.61C894.78,1501.44,894.77,1506.05,897.07,1506.06Zm.17-63.33,3.46-4.6h-3.45Zm-.74,278.65,3.47-4.6,0-8.06C897.67,1713.31,896.51,1716.77,896.5,1721.38Zm37.66-311.94c3.47-3.45,13.86-13.79,13.88-20.69-8.06,0-11.51,0-18.43,4.55,0-2.3,4.62-10.35,4.63-12.65v-3.45l-8.08,8v-4.61c1.16-2.3,10.4-10.34,11.54-11.48l4.61,3.47,3.47-8.06h-3.45c-4.61,0-39.19,13.72-41.51,20.62C919.29,1374.86,921.52,1401.35,934.16,1409.44Zm-33.44,20.64c0,2.3,4.6,2.31,4.6,0S900.73,1427.77,900.72,1430.08Zm7.12,354.65c2.31,0,2.33-4.6,0-4.61C906.71,1780.12,906.7,1784.73,907.84,1784.73Zm5.37-285.54,8.06-3.43H919C916.67,1495.75,915.52,1495.74,913.21,1499.19Zm3.56-42.59a1.73,1.73,0,0,0,0-3.45C915.63,1453.15,915.62,1456.59,916.77,1456.6Zm5-152a1.73,1.73,0,1,0,0-3.46A1.73,1.73,0,0,0,921.77,1304.63ZM933.47,1672c0-8.06,0-15-4.54-20.73-2.31,0-8.08,2.27-8.08,4.57C918.53,1663.86,926.56,1671.94,933.47,1672Zm-7.63-160.07c1.14,2.3,5.76-2.28,3.46-3.45A2.44,2.44,0,0,0,925.84,1511.89Zm0-12.66,18.42,0c0-5.75-4.57-11.52-10.33-11.53C929.36,1487.72,925.87,1499.23,925.87,1499.23Zm3.65-73.69a1.73,1.73,0,0,0,0-3.45A1.73,1.73,0,1,0,929.52,1425.54Zm0,10.37a1.73,1.73,0,0,0,0-3.46A1.73,1.73,0,1,0,929.49,1435.91Zm-.65,246.4c2.3,0,2.32-4.6,0-4.61S926.53,1682.31,928.84,1682.31Zm-.29,112.84c2.3,0,2.31-4.6,0-4.61S926.24,1795.15,928.55,1795.15Zm.4-152h2.3c2.3,0,4.61,0,5.76-4.59l-3.44-3.46Zm5.34-280.93a1.73,1.73,0,1,0,0-3.45A1.73,1.73,0,1,0,934.29,1362.23Zm-.22,81.75a1.73,1.73,0,1,0,0-3.46A1.73,1.73,0,0,0,934.07,1444Zm.42-158.9v1.16l8.07-3.43-4.59-8.08C936.82,1278.18,934.5,1280.47,934.49,1285.08ZM933,1843.52h3.45v-3.45Zm3.6-56.41c2.31,0,2.32-4.6,0-4.6C935.49,1782.51,935.48,1787.11,936.62,1787.11Zm0,8.06c0,1.15,4.61,1.16,4.61,0C941.22,1792.88,936.61,1792.86,936.6,1795.17Zm5.48-330.44a1.73,1.73,0,0,0,0-3.46A1.73,1.73,0,0,0,942.08,1464.73Zm-1,369.61c2.3,0,2.31-4.61,0-4.61S938.81,1834.33,941.11,1834.34ZM942.68,1672l15-8c-3.45-4.62-8.06-4.63-12.66-4.65h-2.31a8.63,8.63,0,0,1,2.3,4.61A21.15,21.15,0,0,1,942.68,1672Zm3.07-289c2.3,0,2.32-4.59,0-4.6C944.61,1378.38,944.6,1383,945.75,1383Zm-1.1,418c2.3,0,2.31-4.6,0-4.61C943.51,1796.34,943.5,1801,944.65,1801Zm.3-112.84,4.61-3.44-4.6,0Zm5.12-198c2.31,0,2.32-4.6,0-4.61S947.77,1490.07,950.07,1490.08Zm4.2,157.76v-4.61h-4.61Zm-.08,29.93c1.15,0,1.16-3.44,0-3.45A1.73,1.73,0,0,0,954.19,1677.77Zm4.3-323.54a1.73,1.73,0,0,0,0-3.46A1.73,1.73,0,0,0,958.49,1354.23Zm3.73,331.62a11.35,11.35,0,0,0,3.46-1.14l12.7-12.63-4.59-4.62-16.15,9.17C962.24,1677.79,962.23,1682.4,962.22,1685.85Zm1-384.57c1.16,0,1.17-4.61,0-4.61C961,1296.66,960.93,1301.27,963.23,1301.28Zm-1,368.45c1.16,0,1.17-3.45,0-3.45A1.73,1.73,0,0,0,962.26,1669.73Zm-.47,178.47,11.52,0,0-8C969.87,1842.47,963,1843.6,961.79,1848.2Zm4.87-536.54c2.31,0,2.32-4.61,0-4.62S964.36,1311.65,966.66,1311.66Zm12.75-31.07a1.72,1.72,0,1,0,0-3.44A1.72,1.72,0,1,0,979.41,1280.59ZM978,1798.74l8.08-3.44-8.07,0Zm16.06,23.07c2.31,0,2.32-4.6,0-4.61S991.8,1821.8,994.1,1821.81Zm1.44-546.93c4.62-2.29,8.09-6.89,8.1-10.34v-2.3Zm-1.37,520.45c8.07,0,24.2-4.55,20.78-17.23h-2.3C1000,1778.07,994.21,1782.66,994.17,1795.33Zm4.91-112.83c1.14,0,1.16-4.61,0-4.61C996.79,1677.88,996.78,1682.49,999.08,1682.5Zm3.44,5.76h4.6l0-8Zm0,12.67h4.6v-4.6Zm8.21-62.15a1.73,1.73,0,1,0,0-3.46C1009.57,1635.32,1009.56,1638.77,1010.7,1638.78Zm0,10.35a1.73,1.73,0,1,0,0-3.45C1009.54,1645.67,1009.53,1649.13,1010.68,1649.13Zm-.15,57.57a1.72,1.72,0,1,0,0-3.44C1009.39,1703.25,1009.38,1706.7,1010.53,1706.7Zm4.7-34.53c2.3,0,3.46-2.29,3.46-4.59,0-3.45-3.42-10.37-8-11.54v3.46C1010.64,1664.11,1010.63,1667.56,1015.23,1672.17Zm-4.79,65.63h4.61c8.07-4.59,8.13-26.46,8.13-28.76l12.67,0,0-5.76c-6.91,0-12.67,0-17.29,5.71-1.17,5.76-8.11,20.7-8.11,20.7l4.6,3.47Zm4.73-42.6c2.3,0,2.31-4.6,0-4.61S1012.87,1695.2,1015.17,1695.2Zm-.15,56.42a1.73,1.73,0,1,0,0-3.45A1.73,1.73,0,0,0,1015,1751.62Zm-.12,43.76,10.37,0c0-4.61,0-17.28,9.25-17.25-1.15,0-11.5-8.09-6.88-11.53C1012.69,1762,1020.68,1788.49,1014.9,1795.38Zm4.76-493.95c2.3,0,2.31-4.6,0-4.61C1018.52,1296.82,1018.5,1301.43,1019.66,1301.43Zm-1.33,505.47a1.73,1.73,0,0,0,0-3.46C1017.18,1803.44,1017.17,1806.9,1018.33,1806.9Zm4.52,27.65c2.31,0,2.33-4.6,0-4.61S1020.55,1834.55,1022.85,1834.55Zm6-529.64c1.15,0,1.15-3.45,0-3.46A1.73,1.73,0,0,0,1028.86,1304.91Zm-1.31,498.56a1.73,1.73,0,1,0,3.45,0A1.73,1.73,0,0,0,1027.55,1803.47Zm3.67-81.74c2.3,0,2.31-4.6,0-4.61S1028.91,1721.73,1031.22,1721.73Zm-.32,120.9c2.3,0,2.31-4.61,0-4.61S1028.59,1842.62,1030.9,1842.63Zm5-149.67c1.15,2.3,5.77-2.3,3.47-4.6S1033.6,1690.64,1035.89,1693Zm3.38,29.94a1.73,1.73,0,1,0,0-3.45A1.73,1.73,0,0,0,1039.27,1722.9Zm-.17,64.48c2.31,0,2.32-4.6,0-4.6S1036.8,1787.37,1039.1,1787.38Zm-.09,32.24a1.73,1.73,0,1,0,0-3.46A1.73,1.73,0,0,0,1039,1819.62Zm1.47-557.29,4.61,0c3.46,0,5.76,0,8.07-3.44l-4.59-4.61Zm-1.14,434.09c0,2.3,4.6,2.32,4.61,0C1044,1695.28,1039.34,1695.27,1039.34,1696.42Zm-.19,70.24c0,2.3,4.61,2.31,4.61,0S1039.16,1764.35,1039.15,1766.66Zm-.16,61,8.07,0-3.45-3.47Zm4.82-79.43c2.3,0,2.31-4.6,0-4.61S1041.51,1748.24,1043.81,1748.25Zm3.58-44.9c2.3,0,2.31-4.6,0-4.61C1046.24,1698.74,1046.23,1703.35,1047.39,1703.35Zm4.59,3.46a1.72,1.72,0,1,0,0-3.44A1.72,1.72,0,1,0,1052,1706.81Zm3.44,4.62c2.31,0,2.32-4.6,0-4.61C1054.29,1706.82,1054.27,1711.43,1055.42,1711.43Zm-.07,26.49,9.22-4.59-9.21,0Zm17.17,39.19c0-6.91,0-12.67-4.56-18.44-5.76,0-8.06,1.13-8.07,5.73C1059.87,1772.47,1064.46,1777.09,1072.52,1777.11Zm-7.89-65.66c1.15,0,1.17-4.6,0-4.61C1062.34,1706.84,1062.33,1711.45,1064.63,1711.45Zm3.09,137c8.07,0,12.7-13.78,12.72-20.69v-3.45l-16.15,11.47C1065.44,1840.42,1067.74,1843.88,1067.72,1848.48Zm1.5-567.65a1.72,1.72,0,1,0,0-3.44A1.72,1.72,0,1,0,1069.22,1280.83Zm-1.14,434.09a1.73,1.73,0,1,0,0-3.46A1.73,1.73,0,0,0,1068.08,1714.92Zm-.1,36.84c10.36,0,16.13-3.4,16.15-13.77l0-4.61c-3.48,6.9-9.24,10.34-16.15,10.32Zm-.11,39.15,12.68-3.42H1076C1072.49,1787.47,1070.19,1787.46,1067.87,1790.91Zm4.58,15c2.3,0,2.31-4.61,0-4.61S1070.15,1805.89,1072.45,1805.9Zm.22-84.06h3.45v-4.61Zm4.6-436.38c2.3,0,2.31-4.6,0-4.61C1076.13,1280.85,1076.12,1285.46,1077.27,1285.46Zm3.22,523.9a1.72,1.72,0,1,0,0-3.44A1.72,1.72,0,1,0,1080.49,1809.36Zm3.49-13.8,4.63-4.6H1084Zm4.65-12.65h2.3c2.3,0,3.45,0,5.76-4.6Zm12.81-55.24c1.15,0,1.16-4.6,0-4.61C1099.15,1723.06,1099.14,1727.67,1101.44,1727.67Zm-.15,57.57c1.15,0,1.16-4.6,0-4.61C1099,1780.63,1099,1785.24,1101.29,1785.24Zm0,16.12c1.16,0,1.17-4.6,0-4.61C1099,1796.75,1098.94,1801.36,1101.24,1801.36Zm-.09,33.4c1.16,0,1.17-4.61,0-4.61C1098.87,1830.14,1098.85,1834.75,1101.15,1834.76Z"/><path class="cls-1" d="M1177.9,1398s1.63-2.45,3.27-2.45,23.7-3.27,25.33-3.27V1018.84c0-6.54-28.6,0-28.6-6.54l2.45-78.45c.82-11.44,5.72-16.34,17.16-16.34h85c31,0,88.26-1.64,109.51,2.45,11.44.82,16.34,5.71,16.34,17.16v190.42c0,4.9-6.54,3.26-8.17,3.26h-7.36c-9.8,0-55.57-3.26-48.22-2.45-11.43-.81-16.34-5.72-16.34-17.16v-89.9c0-4.08-13.08-2.45-13.08-2.45s-10.62-1.63-10.62,2.45v113.6c0,11.44,4.9,16.34,16.35,16.34h27c11.45,0,16.35,4.91,16.35,16.35v49c0,11.43-4.9,16.34-16.35,16.34h-27c-11.45,0-16.35,4.9-16.35,16.34v143s6.54,3.27,9,3.27c3.27,0,14.71-1.63,18-1.63V1269.73c0-11.44,4.9-16.34,16.34-16.34h40.87c11.44,0,16.34,4.9,16.34,16.34V1486.3l-3.27,6.54H1361c-61.29,0-120.13,0-166.71-3.27-11.44,0-16.35-4.9-16.35-16.34Zm53.94-423.33,3.27-3.27h-6.54Zm0,223.92c1.63,0,1.63-3.26,0-3.26S1230.2,1198.63,1231.84,1198.63Zm0,156.91a1.22,1.22,0,1,0,0-2.44A1.22,1.22,0,1,0,1231.84,1355.54Zm0-70.28h3.27l-3.27-6.54Zm0,75.19h1.63c3.27,0,8.18-1.64,8.18-4.91v-1.63Zm3.27-237.82c1.63,0,1.63-3.27,0-3.27S1233.47,1122.63,1235.11,1122.63Zm0,9.81c1.63,0,1.63-3.27,0-3.27S1233.47,1132.44,1235.11,1132.44Zm0,71.92a1.23,1.23,0,0,0,0-2.46A1.23,1.23,0,1,0,1235.11,1204.36Zm0,9.81c1.63,0,1.63-3.28,0-3.28S1233.47,1214.17,1235.11,1214.17Zm3.26-67.84c4.91-1.63,3.28-6.54,3.28-9v-6.54c-1.64,0-6.54,4.91-6.54,6.54v.82C1235.11,1141.43,1236.74,1143.06,1238.37,1146.33Zm0,8.18c1.64,0,1.64-3.28,0-3.28S1236.74,1154.51,1238.37,1154.51Zm0,117.68c0,1.63,3.28,1.63,3.28,0S1238.37,1270.55,1238.37,1272.19Zm0,188.78h3.28v-2.46Zm3.28-335.07c1.63,0,1.63-3.27,0-3.27S1240,1125.9,1241.65,1125.9Zm0,85c1.63,0,1.63-3.27,0-3.27S1240,1210.89,1241.65,1210.89Zm0,8.17c1.63,0,1.63-3.26,0-3.26S1240,1219.06,1241.65,1219.06Zm0,70.29a1.23,1.23,0,0,0,0-2.45A1.23,1.23,0,1,0,1241.65,1289.35Zm0,128.3c1.63,0,1.63-3.26,0-3.26S1240,1417.65,1241.65,1417.65Zm0-440.48c1.63,1.63,4.9-.82,3.26-2.46S1240,976.35,1241.65,977.17Zm0-9h9v-6.54Zm3.26,255.79c1.64,0,1.64-3.27,0-3.27S1243.28,1224,1244.91,1224Zm0,229.64c1.64,0,1.64-3.26,0-3.26S1243.28,1453.61,1244.91,1453.61Zm0-134a3.94,3.94,0,0,0,5.72,0C1252.27,1318,1243.28,1318,1244.91,1319.58Zm4.09-182.24h1.63l-2.45-9.8c-1.63,0-3.27,4.9-3.27,6.53C1244.91,1137.34,1248.18,1137.34,1249,1137.34Zm-4.09,125.86v3.27l22.07-3.27c-1.64,0-11.44-4.91-13.08-6.54a5,5,0,0,1,0-6.54C1248.18,1253.39,1244.91,1256.66,1244.91,1263.2Zm0,27.78c0,1.64,3.27,1.64,3.27,0S1244.91,1289.35,1244.91,1291Zm0,116.86h5.72l-2.45-3.26Zm3.27-39.22c.82,0,.82-3.27,0-3.27C1246.55,1365.35,1246.55,1368.62,1248.18,1368.62Zm15.53-8.17v-15.53c-1.63,1.63-13.08,4.9-15.53,9h7.36C1255.54,1358.81,1257.17,1360.45,1263.71,1360.45Zm-13.08-261.52c0,1.64,3.27,1.64,3.27,0S1250.63,1097.3,1250.63,1098.93Zm0,88.26h3.27v-3.26Zm0,110.33,3.27-3.27h-3.27ZM1253.9,1085c1.64,0,1.64-3.27,0-3.27S1252.27,1085,1253.9,1085Zm0-108.69c1.64,0,8.18,0,9.81-4.91,0-1.63-4.91-3.26-6.54-3.26C1253.9,968.18,1253.9,974.71,1253.9,976.35Zm0,246c0,1.64,3.27,1.64,3.27,0S1253.9,1220.7,1253.9,1222.33Zm0,100.53c0,1.63,3.27,1.63,3.27,0S1253.9,1321.22,1253.9,1322.86Zm3.27-67.83c1.63,0,1.63-3.28,0-3.28S1255.54,1255,1257.17,1255Zm3.27-313.82c1.64,0,1.64-3.27,0-3.27S1258.8,941.21,1260.44,941.21Zm0,386.55c1.64,0,1.64-3.27,0-3.27S1258.8,1327.76,1260.44,1327.76Zm0,136.48h9v-5.73C1267,1460.15,1262.08,1461,1260.44,1464.24Zm3.27-485.44a1.23,1.23,0,0,0,0-2.45A1.23,1.23,0,0,0,1263.71,978.8Zm0,28.6c1.63,0,1.63-3.27,0-3.27S1262.08,1007.4,1263.71,1007.4Zm0,69.47,5.72-3.28h-.82C1267,1073.59,1265.34,1073.59,1263.71,1076.87Zm3.27-64.57c1.63,1.64,4.09-1.63,2.45-3.26C1268.61,1007.4,1265.34,1010.67,1267,1012.3Zm2.45,319.55,3.27-2.46-5.72-3.27v1.64C1267,1329.39,1267,1331,1269.43,1331.85Zm0-390.64c1.64,0,1.64-3.27,0-3.27C1268.61,937.94,1268.61,941.21,1269.43,941.21Zm0,298.28c1.64,0,1.64-3.26,0-3.26C1268.61,1236.23,1268.61,1239.49,1269.43,1239.49Zm3.27-181.42v-3.27h-3.27Zm-3.27,151.19L1276,1206l-6.54-3.27Zm3.27-127.49c1.63,0,1.63-3.27,0-3.27S1271.07,1081.77,1272.7,1081.77Zm0,80.09c3.27,0,6.53-2.45,6.53-5.72h-6.53Zm8.17,132.39c0-1.63,0-7.35-4.9-9-1.64,0-3.27,4.09-3.27,5.72C1272.7,1294.25,1279.23,1294.25,1280.87,1294.25ZM1272.7,1398H1276v-12.26h-3.27Zm0,28.6,6.53-3.26h-6.53ZM1276,941.21c1.63,0,1.63-3.27,0-3.27S1274.33,941.21,1276,941.21Zm0,143.83c1.63,0,1.63-3.27,0-3.27S1274.33,1085,1276,1085Zm0,31.06a1.23,1.23,0,0,0,0-2.46A1.23,1.23,0,0,0,1276,1116.1Zm0,237c1.63,0,1.63-3.28,0-3.28S1274.33,1353.1,1276,1353.1Zm0-77.64c1.63,1.63,4.9-1.64,3.26-3.27S1274.33,1273.82,1276,1275.46Zm3.26-305.65c1.64,0,1.64-3.27,0-3.27S1277.6,969.81,1279.23,969.81Zm0,118.5c1.64,0,1.64-3.27,0-3.27S1277.6,1088.31,1279.23,1088.31Zm6.54,355.5c1.64,0,1.64-3.27,0-3.27S1284.14,1443.81,1285.77,1443.81Zm7.36-234.55c11.44,0,14.71-15.53,14.71-23.7v-1.63c-3.27,11.44-9.81,20.43-22.07,22.06C1289,1207.62,1290.68,1209.26,1293.13,1209.26Zm1.63-219c14.71-8.17,23.7-13.89,31.87-28.6-4.89,6.54-11.44,13.07-18.79,15.53l5.72-9h-5.72c-4.9,0-18.8,8.17-18.8,12.25h5.72Zm3.27,429.87v-1.64c0-2.45-3.27-4.08-6.53-4.08-.82,0-2.46,1.63-2.46,3.26Zm9.81-212.49c1.63,0,1.63-3.26,0-3.26S1306.2,1207.62,1307.84,1207.62Zm0,246c1.63,0,1.63-3.26,0-3.26S1306.2,1453.61,1307.84,1453.61Zm3.27-273.77c1.64,0,1.64-3.27,0-3.27S1309.47,1179.84,1311.11,1179.84Zm0,31.05c1.64,0,1.64-3.27,0-3.27S1309.47,1210.89,1311.11,1210.89Zm2.45,249.26c1.63,0,1.63-3.27,0-3.27C1312.75,1456.88,1312.75,1460.15,1313.56,1460.15Zm0-517.31c4.9,0,9.81,0,13.07-3.27h-13.07Zm3.27,233.73c1.63,0,1.63-3.27,0-3.27S1315.19,1176.57,1316.83,1176.57Zm3.27,265.6c1.64,0,1.64-3.27,0-3.27S1318.46,1442.17,1320.1,1442.17Zm0,6.54h6.53l-3.26-3.27Zm6.53-477.27c7.36,0,13.9-6.54,15.54-13.07-12.26,0-8.18,11.44-15.54,11.44Zm3.28,20.43c1.63,0,1.63-3.26,0-3.26S1328.27,991.87,1329.91,991.87Zm0,186.33c0,1.64,3.27,1.64,3.27,0S1329.91,1176.57,1329.91,1178.2Zm5.71,26.16a1.23,1.23,0,1,0,0-2.46A1.23,1.23,0,0,0,1335.62,1204.36Zm3.27,250.89h3.28c4.89,0,9.8-1.64,9.8-6.54v-3.27Zm3.28-512.41c1.63,1.63,4.89-1.63,3.26-3.27S1340.53,941.21,1342.17,942.84Zm6.53,3.27c1.64,0,1.64-3.27,0-3.27S1347.06,946.11,1348.7,946.11Zm3.27,95.61a1.22,1.22,0,1,0,0-2.44A1.22,1.22,0,1,0,1352,1041.72Zm0,27c1.64,0,1.64-3.27,0-3.27S1350.34,1068.7,1352,1068.7Zm3.27-124.23c.81,0,.81-3.26,0-3.26C1353.61,941.21,1353.61,944.47,1355.24,944.47Zm2.45,407c0-1.64,3.27-11.45,3.27-13.08l3.27-6.53c0-.82-1.63-5.73-3.27-5.73l-5.72,3.27v7.36S1352,1349.82,1357.69,1351.46Zm-2.45-380H1361l-3.27-6.54Zm0,83.36v4.91l2.45-13.08C1355.24,1048.27,1355.24,1051.53,1355.24,1054.8Zm0,368.58,2.45-3.27h-2.45Zm2.45-381.66a1.22,1.22,0,1,0,0-2.44A1.22,1.22,0,1,0,1357.69,1041.72Zm3.27,268.06v9.8c6.53-6.53,9.81-15.52,9.81-25.33C1361,1297.52,1361,1300.79,1361,1309.78Zm3.27-351.41h3.26l-3.26-2.46Zm0,85h3.26v-2.45Zm3.26-67c1.64,0,1.64-3.27,0-3.27S1365.86,976.35,1367.49,976.35Zm0,94.79c1.64,0,1.64-3.26,0-3.26S1365.86,1071.14,1367.49,1071.14Zm0,256.62c1.64,0,1.64-3.27,0-3.27S1365.86,1327.76,1367.49,1327.76Zm0-322c1.64,1.63,8.18,1.63,9.81,0C1378.12,1004.13,1365.86,1004.13,1367.49,1005.77Zm3.28,367.76c4.9-1.64,12.26-6.55,12.26-11.44s-12.26-4.91-15.54-4.91C1367.49,1363.72,1372.4,1367,1370.77,1373.53Zm-3.28,40.86c0,1.63,3.28,1.63,3.28,0S1367.49,1412.75,1367.49,1414.39Zm3.28-307.28c1.63,0,1.63-3.28,0-3.28S1369.13,1107.11,1370.77,1107.11Zm0,210.84c1.63,0,1.63-3.27,0-3.27S1369.13,1318,1370.77,1318Zm0-368.57v3.27l15.52-3.27c-1.63-3.27-6.53-6.54-10.62-6.54C1372.4,942.84,1370.77,946.11,1370.77,949.38Zm0,27.79c0,1.63,3.27,1.63,3.27,0C1374,976.35,1370.77,976.35,1370.77,977.17Zm0,84.17h6.53l-3.26-3.27Zm3.27-6.54c1.63,0,1.63-3.27,0-3.27S1372.4,1054.8,1374,1054.8Zm0,269.69c1.63,0,1.63-3.27,0-3.27S1372.4,1324.49,1374,1324.49Zm13.89-277.86V1031.1c-3.27,1.63-10.63,4.91-13.89,9.81h7.35C1381.39,1045,1372.4,1045,1387.93,1046.63ZM1377.3,983.7l2.46-3.27h-2.46Zm0,296.65V1282l5.73-3.27-3.27-3.26A4.87,4.87,0,0,0,1377.3,1280.35Zm2.46-271.31c0,1.63,3.27,1.63,3.27,0S1379.76,1007.4,1379.76,1009Zm3.27,441.31c1.63,0,1.63-3.28,0-3.28S1381.39,1450.35,1383,1450.35Zm3.26-436.41c1.64,0,1.64-3.27,0-3.27S1384.66,1013.94,1386.29,1013.94Z"/><path class="cls-1" d="M1175.24,2004.76c0-5.19,12.43-13.36,12.43-13.36l34.75-4.73c0-36.33,7.7-201.43,7.7-238.51,0-17.8-4.74-96.41-4.74-112.73h-38c-5.19,0-12.14-2.22-12.14-12.15v-57.1l3,1.76h56.36c119.4,0,215.24,1.49,332.42,3,5.19,0,19.84,10.77,16.87,21.61V1766.7c0,5.19-2.22,7.41-7.41,7.41h-46.26c-5.2,0-8.16-2.22-11.13-6.67,2.22-46.72-3.42-118.83-69.43-118.83H1334.5v131.9h43.2c28.17,0,25.21-52.38,25.21-66.46h42.27c5.2,0,7.42,2.22,7.42,7.41v189.86c0,5.18-2.22,7.41-7.42,7.41h-34.85c-5.19,0-8.16-2.23-10.39-6.67,1.49-17.06,4.46-62-30.4-62h-35v130.42c22.25,4.45,29.85,3.71,51.36,3.71,100.11,0,131.72-6.85,131.72-117.35a16.25,16.25,0,0,1,12.61-5.2h46.26c5.19,0,7.41,2.23,7.41,7.42,3,58.59,3,105.67,3,162.77,0,5.19,0,26.34-16.88,26.34h-379.6c-5.19,0-12.14-7-12.89-12.15.75.74-2.22-31.6-2.22-39v-2.22Zm57.56,17.42,5-2.16h-1.43C1235,2020,1234.23,2020,1232.8,2022.18Zm13-42.45c.71,0,.71-2.88,0-2.88C1244.31,1976.85,1244.31,1979.73,1245.75,1979.73Zm0-19.42v1.44l5-5h-1.44C1246.46,1956.71,1245.75,1958.15,1245.75,1960.31Zm7.19,3.59c0,1.44,2.88,1.44,2.88,0C1255.82,1963.18,1252.94,1963.18,1252.94,1963.9Zm0,12.23h2.88v-3.59Zm2.88-25.18c2.16,0,10.07-8.63,10.07-11.51C1265.89,1937.28,1252.94,1951,1255.82,1951Zm2.16,9.36a1.08,1.08,0,0,0,0-2.16C1257.25,1958.15,1257.25,1960.31,1258,1960.31Zm0-51.09h5.75c-1.44-2.88-2.88-2.88-4.31-2.88H1258Zm7.91,51.09c.72,0,.72-2.16,0-2.16A1.08,1.08,0,0,0,1265.89,1960.31Zm2.16-46.77c.72,0,.72-2.88,0-2.88C1266.61,1910.66,1266.61,1913.54,1268.05,1913.54Zm2.16,82.74c1.44,0,1.44-2.88,0-2.88S1268.77,1996.28,1270.21,1996.28Zm5-70.51c1.43,0,1.43-2.88,0-2.88C1274.52,1922.89,1274.52,1925.77,1275.25,1925.77Zm7.91,0c0,.72,2.88.72,2.88,0C1286,1924.33,1283.16,1924.33,1283.16,1925.77Zm5,18c1.44,0,1.44-2.87,0-2.87S1286.76,1943.75,1288.2,1943.75Zm0,49.65c1.44,0,1.44-2.88,0-2.88S1286.76,1993.4,1288.2,1993.4Zm2.88-185.62c.71,0,.71-2.17,0-2.17A1.09,1.09,0,0,0,1291.08,1807.78Zm0,129.5c2.15-2.15,2.15-3.59,2.15-5.75h-2.15Zm2.15,92.09a1.08,1.08,0,1,0,0-2.15A1.08,1.08,0,1,0,1293.23,2029.37Zm0-220.16c1.44,2.16,4.32-1.43,2.88-2.16C1294.67,1805.61,1291.79,1807.78,1293.23,1809.21Zm2.88,3.6c2.16-1.44,6.47-3.6,6.47-7.2v-1.43Zm2.16,169.79c1.43,0,1.43-2.87,0-2.87C1297.55,1979.73,1297.55,1982.6,1298.27,1982.6Zm0-92.8c1.43,1.44,4.31-.72,2.87-2.88C1299.7,1885.48,1297.55,1889.08,1298.27,1889.8Zm2.87,99.28c1.44-.71,1.44-4.31,0-5.75C1299.7,1982.6,1299.7,1990.52,1301.14,1989.08Zm1.44-150.37c1.44,0,1.44-2.87,0-2.87Zm33.82,189.22,4.32-2.15-2.16-3.6Zm17.27-12.23c.71,0,.71-2.88,0-2.88C1352.23,2012.82,1352.23,2015.7,1353.67,2015.7Zm0-197.85c.71,2.88,5,10.79,5,10.79h2.15V1815h-7.19Zm7.19,200.73c1.44,0,1.44-2.88,0-2.88C1360.15,2015.7,1360.15,2018.58,1360.86,2018.58Zm5-191.38a1.08,1.08,0,0,0,0-2.16C1365.18,1825,1365.18,1827.2,1365.9,1827.2Zm2.87,1.44a1.45,1.45,0,1,0,2.88,0C1371.65,1827.2,1368.77,1827.2,1368.77,1828.64Zm5,186.35c0,.71,2.16.71,2.16,0C1376,2012.82,1373.81,2012.82,1373.81,2015Zm4.32,3.59c1.44,0,1.44-2.88,0-2.88S1376.69,2018.58,1378.13,2018.58Zm2.87-200.73V1815h-2.87Zm-2.87,8.63H1381v-2.87Zm5-15.11c1.43,0,1.43-3.59,0-3.59C1382.45,1807.78,1382.45,1811.37,1383.17,1811.37Zm7.91,0c1.44,0,1.44-3.59,0-3.59S1389.64,1811.37,1391.08,1811.37Zm0,228.07c1.44,0,1.44-2.87,0-2.87S1389.64,2039.44,1391.08,2039.44Zm5-192.81a1.08,1.08,0,1,0,0-2.16A1.08,1.08,0,0,0,1396.12,1846.63Zm12.22,176.74c.64-.21,3.61-2.76,4.25-3.18l.85-.64H1413c-1.06,0-6.16.21-6.16,1.49h1.49Zm2.88-245.81c.73,0,.73-2.16,0-2.16S1410.51,1777.56,1411.22,1777.56Zm0,87.06a8.11,8.11,0,0,0,5-7.2v-.72Zm2.17-69.8c1.43,0,1.43-2.87,0-2.87S1412,1794.82,1413.39,1794.82Zm0,49.65c1.43,0,1.43-2.88,0-2.88S1412,1844.47,1413.39,1844.47Zm2.87,195.7c.72,0,.72-2.16,0-2.16A1.08,1.08,0,1,0,1416.26,2040.17Zm0-252.54c2.16-1.44,2.16-2.88,2.16-5h-2.16Zm7.19,45.33a1.08,1.08,0,1,0,0-2.16C1422.74,1830.8,1422.74,1833,1423.45,1833Zm2.88,7.19a4.37,4.37,0,0,0,0-5.75C1424.89,1833,1424.89,1841.59,1426.33,1840.15Zm0,42.45a1.08,1.08,0,0,0,0-2.16A1.08,1.08,0,0,0,1426.33,1882.6Zm0,154c2.16-1.44,5-4.32,5-7.2v-1.44Zm27.34-25.18c0,1.43,2.88,1.43,2.88,0S1453.67,2010,1453.67,2011.39Zm0,16.54h2.88c2.16,0,3.6,0,5-2.15l-2.88-3.6Zm7.92-12.23c.72,0,.72-2.88,0-2.88C1460.15,2012.82,1460.15,2015.7,1461.59,2015.7Zm2.16,1.44c0,1.44,2.88,1.44,2.88,0S1463.75,2015.7,1463.75,2017.14Zm5,5,2.88-2.16h-2.88Zm2.88,18a1.08,1.08,0,0,0,0-2.16A1.08,1.08,0,1,0,1471.66,2040.17Zm5-21.59c1.44,0,1.44-2.88,0-2.88S1475.26,2018.58,1476.69,2018.58Zm14.39,1.44H1494c-1.44-2.88-2.88-7.2-5-8.63-1.44,0-2.88,4.31-2.88,5.75C1486.05,2020,1490.37,2020,1491.08,2020Zm10.8-13.67,5-5.75c-5-1.44-1.43-5-1.43-10.08l1.43,1.44c1.44,0,5-3.59,5-5h-2.87c-6.48,0-16.56,10.79-20.15,15.82h13Zm-5-15.83c.72,0,.72-2.15,0-2.15A1.08,1.08,0,1,0,1496.84,1990.52Zm7.2-7.19,5-2.16h-.73A4.3,4.3,0,0,0,1504,1983.33Zm2.87,49.64h7.2c0-2.15,0-3.6-2.16-5Zm7.2-42.45a1.08,1.08,0,1,0,0-2.15C1513.39,1988.37,1513.39,1990.52,1514.11,1990.52Zm0,28.06c1.44,0,1.44-2.88,0-2.88C1513.39,2015.7,1513.39,2018.58,1514.11,2018.58Zm0-18h1.44c1.44,0,2.88,0,4.32-2.88Zm2.88,21.58c1.44,1.44,2.88-1.44,2.88-2.16C1518.43,2018.58,1515.55,2020.74,1517,2022.18Zm0-30.22h1.44c2.88,0,2.88-5,2.88-8.63v-2.16Zm2.88-15.11V1974C1518.43,1974,1518.43,1976.85,1519.87,1976.85Zm0,55.4v-2.88C1518.43,2029.37,1518.43,2032.25,1519.87,2032.25Zm1.44-66.91v2.16c3.59-3.6,3.59-8.63,7.91-10.79h-1.44C1524.18,1956.71,1521.31,1963.18,1521.31,1965.34Zm2.87-10.79c.72,0,.72-2.88,0-2.88C1522.74,1951.67,1522.74,1954.55,1524.18,1954.55Zm0,38.85c.72,0,.72-2.88,0-2.88C1522.74,1990.52,1522.74,1993.4,1524.18,1993.4Zm0-48.21h2.16c2.88,0,10.07-2.87,10.07-2.87v-5Zm5,25.91a1.08,1.08,0,0,0,0-2.16A1.08,1.08,0,1,0,1529.22,1971.1Zm6.48-18c2.15,0,3.59-3.6,3.59-7.19v-.73l-10.07,5.76C1531.38,1951.67,1532.82,1953.11,1535.7,1953.11Zm-4.32,20.87c1.44,0,1.44-2.88,0-2.88C1530.66,1971.1,1530.66,1974,1531.38,1974Zm2.88,2.87c1.44,0,1.44-2.87,0-2.87S1532.82,1976.85,1534.26,1976.85Zm0,58.28c1.44,0,1.44-2.88,0-2.88S1532.82,2035.13,1534.26,2035.13Zm2.15-271.24c1.44,0,1.44-2.88,0-2.88C1535.7,1761,1535.7,1763.89,1536.41,1763.89Zm0-48.2c2.88-1.45,5.76-4.33,5.76-7.2v-1.44Zm5.76,315.13,5-10.8-2.87-2.88c-3.6,2.88-5,3.6-5,8.64C1539.29,2027.93,1539.29,2029.37,1542.17,2030.82Zm0-28.07h2.16v-2.15Zm2.16-87a1.08,1.08,0,0,0,0-2.16A1.08,1.08,0,0,0,1544.33,1915.7Zm2.87,61.15c.73,0,.73-2.87,0-2.87C1545.76,1974,1545.76,1976.85,1547.2,1976.85Zm0,30.94c.73,0,.73-3.6,0-3.6C1545.76,2004.19,1545.76,2007.79,1547.2,2007.79Zm2.16-8.63c1.44,0,1.44-2.88,0-2.88S1547.93,1999.16,1549.36,1999.16Zm0,24.46c1.44,0,1.44-2.88,0-2.88S1547.93,2023.62,1549.36,2023.62Zm5-95v-2.16c0-2.16-2.16-5-5-5.76v2.16C1549.36,1925.77,1550.8,1928.65,1554.4,1928.65Zm1.44,43.89h.72l-2.16-8.64-5,6.47C1552.24,1971.1,1553.68,1972.54,1555.84,1972.54Zm-3.6-238.87c1.44,0,1.44-2.88,0-2.88S1550.8,1733.67,1552.24,1733.67Zm0,219.44h2.16V1951h-2.16Zm2.16-12.23a1.08,1.08,0,0,0,0-2.16C1553.68,1938.72,1553.68,1940.88,1554.4,1940.88Zm2.16,98.56c1.44-2.87,1.44-12.22,0-13.66C1555.84,2022.18,1555.84,2040.17,1556.56,2039.44Zm-306.63-404.22c1.58,0,1.58-4,0-4C1249.13,1631.26,1249.13,1635.22,1249.93,1635.22Zm0,71.93c1.58,0,1.58-3.18,0-3.18C1249.13,1704,1249.13,1707.15,1249.93,1707.15Zm8.71-68v-9.51l-5.55,6.34C1254.68,1639.18,1255.47,1639.18,1258.64,1639.18Zm-3.17,17.44a1.19,1.19,0,0,0,0-2.38C1254.68,1654.24,1254.68,1656.62,1255.47,1656.62Zm0,70.34c1.58,0,1.58-4,0-4C1254.68,1723,1254.68,1727,1255.47,1727Zm3.17-106.8h3.17V1613C1258.64,1615.41,1258.64,1617,1258.64,1620.16Zm6.34,4.76c1.58,0,1.58-3.17,0-3.17S1263.39,1624.92,1265,1624.92Zm5.55,25.36a1.19,1.19,0,0,0,0-2.38A1.19,1.19,0,1,0,1270.53,1650.28Zm0,79a1.18,1.18,0,1,0,0-2.37A1.18,1.18,0,1,0,1270.53,1729.33Zm3.17-6.33a1.19,1.19,0,1,0,0-2.38A1.19,1.19,0,1,0,1273.7,1723Zm6.18-68.76c6.33,0,11.09-11.88,12.67-18.23H1291C1287.8,1636,1279.88,1650.28,1279.88,1654.24Zm-8.39,40.55c2.37-1.58,5.54-1.58,8.71-1.58v-21.4a9.28,9.28,0,0,1-8.71,7.13Zm4.59,20.28c3.17,0,5.54-.8,5.54-4.76v-1.58Zm3.17,15.85,5.54-6.34-8.71,4Zm11.56-109v-3.17h-2.38Zm0,42c-.8,0-.8-4,0-4C1292.39,1660,1292.39,1663.92,1290.81,1663.92Zm3.16-37.25c1.59,0,1.59-3.17,0-3.17S1292.39,1626.67,1294,1626.67Zm-6,87.6c.79,0,.79-4,0-4C1286.38,1710.31,1286.38,1714.27,1288,1714.27Zm9.18-73.34c.79,2.38,4-1.58,2.38-3.16C1297.93,1637,1295.56,1639.35,1297.14,1640.93Zm-9.18,87.61h.79c4.76,0,8.72-4,10.31-7.13h-5.55v-6.34Zm11.56-63c1.59,0,1.59-3.17,0-3.17S1297.93,1665.5,1299.52,1665.5Zm-6,38.47c.79,0,.79-3.17,0-3.17C1291.92,1700.8,1291.92,1704,1293.51,1704Zm11.56-64.62a1.19,1.19,0,0,0,0-2.38A1.19,1.19,0,1,0,1305.07,1639.35Zm3.17,4c1.59,0,1.59-4,0-4S1306.65,1643.31,1308.24,1643.31Zm-9.18,86a1.19,1.19,0,1,0,0-2.37A1.19,1.19,0,1,0,1299.06,1729.33Zm0-23h2.38v-4Zm11.56-98.7c1.58,0,1.58-3.17,0-3.17C1309.83,1604.48,1309.83,1607.65,1310.62,1607.65Zm0,57.85c1.58,0,1.58-3.17,0-3.17C1309.83,1662.33,1309.83,1665.5,1310.62,1665.5Zm3.17-53.09c1.58,0,1.58-4,0-4S1312.2,1612.41,1313.79,1612.41Zm0,46.75c1.58,0,1.58-3.17,0-3.17S1312.2,1659.16,1313.79,1659.16ZM1307,1700.8c1.59,0,1.59-3.16,0-3.16C1306.19,1697.64,1306.19,1700.8,1307,1700.8Zm12.35-86.81c1.59,0,1.59-3.17,0-3.17S1317.75,1614,1319.33,1614ZM1238,2040.31h96.68c-1.58-7.29-15.85,2.81-19.82-7.29l-6,1.56c-1.59-1.12-2.71,1-5.09,1-3.17,0-7.13-4.26-8.72-2.57l-13.77,3.69-4.12-3.25-13.77,2.13c-8.72,0,3.93.23-5.58.23l-13.77.45C1240,2040.2,1234.79,2032.45,1238,2040.31Zm126,.16c2.37,0,12.67-1.58,13.47-1.58,1.58,0,3.16-.05,3.16-2.43H1364Zm25.36,17.27a1.19,1.19,0,0,0,0-2.37A1.19,1.19,0,1,0,1389.34,2057.74Zm7.86-17.27,31.76-1.58c-.79-6.34-13.48-1.59-13.48-1.59v-4.75C1409.15,2037.3,1402.75,2035.72,1397.2,2040.47Z"/><path class="cls-1" d="M168.6,1759.68S16.83,1746.45,2.94,1725.74s23.8-28.06,61.48-12.48S168.6,1759.68,168.6,1759.68Z"/><path class="cls-1" d="M169.54,1893.61s-144.83,34.48-156.68,54.46,29.78,19.7,60.49,5.46S169.54,1893.61,169.54,1893.61Z"/><path class="cls-1" d="M155,1826.67s-120.74-18.81-136.75-2,11.27,31.62,44.37,24.6S155,1826.67,155,1826.67Z"/><path class="cls-1" d="M1087.53,171.74S1101,17.14,1122.09,3s28.59,24.24,12.72,62.62S1087.53,171.74,1087.53,171.74Z"/><path class="cls-1" d="M951.11,172.7S916,25.17,895.63,13.1s-20.06,30.34-5.57,61.62S951.11,172.7,951.11,172.7Z"/><path class="cls-1" d="M1019.29,157.92s19.16-123,2-139.3S989.1,30.1,996.25,63.82,1019.29,157.92,1019.29,157.92Z"/><path class="cls-1" d="M1429.69,2610.9s46.81,2.44,77.81-29.1c26.49-27,55.07-120.71,50.69-192.51-1-15.9,23.62-24.87,23.62-11.75,0,47.63-16,176.58-62.76,214.3-53.25,43-90,27.13-90,27.13"/><path class="cls-1" d="M635.32,2587.41V2117.56c0-32.95-48.9-28.7-48.9-34v-80.79c0-14.89,6.38-21.26,21.26-21.26h186C960.48,1980.82,933,2137.76,933,2370.55c0,250.87,18.07,375.24-143.5,375.24H607.68c-14.88,0-21.26-6.38-21.26-21.26v-84C620.44,2634.17,635.32,2625.67,635.32,2587.41Zm-17,132.87c0-17,17-28.7,17-40.39v-5.32c-11.69,9.57-19.13,28.7-23.38,41.46C611.94,2718.15,616.19,2720.28,618.31,2720.28Zm17,0c0,1.06,3.19,1.06,3.19,0A1.6,1.6,0,1,0,635.32,2720.28Zm19.14-26.57h10.62c0-2.13-1.06-4.26-3.18-4.26S654.46,2691.58,654.46,2693.71Zm10.62-397.57a1.6,1.6,0,1,0,0-3.19C664,2293,664,2296.14,665.08,2296.14Zm0,53.15c2.13,0,2.13-4.25,0-4.25C664,2345,664,2349.29,665.08,2349.29Zm0,26.58c2.13,0,2.13-4.26,0-4.26C664,2371.61,664,2375.87,665.08,2375.87Zm0-43.58c2.13,2.12,6.38-2.13,4.26-4.26C667.21,2327,664,2330.16,665.08,2332.29Zm4.26,19.13,7.44-4.25h-2.13C672.53,2347.17,671.46,2347.17,669.34,2351.42Zm7.44-13.82a1.6,1.6,0,0,0,0-3.19A1.6,1.6,0,1,0,676.78,2337.6Zm0,323.15a1.6,1.6,0,0,0,0-3.19C675.72,2657.56,675.72,2660.75,676.78,2660.75ZM681,2375.87c1.06,0,1.06-4.26,0-4.26C678.9,2371.61,678.9,2375.87,681,2375.87Zm0,68c1.06,0,1.06-4.25,0-4.25C678.9,2439.65,678.9,2443.9,681,2443.9Zm3.19,209.41a1.6,1.6,0,1,0,0-3.19A1.6,1.6,0,1,0,684.22,2653.31Zm0-207.28c4.25-2.13,4.25-4.26,4.25-6.38v-1.06Zm4.25-70.16c1.07,0,1.07-4.26,0-4.26C686.35,2371.61,686.35,2375.87,688.47,2375.87Zm3.19-22.32c2.13,0,2.13-4.26,0-4.26S689.54,2353.55,691.66,2353.55ZM692.72,2682c1.07,0,1.07-4.25,0-4.25C690.6,2677.76,690.6,2682,692.72,2682Zm0,39.33c1.07,0,1.07-3.19,0-3.19A1.6,1.6,0,0,0,692.72,2721.34Zm3.19-87.17a1.59,1.59,0,1,0,0-3.18A1.59,1.59,0,1,0,695.91,2634.17Zm4.25,50c2.13,0,2.13-4.25,0-4.25S698,2684.14,700.16,2684.14ZM707.6,2699c2.13,0,2.13-4.25,0-4.25S705.48,2699,707.6,2699Zm3.19,2.13c2.13,2.12,6.38-2.13,4.26-4.26S709.73,2699,710.79,2701.15Zm4.26-62.72c2.12,0,2.12-4.26,0-4.26S712.92,2638.43,715.05,2638.43Zm0,53.15c2.12,0,2.12-4.25,0-4.25S712.92,2691.58,715.05,2691.58Zm4.25-48.9c1.06,0,1.06-4.25,0-4.25C717.17,2638.43,717.17,2642.68,719.3,2642.68Zm3.19,3.19a1.6,1.6,0,0,0,0-3.19A1.6,1.6,0,1,0,722.49,2645.87Zm4.25-243.43c2.13,0,2.13-4.25,0-4.25S724.61,2402.44,726.74,2402.44ZM729.93,2631c2.13,0,2.13-4.26,0-4.26C728.87,2626.73,728.87,2631,729.93,2631Zm4.25,5.31a1.6,1.6,0,1,0,0-3.19A1.6,1.6,0,0,0,734.18,2636.3Zm7.44-559.13a1.6,1.6,0,1,0,0-3.19A1.6,1.6,0,0,0,741.62,2077.17ZM746.94,2716c4.25,0,7.44-4.26,9.56-7.44-2.12-4.26-3.19-4.26-5.31-4.26-4.25,0-7.44,4.26-9.57,7.44C743.75,2716,745.87,2716,746.94,2716Zm-1.07-685.64a1.6,1.6,0,1,0,3.19,0A1.6,1.6,0,0,0,745.87,2030.39Zm7.44-19.13c1.07,0,1.07-4.25,0-4.25C751.19,2007,751.19,2011.26,753.31,2011.26Zm3.19,102v493.23c0,12.75,14.89,34,28.7,34,19.14,0,36.15-21.26,36.15-38.26V2135.63c0-20.2-11.7-44.64-34-44.64C775.64,2091,756.5,2096.3,756.5,2113.31Zm13.82,607c5.32,0,5.32-8.51,5.32-11.69v-4.26l-14.88,7.44C762.88,2716,766.07,2720.28,770.32,2720.28Zm-6.38-672.88c2.13,0,2.13-4.25,0-4.25C762.88,2043.15,762.88,2047.4,763.94,2047.4Zm0,617.61c2.13,0,2.13-4.26,0-4.26C762.88,2660.75,762.88,2665,763.94,2665Zm0-627.18h2.13c2.13,0,4.25,0,5.32-4.25l-3.19-3.19Zm15.95,659.06c1.06,2.13,5.31-2.12,3.19-3.18A2.25,2.25,0,1,0,779.89,2696.89Zm3.19-28.7a1.59,1.59,0,0,0,0-3.18A1.59,1.59,0,1,0,783.08,2668.19ZM798,2710.71v-6.38H787.33C788.39,2708.59,794.77,2710.71,798,2710.71Zm0-650.55c2.13,2.12,6.38-1.07,4.25-3.19S796.9,2059.09,798,2060.16ZM828.79,2699c2.12,0,2.12-4.25,0-4.25S826.66,2699,828.79,2699Zm9.56,17c7.45,0,17-5.32,17-12.76v-6.38c-6.38,2.13-13.82,7.44-19.13,11.7-2.13-4.26-4.25-4.26-5.32-4.26h-2.12C830.91,2708.59,832,2716,838.35,2716Zm5.32-17c2.13,0,2.13-4.25,0-4.25S841.54,2699,843.67,2699Zm4.25-9.57,3.19-7.44h-3.19Zm3.19-511.3c2.13,0,2.13-4.25,0-4.25S849,2178.15,851.11,2178.15Zm4.25-161.58a1.59,1.59,0,1,0,0-3.18A1.59,1.59,0,0,0,855.36,2016.57Zm0,431.58c2.13,0,2.13-4.25,0-4.25S853.24,2448.15,855.36,2448.15Zm3.19,265.75a1.6,1.6,0,1,0,0-3.19C857.49,2710.71,857.49,2713.9,858.55,2713.9Zm4.25-102.05a1.59,1.59,0,1,0,0-3.18A1.59,1.59,0,1,0,862.8,2611.85ZM866,2028.27c2.13,0,2.13-4.26,0-4.26C864.93,2024,864.93,2028.27,866,2028.27Zm0,7.44a1.6,1.6,0,1,0,0-3.19C864.93,2032.52,864.93,2035.71,866,2035.71Zm0,362.48a1.6,1.6,0,1,0,0-3.19C864.93,2395,864.93,2398.19,866,2398.19Zm0-321,4.25-5.32C866,2074,866,2076.1,866,2077.17Zm0,327.4c0,1.06,4.25,1.06,4.25,0C870.24,2402.44,866,2402.44,866,2404.57Zm2.13,275.32a1.6,1.6,0,0,0,0-3.19C867.06,2676.7,867.06,2679.89,868.12,2679.89Zm0-87.17v2.13l4.25-7.44C868.12,2589.53,868.12,2591.66,868.12,2592.72Zm2.12-571.89c2.13,0,2.13-4.26,0-4.26S868.12,2020.83,870.24,2020.83Zm0,608a1.6,1.6,0,1,0,0-3.19A1.6,1.6,0,0,0,870.24,2628.86Zm0,55.28c2.13,0,2.13-4.25,0-4.25S868.12,2684.14,870.24,2684.14ZM872.37,2040c2.13,0,2.13-4.25,0-4.25S870.24,2040,872.37,2040Zm11.69,438c1.07,0,1.07-4.26,0-4.26C881.94,2473.66,881.94,2477.92,884.06,2477.92Zm1.07-136.07c2.12,0,2.12-4.25,0-4.25S883,2341.85,885.13,2341.85Zm0,62.72c0,1.06,4.25,1.06,4.25,0C889.38,2402.44,885.13,2402.44,885.13,2404.57Zm2.12,46.77a1.6,1.6,0,1,0,0-3.19A1.6,1.6,0,0,0,887.25,2451.34Zm4.25,172.21c2.13,0,2.13-4.26,0-4.26S889.38,2623.55,891.5,2623.55Zm1.07,51,4.25-4.25h-4.25Zm4.25-11.69a1.6,1.6,0,1,0,0-3.19A1.6,1.6,0,1,0,896.82,2662.88ZM899,2631c2.12,0,2.12-4.26,0-4.26S896.82,2631,899,2631Zm3.19,11.69c2.12,0,2.12-4.25,0-4.25C901.07,2638.43,901.07,2642.68,902.14,2642.68Zm0,8.51c4.25-1.07,4.25-3.19,4.25-5.32v-2.13Zm15.94-61.66v-6.37H906.39C908.51,2587.41,913.83,2589.53,918.08,2589.53Zm-7.44-491.1c1.06,2.12,5.31,2.12,7.44,0C919.14,2096.3,908.51,2096.3,910.64,2098.43Zm7.44,280.63c1.06,0,1.06-3.19,0-3.19A1.6,1.6,0,1,0,918.08,2379.06Zm3.19,91.41c2.12,0,2.12-4.25,0-4.25S919.14,2470.47,921.27,2470.47Zm4.25,7.45c2.13,0,2.13-4.26,0-4.26S923.39,2477.92,925.52,2477.92Zm3.19-340.16a1.6,1.6,0,1,0,0-3.19C927.65,2134.57,927.65,2137.76,928.71,2137.76Zm0,236c2.13,2.13,6.38-2.13,4.25-3.19C930.84,2368.43,927.65,2371.61,928.71,2373.74Z"/><path class="cls-1" d="M1231.78,2125.83l4.09,2a11.55,11.55,0,0,1,6.82-2c28,.68,68.17,17,79.08,22.49,13,6.82,21.13,22.5,33.4,29.32,11.59,0,21.13,27.26,33.4,36.81,2,2,23.86,27.26,23.86,43.63l-3.41,4.09v4.77a19.92,19.92,0,0,1-1.36,6.13l.68.68a8.68,8.68,0,0,1,4.09-.68c19.09,0,21.81,72.26,21.81,92.71v22.5c0,4.09-2.72,9.54-6.13,13.63,0,2.05-.68,3.41-.68,6.14,1.36,0,2.72,2,2.72,3.41a3.74,3.74,0,0,1-2,3.4v2.73c0,8.18-1.37,15-10.91,46.36v-.69c-7.49,21.14-9.54,32.72-13,34.77-31.36,49.08-82.48,104.3-184,104.3-124.75,0-200.42-95.44-200.42-168.38l1.36-2c-9.54-17-8.86-42.95-8.86-64.76V2314c15.68-108.38,104.3-188.14,197-188.14Zm-147.92,125.43v-3.41c-2.73,0-6.14,0-6.14,3.41Zm6.13,33.4v-2.73h-3.41Zm81.21-45.33c0,1.73-1.72,2.88-2.87,4.6-32.21,29.34-56.95,67.88-56.95,116.2,0,12.08,4,28.18,8.06,40.84h-.58c3.45,12.65,6.33,23,6.33,32.78v.58c4,3.45-1.73,6.33,6.33,14.38,11.5,24.16,44.86,46.59,89.73,46.59,45.44,0,62.12-9.2,73-18.4l-1.15.57,16.68-22.43-.57.57,3.45-5.17c9.2-10.36,7.48-9.78,10.35-13.23l-5.17-1.73c2.3-3.45,2.87-6.9,6.32-9.78a25.45,25.45,0,0,0-.57-2.88s5.17-15,5.17-20.13c0-4,6.33-19.56,6.33-21.85v-16.69c0-39.69-10.93-73.63-33.93-103.54h.57l-2.3-2.87h-2.88c-5.75-3.45-18.4-13.81-18.4-13.81,0-1.15-.58-1.15-.58-1.72-.57.57-1.15.57-2.3.57-6.33,0-6.33-4.6-13.8-6.32a6.3,6.3,0,0,1-3.46.57,49.82,49.82,0,0,1-18.4-3.45c-6.33-1.15-14.39-3.45-19.56-3.45-8.63,0-17.83,0-24.16,6.9-1.73,2.3-4.6,2.3-5.75,2.3Zm-75.75,25.56c0,2.05.68,3.41,2.72,3.41,1.36,0,2-1.36,2-3.41,0-1.36-.69-3.41-2-3.41C1096.13,2261.48,1095.45,2263.53,1095.45,2264.89Zm12.27,264.5c3.41,0,4.77-4.09,10.22-4.09V2511C1115.21,2517.8,1107.72,2523.93,1107.72,2529.39Zm6.13-330.62a2,2,0,0,0,4.09,0c0-2.05-.68-3.41-2-3.41S1113.85,2196.72,1113.85,2198.77Zm10.91-7.5-2.73-3.41-2.72,3.41Zm-4.09,339.48c1.36,0,1.36-2.73,0-2.73S1119.31,2530.75,1120.67,2530.75Zm0,39.54c1.36,0,1.36-2.73,0-2.73S1119.31,2570.29,1120.67,2570.29Zm1.36-332c0,2,.68,2.72,1.36,2.72,1.37,0,1.37-.68,1.37-2.72,0-1.37,0-2.73-1.37-2.73C1122.71,2235.58,1122,2236.94,1122,2238.31Zm0,265.17c4.09,0,11.59,0,14.32-5.45-1.37-1.36-6.82-2.73-8.18-2.73C1123.39,2495.3,1122,2499.39,1122,2503.48Zm1.36,41.59h6.14c0-2.73-4.77-6.14-6.14-7.5Zm2.73,21.13,2.05-2.73-4.78-2.72v1.36C1123.39,2563.47,1123.39,2564.83,1126.12,2566.2Zm0-32.72c1.37,0,1.37-2.73,0-2.73S1124.76,2533.48,1126.12,2533.48Zm-.68-325.85c0,1.36.68,3.41,2.73,3.41,1.36,0,1.36-2.05,1.36-3.41,0-2,0-3.41-1.36-3.41C1126.12,2204.22,1125.44,2205.59,1125.44,2207.63Zm.68,347V2556c2.05-1.36,4.77-4.09,4.77-6.81v-1.37C1128.17,2549.16,1126.12,2551.88,1126.12,2554.61Zm5.45-355.84c0,1.36.69,2,2.73,2,.68,0,1.37-.68,1.37-2,0-2.05-.69-3.41-1.37-3.41C1132.26,2195.36,1131.57,2196.72,1131.57,2198.77Zm7.5,362c1.37,0,1.37-2.73,0-2.73S1137.71,2560.75,1139.07,2560.75Zm2.73-38.86c4.77-4.09,8.86-1.36,10.23-8.18h-2.73Zm2.73,13c4.77-1.36.68-6.82.68-9.54,5.45,0,9.54,4.09,9.54-4.77v-1.37c-1.36,1.37-9.54,3.41-10.22,4.77-1.37,0-2.73,2.73-2.73,2.73C1141.8,2528,1143.16,2533.48,1144.53,2534.84Zm-1.37-360.61c0,2,.69,3.41,2,3.41s2.73-1.37,2.73-3.41c0-.68-1.37-2.73-2.73-2.73S1143.16,2173.55,1143.16,2174.23Zm3.41,338.12c1.37,0,1.37-2.73,0-2.73S1145.21,2512.35,1146.57,2512.35Zm0,26.58c1.37,0,1.37-2.73,0-2.73S1145.21,2538.93,1146.57,2538.93Zm5.46,18.41c1.36,0,1.36-2.73,0-2.73S1150.66,2557.34,1152,2557.34Zm2-399.47,3.41-3.41h-6.13Zm8.86,398.1v-8.18l-5.45,5.46C1158.84,2556,1160.2,2556,1162.93,2556Zm-5.45,10.23h2.72v-2.73h-2.72Zm6.13-25.9H1165c1.36,0,6.81-4.1,8.18-5.46l-5.45-5.45-7.51,8.18C1161.57,2540.3,1162.93,2540.3,1163.61,2540.3Zm-2.72-362c0,1.36.68,3.41,2,3.41,2,0,2-2.05,2-3.41,0-2.05,0-4.09-2-4.09C1161.57,2174.23,1160.89,2176.27,1160.89,2178.32Zm2,25.9c2,0,2-.68,2-1.36,0-1.37,0-2.05-2-2.05a1.81,1.81,0,0,0-2,2.05C1160.89,2203.54,1161.57,2204.22,1162.93,2204.22Zm0,366.07c.68,0,.68-2.73,0-2.73C1161.57,2567.56,1161.57,2570.29,1162.93,2570.29Zm10.23-45c1.36,0,1.36-2.73,0-2.73S1171.79,2525.3,1173.16,2525.3Zm2.73,56.58v-2.73C1173.16,2579.15,1170.43,2580.52,1175.89,2581.88Zm0-39.54h2.72l-2.72-2Zm54.53-394.7v-2.72l-2.73,2.72Zm-2.73,13h2.73v-2.72h-2.73Zm12.27-13,8.86-9.54h-3.4c-2.73,0-5.46,3.41-8.86,6.82Zm5.46,43.63c0,2.05.68,3.41,1.36,3.41,1.36,0,2-1.36,2-3.41,0-1.36-.68-2.73-2-2.73C1246.1,2188.54,1245.42,2189.91,1245.42,2191.27Zm38.17,12.95c3.41,0,3.41-3.41,0-5.45Zm67.49,60.67c1.36,0,2.73-.68,2.73-1.36,0-1.36-1.37-2.05-2.73-2.05a1.81,1.81,0,0,0-2,2.05C1349,2264.21,1349.71,2264.89,1351.08,2264.89Zm6.13-10.22,6.14-6.82h-3.41Zm2,64.08h3.41v-3.41h-3.41Zm18.41-83.85c-3.41,0-3.41,0-3.41,3.41,0,.68,0,1.36.68,1.36,1.36,0,4.09-2.73,4.09-4.09A2.37,2.37,0,0,0,1377.67,2234.9Zm15,197c.68,0,2-1.37,2-3.41,0-1.37-1.37-3.41-2-3.41-1.36,0-2.73,2-2.73,3.41C1389.93,2430.54,1391.3,2431.91,1392.66,2431.91Zm15-116.57c2.72,3.41,5.45,9.54,8.18,9.54,0-2.72-2.73-6.13-5.46-9.54Z"/><path class="cls-1" d="M236.08,2524.25s69.65,76.79,227.39,17c0,0-138,270.77,80.08,340.82,173.38,55.68,422.55,40.7,474-96.95,27.73-74.14,14.54-76.89,14.54-76.89s62.1,29.18,182.38,21.48c14.63-.93,22.59-12.63,1-10.77-132.38,11.42-200.47-36-200.47-36s14.46,6.86,1.46,58.45c-14.29,56.74-63.94,156.19-249.14,159.46-196.3,3.48-254.27-49.26-277.11-70.95-111.33-105.75,6.09-302.25-3.46-309.5s-59.76,24.7-108.83,28.75c-37.79,3.12-83.09-6.19-127.39-41.5C229.32,2490.67,227.81,2518.16,236.08,2524.25Z"/></g></g></svg>